<svg width="100" height="100" viewBox="0 0 100 100" fill="none" xmlns="http://www.w3.org/2000/svg">
<path d="M92.1675 77.8841C92.4005 77.5296 94.227 77.4626 94.6515 77.4631C95.8035 77.4636 95.787 77.4726 95.9325 77.4496C96.1535 77.4141 96.3835 77.3526 96.5765 77.2556C97.4095 76.8366 96.9645 75.5776 96.1465 75.4946C95.805 75.4601 95.522 75.1961 95.426 74.8741C95.337 74.5761 95.226 74.3511 95.0815 74.1741C94.8245 73.8581 94.417 73.7146 94.035 73.7286C93.8818 73.7284 93.7295 73.751 93.583 73.7956C93.4697 73.8253 93.3493 73.8097 93.2474 73.7521C93.1454 73.6945 93.07 73.5995 93.037 73.4871C92.962 73.2311 92.867 72.9786 92.721 72.8206C92.52 72.6031 92.41 72.6131 92.263 72.5071C91.9395 72.2736 92.3385 72.0356 92.728 72.1101C93.1045 72.1611 93.459 72.4231 93.6345 72.6876C93.719 72.8146 93.678 72.7526 93.722 72.8126C93.7505 72.8511 93.753 72.8411 93.76 72.8381C93.7685 72.8291 93.7725 72.8206 93.7725 72.8206C94.325 72.7306 95.047 72.8796 95.557 73.3176C95.957 73.6611 96.1995 74.1526 96.319 74.5571C98.12 74.8816 98.6375 77.3026 96.9835 78.1281C96.655 78.2921 96.364 78.3531 96.018 78.4106C95.9495 78.4366 91.7495 78.5236 92.169 77.8846L92.1675 77.8841Z" fill="#EA3934"/>
<path d="M7.83248 77.8841C7.59948 77.5296 5.77298 77.4626 5.34848 77.4631C4.19648 77.4636 4.21298 77.4726 4.06748 77.4496C3.84648 77.4141 3.61648 77.3526 3.42348 77.2556C2.59048 76.8366 3.03548 75.5776 3.85348 75.4946C4.19498 75.4601 4.47798 75.1961 4.57398 74.8741C4.66298 74.5761 4.77398 74.3511 4.91848 74.1741C5.17548 73.8581 5.58298 73.7146 5.96498 73.7286C6.15998 73.7356 6.20598 73.7401 6.43098 73.7991C6.54067 73.8281 6.65737 73.8131 6.75613 73.7572C6.85489 73.7014 6.92788 73.6091 6.95948 73.5001C7.03548 73.2396 7.13048 72.9816 7.27948 72.8206C7.48048 72.6031 7.59048 72.6131 7.73748 72.5071C8.06098 72.2736 7.66198 72.0356 7.27248 72.1101C6.89598 72.1611 6.54148 72.4231 6.36598 72.6876C6.28148 72.8146 6.32248 72.7526 6.27848 72.8126C6.24998 72.8511 6.24748 72.8411 6.24048 72.8381C6.23198 72.8291 6.22798 72.8206 6.22798 72.8206C5.67548 72.7306 4.95348 72.8796 4.44348 73.3176C4.04348 73.6611 3.80098 74.1526 3.68148 74.5571C1.88048 74.8816 1.36298 77.3026 3.01698 78.1281C3.34548 78.2921 3.63648 78.3531 3.98248 78.4106C4.05098 78.4366 8.25098 78.5236 7.83148 77.8846L7.83248 77.8841Z" fill="#EA3934"/>
<path d="M68.843 27.6641C67.2545 27.3526 52.164 17.3951 49.803 15.8721C49.578 15.7271 49.4954 15.4666 49.5234 15.1951C49.5094 12.3911 49.5184 12.4216 49.5984 12.3026C49.7099 12.1056 49.8719 12.0056 50.0349 11.9816C50.3139 11.9406 50.4485 12.0516 50.645 12.1761C50.645 12.1761 69.812 24.5161 70.3665 24.8786C70.6005 25.0316 70.7924 25.1696 70.8034 25.4201C70.8134 25.6576 70.651 25.8301 70.4935 26.0361C70.078 26.5761 69.6644 27.0926 69.3844 27.3861C69.1119 27.6711 68.9059 27.8006 68.9649 27.5511C69.0444 27.2161 69.499 26.4576 69.8255 25.9311C70.0215 25.6146 70.104 25.5206 70.012 25.4791C69.7985 25.3831 50.5319 13.2371 50.4819 13.2051V15.1696C51.7759 16.0046 67.5175 26.3736 67.997 26.7291C68.2345 26.9051 68.4715 27.0836 68.662 27.2516C68.958 27.5126 69.095 27.7131 68.843 27.6641Z" fill="#3A307F"/>
<path d="M69.682 31.709C70.481 31.8155 74.8565 31.946 74.907 31.947C79.68 32.0265 79.58 31.943 79.5635 31.993L79.711 77.5755C78.5275 77.611 75.6175 77.6825 74.943 77.8845C73.116 78.4315 88.7885 78.423 90.708 78.426C90.899 78.398 91.486 78.555 91.733 78.0855C91.858 77.862 91.758 78.054 91.813 36.107C91.813 36.0005 91.8155 35.8895 91.7865 35.8C91.744 35.633 91.6 35.4665 91.4325 35.393C91.2815 35.3085 91.0315 35.331 90.8415 35.3295C90.8415 35.3295 82.288 35.467 80.4965 35.5315C80.495 31.347 80.5445 31.5495 80.356 31.299C80.258 31.1694 80.1149 31.0815 79.955 31.0525C79.7135 31.0005 70.2765 31.1025 69.2565 31.461C68.986 31.556 69.24 31.6505 69.683 31.7095L69.682 31.709ZM80.3425 77.557L80.4955 36.1095C81.503 36.1325 90.425 36.249 90.8525 36.25C90.895 36.244 90.8505 77.506 90.8505 77.463C90.596 77.463 82.728 77.4925 80.342 77.5565L80.3425 77.557Z" fill="#3A307F"/>
<path d="M80.657 38.0461C80.8245 37.7926 82.1415 37.7451 82.4455 37.7451C89.819 37.7451 89.5995 37.7761 89.937 37.8306C90.1675 37.8676 90.636 37.9401 90.508 38.1326C90.3405 38.3861 89.0235 38.4336 88.7195 38.4336C83.9345 38.4336 80.322 38.5521 80.657 38.0461Z" fill="#3A307F"/>
<path d="M80.657 39.831C80.825 39.5775 82.141 39.53 82.4455 39.53C89.7935 39.53 89.5995 39.561 89.937 39.615C90.1655 39.652 90.636 39.7245 90.508 39.9175C90.34 40.171 89.0235 40.2185 88.7195 40.2185C83.677 40.2185 80.327 40.3295 80.657 39.831Z" fill="#3A307F"/>
<path d="M66.811 33.727C67.022 33.4695 68.693 33.426 69.0255 33.426C78.105 33.426 77.879 33.456 78.3015 33.511C78.564 33.5455 79.169 33.618 79.009 33.8135C78.7975 34.072 77.128 34.1145 76.7945 34.1145C71.2065 34.1145 66.3835 34.2485 66.811 33.727Z" fill="#3A307F"/>
<path d="M66.811 35.5115C67.022 35.254 68.687 35.2104 69.0255 35.2104C78.099 35.2104 77.883 35.2415 78.3015 35.2955C78.564 35.3295 79.169 35.4024 79.009 35.5979C78.7975 35.8559 77.1275 35.8989 76.7945 35.8989C70.5445 35.8989 66.401 36.0115 66.811 35.5115Z" fill="#3A307F"/>
<path d="M49.523 50.8511C47.119 50.8511 45.42 53.2046 45.42 56.1076V73.2861H49.523V50.8506V50.8511Z" fill="#EA3934"/>
<path d="M50.477 50.8511C52.881 50.8511 54.58 53.2046 54.58 56.1076V73.2861H50.477V50.8506V50.8511Z" fill="#EA3934"/>
<path d="M31.157 27.6641C32.7455 27.3526 47.836 17.3951 50.197 15.8721C50.422 15.7271 50.5045 15.4666 50.4765 15.1951C50.4905 12.3911 50.4815 12.4216 50.4015 12.3026C50.29 12.1056 50.128 12.0056 49.965 11.9816C49.686 11.9406 49.5515 12.0516 49.355 12.1761C49.355 12.1761 30.188 24.5161 29.6335 24.8786C29.3995 25.0316 29.2075 25.1696 29.1965 25.4201C29.1865 25.6576 29.349 25.8301 29.5065 26.0361C29.922 26.5761 30.3355 27.0926 30.6155 27.3861C30.888 27.6711 31.094 27.8006 31.035 27.5511C30.9555 27.2161 30.501 26.4576 30.1745 25.9311C29.9785 25.6146 29.896 25.5206 29.988 25.4791C30.2015 25.3831 49.468 13.2371 49.518 13.2051V15.1696C48.224 16.0046 32.4825 26.3736 32.003 26.7291C31.7655 26.9051 31.5285 27.0836 31.338 27.2516C31.042 27.5126 30.905 27.7131 31.157 27.6641Z" fill="#3A307F"/>
<path d="M67.55 64.1751C67.55 29.5281 67.5075 31.9951 67.636 31.9981C67.837 32.0021 68.0605 31.9941 68.225 31.8816C68.3965 31.7781 68.523 31.6076 68.575 31.4176C68.61 31.2986 68.6155 31.3651 68.6185 27.8151C68.609 27.7436 68.6765 27.4236 68.402 27.1966C68.203 26.9931 68.387 27.0561 61.5635 27.0541C61.0095 27.0541 57.0515 27.0911 56.5645 27.3551C55.6185 27.8666 66.2215 27.7426 67.934 27.7426V28.9356L63.284 28.9331C61.2655 28.9331 59.38 29.0706 59.3625 29.0706C53.593 29.0706 51.8415 29.6906 58.953 29.7301C61.1795 29.9361 64.505 29.8971 67.6445 29.8971V31.0396H32.355V29.8971C36.705 29.8971 39.0915 29.9106 41.0465 29.7301C48.1255 29.6901 46.484 29.0701 40.501 29.0701C38.0295 28.8826 36.101 28.9331 32.066 28.9351V27.7426C34.2015 27.7411 44.318 27.8321 43.4355 27.3551C42.9485 27.0911 38.9905 27.0541 38.4365 27.0541C31.6035 27.0561 31.7955 26.9941 31.598 27.1966C31.327 27.4206 31.3905 27.7476 31.3815 27.8151C31.384 31.3101 31.3905 31.3011 31.425 31.4176C31.477 31.6076 31.6035 31.7786 31.775 31.8816C31.94 31.9941 32.1635 32.0066 32.364 31.9981H32.45V64.1751C32.073 64.3935 31.7601 64.7071 31.5425 65.0846C31.3248 65.462 31.2102 65.8899 31.21 66.3256V73.2861C31.21 73.4187 31.2626 73.5459 31.3564 73.6396C31.4502 73.7334 31.5774 73.7861 31.71 73.7861H40.652C40.7846 73.7861 40.9117 73.7334 41.0055 73.6396C41.0993 73.5459 41.152 73.4187 41.152 73.2861V66.3256C41.1516 65.89 41.0369 65.4621 40.8193 65.0847C40.6017 64.7073 40.2888 64.3936 39.912 64.1751V31.9851H60.089V64.1751C59.712 64.3935 59.3991 64.7071 59.1815 65.0846C58.9638 65.462 58.8492 65.8899 58.849 66.3256V73.2861C58.849 73.4187 58.9016 73.5459 58.9954 73.6396C59.0892 73.7334 59.2164 73.7861 59.349 73.7861H68.291C68.4236 73.7861 68.5507 73.7334 68.6445 73.6396C68.7383 73.5459 68.791 73.4187 68.791 73.2861V66.3256C68.7906 65.89 68.6759 65.4621 68.4583 65.0847C68.2407 64.7073 67.9278 64.3936 67.551 64.1751H67.55ZM33.4505 32.0211H38.912V63.8396H33.4505V32.0211ZM40.152 72.7861H32.21V66.8256H40.152V72.7861ZM40.0655 65.8256H32.2965C32.4 65.5372 32.5899 65.2878 32.8403 65.1113C33.0908 64.9349 33.3896 64.84 33.696 64.8396H38.666C39.31 64.8396 39.8595 65.2511 40.0655 65.8256ZM61.0885 63.8396V32.0211H66.55V63.8396H61.0885ZM61.334 64.8396H66.304C66.948 64.8396 67.4975 65.2511 67.7035 65.8256H59.9345C60.038 65.5372 60.2279 65.2878 60.4783 65.1113C60.7288 64.9349 61.0276 64.84 61.334 64.8396ZM67.79 72.7861H59.848V66.8256H67.79V72.7861Z" fill="#3A307F"/>
<path d="M64.9774 33.8245C64.8824 33.692 64.7879 33.8165 64.7289 34.0335C64.3879 35.29 64.4344 40.53 64.4344 57.6185C64.4344 58.241 64.4874 62.3835 64.8554 62.897C65.4224 63.688 65.3984 56.9145 65.3984 55.956C65.3984 43.655 65.5704 34.652 64.9774 33.8245Z" fill="#3A307F"/>
<path d="M62.7825 33.8245C62.6875 33.692 62.593 33.8165 62.534 34.0335C62.1125 35.587 62.2395 45.712 62.2395 57.6185C62.2395 58.241 62.2925 62.3835 62.6605 62.897C63.226 63.686 63.2035 56.969 63.2035 55.956C63.2035 43.655 63.3755 34.652 62.7825 33.8245Z" fill="#3A307F"/>
<path d="M35.446 35.51C35.423 35.209 35.3505 34.326 35.271 34.034C35.212 33.8165 35.1175 33.692 35.0225 33.825C34.6545 34.3385 34.6 38.481 34.6015 39.1035C34.6485 61.339 34.6695 61.854 34.896 62.6885C34.955 62.906 35.0495 63.0305 35.1445 62.8975C35.5125 62.384 35.5655 58.2415 35.5655 57.619C35.5655 56.8585 35.4735 35.8685 35.446 35.5105V35.51Z" fill="#3A307F"/>
<path d="M37.641 35.51C37.618 35.207 37.546 34.3275 37.466 34.034C37.407 33.8165 37.3125 33.692 37.2175 33.825C36.8495 34.3385 36.795 38.481 36.7965 39.1035C36.8435 61.339 36.8645 61.854 37.091 62.6885C37.15 62.906 37.2445 63.0305 37.3395 62.8975C37.7075 62.384 37.7605 58.2415 37.7605 57.619C37.7605 56.8585 37.6685 35.8685 37.641 35.5105V35.51Z" fill="#3A307F"/>
<path d="M53.7835 64.3576C53.59 64.4466 53.5425 64.7696 53.5095 64.8551C53.476 64.8941 53.441 64.9216 53.396 64.8966C53.371 64.8826 53.3695 64.8696 53.3575 64.8621C53.2391 64.8545 53.1205 64.8507 53.002 64.8506C46.416 64.8636 46.498 64.9451 46.4075 64.8666C46.3945 64.8711 46.381 64.8026 46.364 64.7471C46.318 64.5961 46.288 64.4951 46.2325 64.4271C46.0635 64.2206 45.7205 64.3421 45.672 65.1861C45.6595 65.4001 45.7415 65.5696 45.914 65.6826C46.0585 65.7981 46.308 65.7936 46.5315 65.8036C47.018 65.8256 53.503 65.7896 53.5555 65.7881C53.8435 65.7946 54.019 65.6856 54.124 65.5536C54.272 65.3681 54.228 65.1531 54.2065 64.9631C54.193 64.8421 54.1815 64.7941 54.11 64.5821C54.0315 64.3491 53.8875 64.3101 53.783 64.3581L53.7835 64.3576Z" fill="#3A307F"/>
<path d="M57.7335 55.5785C57.771 49.6495 52.447 46.3275 47.5895 47.821C44.9795 48.6285 42.928 50.906 42.3795 53.4345C42.2915 53.745 42.2705 54.0665 42.215 54.378C42.199 54.6565 42.0375 75.187 42.696 73.318C43.1965 71.898 43.109 58.2305 43.117 56.912C43.1285 55.0175 42.9445 53.68 44.032 51.8065C44.5675 52.3185 44.572 52.3265 44.6305 52.3705C44.128 53.2924 43.8708 54.328 43.8835 55.378C43.887 57.572 43.9645 69.55 43.9855 70.2185C44.018 71.007 44.123 74.064 44.409 73.328C44.7795 72.3745 44.831 64.6275 44.83 63.591C44.822 54.1405 44.7935 54.742 45.032 53.8705C45.448 52.3595 46.7025 50.9905 48.3005 50.468C49.887 49.924 51.7185 50.2515 52.997 51.207C54.2865 52.1705 54.9785 53.651 55.041 54.9675C55.1185 55.9475 54.8925 75.149 55.5995 73.3275C56.1095 72.016 56.039 55.6965 56.0115 55.135C55.96 53.9495 55.6335 52.9555 55.1235 52.1285C55.24 52.015 55.4985 51.7615 55.697 51.5555C56.483 52.7725 56.754 53.915 56.7705 55.27C56.7955 57.3585 56.681 75.1105 57.3135 73.3175C57.833 71.844 57.7215 57.341 57.733 55.5775L57.7335 55.5785ZM45.169 51.5625C44.9721 51.3774 44.7717 51.196 44.568 51.0185C45.1243 50.3064 45.8191 49.7145 46.6105 49.2785L46.9615 50.025C46.2703 50.417 45.6616 50.9391 45.169 51.5625ZM47.8365 49.6225C47.7166 49.3729 47.5926 49.1254 47.4645 48.88C49.0075 48.2835 50.685 48.286 52.1685 48.788C51.853 49.458 51.8525 49.45 51.8255 49.539C50.415 49.0905 48.9655 49.1905 47.8365 49.6225ZM54.55 51.347C54.0353 50.7515 53.4103 50.2611 52.7095 49.903C52.7655 49.782 52.923 49.4365 53.0425 49.1555C53.8384 49.5597 54.5472 50.1164 55.1285 50.794L54.55 51.347Z" fill="#3A307F"/>
<path d="M73.311 77.8265C73.311 77.359 72.931 76.979 72.464 76.979H71.616V75.7735C71.616 75.306 71.2355 74.926 70.7685 74.926H69.8625V73.721C69.8625 73.2535 69.4825 72.8735 69.0155 72.8735H30.9855C30.518 72.8735 30.1385 73.254 30.1385 73.721V74.926H29.2325C28.765 74.926 28.385 75.3065 28.385 75.7735V76.979H27.537C27.0695 76.979 26.69 77.359 26.69 77.8265V79.1845C26.69 79.652 27.07 80.032 27.537 80.032H72.4645C72.932 80.032 73.3115 79.652 73.3115 79.1845V77.8265H73.311ZM31.138 73.8735H68.8615V74.926H31.138V73.8735ZM29.384 75.926H70.6155V76.979H29.3845L29.384 75.926ZM72.311 79.0315H27.689V77.979H72.311V79.0315Z" fill="#3A307F"/>
<path d="M30.7445 31.4601C29.7365 31.1066 20.2915 30.9996 20.046 31.0521C19.7485 31.1116 19.533 31.3431 19.506 31.6711L19.504 35.5311C17.712 35.4671 9.15898 35.3296 9.15898 35.3296C8.96948 35.3311 8.71898 35.3086 8.56798 35.3931C8.40098 35.4661 8.25698 35.6331 8.21398 35.8001L8.18848 77.8347C8.21748 78.1107 8.40848 78.3201 8.64548 78.3921C8.82198 78.4576 8.65398 78.6837 23.4355 78.2117C23.8099 78.2 24.1836 78.1738 24.556 78.1332C25.0755 78.0742 25.3735 77.9796 25.0565 77.8846C24.366 77.6776 21.575 77.6141 20.2885 77.5756L20.436 31.9931C20.4195 31.9431 20.3115 32.0271 25.0925 31.9471C25.1485 31.9461 29.473 31.8216 30.3175 31.7091C30.7605 31.6501 31.015 31.5556 30.7445 31.4606V31.4601ZM9.14898 77.4636C9.14898 77.5066 9.10448 36.2446 9.14698 36.2506C9.57448 36.2496 18.497 36.1331 19.504 36.1101L19.657 77.5577C15.656 77.4497 12.9125 77.4631 9.14898 77.4636Z" fill="#3A307F"/>
<path d="M19.343 38.0461C19.1755 37.7926 17.8585 37.7451 17.5545 37.7451C10.181 37.7451 10.4005 37.7761 10.063 37.8306C9.83248 37.8676 9.36398 37.9401 9.49198 38.1326C9.65948 38.3861 10.9765 38.4336 11.2805 38.4336C16.0655 38.4336 19.678 38.5521 19.343 38.0461Z" fill="#3A307F"/>
<path d="M19.343 39.831C19.175 39.5775 17.859 39.53 17.5545 39.53C10.2065 39.53 10.4005 39.561 10.063 39.615C9.83447 39.652 9.36397 39.7245 9.49197 39.9175C9.65997 40.171 10.9765 40.2185 11.2805 40.2185C16.323 40.2185 19.673 40.3295 19.343 39.831Z" fill="#3A307F"/>
<path d="M33.189 33.727C32.978 33.4695 31.307 33.426 30.9745 33.426C21.895 33.426 22.121 33.456 21.6985 33.511C21.436 33.5455 20.831 33.618 20.991 33.8135C21.2025 34.072 22.872 34.1145 23.2055 34.1145C28.7935 34.1145 33.6165 34.2485 33.189 33.727Z" fill="#3A307F"/>
<path d="M33.189 35.5115C32.978 35.254 31.313 35.2104 30.9745 35.2104C21.901 35.2104 22.117 35.2415 21.6985 35.2955C21.436 35.3295 20.831 35.4024 20.991 35.5979C21.2025 35.8559 22.8725 35.8989 23.2055 35.8989C29.4555 35.8989 33.599 36.0115 33.189 35.5115Z" fill="#3A307F"/>
<path d="M88.014 63.3156C88.014 63.2305 87.9801 63.1488 87.9199 63.0886C87.8597 63.0285 87.7781 62.9946 87.693 62.9946H83.0415C82.9564 62.9948 82.8748 63.0286 82.8146 63.0888C82.7545 63.149 82.7206 63.2305 82.7205 63.3156C82.5869 65.3051 82.5869 67.3012 82.7205 69.2906C82.7205 69.3116 82.7225 69.4256 83.0415 69.6111H87.693C87.778 69.6111 87.8596 69.5774 87.9198 69.5173C87.9799 69.4572 88.0138 69.3757 88.014 69.2906C88.1175 67.3681 88.1245 65.3731 88.014 63.3156ZM87.7445 66.4506C87.671 66.6796 87.121 66.7516 86.8815 66.7516C83.8115 66.7516 83.4985 66.8001 83.1015 66.5976C82.9925 66.5421 82.9635 66.4496 82.9905 66.3636C83.0635 66.1346 83.613 66.0626 83.8535 66.0626C83.903 66.0626 84.4295 66.0636 85.056 66.0666C85.034 65.9923 85.0228 65.9152 85.023 65.8376C85.023 65.7566 85.0285 63.7191 85.063 63.5956C85.089 63.5031 85.159 63.3631 85.233 63.3226C85.333 63.2676 85.4965 63.2901 85.5725 63.4081C85.7565 63.6921 85.711 63.7096 85.711 65.6606C85.711 65.6781 85.7065 65.9326 85.679 66.0706C87.2635 66.0826 87.3475 66.0711 87.633 66.2166C87.741 66.2716 87.7715 66.3641 87.744 66.4501L87.7445 66.4506Z" fill="#EA3934"/>
<path d="M88.014 53.3671C88.014 53.282 87.9801 53.2004 87.9199 53.1402C87.8597 53.08 87.7781 53.0461 87.693 53.0461H83.0415C82.9563 53.0461 82.8747 53.08 82.8145 53.1402C82.7543 53.2004 82.7205 53.282 82.7205 53.3671C82.5869 55.3564 82.5869 57.3524 82.7205 59.3416C82.7205 59.3626 82.7225 59.4766 83.0415 59.6626H87.693C87.7781 59.6626 87.8597 59.6288 87.9199 59.5686C87.9801 59.5084 88.014 59.4268 88.014 59.3416C88.1175 57.4191 88.1245 55.4241 88.014 53.3671ZM87.579 56.5601C87.1375 56.7461 87.01 56.6986 84.1255 56.6986C83.78 56.6986 83.479 56.6846 83.266 56.6136C83.2045 56.5931 83.07 56.5426 83.0245 56.4886C82.942 56.3911 82.972 56.2266 83.156 56.1491C83.591 55.9656 83.888 56.0081 85.056 56.0146C85.034 55.9403 85.0228 55.8632 85.023 55.7856C85.023 55.7041 85.0285 53.6666 85.063 53.5431C85.2145 53.0041 85.7115 53.2371 85.7115 53.8106C85.7115 55.5281 85.724 55.7956 85.6795 56.0181C87.3015 56.0296 87.294 56.0371 87.4685 56.0951C87.528 56.1151 87.6635 56.1651 87.71 56.2201C87.792 56.3176 87.7635 56.4811 87.5785 56.5601H87.579Z" fill="#EA3934"/>
<path d="M75.5665 43.4187C75.5665 43.3335 75.5327 43.2519 75.4725 43.1917C75.4123 43.1315 75.3306 43.0977 75.2455 43.0977H70.594C70.5089 43.0977 70.4272 43.1315 70.367 43.1917C70.3068 43.2519 70.273 43.3335 70.273 43.4187C70.1395 45.4079 70.1395 47.4039 70.273 49.3932C70.273 49.4142 70.275 49.5282 70.594 49.7142H75.2455C75.3306 49.7142 75.4123 49.6803 75.4725 49.6201C75.5327 49.5599 75.5665 49.4783 75.5665 49.3932C75.67 47.4707 75.677 45.4757 75.5665 43.4182V43.4187ZM75.23 46.4497C75.1565 46.6787 74.6065 46.7507 74.367 46.7507C71.2725 46.7507 70.9825 46.7982 70.587 46.5967C70.479 46.5417 70.4485 46.4497 70.476 46.3632C70.5495 46.1342 71.0995 46.0622 71.339 46.0622C71.3885 46.0622 71.915 46.0622 72.5415 46.0662C72.5195 45.9918 72.5084 45.9147 72.5085 45.8372C72.5085 45.7562 72.514 43.7182 72.5485 43.5952C72.5745 43.5022 72.6445 43.3627 72.7185 43.3217C72.817 43.2677 72.981 43.2882 73.058 43.4067C73.243 43.6937 73.1965 43.7027 73.1965 45.6597C73.1965 45.6772 73.192 45.9317 73.1645 46.0697C74.76 46.0817 74.836 46.0717 75.1185 46.2157C75.2265 46.2707 75.257 46.3632 75.2295 46.4492H75.23V46.4497Z" fill="#EA3934"/>
<path d="M88.014 43.4187C88.014 43.3335 87.9801 43.2519 87.9199 43.1917C87.8597 43.1315 87.7781 43.0977 87.693 43.0977H83.0415C82.9563 43.0977 82.8747 43.1315 82.8145 43.1917C82.7543 43.2519 82.7205 43.3335 82.7205 43.4187C82.5869 45.4079 82.5869 47.4039 82.7205 49.3932C82.7205 49.4142 82.7225 49.5282 83.0415 49.7142H87.693C87.7781 49.7142 87.8597 49.6803 87.9199 49.6201C87.9801 49.5599 88.014 49.4783 88.014 49.3932C88.1175 47.4707 88.1245 45.4757 88.014 43.4182V43.4187ZM87.512 46.6117C87.076 46.7957 87.0475 46.7502 84.0585 46.7502C83.713 46.7502 83.413 46.7362 83.199 46.6652C83.1375 46.6447 83.003 46.5942 82.9575 46.5402C82.875 46.4427 82.905 46.2782 83.089 46.2002C83.524 46.0172 83.821 46.0597 84.989 46.0662C84.967 45.9918 84.9558 45.9147 84.956 45.8372C84.956 45.7562 84.9615 43.7182 84.996 43.5952C85.1475 43.0547 85.6445 43.2902 85.6445 43.8627C85.6445 45.5812 85.6565 45.8477 85.6125 46.0702C87.233 46.0822 87.2255 46.0887 87.4015 46.1472C87.4625 46.1672 87.5975 46.2182 87.643 46.2722C87.725 46.3692 87.6965 46.5342 87.5115 46.6117H87.512Z" fill="#EA3934"/>
<path d="M75.5665 53.3671C75.5665 53.282 75.5327 53.2004 75.4725 53.1402C75.4123 53.08 75.3306 53.0461 75.2455 53.0461H70.594C70.5089 53.0461 70.4272 53.08 70.367 53.1402C70.3068 53.2004 70.273 53.282 70.273 53.3671C70.1395 55.3564 70.1395 57.3524 70.273 59.3416C70.273 59.3626 70.275 59.4766 70.594 59.6626H75.2455C75.3306 59.6626 75.4123 59.6288 75.4725 59.5686C75.5327 59.5084 75.5665 59.4268 75.5665 59.3416C75.67 57.4191 75.677 55.4241 75.5665 53.3671ZM75.23 56.3001C75.1565 56.5291 74.6065 56.6011 74.367 56.6011C71.2905 56.6011 70.985 56.6496 70.587 56.4471C70.479 56.3921 70.4485 56.3001 70.476 56.2136C70.5495 55.9846 71.0995 55.9126 71.339 55.9126C71.3885 55.9126 71.915 55.9131 72.5415 55.9166C72.5195 55.8423 72.5084 55.7652 72.5085 55.6876C72.5085 55.6066 72.514 53.5686 72.5485 53.4456C72.574 53.3541 72.6445 53.2126 72.7185 53.1726C72.817 53.1186 72.9805 53.1386 73.058 53.2581C73.243 53.5446 73.1965 53.5536 73.1965 55.5106C73.1965 55.5281 73.192 55.7826 73.1645 55.9206C74.752 55.9326 74.8325 55.9206 75.1185 56.0666C75.2265 56.1216 75.257 56.2141 75.2295 56.3001H75.23Z" fill="#EA3934"/>
<path d="M75.5665 63.3156C75.5665 63.2305 75.5327 63.1488 75.4725 63.0886C75.4123 63.0285 75.3306 62.9946 75.2455 62.9946H70.594C70.5089 62.9948 70.4273 63.0286 70.3672 63.0888C70.307 63.149 70.2731 63.2305 70.273 63.3156C70.1395 65.3051 70.1395 67.3012 70.273 69.2906C70.273 69.3116 70.275 69.4256 70.594 69.6111H75.2455C75.3305 69.6111 75.4121 69.5774 75.4723 69.5173C75.5325 69.4572 75.5664 69.3757 75.5665 69.2906C75.67 67.3681 75.677 65.3731 75.5665 63.3156ZM75.23 66.4506C75.1565 66.6796 74.6065 66.7516 74.367 66.7516C71.297 66.7516 70.984 66.8001 70.587 66.5976C70.478 66.5421 70.449 66.4496 70.476 66.3636C70.549 66.1346 71.099 66.0626 71.339 66.0626C71.3885 66.0626 71.915 66.0636 72.5415 66.0666C72.5195 65.9923 72.5084 65.9152 72.5085 65.8376C72.5085 65.7566 72.514 63.7191 72.5485 63.5956C72.5745 63.5031 72.644 63.3636 72.7185 63.3226C72.8185 63.2676 72.982 63.2901 73.058 63.4081C73.242 63.6921 73.1965 63.7096 73.1965 65.6606C73.1965 65.6781 73.192 65.9326 73.1645 66.0706C74.749 66.0826 74.833 66.0711 75.1185 66.2166C75.2265 66.2716 75.257 66.3641 75.2295 66.4501L75.23 66.4506Z" fill="#EA3934"/>
<path d="M17.279 63.3156C17.279 63.2735 17.2707 63.2317 17.2546 63.1928C17.2384 63.1538 17.2148 63.1185 17.185 63.0886C17.1552 63.0588 17.1198 63.0352 17.0808 63.0191C17.0419 63.0029 17.0001 62.9946 16.958 62.9946H12.3065C12.2214 62.9946 12.1397 63.0285 12.0795 63.0886C12.0193 63.1488 11.9855 63.2305 11.9855 63.3156C11.8785 65.3059 11.8785 67.3004 11.9855 69.2906C11.9855 69.4676 12.129 69.6111 12.3065 69.6111H16.958C17.2765 69.4256 17.279 69.3116 17.279 69.2906C17.4125 67.3012 17.4125 65.3051 17.279 63.3156ZM16.975 66.5416C16.9285 66.5961 16.7965 66.6456 16.7335 66.6666C16.521 66.7376 16.2025 66.7516 15.874 66.7516C13.041 66.7516 12.8865 66.8096 12.4205 66.6131C12.235 66.5351 12.2075 66.3701 12.289 66.2736C12.3345 66.2196 12.468 66.1696 12.5305 66.1486C12.7055 66.0901 12.6965 66.0836 14.3195 66.0716C14.2775 65.8606 14.2875 65.6146 14.2875 63.8641C14.2875 63.6731 14.375 63.3456 14.5885 63.3011C14.7805 63.2611 14.885 63.4151 14.936 63.5966C14.9705 63.7201 14.976 65.7576 14.976 65.8386C14.976 65.9151 14.9655 65.9916 14.943 66.0676C16.1395 66.0616 16.41 66.0196 16.8435 66.2021C17.029 66.2811 17.0565 66.4446 16.975 66.5421V66.5416Z" fill="#EA3934"/>
<path d="M17.279 53.3671C17.279 53.325 17.2707 53.2832 17.2546 53.2443C17.2384 53.2054 17.2148 53.17 17.185 53.1402C17.1552 53.1104 17.1198 53.0867 17.0808 53.0706C17.0419 53.0544 17.0001 53.0461 16.958 53.0461H12.3065C12.2214 53.0461 12.1397 53.08 12.0795 53.1402C12.0193 53.2004 11.9855 53.282 11.9855 53.3671C11.8785 55.3572 11.8785 57.3516 11.9855 59.3416C11.9855 59.5186 12.129 59.6626 12.3065 59.6626H16.958C17.2765 59.4766 17.279 59.3631 17.279 59.3416C17.4125 57.3524 17.4125 55.3564 17.279 53.3671ZM16.975 56.4886C16.8035 56.6921 16.121 56.6986 15.8745 56.6986C13.0525 56.6986 12.8885 56.7566 12.421 56.5601C12.236 56.4816 12.208 56.3176 12.2895 56.2201C12.336 56.1656 12.4685 56.1161 12.531 56.0951C12.7065 56.0366 12.7035 56.0296 14.32 56.0181C14.278 55.8071 14.288 55.5611 14.288 53.8106C14.288 53.6196 14.3755 53.2916 14.589 53.2476C14.7815 53.2071 14.885 53.3611 14.9365 53.5431C14.971 53.6666 14.9765 55.7041 14.9765 55.7856C14.9765 55.8621 14.966 55.9386 14.9435 56.0146C16.1375 56.0081 16.4115 55.9666 16.8435 56.1491C17.028 56.2266 17.057 56.3916 16.975 56.4886Z" fill="#EA3934"/>
<path d="M29.7265 43.4187C29.7265 43.3335 29.6927 43.2519 29.6325 43.1917C29.5723 43.1315 29.4906 43.0977 29.4055 43.0977H24.754C24.6689 43.0977 24.5872 43.1315 24.527 43.1917C24.4668 43.2519 24.433 43.3335 24.433 43.4187C24.326 45.4087 24.326 47.4031 24.433 49.3932C24.433 49.5702 24.5765 49.7142 24.754 49.7142H29.4055C29.724 49.5282 29.7265 49.4142 29.7265 49.3932C29.8601 47.4037 29.8601 45.4076 29.7265 43.4182V43.4187ZM29.4895 46.5402C29.318 46.7437 28.6415 46.7502 28.389 46.7502C25.556 46.7502 25.4015 46.8082 24.9355 46.6117C24.7515 46.5342 24.7215 46.3697 24.804 46.2717C24.85 46.2182 24.985 46.1677 25.0455 46.1467C25.2215 46.0887 25.205 46.0817 26.8345 46.0702C26.7905 45.8502 26.8025 45.5837 26.8025 43.8627C26.8025 43.6722 26.8895 43.3447 27.1035 43.2997C27.296 43.2592 27.4 43.4132 27.451 43.5947C27.4855 43.7187 27.491 45.7562 27.491 45.8372C27.491 45.9137 27.4805 45.9902 27.458 46.0662C28.652 46.0597 28.926 46.0182 29.358 46.2007C29.543 46.2787 29.571 46.4437 29.4895 46.5402Z" fill="#EA3934"/>
<path d="M17.279 43.4187C17.279 43.3765 17.2707 43.3348 17.2546 43.2958C17.2384 43.2569 17.2148 43.2215 17.185 43.1917C17.1552 43.1619 17.1198 43.1382 17.0808 43.1221C17.0419 43.106 17.0001 43.0977 16.958 43.0977H12.3065C12.2214 43.0977 12.1397 43.1315 12.0795 43.1917C12.0193 43.2519 11.9855 43.3335 11.9855 43.4187C11.8785 45.4087 11.8785 47.4031 11.9855 49.3932C11.9855 49.5702 12.129 49.7142 12.3065 49.7142H16.958C17.2765 49.5282 17.279 49.4142 17.279 49.3932C17.4125 47.4037 17.4125 45.4076 17.279 43.4182V43.4187ZM17.042 46.5402C16.8705 46.7437 16.194 46.7502 15.9415 46.7502C13.1085 46.7502 12.954 46.8082 12.488 46.6117C12.3025 46.5337 12.275 46.3687 12.3565 46.2717C12.402 46.2182 12.5355 46.1682 12.598 46.1467C12.774 46.0887 12.7575 46.0817 14.387 46.0702C14.345 45.8587 14.355 45.6142 14.355 43.8627C14.355 43.6722 14.442 43.3442 14.656 43.2997C14.8485 43.2592 14.9525 43.4132 15.0035 43.5947C15.038 43.7187 15.0435 45.7562 15.0435 45.8372C15.0435 45.9137 15.033 45.9902 15.0105 46.0662C16.2045 46.0597 16.4785 46.0182 16.9105 46.2007C17.095 46.2782 17.124 46.4432 17.042 46.5402Z" fill="#EA3934"/>
<path d="M53.4655 37.0972C53.4654 36.9836 53.4202 36.8748 53.3398 36.7945C53.2595 36.7143 53.1506 36.6692 53.037 36.6692H46.826C46.7124 36.6692 46.6035 36.7143 46.5232 36.7945C46.4428 36.8748 46.3976 36.9836 46.3975 37.0972C46.2547 39.7548 46.2547 42.4181 46.3975 45.0757C46.3975 45.3122 46.5895 45.5042 46.826 45.5042H53.037C53.4625 45.2562 53.4655 45.1042 53.4655 45.0757C53.65 42.3302 53.638 39.6632 53.4655 37.0972ZM52.5895 41.3902C52.1785 41.4467 50.973 41.4302 50.3385 41.4302C50.3605 42.1352 50.3645 44.0902 50.3645 44.1822C50.3645 44.3867 50.322 44.5912 50.226 44.7897C50.1495 44.9482 49.9855 44.9772 49.8865 44.9042C49.8325 44.8642 49.7815 44.7457 49.7615 44.6942C49.691 44.5092 49.676 44.2342 49.676 43.9457C49.676 41.4427 49.673 41.5232 49.6805 41.4307C48.1105 41.4307 47.6765 41.4842 47.0675 41.2927C46.811 41.2107 46.789 41.0447 46.892 40.9527C46.9545 40.8977 47.1335 40.8477 47.2145 40.8277C47.4535 40.7677 47.4785 40.7617 49.7325 40.7497C49.6515 40.4527 49.676 39.7562 49.676 37.6897C49.676 37.4597 49.7555 36.9997 49.977 36.9377C50.0211 36.9242 50.0685 36.9264 50.1111 36.944C50.1537 36.9616 50.1888 36.9935 50.2105 37.0342C50.35 37.2727 50.3645 37.2552 50.3645 40.3267C50.3645 40.4667 50.3445 40.6077 50.3005 40.7467C50.9735 40.7442 53.014 40.6202 53.194 41.0427C53.29 41.2677 52.832 41.3567 52.5895 41.3902Z" fill="#EA3934"/>
<path d="M29.7265 53.3671C29.7265 53.282 29.6927 53.2004 29.6325 53.1402C29.5723 53.08 29.4906 53.0461 29.4055 53.0461H24.754C24.6689 53.0461 24.5872 53.08 24.527 53.1402C24.4668 53.2004 24.433 53.282 24.433 53.3671C24.326 55.3572 24.326 57.3516 24.433 59.3416C24.433 59.5186 24.5765 59.6626 24.754 59.6626H29.4055C29.724 59.4766 29.7265 59.3631 29.7265 59.3416C29.86 57.3524 29.86 55.3564 29.7265 53.3671ZM29.4895 56.3906C29.4435 56.4446 29.3085 56.4951 29.248 56.5156C29.0355 56.5866 28.717 56.6006 28.3885 56.6006C25.5555 56.6006 25.401 56.6586 24.935 56.4621C24.751 56.3846 24.721 56.2201 24.8035 56.1226C24.8495 56.0686 24.9845 56.0181 25.045 55.9976C25.2195 55.9396 25.209 55.9326 26.834 55.9206C26.792 55.7096 26.802 55.4636 26.802 53.7131C26.802 53.5226 26.889 53.1951 27.103 53.1501C27.2945 53.1101 27.3995 53.2636 27.4505 53.4456C27.485 53.5691 27.4905 55.6066 27.4905 55.6876C27.4905 55.7641 27.48 55.8406 27.4575 55.9166C28.654 55.9101 28.9265 55.8691 29.358 56.0511C29.543 56.1291 29.571 56.2941 29.4895 56.3906Z" fill="#EA3934"/>
<path d="M29.7265 63.3156C29.7265 63.2305 29.6927 63.1488 29.6325 63.0886C29.5723 63.0285 29.4906 62.9946 29.4055 62.9946H24.754C24.6689 62.9946 24.5872 63.0285 24.527 63.0886C24.4668 63.1488 24.433 63.2305 24.433 63.3156C24.326 65.3059 24.326 67.3004 24.433 69.2906C24.433 69.4676 24.5765 69.6111 24.754 69.6111H29.4055C29.724 69.4256 29.7265 69.3116 29.7265 69.2906C29.86 67.3012 29.86 65.3051 29.7265 63.3156ZM29.4895 66.5416C29.443 66.5961 29.311 66.6456 29.248 66.6666C29.0355 66.7376 28.717 66.7516 28.3885 66.7516C25.5555 66.7516 25.401 66.8096 24.935 66.6131C24.751 66.5356 24.721 66.3711 24.8035 66.2736C24.8495 66.2196 24.9845 66.1691 25.045 66.1486C25.22 66.0901 25.2115 66.0836 26.834 66.0716C26.792 65.8606 26.802 65.6191 26.802 63.8641C26.802 63.6731 26.8895 63.3456 27.103 63.3011C27.292 63.2616 27.398 63.4111 27.4505 63.5966C27.485 63.7201 27.4905 65.7576 27.4905 65.8386C27.4905 65.9151 27.48 65.9916 27.4575 66.0676C28.654 66.0616 28.9245 66.0196 29.358 66.2021C29.543 66.2806 29.5715 66.4441 29.4895 66.5421V66.5416Z" fill="#EA3934"/>
</svg>
