<svg width="52" height="52" viewBox="0 0 52 52" fill="none" xmlns="http://www.w3.org/2000/svg">
<g clip-path="url(#clip0_737_3404)">
<path d="M29.6227 19.1533C30.03 19.3765 30.4763 19.4892 30.9313 19.4892C31.4817 19.4892 32.0472 19.3245 32.5737 18.9822L37.232 15.1775L47.6667 15.1645V3.68333C47.6667 1.651 46.0135 0 43.9812 0L31.8478 0.0065C30.8642 0.0065 29.939 0.39 29.2435 1.0855C28.548 1.781 28.1645 2.70833 28.1667 3.68983L28.171 16.7028C28.171 17.7255 28.7278 18.6615 29.6227 19.1533ZM30.7775 2.61733C31.0635 2.33133 31.4448 2.17317 31.85 2.17317L43.9833 2.16667C44.8197 2.16667 45.5022 2.847 45.5022 3.68333V13.0022L36.4585 13.0108L31.3062 17.2315C31.0202 17.4157 30.7645 17.3073 30.6648 17.2532C30.5673 17.2012 30.3398 17.0365 30.3398 16.7028L30.3355 3.68983C30.3355 3.2825 30.4937 2.9055 30.7797 2.61733H30.7775ZM21.1423 34.7425C20.7198 35.165 20.7198 35.854 21.1423 36.2765C21.5648 36.6947 22.2538 36.6947 22.6742 36.2765L27.5817 31.2932L38.5753 41.1667H52.0022V43.3333H39.6457L28.5415 52H23.4628L12.3587 43.3333H0V41.1667H13.1018L24.206 49.8333H27.794L36.9893 42.6573L27.6705 34.2918L24.2103 37.804C22.9363 39.0758 20.8758 39.0758 19.6083 37.8105C18.3408 36.543 18.3408 34.4803 19.6083 33.2128L24.1518 28.7213L22.399 27.1267C21.6038 26.4008 20.5747 26.0022 19.5 26.0022C18.0938 26.0022 13.2557 28.1688 13.2557 28.1688H0V26.0022H12.7487C13.767 25.506 17.3658 23.8355 19.4502 23.8355C21.1163 23.8355 22.6633 24.4335 23.8593 25.5212L25.6793 27.1787L27.3368 25.5753C28.522 24.4595 30.0972 23.8355 31.7525 23.8355C33.8173 23.8355 38.129 25.5537 39.2188 26.0022H52.0022V28.1688L38.584 28.0843C36.6643 27.2805 33.111 26.0022 31.7525 26.0022C30.6518 26.0022 29.6032 26.416 28.8015 27.1722L21.1445 34.7447L21.1423 34.7425ZM19.5303 19.0558C19.9875 19.3505 20.5118 19.4957 21.0362 19.4957C21.4977 19.4957 21.9592 19.3808 22.3795 19.1533C23.2743 18.6615 23.8312 17.7255 23.8312 16.7028L23.8355 3.68983C23.8355 2.70833 23.4542 1.781 22.7587 1.0855C22.061 0.39 21.1358 0.0065 20.1522 0.0065L8.01667 0C5.98433 0 4.33117 1.65317 4.33117 3.68333V15.1645L14.768 15.1775L19.5282 19.0558H19.5303ZM6.5 3.68333C6.5 2.847 7.18033 2.16667 8.01667 2.16667L20.1522 2.17317C20.5573 2.17317 20.9365 2.33133 21.2247 2.61733C21.5107 2.9055 21.6688 3.28467 21.6688 3.68983L21.6645 16.7028C21.6645 17.0365 21.437 17.199 21.3395 17.2532C21.242 17.3052 20.9885 17.4092 20.8 17.3052L15.5458 13.0108L6.50217 13.0022L6.5 3.68333Z" fill="#B7B1DD"/>
</g>
<defs>
<clipPath id="clip0_737_3404">
<rect width="52" height="52" fill="white"/>
</clipPath>
</defs>
</svg>
