<svg width="100" height="100" viewBox="0 0 100 100" fill="none" xmlns="http://www.w3.org/2000/svg">
<path d="M80.7031 39.8184C80.7061 39.5524 80.1841 39.1474 80.1726 39.8104C79.9786 51.3464 79.5981 62.5824 78.9981 73.8979C78.9821 74.2004 79.548 74.3649 79.5655 74.0659C80.382 57.9484 80.5771 52.2174 80.7031 39.8184ZM64.2355 63.4534C63.843 63.4819 63.623 63.6449 63.6185 64.1729C63.596 66.9354 63.6316 70.0694 63.7961 72.5309C63.8391 73.1779 64.3301 73.1254 64.2926 72.4564C64.1541 69.9834 64.163 66.5774 64.1745 63.9809C64.913 63.9494 66.1806 63.9369 66.8496 63.9244C67.3306 63.9154 67.4691 63.7644 67.4541 63.3119C67.3756 60.9404 67.4681 57.8519 67.3766 55.2804C67.3626 54.8834 67.2291 54.7684 66.8616 54.7749C65.9116 54.7919 64.4431 54.7519 63.7836 54.8309C63.5741 54.8564 63.5491 55.2209 63.7896 55.2309C64.7686 55.2624 65.903 55.2359 66.8955 55.2994C66.8815 57.8759 66.8356 60.8494 66.8916 63.3869C66.0871 63.3739 64.984 63.3999 64.2355 63.4534ZM62.044 43.8564C62.0525 55.0759 62.5501 64.0509 62.6571 74.1924C62.6601 74.4749 62.2205 74.5319 62.21 74.2369C61.806 62.4764 61.4211 53.1589 61.4066 43.8534C61.4066 43.4099 61.5995 43.2534 62.064 43.2369C64.22 43.1719 73.6595 42.9654 75.891 43.0069C76.3975 43.0164 76.5466 43.2099 76.5616 43.7974C76.8201 53.6759 76.7796 63.5639 76.3486 73.8094C76.3351 74.1274 75.824 74.0234 75.8285 73.7444C75.9785 63.7314 76.1785 53.9574 76.0385 43.6764C72.374 43.6354 65.3 43.7844 62.044 43.8564ZM74.0795 72.7459C74.52 64.0059 74.219 56.7704 74.337 46.3489C74.337 46.1349 74.7471 46.0224 74.7481 46.2819C74.7786 54.9784 74.9655 66.3214 74.655 72.6439C74.629 73.1804 74.396 73.2804 74.083 73.2804C71.253 73.2804 67.6406 73.4869 64.8616 73.3509C64.6116 73.3389 64.5836 72.9669 64.8431 72.9554C67.6266 72.8299 71.25 72.7434 74.0795 72.7459ZM20.7466 41.9014C20.7226 41.6309 20.3071 41.6484 20.3256 41.9189C21.0331 52.3219 21.9416 63.9909 23.202 74.3689C23.2495 74.7584 23.8621 74.7599 23.7746 73.9949C22.4436 62.3384 21.7091 52.9259 20.7466 41.9014ZM24.1605 44.1614C24.7665 51.7614 25.1065 59.9789 26.0325 68.3019C35.929 68.1449 47.7825 67.7189 57.6 67.4979C58.317 67.4814 58.182 68.0429 57.826 68.0539C47.3306 68.3814 36.7535 68.5579 26.2965 68.8489C25.6665 68.8664 25.4871 68.9989 25.4271 68.3199C24.8201 61.4304 24.0461 51.3459 23.7191 44.1984C23.7166 44.1694 23.7199 44.1402 23.7288 44.1125C23.7376 44.0848 23.7518 44.0591 23.7706 44.0369C23.7894 44.0147 23.8124 43.9964 23.8382 43.983C23.8641 43.9697 23.8923 43.9616 23.9213 43.9592C23.9503 43.9567 23.9795 43.96 24.0072 43.9689C24.0349 43.9777 24.0606 43.992 24.0828 44.0107C24.105 44.0295 24.1233 44.0525 24.1367 44.0783C24.15 44.1042 24.1581 44.1324 24.1605 44.1614ZM26.0605 46.1724C36.0435 45.7689 45.9166 46.0224 55.7956 45.6684C56.0811 45.6584 56.0955 45.2234 55.807 45.2224C46.275 45.1839 35.2201 45.4374 25.9951 45.6654C25.6526 45.6739 25.5386 45.8019 25.5681 46.2829C25.9606 52.7094 26.6116 59.1674 27.3296 66.3719C27.3581 66.6564 27.8171 66.6424 27.7831 66.3454C27.0276 59.7809 26.6716 52.6839 26.0626 46.1724H26.0605ZM57.968 43.4114C47.1135 43.3964 35.7571 43.4979 25.2406 43.9329C24.9236 43.9459 24.8956 44.4454 25.2231 44.4329C36.196 44.0594 47.182 43.9599 58.223 44.0264C58.385 51.6999 58.345 59.5059 58.4395 66.8824C58.449 67.6279 58.994 67.5324 58.994 67.1824C58.994 60.3929 58.8781 51.6694 58.7471 44.2294C58.7321 43.3629 58.5356 43.4124 57.9701 43.4114H57.968ZM56.7281 46.6179C56.7211 46.3649 56.331 46.3264 56.328 46.5869C56.2895 52.6424 56.5556 58.9564 56.4366 65.1014C47.333 65.3889 37.6001 65.8974 28.5206 66.2794C28.2916 66.2889 28.3206 66.6894 28.5511 66.6824C37.8326 66.3924 47.0235 65.9419 56.3205 65.6884C56.8645 65.6734 57.007 65.4979 57.0075 64.9039C57.015 59.3014 56.73 46.6179 56.73 46.6179H56.7281ZM73.791 45.4829C71.641 45.3384 65.4231 45.3329 63.8736 45.4374C63.4796 45.4639 63.421 45.4564 63.4095 45.8619C63.366 47.4314 63.3826 50.7154 63.5541 53.9739C63.5741 54.3589 64.036 54.3094 64.018 53.9474C63.8465 50.5364 63.9495 47.2849 63.857 45.8974C65.4435 45.9309 70.1501 45.7789 73.8106 45.9154C74.0746 45.9259 74.031 45.4984 73.793 45.4829H73.791Z" fill="#3A307F"/>
<path d="M98.4255 74.6224C86.2575 74.6784 22.754 75.0994 5.12549 75.5134C4.82549 75.5204 4.87549 75.9889 5.16249 75.9949C17.2395 76.2399 29.568 75.8729 41.673 75.7684C60.6045 75.6049 79.548 75.5134 98.4775 75.2739C98.8745 75.2689 98.822 74.6209 98.4255 74.6224ZM92.429 41.1819C92.429 41.1013 92.397 41.024 92.3399 40.967C92.2829 40.91 92.2056 40.8779 92.125 40.8779C92.0444 40.8779 91.967 40.91 91.91 40.967C91.853 41.024 91.821 41.1013 91.821 41.1819C91.866 45.5729 91.8075 49.7264 91.814 53.9179C91.8235 60.3364 91.5975 67.0954 91.8415 73.4754C91.871 74.2474 92.5055 74.2049 92.499 73.5254C92.415 64.9684 92.5865 49.0564 92.427 41.1804L92.429 41.1819ZM13.445 53.5054C16.3375 57.2349 18.352 61.8159 19.05 68.7954C19.1115 69.4104 18.75 69.3194 18.6595 68.8014C17.789 63.7464 17 59.2614 13.397 54.3639C12.8844 57.9949 13.4203 61.6968 14.9415 65.0334C15.179 65.5579 14.6685 65.4574 14.5445 65.2084C12.7821 61.6285 12.2241 57.5749 12.9535 53.6519C12.9602 53.5979 12.9825 53.5471 13.0176 53.5056C13.0528 53.464 13.0992 53.4336 13.1514 53.4181C13.2035 53.4026 13.259 53.4025 13.3112 53.418C13.3633 53.4336 13.4098 53.4639 13.445 53.5054ZM9.77549 73.8884C8.11884 73.9364 6.46255 73.7816 4.84349 73.4274C6.93425 72.5491 9.16515 72.0514 11.431 71.9579C12.252 71.9229 11.909 71.3989 11.472 71.4174C8.99099 71.4972 6.55467 72.0991 4.32199 73.1839C3.99499 73.3414 3.76549 73.6099 4.27199 73.7644C6.07724 74.222 7.9402 74.4102 9.80049 74.3229C10.284 74.2919 10.45 73.8809 9.77549 73.8884ZM6.71999 70.3884C8.01699 70.8454 7.75449 71.3229 6.54449 70.8984C4.79915 70.2903 3.13778 69.4637 1.59999 68.4384C1.06599 68.0619 1.17499 67.9104 1.69999 67.6884C5.21499 66.2094 10.5855 66.8884 14.17 68.4609C14.815 68.7439 14.6635 69.2049 13.79 68.8469C9.86999 67.2414 5.59349 66.9659 1.99999 68.1199C3.49463 69.0286 5.0757 69.7868 6.71999 70.3834V70.3884ZM11.9935 60.9019C12.302 61.2084 12.1215 61.6519 11.6965 61.2884C9.35449 59.2769 7.15399 58.0264 3.74649 56.5079C4.49932 59.9209 6.09349 63.0916 8.38399 65.7314C8.55699 65.9314 8.27399 66.2204 8.08799 66.0244C5.50801 63.2613 3.77299 59.8172 3.08799 56.0994C3.07631 56.0461 3.0801 55.9906 3.09889 55.9394C3.11769 55.8882 3.15072 55.8434 3.1941 55.8103C3.23748 55.7772 3.28941 55.7572 3.34377 55.7526C3.39814 55.748 3.45268 55.7591 3.50099 55.7844C5.86949 56.7684 10.1 59.0169 11.9935 60.8969V60.9019ZM19.0625 54.1689C19.4855 54.9534 19.7911 55.7957 19.9695 56.6689C20.0235 57.1339 19.691 57.0189 19.6 56.7734C19.4194 56.1514 19.1784 55.5485 18.8805 54.9734C18.3563 56.4226 18.0115 57.9305 17.854 59.4634C17.7845 60.0334 17.438 59.6839 17.439 59.4449C17.5002 57.6434 17.8967 55.8692 18.608 54.2129C18.6271 54.1709 18.6568 54.1346 18.6942 54.1076C18.7316 54.0805 18.7754 54.0637 18.8213 54.0588C18.8671 54.0538 18.9135 54.0609 18.9558 54.0794C18.9981 54.0978 19.0349 54.1269 19.0625 54.1639V54.1689Z" fill="#3A307F"/>
<path d="M17.8335 36.6153C17.9095 35.8783 25.0435 27.1888 27.0835 24.7743C27.2772 24.5326 27.5255 24.3405 27.8081 24.2137C28.0906 24.0869 28.3992 24.029 28.7085 24.0448C34.8055 23.7773 63.895 23.1158 69.733 23.0023C70.6595 22.9843 71.085 23.0648 71.601 23.5778C73.2195 25.1883 81.775 34.1223 81.9445 34.9473C82.8305 39.2578 75.599 41.2193 74.357 35.2578C72.6925 32.2068 67.643 25.5388 66.5165 23.7328C64.5605 23.7884 62.5871 23.8394 60.5965 23.8858C61.7575 25.8183 66.5155 33.8718 66.8205 35.4308C66.5995 40.4218 60.143 40.3473 60.043 35.6473C59.977 35.0908 56.3535 26.1288 55.6035 23.9973C53.8261 24.0346 52.0478 24.0718 50.2685 24.1088C50.6865 26.3533 51.9425 35.3123 52.012 35.7998C51.7485 40.1083 45.7055 41.2548 45.4245 35.9583C45.5165 34.7128 45.781 26.3068 45.907 24.2013C44.27 24.2369 42.6416 24.2748 41.022 24.3148C40.775 26.4568 39.305 35.5553 39.2585 36.1148C39.1795 40.2523 33.435 41.3323 33.04 36.3523C33.291 34.7803 35.8485 26.4093 36.502 24.4348C35.0943 24.4758 33.7008 24.5203 32.3215 24.5683C31.3065 26.6028 27.067 33.6788 25.4215 36.6948C24.7805 40.9283 17.2595 42.1508 17.8335 36.6153Z" fill="#EA3934"/>
<path d="M73.7228 35.8094C73.6706 35.8431 73.6339 35.8961 73.6205 35.9568C73.4722 36.6137 73.1164 37.2055 72.6058 37.6445C72.0951 38.0836 71.4567 38.3466 70.785 38.3948C69.366 38.4313 68.26 37.3538 67.8375 36.0813C67.819 36.033 67.7841 35.9929 67.7389 35.968C67.6937 35.943 67.6411 35.9349 67.5905 35.945C67.5399 35.9551 67.4945 35.9829 67.4624 36.0233C67.4302 36.0637 67.4134 36.1142 67.415 36.1658C67.585 37.7778 69.213 38.9993 70.778 38.9873C71.5876 38.9706 72.3648 38.6662 72.9703 38.1286C73.5758 37.5909 73.9701 36.8552 74.0825 36.0533C74.0945 35.9923 74.082 35.9291 74.0477 35.8773C74.0134 35.8255 73.96 35.7893 73.8992 35.7766C73.8384 35.7639 73.775 35.7757 73.7228 35.8094Z" fill="#EA3934"/>
<path d="M32.739 37.8208C32.79 37.6388 32.451 37.4218 32.344 37.6463C31.69 39.0178 31.1 39.9608 29.2555 40.0818C28.5348 40.0941 27.8273 39.8886 27.2253 39.4921C26.6234 39.0956 26.1552 38.5267 25.882 37.8598C25.86 37.811 25.8202 37.7725 25.7707 37.7522C25.7212 37.7318 25.6658 37.7312 25.6159 37.7503C25.5659 37.7695 25.5252 37.8071 25.5021 37.8553C25.479 37.9036 25.4752 37.9588 25.4915 38.0098C25.7403 38.7992 26.2406 39.4855 26.916 39.964C27.5913 40.4424 28.4047 40.6868 29.232 40.6598C30.0511 40.6515 30.8433 40.3665 31.48 39.8511C32.1167 39.3357 32.5603 38.6202 32.739 37.8208Z" fill="#EA3934"/>
<path d="M45.0225 37.0273C45.0245 36.7888 44.646 36.7498 44.57 36.9623C44.1755 38.0593 43.5725 38.9488 42.3095 39.0838C41.118 39.2098 40.1905 38.4808 39.6405 37.4838C39.518 37.2628 39.2225 37.4768 39.2785 37.6838C39.63 38.9763 41.136 39.7878 42.4115 39.6378C43.6695 39.4893 45.0095 38.3653 45.0225 37.0273Z" fill="#EA3934"/>
<path d="M59.5005 36.2063C59.53 35.9543 59.1515 35.8248 59.0575 36.0813C58.515 37.5688 57.627 38.7828 55.941 38.9858C55.1987 39.0712 54.4505 38.8867 53.8329 38.4661C53.2154 38.0455 52.7698 37.4168 52.5775 36.6948C52.5135 36.4633 52.141 36.5623 52.1715 36.7948C52.3182 37.65 52.7872 38.4165 53.482 38.9364C54.1768 39.4563 55.0446 39.6899 55.9065 39.5893C56.7956 39.5029 57.6309 39.1239 58.2813 38.5117C58.9318 37.8994 59.3606 37.0885 59.5005 36.2063Z" fill="#EA3934"/>
<path d="M93.969 40.0413C94.3945 40.0103 94.3785 39.3558 93.9565 39.3868L93.957 39.3853C92.6375 39.4823 91.1345 39.4518 90.098 39.4208C89.605 39.4058 89.5415 39.9948 90.169 40.0758C91.4344 40.1707 92.7055 40.1591 93.969 40.0413Z" fill="#EA3934"/>
<path d="M91.644 31.7013C91.6565 31.5008 92.0235 31.3608 92.0565 31.6683L92.0545 31.6668C92.2289 33.9278 92.2638 36.1974 92.159 38.4628C92.1524 38.5118 92.1285 38.557 92.0917 38.5901C92.0548 38.6232 92.0074 38.6421 91.9579 38.6434C91.9084 38.6447 91.86 38.6284 91.8215 38.5973C91.7829 38.5662 91.7567 38.5224 91.7475 38.4738C91.5886 36.2199 91.554 33.9589 91.644 31.7013Z" fill="#EA3934"/>
<path d="M91.41 25.2478C91.441 24.9008 91.952 24.9423 91.985 25.2698L91.983 25.2683C92.0261 25.8523 92.0314 26.4385 91.999 27.0233C91.897 27.4108 91.3715 27.3918 91.3715 26.8018C91.3725 26.3508 91.3685 25.7083 91.41 25.2478Z" fill="#EA3934"/>
<path d="M94.536 31.5638C94.5685 31.2408 95.083 31.3298 95.073 31.6138L95.071 31.6123C94.9712 34.0433 94.6674 36.4616 94.163 38.8418C94.068 39.2028 93.6265 39.0818 93.69 38.6668C94.164 35.5868 94.511 31.8163 94.536 31.5638Z" fill="#EA3934"/>
<path d="M88.4895 32.1428C88.496 31.4513 88.9605 31.5513 89.033 32.1013L89.031 32.0998C89.268 33.8933 89.995 37.6008 90.2285 38.8578C90.2775 39.1253 89.911 39.2048 89.786 38.9428C89.3825 38.1003 88.479 33.1983 88.4895 32.1428Z" fill="#EA3934"/>
<path d="M92.33 28.1038C93.445 28.7828 94.5095 29.2038 95.683 30.0188L95.6795 30.0173C96.2225 30.3938 95.7875 30.7383 94.984 30.8268C93.0945 31.0228 90.2065 31.1213 88.0525 31.1838C87.4205 31.1998 87.231 30.8433 87.7205 30.4338C88.8481 29.5751 90.0257 28.7841 91.247 28.0648C91.4098 27.9597 91.6009 27.9071 91.7946 27.914C91.9883 27.921 92.1751 27.9872 92.33 28.1038Z" fill="#EA3934"/>
<path d="M36.7044 46.9762C36.8724 46.6352 36.3154 46.4323 36.1499 46.7718C34.8814 49.3673 33.5999 51.9567 32.4039 54.5877C32.3029 54.8092 32.6724 55.0082 32.7889 54.7877C34.1459 52.2102 35.4189 49.5897 36.7044 46.9762Z" fill="#EA3934"/>
<path d="M47.8969 55.8317C47.8959 55.5647 48.3349 55.5297 48.3649 55.7947C48.4864 56.8697 48.5549 57.9667 48.6784 59.0242C48.693 59.1017 48.6827 59.1818 48.6491 59.2531C48.6155 59.3244 48.5602 59.3833 48.4912 59.4214C48.4221 59.4594 48.3429 59.4748 48.2646 59.4651C48.1864 59.4555 48.1132 59.4214 48.0554 59.3677C47.1869 58.7193 46.398 57.9705 45.7054 57.1367C45.7599 58.0057 46.1654 59.6537 45.9499 59.9432C45.9054 59.9991 45.8408 60.0353 45.7699 60.044C45.699 60.0527 45.6276 60.0332 45.5709 59.9897C45.3129 59.7757 45.1189 57.3377 45.1129 56.8457C45.1049 56.1857 45.3399 55.9627 45.8344 56.4857C46.5048 57.1976 47.2246 57.8613 47.9884 58.4717C47.9394 57.5817 47.9009 56.7237 47.8969 55.8317Z" fill="#EA3934"/>
<path d="M42.2914 60.1367C42.9842 59.9487 43.6885 59.8062 44.3999 59.7102C44.447 59.7231 44.4899 59.7479 44.5246 59.7822C44.5592 59.8166 44.5844 59.8593 44.5977 59.9062C44.611 59.9531 44.6119 60.0027 44.6004 60.0501C44.5889 60.0975 44.5653 60.1411 44.5319 60.1767C44.3054 60.4002 42.7259 60.6512 42.3819 60.6892C41.7989 60.7517 41.7409 60.6178 41.6624 60.2517C41.4639 59.3298 41.3199 58.1893 41.1309 57.2018C41.0714 56.8928 41.0264 56.8122 41.3714 56.6972C41.8029 56.5527 42.4104 56.4652 42.8649 56.3652C43.5564 56.2142 43.6864 56.7942 43.2514 56.8867C42.7209 56.9987 42.1759 57.1042 41.6414 57.1937C41.8839 58.1527 42.1084 59.1652 42.2914 60.1367Z" fill="#EA3934"/>
<path d="M43.6714 58.5167C43.9834 58.3652 43.8289 57.9423 43.4599 58.0073C43.0507 58.097 42.6557 58.2407 42.2844 58.4347C42.0099 58.5742 42.2259 58.9537 42.4674 58.8667C42.7629 58.7577 43.4514 58.6232 43.6714 58.5167Z" fill="#EA3934"/>
<path d="M36.7474 57.2067C37.5669 56.8007 39.3349 56.4367 39.9564 57.3302C40.0867 57.5088 40.1694 57.7178 40.1957 57.9372C40.2219 58.1567 40.1913 58.3792 40.1067 58.5834C40.0222 58.7875 39.8865 58.9666 39.7129 59.1032C39.5392 59.2399 39.3333 59.3296 39.1149 59.3637C38.4824 59.4477 38.5359 58.8942 38.8124 58.8577C39.4579 58.7722 39.8989 58.0803 39.3624 57.5908C39.0214 57.2793 38.2354 57.3962 37.7889 57.4652C37.9419 57.9242 38.6119 60.3383 38.5064 60.7293C38.4902 60.7799 38.4597 60.8248 38.4185 60.8585C38.3773 60.8922 38.3273 60.9133 38.2744 60.9191C38.2215 60.925 38.1681 60.9154 38.1205 60.8916C38.073 60.8677 38.0333 60.8306 38.0064 60.7847C37.9044 60.6367 37.8494 59.6797 37.3144 57.5522C37.1709 57.5837 37.0279 57.6172 36.8849 57.6522C36.6174 57.7172 36.5189 57.3197 36.7474 57.2067Z" fill="#EA3934"/>
<path d="M34.8139 61.3882C36.4589 61.3552 37.0639 59.3332 36.1934 58.0552C35.7494 57.4022 34.6999 57.0302 34.0879 57.7002C33.9234 57.8797 34.1904 58.1232 34.4429 58.0452C34.6554 57.9562 34.8922 57.9434 35.1131 58.0088C35.334 58.0742 35.5256 58.2139 35.6554 58.4043C36.2674 59.2598 36.0599 60.6497 34.9174 60.8097C33.6674 60.9852 33.4139 59.5242 33.9174 58.5197C33.9412 58.4739 33.9479 58.4211 33.9363 58.3708C33.9247 58.3205 33.8955 58.276 33.854 58.2452C33.8125 58.2145 33.7614 58.1996 33.7099 58.2032C33.6583 58.2068 33.6098 58.2286 33.5729 58.2648C32.4989 59.3418 33.2499 61.4177 34.8139 61.3882Z" fill="#EA3934"/>
<path d="M51.3994 60.5038C51.2942 58.3378 50.7359 55.078 50.6339 53.9178C44.6924 54.6833 38.1839 55.2297 32.1639 56.1222C31.8709 56.1657 31.8409 55.7172 32.1224 55.6722C37.9394 54.7557 44.3384 54.0482 50.2249 53.3667C50.7814 53.3022 51.0004 53.2852 51.1144 53.8577C51.5219 55.9077 51.6289 58.0742 51.9644 60.1412C52.0684 60.7787 51.8074 61.1338 51.0559 61.2368C45.3739 62.0178 39.5799 62.7692 33.1374 63.6112C32.0099 63.7582 31.9914 63.7047 31.7519 62.4612C31.3673 60.5043 31.1346 58.5206 31.0559 56.5277C31.0512 56.4702 31.0693 56.4131 31.1064 56.3688C31.1434 56.3245 31.1964 56.2967 31.2539 56.2912C31.3114 56.2857 31.3687 56.3031 31.4135 56.3397C31.4582 56.3762 31.4867 56.4288 31.4929 56.4863C31.678 58.6818 31.9898 60.8647 32.4269 63.0242C38.0362 62.3383 45.6404 61.4483 51.3994 60.5038Z" fill="#EA3934"/>
<path d="M44.7024 46.3112C45.4914 46.9737 48.4444 51.0673 49.2684 52.5773L49.2689 52.5757C49.3854 52.7882 48.9389 52.9882 48.8289 52.8097C47.5019 50.6322 44.7339 47.1752 44.3934 46.6027C44.2739 46.4022 44.5074 46.1472 44.7024 46.3112Z" fill="#EA3934"/>
</svg>
