<svg width="100" height="100" viewBox="0 0 100 100" fill="none" xmlns="http://www.w3.org/2000/svg">
<path d="M31.4 68.8999C30.824 71.0324 29.244 88.6869 29.051 90.9084C29.035 91.1359 28.833 91.3664 28.5045 91.3654C28.4195 91.3654 10.38 91.3389 10.36 91.3379C10.2805 89.6834 9.978 84.5214 9.278 83.9964C8.598 83.4864 4.5335 85.5889 3.049 86.3864C4.984 68.3339 5.767 56.3539 5.8945 55.8964C5.9505 55.7114 6.12 55.5709 6.3025 55.5434C6.331 55.5364 9.1725 55.4989 14.304 55.6189C14.4 55.2689 14.502 54.9129 14.6095 54.5514C12.787 54.5459 10.33 54.5489 6.397 54.5249C6.00265 54.525 5.62337 54.6764 5.33731 54.9478C5.05126 55.2193 4.88024 55.5901 4.8595 55.9839C4.8 57.0579 2.0105 86.6864 2.0105 86.6864C1.971 87.1719 2.1825 87.6739 2.5665 87.9719C2.7815 88.1384 9.6875 92.1614 9.7405 92.1874C10.202 92.4149 9.7605 92.1074 28.5075 92.3459C28.8852 92.3517 29.2513 92.2152 29.533 91.9635C29.8147 91.7118 29.9914 91.3634 30.028 90.9874C30.028 90.9874 31.5735 70.3834 31.5845 69.7964C31.6015 68.8834 31.5475 68.3544 31.4 68.8999Z" fill="#3A307F"/>
<path d="M77.5286 22.3729C77.5631 22.2479 77.6031 22.1229 77.6501 21.9989L77.6891 21.8949C77.6866 21.5544 77.6316 21.0249 77.5001 20.2734C77.1116 18.0509 77.3401 17.5704 77.3211 17.6719C77.7296 18.1369 78.1096 19.0264 78.4306 19.9304L78.7936 18.9679C78.2831 17.7094 77.5786 16.5029 76.8901 17.0929C76.7811 17.2459 76.7071 17.3229 76.6466 17.6364C76.4661 18.5714 76.9071 20.8094 77.0601 21.3524C77.2256 21.9374 77.4041 22.3094 77.5286 22.3724V22.3729Z" fill="#3A307F"/>
<path d="M78.8755 17.9751C79.076 17.7121 78.639 16.0751 78.5595 15.1976C78.508 14.6316 78.5965 14.4946 78.595 14.4446C78.9875 14.8736 79.3415 15.7356 79.5525 16.2746C79.5975 16.3891 79.6405 16.5036 79.6815 16.6166L80.039 15.6686C79.567 14.5311 78.9375 13.4561 78.3385 13.7606C77.2215 14.2541 78.4945 18.4751 78.8755 17.9751Z" fill="#3A307F"/>
<path d="M80.292 14C80.4955 13.732 80.0575 12.12 79.976 11.2225C79.9245 10.6565 80.0125 10.5205 80.0115 10.4695C80.403 10.8975 80.7575 11.7595 80.969 12.2995C81.029 12.4525 81.085 12.6045 81.1385 12.7545L81.2735 12.397C81.3436 12.2114 81.4267 12.031 81.522 11.857C81.0435 10.661 80.3825 9.46553 79.755 9.78553C78.637 10.277 79.9125 14.499 80.292 14.0005V14Z" fill="#3A307F"/>
<path d="M77.019 57.7289C83.227 53.1469 86.6875 42.7974 87.9895 35.1474C88.024 34.9444 88.06 34.7309 88 34.5724C87.95 34.4034 87.825 34.2464 87.6715 34.1524C87.4235 34.0004 87.2405 34.0454 86.4205 34.0774C83.1775 34.2064 80.039 33.4774 77.3895 31.6039C77.24 31.4984 77.2035 31.4489 76.897 31.2329C76.4545 30.7659 75.7755 31.0429 75.6515 31.5794C75.336 32.9394 74.9365 34.2169 74.4745 35.3504C73.1915 38.5004 71.9435 40.2099 71.5845 40.8079C70.5445 42.5409 74.7055 39.3119 76.515 32.1704C77.0695 32.6229 77.6865 33.0364 78.607 33.4974C81.2755 34.8324 84.0675 35.1784 86.995 35.0564C86.839 35.0564 85.589 46.8764 78.6375 55.0504C78.2675 55.5534 77.823 55.9789 77.4105 56.4299C76.6685 57.2414 77.0115 56.8954 76.1905 57.6429C75.9895 57.8219 75.7966 58.0099 75.6125 58.2064C74.8015 59.1004 75.9685 58.5044 77.019 57.7289Z" fill="#3A307F"/>
<path d="M83.021 28.569C83.239 28.7125 83.57 28.8205 83.795 28.869C85.445 29.2235 87.321 28.4225 88.262 26.946C88.4465 26.656 88.602 26.326 88.72 26.0205C88.72 26.0205 92.3105 16.62 92.449 16.119C92.8735 14.581 92.397 12.795 91.162 11.638C90.3405 10.868 89.599 10.6695 88.121 10.1225C86.857 9.65498 86.051 9.21748 84.6885 9.37348C83.4645 9.51348 82.3265 10.1845 81.589 11.153C81.2245 11.6315 80.981 12.228 80.7985 12.728C80.609 13.248 77.4905 21.453 77.25 22.2155C76.6245 24.1965 77.5865 26.7465 79.886 27.6095C80.539 27.8545 83.4645 28.862 82.863 28.423C82.5925 28.2255 81.7715 27.872 81.197 27.624C80.1815 27.186 79.11 26.925 78.275 25.544C77.65 24.511 77.5495 23.203 77.9825 22.0725C81.4115 13.1275 81.522 12.4795 81.9165 11.8515C82.885 10.3105 84.669 9.72298 86.1875 10.1325C86.4925 10.2145 86.61 10.2635 88.6645 11.0425C89.5125 11.365 90.679 11.6845 91.4495 13.0975C91.7826 13.7163 91.9453 14.4126 91.921 15.115C91.9 15.7825 91.669 16.342 91.4475 16.9285C88.304 25.2465 88.041 26.116 87.86 26.4055C87.5108 27.0604 86.9903 27.6082 86.354 27.9903C85.7178 28.3725 84.9897 28.5748 84.2475 28.5755C83.507 28.5775 82.667 28.334 83.021 28.567V28.569Z" fill="#3A307F"/>
<path d="M85.4785 16.5949C83.729 16.1484 81.78 17.0569 81.1335 18.7709C80.9661 19.2144 80.8876 19.6866 80.9027 20.1605C80.9178 20.6344 81.026 21.1007 81.2213 21.5327C81.4166 21.9648 81.6951 22.3541 82.0409 22.6785C82.3866 23.0029 82.7929 23.256 83.2365 23.4234C85.1415 24.1424 87.3625 23.0809 87.9505 21.1299C88.517 19.2524 87.4085 17.0869 85.4785 16.5949Z" fill="#D4D2E1"/>
<path d="M88.8755 17.8424C88.627 17.7149 87.719 18.2589 87.4855 18.4154C87.4745 18.4229 83.8675 20.8544 83.86 20.8429C83.691 20.5044 83.594 20.1739 83.341 19.8009C83.2245 19.6289 83.0125 19.3169 82.8825 19.4859C82.82 19.5669 82.8315 19.7109 82.848 19.8084C82.959 20.4604 83.1645 20.8844 83.334 21.2759C83.4305 21.4989 83.8195 21.7094 84.1665 21.4429C87.0885 19.4924 89.377 18.0999 88.8755 17.8424Z" fill="#3A307F"/>
<path d="M87.73 11.5125C87.6672 11.4888 87.6004 11.4776 87.5333 11.4797C87.4662 11.4818 87.4001 11.4972 87.3389 11.5248C87.2777 11.5524 87.2226 11.5918 87.1766 11.6407C87.1307 11.6897 87.0948 11.7472 87.071 11.81C87.0473 11.8728 87.0362 11.9397 87.0383 12.0068C87.0404 12.0739 87.0557 12.1399 87.0833 12.2011C87.1109 12.2623 87.1503 12.3175 87.1993 12.3634C87.2482 12.4094 87.3057 12.4453 87.3685 12.469C87.4954 12.5169 87.6361 12.5125 87.7597 12.4567C87.8832 12.401 87.9796 12.2983 88.0275 12.1715C88.0755 12.0447 88.0711 11.904 88.0153 11.7804C87.9595 11.6568 87.8569 11.5604 87.73 11.5125Z" fill="#3A307F"/>
<path d="M91.2205 15.875C91.119 16.0245 91.1235 16.3665 91.1385 16.6045C91.3205 19.558 92.0955 22.184 91.6905 25.1695C91.3855 27.4195 88.099 32.446 87.968 32.679C87.6836 33.1948 87.4133 33.7183 87.1575 34.249C86.9265 34.764 87.5865 34.897 87.6745 34.8005C88.3305 34.0805 89.1825 32.584 89.6975 31.73C90.628 30.1875 91.7575 28.2885 92.349 26.587C92.7905 25.3165 92.8635 24.0805 92.791 22.618C92.702 20.823 92.3815 18.0045 91.658 16.256C91.6184 16.1512 91.5676 16.0509 91.5065 15.957C91.4125 15.824 91.296 15.7635 91.2195 15.8755H91.2205V15.875Z" fill="#3A307F"/>
<path d="M17.9685 22.281C17.9425 22.312 17.2955 23.094 17.2955 23.1735C17.2955 23.5235 17.9435 23.885 18.1185 23.677C18.647 23.0485 18.7755 22.9295 18.7755 22.8035C18.7755 22.4665 18.162 22.052 17.9685 22.281Z" fill="#3A307F"/>
<path d="M22.9425 17.958C22.842 17.869 22.7575 17.8515 22.7075 17.85C22.5045 17.8445 22.3485 17.902 22.233 18.007C22.172 18.062 20.647 19.47 20.5905 19.591C20.5275 19.725 20.5295 19.884 20.561 19.956C20.622 20.096 20.8075 20.254 20.975 20.255C21.1835 20.256 21.3395 20.198 21.4515 20.095C22.769 18.8895 23.0425 18.7015 23.0985 18.418C23.1335 18.2405 23.1075 18.104 22.9425 17.958Z" fill="#3A307F"/>
<path d="M28.0089 14.269C27.9229 14.166 27.8419 14.136 27.7924 14.127C27.5924 14.091 27.4294 14.125 27.2999 14.212C27.2314 14.258 25.5134 15.4225 25.4394 15.5335C25.3574 15.6565 25.3354 15.815 25.3559 15.891C25.3949 16.037 25.5534 16.2215 25.7209 16.2475C25.9269 16.2795 26.0894 16.2455 26.2159 16.161C27.8349 15.074 28.0044 14.9975 28.0944 14.7475C28.1544 14.5785 28.1504 14.4385 28.0089 14.269Z" fill="#3A307F"/>
<path d="M33.57 11.3796C33.5 11.2646 33.425 11.2231 33.378 11.2071C33.186 11.1416 33.0195 11.1506 32.878 11.2171C32.803 11.2521 30.931 12.1466 30.841 12.2456C30.742 12.3551 30.696 12.5076 30.705 12.5866C30.722 12.7386 30.8525 12.9436 31.0125 12.9936C31.2115 13.0561 31.3775 13.0471 31.515 12.9821C33.154 12.2086 33.449 12.1151 33.584 11.8661C33.669 11.7076 33.6855 11.5686 33.571 11.3801L33.5705 11.3796H33.57Z" fill="#3A307F"/>
<path d="M39.504 9.36005C39.4525 9.23555 39.384 9.18305 39.3395 9.16005C39.1595 9.06655 38.9935 9.05055 38.844 9.09505C38.7645 9.11855 36.778 9.72055 36.6745 9.80505C36.5585 9.89855 36.4915 10.0426 36.4885 10.1211C36.4825 10.2741 36.581 10.4966 36.731 10.5696C36.9185 10.6611 37.0835 10.6776 37.2295 10.6336C38.9115 10.1311 39.2665 10.0761 39.443 9.84155C39.552 9.69655 39.589 9.56255 39.504 9.35955V9.36005Z" fill="#3A307F"/>
<path d="M45.676 8.25598C45.6435 8.12598 45.584 8.06348 45.5435 8.03398C45.3795 7.91398 45.218 7.87398 45.063 7.89498C44.981 7.90648 42.926 8.20248 42.8105 8.26998C42.683 8.34498 42.594 8.47648 42.579 8.55498C42.55 8.70498 42.6135 8.93998 42.7515 9.03498C42.923 9.15298 43.084 9.19398 43.235 9.17298C44.9865 8.92648 45.334 8.92798 45.5435 8.72298C45.6715 8.59798 45.73 8.47298 45.676 8.25598Z" fill="#3A307F"/>
<path d="M51.846 7.84301C51.7015 7.69801 51.5475 7.63101 51.3915 7.62801C49.1295 7.58801 49.082 7.60301 48.886 7.83651C48.7695 7.97451 48.7975 8.29101 48.9365 8.41851C49.0885 8.55801 49.2415 8.61851 49.394 8.61651C49.475 8.59851 51.0555 8.63151 51.1815 8.63651C52.072 8.67451 52.0235 8.02151 51.846 7.84351V7.84301Z" fill="#3A307F"/>
<path d="M58.1705 8.84305C58.178 8.70805 58.139 8.63205 58.109 8.59155C57.9875 8.42905 57.8445 8.34305 57.6905 8.31805C57.609 8.30505 55.557 7.98405 55.427 8.01505C55.282 8.04955 55.159 8.15005 55.122 8.21955C55.0505 8.35355 55.0415 8.59705 55.1455 8.72905C55.2745 8.89305 55.4165 8.97905 55.567 9.00355C57.363 9.29105 57.649 9.38355 57.9065 9.25155C58.067 9.16905 58.1585 9.06305 58.1705 8.84305Z" fill="#3A307F"/>
<path d="M64.2115 10.5285C64.239 10.397 64.212 10.315 64.1885 10.2705C64.093 10.0915 63.965 9.98453 63.816 9.93703C63.7375 9.91203 61.757 9.28553 61.624 9.29703C61.4795 9.30853 61.34 9.38803 61.292 9.45253C61.201 9.57453 61.156 9.81403 61.239 9.96003C61.342 10.1415 61.469 10.248 61.6145 10.295C63.3185 10.841 63.6165 10.984 63.8895 10.8915C64.0585 10.8345 64.166 10.7495 64.212 10.528L64.2115 10.5285Z" fill="#3A307F"/>
<path d="M69.9285 13.105C69.9755 12.979 69.9615 12.894 69.9445 12.847C69.8765 12.6555 69.7665 12.5305 69.6265 12.461C69.5525 12.424 67.6895 11.507 67.556 11.4975C67.41 11.4875 67.261 11.5455 67.204 11.6015C67.0955 11.709 67.015 11.9385 67.075 12.095C67.1495 12.29 67.2595 12.414 67.3955 12.482C69.117 13.3405 69.2875 13.462 69.5545 13.4155C69.732 13.3855 69.851 13.3105 69.928 13.1045L69.9285 13.105Z" fill="#3A307F"/>
<path d="M73.9325 15.0556C73.899 15.0331 73.0525 14.4726 72.974 14.4811C72.627 14.5186 72.335 15.2001 72.5605 15.3526C73.311 15.8596 73.398 15.9666 73.583 15.8901C73.922 15.7501 74.137 15.1936 73.9325 15.0556Z" fill="#3A307F"/>
<path d="M24.2675 26.7041C24.9205 26.0551 24.369 25.0401 23.556 25.1441C21.3175 25.5791 16.7765 26.9206 14.3885 28.3241C14.2329 28.4155 14.0588 28.471 13.879 28.4865C13.6992 28.502 13.5182 28.4771 13.3493 28.4136C13.1803 28.3502 13.0277 28.2497 12.9026 28.1197C12.7774 27.9897 12.6829 27.8333 12.626 27.6621C12.201 26.3871 10.045 20.6451 9.96698 20.4386C9.64348 19.6266 8.49798 19.6851 8.25648 20.5266C6.01698 28.3346 4.09048 39.3936 6.56848 47.1721C6.65898 47.4701 7.27698 49.0241 7.36698 49.1821C7.71048 49.7831 8.59698 49.8361 9.04798 49.3371C9.30248 49.0551 17.6605 33.3211 23.3595 27.6276L24.2685 26.7046H24.2675V26.7041ZM7.89498 47.8351C7.76398 47.4881 7.60098 47.1536 7.50248 46.7931C6.99748 44.8121 7.20698 46.4331 6.72248 43.3611C5.59498 36.2111 7.20648 27.9261 9.10748 21.0016C9.11098 20.9851 9.11448 20.9701 9.12798 20.9616C9.15548 20.9446 9.18598 20.9656 9.19048 20.9891C9.35148 21.3841 12.0355 27.7441 12.621 28.8556C12.6961 28.9985 12.7307 29.1592 12.7209 29.3204C12.7111 29.4815 12.6573 29.6369 12.5655 29.7696C12.1535 30.3646 11.5185 31.4006 11.0665 32.5496C10.953 32.7866 9.98848 35.3126 9.33848 37.9636C8.67998 40.4866 7.83548 45.2156 7.89498 47.8361V47.8351ZM8.73348 47.8831C8.78798 47.3696 8.83048 46.7521 8.87698 46.4341C8.95748 45.9591 9.04398 45.4811 9.08448 44.9991C9.33648 42.0091 10.4005 37.1391 11.702 33.6381C12.326 31.9471 12.357 32.1011 12.861 30.6681C13.076 30.0571 13.2005 29.4281 13.9875 29.0641C16.07 28.0996 17.824 27.5521 20.2265 26.9216C20.5825 26.8291 23.2765 26.1576 23.3885 26.1691C23.5935 26.2311 18.542 29.9076 8.73348 47.8831Z" fill="#3A307F"/>
<path d="M89.688 64.1411C89.7015 64.1026 90.027 63.1406 89.9985 63.0666C89.8735 62.7411 89.14 62.6316 89.05 62.8896C88.789 63.6401 88.703 63.8241 88.7475 63.9401C88.868 64.2556 89.5895 64.4231 89.6875 64.1406L89.688 64.1411Z" fill="#3A307F"/>
<path d="M87.2715 69.5626C87.308 69.4901 88.2135 67.6641 88.222 67.5326C88.2315 67.3876 88.173 67.2411 88.1165 67.1846C87.8305 66.8971 87.3865 67.0711 87.2395 67.3641C86.443 68.9541 86.269 69.2031 86.3195 69.4821C86.41 69.9831 87.0485 70.0071 87.2715 69.5626Z" fill="#3A307F"/>
<path d="M83.9605 74.826C84.007 74.7595 85.171 73.0865 85.199 72.958C85.2855 72.5585 84.9035 72.348 84.6785 72.3955C84.4765 72.4375 84.3385 72.525 84.2525 72.6475C83.2225 74.1145 83.022 74.3275 83.031 74.6065C83.046 75.074 83.647 75.2715 83.9605 74.826Z" fill="#3A307F"/>
<path d="M79.9155 79.5461C79.9715 79.4876 81.367 78.0031 81.413 77.8796C81.464 77.7436 81.45 77.5861 81.413 77.5161C81.2225 77.1581 80.748 77.1951 80.522 77.4331C79.328 78.6921 79.0605 78.9081 79.0275 79.1926C78.9695 79.6916 79.561 79.9181 79.9155 79.5456V79.5461Z" fill="#3A307F"/>
<path d="M74.5215 83.6135C74.615 83.71 74.697 83.7345 74.7465 83.74C74.9465 83.763 75.104 83.7185 75.225 83.624C75.289 83.574 76.886 82.3095 76.95 82.1945C77.021 82.067 77.0295 81.9095 77.003 81.835C76.952 81.6915 76.78 81.5195 76.6145 81.505C76.409 81.487 76.2515 81.5305 76.134 81.6225C74.7735 82.691 74.474 82.864 74.399 83.1445C74.3525 83.317 74.369 83.4545 74.5225 83.613L74.5215 83.6135Z" fill="#3A307F"/>
<path d="M69.294 86.8576C69.372 86.9671 69.45 87.0031 69.498 87.0156C69.6925 87.0671 69.855 87.0471 69.988 86.9711C70.0585 86.9311 71.824 85.9146 71.904 85.8101C71.993 85.6936 72.0245 85.5396 72.009 85.4621C71.9795 85.3131 71.8345 85.1176 71.673 85.0786C71.472 85.0306 71.31 85.0506 71.1805 85.1246C69.627 86.0111 69.3525 86.1191 69.241 86.3756C69.17 86.5401 69.1655 86.6771 69.2945 86.8571L69.294 86.8576Z" fill="#3A307F"/>
<path d="M63.6455 89.296C63.7065 89.4155 63.778 89.463 63.824 89.483C64.0085 89.563 64.1725 89.566 64.3155 89.511C64.391 89.482 66.2875 88.7365 66.382 88.645C66.4865 88.544 66.541 88.3955 66.5375 88.3165C66.5305 88.1645 66.416 87.95 66.2615 87.888C66.07 87.811 65.9065 87.8065 65.7675 87.861C64.1 88.5095 63.816 88.5695 63.6645 88.812C63.57 88.963 63.5455 89.1005 63.6455 89.296Z" fill="#3A307F"/>
<path d="M57.845 91.084C58.0155 91.1905 58.1775 91.218 58.327 91.1845C60.566 90.6805 60.5125 90.6445 60.5955 90.544C60.637 90.494 60.694 90.4075 60.7015 90.332C60.717 90.1795 60.6345 89.951 60.492 89.867C60.314 89.762 60.153 89.7345 60.007 89.767C58.9065 90.015 58.084 90.1645 57.884 90.3065C57.768 90.389 57.683 90.5295 57.6695 90.611C57.6445 90.764 57.707 90.9975 57.845 91.0835V91.084Z" fill="#3A307F"/>
<path d="M51.5785 91.5555C51.602 91.688 51.657 91.7535 51.6945 91.786C51.8475 91.9165 52.0035 91.967 52.1565 91.956C52.2375 91.95 54.2695 91.791 54.3865 91.731C54.5175 91.664 54.6115 91.5385 54.631 91.462C54.6685 91.3145 54.6215 91.0765 54.492 90.9715C54.3315 90.8415 54.176 90.7905 54.027 90.8015C52.241 90.935 51.9525 90.91 51.7365 91.098C51.6015 91.2155 51.5395 91.3385 51.5785 91.5555Z" fill="#3A307F"/>
<path d="M45.425 91.3421C45.43 91.4766 45.4745 91.5496 45.507 91.5871C45.6395 91.7381 45.7865 91.8116 45.9395 91.8226C46.0205 91.8286 48.0545 91.9656 48.179 91.9231C48.317 91.8761 48.429 91.7651 48.46 91.6926C48.518 91.5531 48.5075 91.3101 48.394 91.1871C48.254 91.0351 48.108 90.9621 47.9585 90.9516C46.0485 90.8166 45.8715 90.7691 45.6485 90.9126C45.4985 91.0091 45.4185 91.1221 45.4255 91.3421H45.425Z" fill="#3A307F"/>
<path d="M39.4145 90.484C39.5235 90.653 39.658 90.747 39.8075 90.7805C39.887 90.798 41.8785 91.2325 42.008 91.209C42.1515 91.183 42.2795 91.0895 42.32 91.022C42.3985 90.8915 42.422 90.65 42.3285 90.512C42.2125 90.341 42.0785 90.2475 41.9325 90.215C40.087 89.803 39.8985 89.727 39.6545 89.837C39.3455 89.976 39.3175 90.333 39.4145 90.484Z" fill="#3A307F"/>
<path d="M35.0635 89.318C35.1015 89.332 36.058 89.6715 36.1325 89.6445C36.459 89.525 36.5805 88.793 36.3235 88.699C35.552 88.4175 35.3965 88.338 35.278 88.3815C34.96 88.4975 34.783 89.216 35.0635 89.3185V89.318Z" fill="#3A307F"/>
<path d="M93.816 40.3251C93.712 40.1376 92.758 38.6956 92.609 38.5301C92.1115 37.9771 91.086 38.1541 90.836 38.9556C88.464 46.5631 85.2405 57.2916 80.9265 63.9916C80.7975 64.1921 80.7215 64.3296 80.706 64.5706C80.6865 65.1271 81.18 65.5596 81.6795 65.5026C81.865 65.4961 82.023 65.4091 82.3655 65.2451C84.148 64.3911 86.021 63.3861 87.687 62.2936C89.565 61.0581 90.383 60.2701 91.2725 59.2321C91.6815 60.3116 94.861 65.1471 96.1735 67.1696C96.6625 67.8946 97.769 67.5936 97.826 66.7201C98.36 58.5586 97.884 47.3886 93.8165 40.3241L93.816 40.3246V40.3251ZM88.473 60.6716C84.8005 63.0701 85.056 62.9026 81.8505 64.4201C81.842 64.4221 81.835 64.4221 81.8315 64.4156C81.8285 64.4096 81.836 64.4016 81.836 64.4016C81.8135 64.4526 86.057 58.7546 91.5875 39.9596C91.8435 43.6831 92.2045 46.2086 92.06 49.9551C91.954 53.6971 91.4225 56.0996 91.2715 57.0666C91.114 58.0746 91.061 58.3746 91.022 58.5811C90.3385 59.1716 89.099 60.2746 88.473 60.6716ZM96.881 66.4806C96.858 66.5036 96.8235 66.4896 96.814 66.4676C95.38 64.3756 94.1005 62.4576 91.74 58.6381C92.6335 56.3666 93.0005 52.3326 93.0645 49.9121C93.177 47.1841 92.9555 44.4271 92.9295 44.0211C92.9645 43.5381 92.558 41.0901 92.347 39.9111C92.5555 40.2381 92.802 40.5466 92.983 40.8936C93.5005 41.9296 93.887 42.3546 94.848 45.1941C95.4835 46.9511 96.4415 50.9401 96.825 56.1116C97.1905 61.1401 96.9325 66.4346 96.881 66.4806Z" fill="#3A307F"/>
<path d="M24.102 38.9311C23.402 39.1361 20.2895 41.2831 17.8185 45.6616C15.7395 49.3466 14.4355 52.9206 13.409 57.1096C12.977 58.8716 12.6285 60.7806 12.4665 61.9961C12.3145 63.1366 12.244 63.3296 12.5 63.6281C12.9765 64.1836 13.5565 63.6846 15.7005 63.8066C15.9635 63.8216 16.2275 63.8146 16.487 63.8466C21.5755 64.2016 23.5515 66.6646 24.0795 66.5926C24.249 66.5951 24.428 66.5281 24.554 66.4201C24.9115 66.1121 24.751 65.8251 25.339 63.7661C25.884 61.8581 26.99 59.2376 28.16 57.3191C28.4275 56.8801 29.0095 56.0041 28.604 56.1871C28.2915 56.3286 27.7115 56.9811 27.352 57.4711C25.6165 59.8376 24.552 62.5561 23.9225 65.4226C21.7 63.7986 18.9295 62.9726 16.2855 62.8291C14.846 62.7511 13.965 62.8306 13.3605 62.8756C14.315 55.8806 16.7045 48.0961 21.064 42.6231C21.398 42.1371 21.5755 41.9856 22.8115 40.5466C23.347 40.0296 23.736 39.6656 23.986 39.3716C24.2315 39.0821 24.338 38.8621 24.102 38.9316V38.9311Z" fill="#3A307F"/>
<path d="M20.3365 85.7331C20.1355 85.6931 19.7585 85.7186 19.445 85.6766C17.493 85.4151 13.131 84.0321 12.839 83.8586C12.6505 83.6896 12.412 83.2491 12.2275 82.8216C11.699 81.5986 11.139 79.6346 10.9585 78.1326C10.7895 76.7256 12.09 73.6246 12.839 72.2511C13.424 71.1801 14.3545 69.9721 14.604 68.0791C14.654 67.6941 14.711 67.0041 14.6315 66.6466C14.5835 66.4321 14.4815 66.3156 14.38 66.4371C14.2465 66.5971 14.135 67.0301 14.05 67.3321C13.182 70.4271 12.471 70.5176 11.28 73.1721C10.639 74.5991 10.2365 75.9231 10.06 76.8156C9.91298 77.5581 9.91698 77.8841 9.97198 78.3446C10.142 79.7646 11.1305 83.9121 12.292 84.7106C12.5405 84.9216 15.064 85.6561 15.46 85.7646C16.8065 86.1326 18.447 86.5016 19.7965 86.2421C19.9655 86.1836 20.129 86.1536 20.2585 86.0526C20.461 85.8946 20.4985 85.7656 20.3365 85.7331Z" fill="#3A307F"/>
<path d="M26.3965 90.4926C24.8465 87.9801 24.959 88.0231 24.764 87.8411L6.84999 70.6346C6.74769 70.5376 6.62728 70.4616 6.49563 70.4111C6.36398 70.3606 6.22367 70.3365 6.08271 70.3402C5.94175 70.3439 5.8029 70.3754 5.67409 70.4327C5.54528 70.4901 5.42904 70.5723 5.33199 70.6746C5.23495 70.7769 5.159 70.8973 5.10849 71.029C5.05798 71.1606 5.03389 71.3009 5.0376 71.4419C5.04132 71.5829 5.07276 71.7217 5.13013 71.8505C5.18751 71.9793 5.26969 72.0956 5.37199 72.1926L23.491 89.1681C23.67 89.3391 23.6165 89.2876 26.187 90.7161C26.3305 90.7961 26.483 90.6326 26.3965 90.4926Z" fill="#D4D2E1"/>
<path d="M19.902 66.6002C19.5845 66.8432 19.521 67.9397 18.6345 69.8192C17.592 72.0292 15.8255 73.3002 14.964 75.7737C13.964 78.6442 14.311 79.3702 14.845 80.6807C15.222 81.6057 15.7215 82.7397 16.257 83.5832C16.3745 83.7682 16.695 84.2567 16.8615 84.3997C16.983 84.5037 17.1095 84.5337 17.158 84.4087C17.391 83.8127 15.4965 79.8747 15.4025 79.3512C15.1395 78.3292 15.58 77.0307 15.931 76.0482C16.951 73.1947 19.96 71.3902 20.195 67.7997C20.211 67.5547 20.225 66.9977 20.149 66.7627C20.099 66.6087 20.008 66.5182 19.901 66.6002H19.902Z" fill="#3A307F"/>
<path d="M23.658 79.4842C22.916 80.4532 22.806 80.7967 22.1515 81.6742C22.2035 81.7227 21.8165 81.8402 21.528 81.8207C19.679 81.6982 18.129 78.3962 17.4765 78.1127C17.2765 78.0257 17.0695 78.1737 17.1735 78.6047C17.3825 79.4717 17.821 80.1132 18.465 80.8852C19.474 82.0942 20.867 83.2172 22.364 82.7092C22.8255 82.5202 22.7275 82.5882 22.925 82.3272C24.847 79.7847 24.2955 78.6517 23.658 79.4842Z" fill="#3A307F"/>
<path d="M24.1145 76.896C23.9695 76.8985 23.861 76.9955 23.7915 77.067C23.149 77.7335 23.2615 77.845 22.1945 79.4635C22.0365 79.5775 21.8305 79.6885 21.638 79.6575C21.2215 79.59 20.842 78.9535 20.6555 78.5775C20.3395 77.941 20.366 77.805 20.122 77.424C20.065 77.335 19.9325 77.1345 19.8415 77.081C19.6665 76.9785 19.4375 77.0795 19.413 77.4245C19.3745 77.964 19.4645 78.5435 20.0065 79.4505C20.354 80.032 20.8495 80.5635 21.521 80.6515C21.954 80.7085 22.368 80.564 22.642 80.379C22.723 80.3245 22.8015 80.2685 22.878 80.213C23.0005 80.1245 24.054 78.518 24.2655 77.8325C24.3735 77.482 24.481 76.89 24.1145 76.8955V76.896Z" fill="#3A307F"/>
<path d="M20.373 64.2091C20.194 64.5661 20.897 66.0726 21.2455 66.8656C21.276 66.9571 21.5905 67.5591 21.731 68.4731C21.8715 69.3871 21.7645 70.6936 21.601 71.9871C21.127 75.7246 19.633 75.4091 18.0115 76.7131C17.9402 76.766 17.8766 76.8284 17.8225 76.8986C17.746 77.0071 17.7335 77.1251 17.8425 77.1816C17.9865 77.2576 18.2455 77.2066 18.4235 77.1606C20.8985 76.5201 22.2075 75.3186 22.6025 72.0591C22.9365 69.3061 23.014 67.5976 21.5185 65.2626C21.342 64.9876 20.88 64.3296 20.6555 64.1821C20.5465 64.1101 20.4275 64.0991 20.373 64.2086V64.2091Z" fill="#3A307F"/>
<path d="M77.2675 43.428C72.5895 21.832 45.574 14.233 29.9775 29.887C19.931 39.97 18.4025 56.7545 29.157 68.8605C35.359 75.842 46.18 79.9225 56.9735 77.1305C73.349 72.69 80.3605 56.991 77.2675 43.428ZM61.135 74.647C58.9155 75.681 57.047 76.0985 56.023 76.353C56.527 75.727 57.1285 71.564 57.2395 70.554C57.4265 68.5155 58.5455 68.4285 59.611 67.325C60.304 66.3885 60.0755 65.6545 59.519 64.5205C57.7265 61.3315 53.011 64.0025 50.243 62.8615C49.443 62.532 48.887 61.8425 48.7835 61.3585C48.228 59.4925 54.1245 57.571 50.7205 54.4725C47.2565 51.4195 46.2965 54.127 40.509 51.868C38.8685 51.25 36.722 49.772 32.712 49.836C29.3555 49.8855 25.7015 51.0595 22.898 52.6075C22.4 47.5605 23.2185 42.8295 25.079 38.7605C29.076 30.0195 36.843 24.293 45.683 22.9365C50.0265 22.2215 54.864 22.763 57.981 23.769C56.5975 27.27 54.214 31.053 50.506 31.6675C46.2985 32.3785 41.0365 34.6955 40.722 38.806C40.656 39.666 40.687 39.532 40.6705 39.715C40.4905 42.5735 37.766 45.8535 42.101 46.941C43.598 47.294 45.8175 47.358 47.3885 47.3015C49.4775 47.239 51.2145 46.953 51.994 47.4735C52.794 47.9755 52.7715 49.7275 53.212 51.5105C53.524 52.69 53.9945 53.57 55.0895 54.1085C56.38 54.649 58.493 54.6035 60.5025 53.555C62.5415 52.482 63.873 50.984 65.383 50.5995C66.2745 50.367 67.008 50.6395 67.79 51.1265C68.7725 51.7385 70.144 53.557 73.5425 53.1755C75.2675 52.8645 75.9395 52.389 76.752 51.596C75.5825 62.7055 70.084 70.4775 61.135 74.647Z" fill="#EA3934"/>
</svg>
