<svg width="52" height="52" viewBox="0 0 52 52" fill="none" xmlns="http://www.w3.org/2000/svg">
<path d="M17.3333 28.1667H15.1667V22.75C15.1667 19.7643 17.5977 17.3333 20.5833 17.3333H31.4167C34.4045 17.3333 36.8333 19.7643 36.8333 22.75V28.1667H34.6667V22.75C34.6667 20.9582 33.2085 19.5 31.4167 19.5H20.5833C18.7915 19.5 17.3333 20.9582 17.3333 22.75V28.1667ZM18.4167 7.58333C18.4167 3.40167 21.8183 0 26 0C30.1817 0 33.5833 3.40167 33.5833 7.58333C33.5833 11.765 30.1817 15.1667 26 15.1667C21.8183 15.1667 18.4167 11.765 18.4167 7.58333ZM20.5833 7.58333C20.5833 10.569 23.0143 13 26 13C28.9857 13 31.4167 10.569 31.4167 7.58333C31.4167 4.59767 28.9878 2.16667 26 2.16667C23.0122 2.16667 20.5833 4.59767 20.5833 7.58333ZM34.6667 39H28.8535L26.8602 33.3103H25.1398L23.1465 39H17.3333V40.7225L21.3655 43.9725L19.8488 49.049L21.1878 50.1367L26 47.0167L30.8122 50.1367L32.1663 49.0967L30.6345 43.9725L34.6667 40.7225V39ZM28.1428 43.199L29.1157 46.4533L26 44.4318L22.8843 46.4533L23.8572 43.199L21.3352 41.1667H24.6805L25.9978 37.4075L27.3152 41.1667H30.6605L28.1385 43.199H28.1428ZM52 32.5H46.1868L44.1935 26.8103H42.4732L40.4798 32.5H34.6667V34.2225L38.6988 37.4725L37.1822 42.549L38.5212 43.6367L43.3333 40.5167L48.1455 43.6367L49.4997 42.5967L47.9678 37.4725L52 34.2225V32.5ZM45.4762 36.699L46.449 39.9533L43.3333 37.9318L40.2177 39.9533L41.1905 36.699L38.6685 34.6667H42.0138L43.3312 30.9075L44.6485 34.6667H47.9938L45.4718 36.699H45.4762ZM17.3333 32.5H11.5202L9.52683 26.8103H7.8065L5.81317 32.5H0V34.2225L4.03217 37.4725L2.5155 42.549L3.8545 43.6367L8.66667 40.5167L13.4788 43.6367L14.833 42.5967L13.3012 37.4725L17.3333 34.2225V32.5ZM10.8095 36.699L11.7823 39.9533L8.66667 37.9318L5.551 39.9533L6.52383 36.699L4.00183 34.6667H7.34717L8.6645 30.9075L9.98183 34.6667H13.3272L10.8052 36.699H10.8095Z" fill="#B7B1DD"/>
</svg>
