<svg width="53" height="52" viewBox="0 0 53 52" fill="none" xmlns="http://www.w3.org/2000/svg">
<g clip-path="url(#clip0_737_3390)">
<path d="M47.2501 19.5H10.4167C7.42892 19.5 5.00008 21.931 5.00008 24.9167V47.6667H22.5046L26.6754 51.181C27.2929 51.7292 28.0729 52.0022 28.8442 52.0022C29.6069 52.0022 30.3652 51.7357 30.9632 51.2048L35.2446 47.6667H52.6689V24.9167C52.6689 21.931 50.2379 19.5 47.2501 19.5ZM50.5001 45.5H34.4646L29.5527 49.5603C29.1454 49.9243 28.5257 49.9265 28.0924 49.543L23.2954 45.5022H7.16675V24.9188C7.16675 23.127 8.62492 21.6688 10.4167 21.6688H47.2501C49.0419 21.6688 50.5001 23.127 50.5001 24.9188V45.5ZM43.6469 32.5H48.3334V33.4923L44.7627 35.5615L46.1992 39.9273L45.3802 40.495L41.8486 37.7628L38.2996 40.5058L37.5196 39.9165L38.9322 35.4987L35.3356 33.4967V33.4902L31.7649 35.5593L33.2014 39.9252L32.3824 40.4928L28.8507 37.7607L25.3017 40.5037L24.5217 39.9143L25.9344 35.4965L22.3377 33.4945V33.488L18.7671 35.5572L20.2036 39.923L19.3846 40.4907L15.8529 37.7585L12.3039 40.5015L11.5239 39.9122L12.9366 35.4943L9.33991 33.4923V32.4913H14.0524L15.3264 27.6142H16.3794L17.6534 32.4913H27.0524L28.3264 27.6142H29.3794L30.6534 32.4913H40.0524L41.3264 27.6142H42.3794L43.6534 32.4913L43.6469 32.5ZM39.6667 15.1667H22.3334V13H39.6667V15.1667ZM9.33342 13H18.0001V15.1667H9.33342V13ZM26.6667 8.66667H9.33342V6.5H26.6667V8.66667ZM39.6667 8.66667H31.0001V6.5H39.6667V8.66667ZM6.08342 2.16667C4.29158 2.16667 2.83341 3.62483 2.83341 5.41667V18.863C1.49875 20.5313 0.666748 22.6178 0.666748 24.9167V5.41667C0.666748 2.431 3.09558 0 6.08342 0H42.9167C45.9046 0 48.3334 2.431 48.3334 5.41667V15.1667H46.1667V5.41667C46.1667 3.62483 44.7086 2.16667 42.9167 2.16667H6.08342Z" fill="#B7B1DD"/>
</g>
<defs>
<clipPath id="clip0_737_3390">
<rect width="52" height="52" fill="white" transform="translate(0.666748)"/>
</clipPath>
</defs>
</svg>
