<svg width="64" height="64" viewBox="0 0 64 64" fill="none" xmlns="http://www.w3.org/2000/svg">
<rect width="64" height="64" rx="32" fill="#F8D3D2"/>
<g clip-path="url(#clip0_4061_16670)">
<path d="M46.25 27.5C48.317 27.5 50 25.817 50 23.75C50 21.683 48.317 20 46.25 20C44.183 20 42.5 21.683 42.5 23.75C42.5 25.817 44.183 27.5 46.25 27.5ZM46.25 21.5C47.4905 21.5 48.5 22.5095 48.5 23.75C48.5 24.9905 47.4905 26 46.25 26C45.0095 26 44 24.9905 44 23.75C44 22.5095 45.0095 21.5 46.25 21.5ZM46.25 29C44.183 29 42.5 30.683 42.5 32.75V41H38V50H39.5V42.5H46.25C48.317 42.5 50 40.817 50 38.75V32.75C50 30.683 48.317 29 46.25 29ZM48.5 38.75C48.5 39.9905 47.4905 41 46.25 41H44V32.75C44 31.5095 45.0095 30.5 46.25 30.5C47.4905 30.5 48.5 31.5095 48.5 32.75V38.75ZM39.5 35H24.5V33.5H39.5V35ZM30.98 27.863C31.2725 28.1225 31.64 28.2515 32.006 28.2515C32.3645 28.2515 32.7215 28.127 33.0005 27.8795L35.27 26H39.5V16.25C39.5 15.0095 38.4905 14 37.25 14H26.75C25.5095 14 24.5 15.0095 24.5 16.25V26H28.73L30.98 27.863ZM26 16.25C26 15.836 26.336 15.5 26.75 15.5H37.25C37.664 15.5 38 15.836 38 16.25V24.5H34.73L31.9565 26.723L29.27 24.5H26V16.25ZM42.5 45.5H50V47H44V50H42.5V45.5ZM17.75 27.5C19.817 27.5 21.5 25.817 21.5 23.75C21.5 21.683 19.817 20 17.75 20C15.683 20 14 21.683 14 23.75C14 25.817 15.683 27.5 17.75 27.5ZM17.75 21.5C18.9905 21.5 20 22.5095 20 23.75C20 24.9905 18.9905 26 17.75 26C16.5095 26 15.5 24.9905 15.5 23.75C15.5 22.5095 16.5095 21.5 17.75 21.5ZM21.5 32.75C21.5 30.683 19.817 29 17.75 29C15.683 29 14 30.683 14 32.75V38.75C14 40.817 15.683 42.5 17.75 42.5H24.5V50H26V41H21.5V32.75ZM17.75 41C16.5095 41 15.5 39.9905 15.5 38.75V32.75C15.5 31.5095 16.5095 30.5 17.75 30.5C18.9905 30.5 20 31.5095 20 32.75V41H17.75ZM14 45.5H21.5V50H20V47H14V45.5Z" fill="#EA3934"/>
</g>
<defs>
<clipPath id="clip0_4061_16670">
<rect width="36" height="36" fill="white" transform="translate(14 14)"/>
</clipPath>
</defs>
</svg>
