<svg width="64" height="64" viewBox="0 0 64 64" fill="none" xmlns="http://www.w3.org/2000/svg">
<rect width="64" height="64" rx="32" fill="#F8D3D2"/>
<g clip-path="url(#clip0_4061_16696)">
<path d="M35 23H20V21.5H35V23ZM35 29H20V30.5H35V29ZM20 38H26V36.5H20V38ZM15.5 48.5V17.75C15.5 16.5095 16.5095 15.5 17.75 15.5H37.25C38.4905 15.5 39.5 16.5095 39.5 17.75V43.3895L41 41.8895V17.75C41 15.683 39.3185 14 37.25 14H17.75C15.683 14 14 15.683 14 17.75V50H32.9615L31.5095 48.5H15.5ZM48.971 38.162L38.9345 48.1985C38.5325 48.599 37.88 48.599 37.4885 48.2075L32.3765 42.923L31.298 43.9655L36.419 49.259C36.911 49.7525 37.559 49.9985 38.2055 49.9985C38.852 49.9985 39.5015 49.751 39.9935 49.259L50.03 39.2225L48.971 38.162Z" fill="#EA3934"/>
</g>
<defs>
<clipPath id="clip0_4061_16696">
<rect width="36" height="36" fill="white" transform="translate(14 14)"/>
</clipPath>
</defs>
</svg>
