<svg width="64" height="64" viewBox="0 0 64 64" fill="none" xmlns="http://www.w3.org/2000/svg">
<rect width="64" height="64" rx="32" fill="#F8D3D2"/>
<g clip-path="url(#clip0_1132_27285)">
<path d="M40.25 21.5C42.317 21.5 44 19.817 44 17.75C44 15.683 42.317 14 40.25 14C38.183 14 36.5 15.683 36.5 17.75C36.5 19.817 38.183 21.5 40.25 21.5ZM40.25 15.5C41.4905 15.5 42.5 16.5095 42.5 17.75C42.5 18.9905 41.4905 20 40.25 20C39.0095 20 38 18.9905 38 17.75C38 16.5095 39.0095 15.5 40.25 15.5ZM49.175 35.1485L49.994 33.8915L45.227 30.785L43.9655 25.5485C43.5275 24.143 41.924 23 40.394 23C38.2775 23 37.25 23.891 37.082 24.0815L30.5 28.808V36.5H32V29.5775L36.5 26.3375V34.1105C36.5 35.333 37.097 36.482 38.1125 37.193L45.536 42.1505L45.5 49.997L47 50.0045L47.0405 41.351L44 39.32V31.775L49.175 35.1485ZM42.5 38.318L38.96 35.954C38.36 35.5325 38 34.844 38 34.1105V25.2545C38.069 25.1825 38.795 24.5 40.394 24.5C41.2625 24.5 42.233 25.163 42.5 25.8875V38.318ZM37.553 40.3415L38.8085 41.231L35.318 50H33.6935L37.553 40.3415ZM25.868 15.8045L16.5275 23.1125C15.8735 23.624 15.5 24.392 15.5 25.2215V38H27.5V39.5H14V25.2215C14 23.927 14.585 22.7285 15.6035 21.9305L24.9425 14.624C26.006 13.79 27.4925 13.7915 28.556 14.624L33.5795 18.5555C33.692 19.4885 33.986 20.357 34.4375 21.1325L27.6305 15.8045C27.11 15.398 26.3855 15.398 25.865 15.8045H25.868ZM20 33.5H26V27.5H20V33.5ZM21.5 29H24.5V32H21.5V29Z" fill="#EA3934"/>
</g>
<defs>
<clipPath id="clip0_1132_27285">
<rect width="36" height="36" fill="white" transform="translate(14 14)"/>
</clipPath>
</defs>
</svg>
