<svg width="172" height="120" viewBox="0 0 172 120" fill="none" xmlns="http://www.w3.org/2000/svg">
<g clip-path="url(#clip0_7196_4494)">
<path fill-rule="evenodd" clip-rule="evenodd" d="M183.124 119.936H136.867V80.9385L157.884 66.1899L182.455 80.3582L183.124 119.936Z" fill="#D6C7C7"/>
<path fill-rule="evenodd" clip-rule="evenodd" d="M128.434 119.974H71.3599V48.4923L99.8972 31.1226L128.434 48.4923V119.974Z" fill="#D6C7C7"/>
<path fill-rule="evenodd" clip-rule="evenodd" d="M62.8862 50.3435L78.4146 26.7119H99.8969L136.659 50.3435H62.8862Z" fill="#EF5E4E"/>
<path fill-rule="evenodd" clip-rule="evenodd" d="M44.2285 50.3435L78.4146 26.7119V31.1223L106.952 50.3435H44.2285Z" fill="#D55A4D"/>
<path fill-rule="evenodd" clip-rule="evenodd" d="M131.727 80.8556L142.134 63.9805H155.223L183.832 80.1243L131.727 80.8556Z" fill="#EF5E4E"/>
<path fill-rule="evenodd" clip-rule="evenodd" d="M117.941 80.8556L142.134 63.9805L142.17 66.1901L161.496 80.8556H117.941Z" fill="#D55A4D"/>
<path fill-rule="evenodd" clip-rule="evenodd" d="M106.952 119.974H49.8774V50.3437L78.4148 31.1226L106.952 50.3437V119.974Z" fill="#EFEBEA"/>
<path fill-rule="evenodd" clip-rule="evenodd" d="M57.9546 105.691H97.4053V81.9688H57.9546V105.691Z" fill="#BCDCE5"/>
<path fill-rule="evenodd" clip-rule="evenodd" d="M60.585 105.444H97.1038V84.4683H60.585V105.444Z" fill="#E8F4F6"/>
<path fill-rule="evenodd" clip-rule="evenodd" d="M58.5678 105.096H96.7925V82.5641H58.5678V105.096ZM97.4055 106.287H57.9548C57.6161 106.287 57.3418 106.02 57.3418 105.691V81.9686C57.3418 81.6395 57.6161 81.373 57.9548 81.373H97.4055C97.7439 81.373 98.0185 81.6395 98.0185 81.9686V105.691C98.0185 106.02 97.7439 106.287 97.4055 106.287Z" fill="white"/>
<path fill-rule="evenodd" clip-rule="evenodd" d="M70.6101 106.138C70.3564 106.138 70.1504 105.938 70.1504 105.691V81.9686C70.1504 81.7221 70.3564 81.522 70.6101 81.522C70.8642 81.522 71.0699 81.7221 71.0699 81.9686V105.691C71.0699 105.938 70.8642 106.138 70.6101 106.138Z" fill="white"/>
<path fill-rule="evenodd" clip-rule="evenodd" d="M83.7752 106.277C83.5211 106.277 83.3154 106.077 83.3154 105.83V82.1078C83.3154 81.8612 83.5211 81.6611 83.7752 81.6611C84.029 81.6611 84.2349 81.8612 84.2349 82.1078V105.83C84.2349 106.077 84.029 106.277 83.7752 106.277Z" fill="white"/>
<path fill-rule="evenodd" clip-rule="evenodd" d="M57.9546 74.5719H96.8711V52.2275H57.9546V74.5719Z" fill="#BCDCE5"/>
<path fill-rule="evenodd" clip-rule="evenodd" d="M61.0674 74.2088H96.4607V54.4897H61.0674V74.2088Z" fill="#E8F4F6"/>
<path fill-rule="evenodd" clip-rule="evenodd" d="M73.6834 74.6091C73.5143 74.6091 73.377 74.476 73.377 74.3114V52.265C73.377 52.1007 73.5143 51.9673 73.6834 51.9673C73.8526 51.9673 73.9899 52.1007 73.9899 52.265V74.3114C73.9899 74.476 73.8526 74.6091 73.6834 74.6091Z" fill="white"/>
<path fill-rule="evenodd" clip-rule="evenodd" d="M81.7406 74.6091C81.5711 74.6091 81.4341 74.476 81.4341 74.3114V52.265C81.4341 52.1007 81.5711 51.9673 81.7406 51.9673C81.9098 51.9673 82.0471 52.1007 82.0471 52.265V74.3114C82.0471 74.476 81.9098 74.6091 81.7406 74.6091Z" fill="white"/>
<path fill-rule="evenodd" clip-rule="evenodd" d="M89.7977 74.6091C89.6285 74.6091 89.4912 74.476 89.4912 74.3114V52.265C89.4912 52.1007 89.6285 51.9673 89.7977 51.9673C89.9669 51.9673 90.1042 52.1007 90.1042 52.265V74.3114C90.1042 74.476 89.9669 74.6091 89.7977 74.6091Z" fill="white"/>
<path fill-rule="evenodd" clip-rule="evenodd" d="M96.8714 57.658H89.7977C89.6285 57.658 89.4912 57.5246 89.4912 57.3603C89.4912 57.1959 89.6285 57.0625 89.7977 57.0625H96.8714C97.0409 57.0625 97.1779 57.1959 97.1779 57.3603C97.1779 57.5246 97.0409 57.658 96.8714 57.658Z" fill="white"/>
<path fill-rule="evenodd" clip-rule="evenodd" d="M96.8712 62.2029H89.971C89.8019 62.2029 89.6646 62.0695 89.6646 61.9052C89.6646 61.7408 89.8019 61.6074 89.971 61.6074H96.8712C97.0407 61.6074 97.1777 61.7408 97.1777 61.9052C97.1777 62.0695 97.0407 62.2029 96.8712 62.2029Z" fill="white"/>
<path fill-rule="evenodd" clip-rule="evenodd" d="M81.7406 57.8367H73.6835C73.5143 57.8367 73.377 57.7033 73.377 57.539C73.377 57.3746 73.5143 57.2412 73.6835 57.2412H81.7406C81.9098 57.2412 82.0471 57.3746 82.0471 57.539C82.0471 57.7033 81.9098 57.8367 81.7406 57.8367Z" fill="white"/>
<path fill-rule="evenodd" clip-rule="evenodd" d="M81.7404 62.3812H73.8812C73.7117 62.3812 73.5747 62.2478 73.5747 62.0834C73.5747 61.9187 73.7117 61.7856 73.8812 61.7856H81.7404C81.9096 61.7856 82.0469 61.9187 82.0469 62.0834C82.0469 62.2478 81.9096 62.3812 81.7404 62.3812Z" fill="white"/>
<path fill-rule="evenodd" clip-rule="evenodd" d="M58.5678 73.9767H96.2583V52.8234H58.5678V73.9767ZM96.8713 75.1677H57.9548C57.6161 75.1677 57.3418 74.9009 57.3418 74.5722V52.2278C57.3418 51.8991 57.6161 51.6323 57.9548 51.6323H96.8713C97.21 51.6323 97.4843 51.8991 97.4843 52.2278V74.5722C97.4843 74.9009 97.21 75.1677 96.8713 75.1677Z" fill="#FCFCFC"/>
<path fill-rule="evenodd" clip-rule="evenodd" d="M167.41 119.936H121.153V80.9385L142.17 66.1899L166.741 80.3582L167.41 119.936Z" fill="#EFEBEA"/>
<path fill-rule="evenodd" clip-rule="evenodd" d="M148.641 114.884H163.91V95.2554H148.641V114.884Z" fill="white"/>
<path fill-rule="evenodd" clip-rule="evenodd" d="M150.224 114.884H162.577V96.4321H150.224V114.884Z" fill="#D55A4D"/>
<path fill-rule="evenodd" clip-rule="evenodd" d="M151.222 114.884H160.677V96.4321H151.222V114.884Z" fill="#EF5E4E"/>
<path fill-rule="evenodd" clip-rule="evenodd" d="M159.777 106.363C159.777 107.077 159.426 107.656 158.993 107.656C158.561 107.656 158.21 107.077 158.21 106.363C158.21 105.649 158.561 105.07 158.993 105.07C159.426 105.07 159.777 105.649 159.777 106.363Z" fill="#D55A4D"/>
<path fill-rule="evenodd" clip-rule="evenodd" d="M128.093 115.254H142.266V82.1079H128.093V115.254Z" fill="#BCDCE5"/>
<path fill-rule="evenodd" clip-rule="evenodd" d="M130.455 114.921H141.938V84.2607H130.455V114.921Z" fill="#E8F4F6"/>
<path fill-rule="evenodd" clip-rule="evenodd" d="M128.553 114.807H141.807V82.5544H128.553V114.807ZM142.266 115.701H128.093C127.839 115.701 127.633 115.5 127.633 115.254V82.1078C127.633 81.8612 127.839 81.6611 128.093 81.6611H142.266C142.52 81.6611 142.726 81.8612 142.726 82.1078V115.254C142.726 115.5 142.52 115.701 142.266 115.701Z" fill="white"/>
<path fill-rule="evenodd" clip-rule="evenodd" d="M142.02 88.5989H128.378C128.208 88.5989 128.071 88.4658 128.071 88.3012C128.071 88.1368 128.208 88.0034 128.378 88.0034H142.02C142.189 88.0034 142.326 88.1368 142.326 88.3012C142.326 88.4658 142.189 88.5989 142.02 88.5989Z" fill="white"/>
<path fill-rule="evenodd" clip-rule="evenodd" d="M142.02 95.6243H128.378C128.208 95.6243 128.071 95.4912 128.071 95.3266C128.071 95.1619 128.208 95.0288 128.378 95.0288H142.02C142.189 95.0288 142.326 95.1619 142.326 95.3266C142.326 95.4912 142.189 95.6243 142.02 95.6243Z" fill="white"/>
<path fill-rule="evenodd" clip-rule="evenodd" d="M162.533 114.76H163.911V119.974H160.25V115.149L162.533 114.76Z" fill="#DBCFFD"/>
<path fill-rule="evenodd" clip-rule="evenodd" d="M148.054 116.498H162.533V114.76H148.054V116.498Z" fill="#F8F7FD"/>
<path fill-rule="evenodd" clip-rule="evenodd" d="M146.915 118.236H161.394V116.499H146.915V118.236Z" fill="#EEEAFE"/>
<path fill-rule="evenodd" clip-rule="evenodd" d="M145.771 119.974H160.25V118.236H145.771V119.974Z" fill="#F8F7FD"/>
<path fill-rule="evenodd" clip-rule="evenodd" d="M29.2363 120.086H31.2353V108.544H29.2363V120.086Z" fill="#128046"/>
<path fill-rule="evenodd" clip-rule="evenodd" d="M39.2726 96.2104C39.2726 109.303 35.1655 116.02 30.2962 116.02C25.4272 116.02 21.2803 109.769 21.2803 96.6764C21.2803 83.584 30.2962 62.0835 30.2962 62.0835C30.2962 62.0835 39.2726 83.118 39.2726 96.2104Z" fill="#6F989F"/>
<mask id="mask0_7196_4494" style="mask-type:alpha" maskUnits="userSpaceOnUse" x="23" y="65" width="9" height="34">
<path d="M26.2508 98.38C26.1932 98.38 26.1359 98.377 26.0786 98.3708C24.0174 98.1433 22.7022 94.1789 23.6244 86.2818C24.547 78.3847 29.8791 65.8359 29.8791 65.8359C29.8791 65.8359 32.1965 78.9429 31.274 86.8401C30.3772 94.5175 28.2614 98.38 26.2508 98.38Z" fill="white"/>
</mask>
<g mask="url(#mask0_7196_4494)">
<path fill-rule="evenodd" clip-rule="evenodd" d="M22.7026 98.38H32.197V65.8359H22.7026V98.38Z" fill="#CEE7F4"/>
</g>
<path fill-rule="evenodd" clip-rule="evenodd" d="M147.915 34.8541C149.318 35.7616 149.776 37.3287 149.688 38.8083C144.307 39.0557 138.919 39.1748 133.53 39.1653C133.546 37.6899 132.386 36.4906 130.841 36.2592C131.854 33.6922 133.648 31.0121 136.87 30.5583C140.528 30.0456 143.367 33.0863 142.781 36.2178C142.731 36.4804 143.333 36.3926 143.387 36.169C143.839 34.2496 146.267 33.7902 147.915 34.8541Z" fill="#E8F4F6"/>
<path fill-rule="evenodd" clip-rule="evenodd" d="M149.853 39.1939C144.374 39.4476 138.893 39.569 133.409 39.5601C129.582 39.7206 125.745 39.6932 121.913 39.7141C119.995 39.7254 118.08 39.7385 116.162 39.7444C115.205 39.7471 114.246 39.7501 113.287 39.7513C112.407 39.7534 111.486 39.8099 110.613 39.6858V39.6652C110.735 39.6459 110.858 39.6301 110.981 39.6182L110.977 39.583C110.944 39.583 110.915 39.5684 110.908 39.533C110.729 38.42 111.443 37.2653 112.564 36.7683C113.623 36.2976 114.902 36.4545 115.834 37.0732C116.001 35.6115 116.438 34.1612 117.299 32.9014C118.692 30.8602 121.25 29.4265 123.971 29.888C126.384 30.2954 128.218 32.3776 127.697 34.5709C128.942 34.0117 130.374 34.9151 130.292 36.1716C131.431 33.3638 133.48 30.5663 137.041 30.1623C140.427 29.7764 143.264 32.0989 143.457 34.9755C144.256 34.1162 145.585 33.6961 146.873 33.9438C149.35 34.4235 150.42 36.6745 150.295 38.7574C150.291 38.8261 150.233 38.8824 150.157 38.9202C150.183 39.0334 150.059 39.1831 149.853 39.1939ZM149.688 38.808C149.776 37.3284 149.318 35.7613 147.915 34.8538C146.267 33.7899 143.839 34.2493 143.387 36.1686C143.333 36.3923 142.731 36.4801 142.781 36.2175C143.367 33.086 140.528 30.0453 136.87 30.558C133.649 31.0118 131.854 33.6919 130.841 36.2589C132.386 36.4902 133.546 37.6896 133.53 39.165C138.919 39.1745 144.307 39.0554 149.688 38.808Z" fill="#E8F4F6"/>
<path fill-rule="evenodd" clip-rule="evenodd" d="M39.9953 55.6757C39.9579 54.9885 39.4022 54.2298 38.9467 53.8222C38.4367 53.3657 37.8228 53.0531 37.1556 52.9265L37.1185 52.9018C36.9496 51.6167 36.4708 50.4084 35.1535 49.8396C34.6788 49.6348 34.1286 49.5443 33.6223 49.6619L33.6161 49.6011C33.5637 49.1051 33.4923 48.6105 33.3709 48.1255C33.1408 47.2048 32.7153 46.2913 31.9899 45.6377C30.7807 44.5482 29.0447 44.4955 27.5965 45.1339C26.2608 45.7225 25.3757 46.8278 24.8307 48.1255C24.5242 48.8553 24.3207 49.6226 24.1463 50.3908C24.1175 50.5165 24.0914 50.6424 24.0645 50.7684C23.9854 50.635 23.9017 50.5045 23.8098 50.381C23.2403 49.6154 22.4318 49.0241 21.4963 48.7543C20.5453 48.4798 19.5216 48.5486 18.6067 48.9178C18.1564 49.0994 17.7295 49.3638 17.3632 49.6795C17.3378 49.6342 17.3142 49.5925 17.2952 49.5598C16.9136 48.8987 16.2945 48.4729 15.5291 48.3413L15.5006 48.3381C15.4734 48.3324 15.4455 48.3288 15.4163 48.3273C14.9771 48.3053 14.537 48.3705 14.1508 48.5724C14.1312 48.0483 14.1248 47.524 14.1049 46.9999C14.0613 45.8521 13.9308 44.7361 13.5489 43.6445C12.9248 42.0723 11.7231 40.5422 9.96714 40.1059C7.92097 39.5977 6.08352 41.0108 4.97492 42.5446C3.63185 44.4032 2.94254 46.6929 2.90668 48.9538C2.8886 50.0984 3.04062 51.2379 3.36612 52.3381C3.38482 52.4013 3.41301 52.4736 3.44765 52.5489C3.35815 52.5323 3.26252 52.518 3.16015 52.5034C2.59375 52.4242 2.01569 52.4867 1.49404 52.7214C0.221461 53.2933 -0.301421 54.6258 0.172423 55.8859L0.188053 55.9157C0.164759 56.0729 0.251191 56.2504 0.380226 56.3433C0.998736 56.7905 2.30993 56.5776 3.06575 56.588C4.39411 56.6059 5.72247 56.5818 7.05052 56.5705C9.48042 56.5496 11.9109 56.5654 14.3405 56.566C19.4112 56.5675 24.4822 56.5684 29.5529 56.5684C32.1069 56.5684 34.6619 56.6214 37.2156 56.5943C37.7679 56.5883 38.3202 56.5776 38.8722 56.5589C39.1849 56.5484 39.8261 56.6592 40.0783 56.429C40.333 56.1968 40.2349 55.8642 39.9953 55.6757Z" fill="#E8F4F6"/>
<path fill-rule="evenodd" clip-rule="evenodd" d="M59.9043 36.3189C60.0655 36.3308 60.2638 36.2537 60.272 36.1209C60.4115 33.8029 58.6602 31.7162 56.3768 31.1555C54.4753 30.6889 52.3405 31.2198 50.9196 32.5225C50.8552 31.768 50.3964 31.0575 49.548 30.942C49.1226 30.8839 48.6243 30.9947 48.2565 31.2427C48.1486 29.6465 47.8743 27.99 46.7105 26.7945C45.6699 25.7262 44.0786 25.1271 42.5924 25.5862C40.8953 26.1109 39.8143 27.8212 39.1652 29.3299C38.5727 30.7053 38.2996 32.1753 38.3502 33.6519C37.507 32.8411 36.1434 32.5252 35.0134 32.9105C33.4373 33.4476 32.5825 35.2961 33.4557 36.7343C33.498 36.804 33.6099 36.8165 33.6828 36.8151C36.6418 36.759 39.6004 36.703 42.5593 36.647C47.2744 36.5577 51.9893 36.4687 56.7044 36.3794C57.771 36.3591 58.8377 36.3392 59.9043 36.3189Z" fill="#E8F4F6"/>
<path fill-rule="evenodd" clip-rule="evenodd" d="M126.474 116.165C126.032 116.234 125.6 116.27 125.194 116.383C125.198 116.213 125.199 116.041 125.188 115.867C124.97 112.477 121.963 109.899 118.473 110.11C115.059 110.317 112.454 113.116 112.544 116.411C112.383 116.399 112.221 116.391 112.056 116.404C108.408 116.682 108.769 120.022 108.769 120.022L131.836 120.032C131.836 120.032 130.951 115.468 126.474 116.165Z" fill="#9BD3DD"/>
<path fill-rule="evenodd" clip-rule="evenodd" d="M191.264 117.601C190.971 117.599 190.696 117.686 190.441 117.789C190.139 117.127 189.676 116.557 189.101 116.12C189.154 115.872 189.178 115.613 189.16 115.347C189.056 113.767 187.652 112.567 186.026 112.668C185.421 112.705 184.872 112.918 184.424 113.25C183.231 111.898 181.425 111.084 179.455 111.206C176.916 111.363 174.849 113.024 174.102 115.236C173.958 115.231 173.813 115.232 173.666 115.241C172.194 115.333 170.954 116.16 170.292 117.33C169.756 116.998 169.113 116.829 168.429 116.862C165.438 117.01 165.526 120.068 165.526 120.068C165.526 120.068 171.074 120.109 177.926 120.071C185.291 120.03 194 119.94 194 119.94C194 119.94 193.781 117.619 191.264 117.601Z" fill="#D2E7ED"/>
<path fill-rule="evenodd" clip-rule="evenodd" d="M59.0439 117.601C58.7515 117.599 58.4766 117.686 58.2209 117.789C57.9197 117.127 57.4565 116.557 56.8809 116.12C56.9346 115.872 56.9579 115.613 56.9401 115.347C56.8362 113.767 55.4327 112.567 53.8058 112.668C53.2014 112.705 52.6519 112.918 52.2044 113.25C51.0109 111.898 49.2056 111.084 47.2348 111.206C44.6964 111.363 42.6291 113.024 41.8819 115.236C41.7384 115.231 41.5932 115.232 41.4467 115.241C39.9745 115.333 38.7342 116.16 38.0727 117.33C37.5364 116.998 36.893 116.829 36.2095 116.862C33.2187 117.01 33.3064 120.068 33.3064 120.068C33.3064 120.068 38.8543 120.109 45.7063 120.071C53.0715 120.03 61.7803 119.94 61.7803 119.94C61.7803 119.94 61.5615 117.619 59.0439 117.601Z" fill="#D2E7ED"/>
<path fill-rule="evenodd" clip-rule="evenodd" d="M111.408 117.654C111.116 117.651 110.84 117.736 110.584 117.838C110.286 117.175 109.826 116.603 109.252 116.164C109.307 115.915 109.331 115.657 109.315 115.391C109.219 113.81 107.821 112.604 106.194 112.698C105.589 112.732 105.039 112.942 104.589 113.272C103.402 111.915 101.601 111.092 99.6299 111.206C97.0909 111.352 95.0156 113.003 94.2579 115.212C94.1142 115.206 93.9692 115.207 93.8224 115.215C92.35 115.3 91.1056 116.122 90.4384 117.288C89.9036 116.954 89.2614 116.782 88.5777 116.812C85.5859 116.946 85.6593 120.004 85.6593 120.004C85.6593 120.004 91.2068 120.071 98.0591 120.064C105.425 120.056 114.133 120.006 114.133 120.006C114.133 120.006 113.926 117.683 111.408 117.654Z" fill="#D2E7ED"/>
<path fill-rule="evenodd" clip-rule="evenodd" d="M180.357 14.7935C180.357 22.9157 173.58 29.4998 165.219 29.4998C156.859 29.4998 150.081 22.9157 150.081 14.7935C150.081 6.67124 156.859 0.0869141 165.219 0.0869141C173.58 0.0869141 180.357 6.67124 180.357 14.7935Z" fill="#FFDB8C"/>
</g>
<defs>
<clipPath id="clip0_7196_4494">
<rect width="172" height="120" fill="white" transform="translate(0 0.0869141)"/>
</clipPath>
</defs>
</svg>
