<svg width="96" height="42" viewBox="0 0 96 42" fill="none" xmlns="http://www.w3.org/2000/svg">
<g clip-path="url(#clip0_7002_22790)">
<path d="M42.0706 16.2291C44.1792 16.2291 45.924 14.5156 45.924 12.3253C45.924 10.1351 44.1868 8.4231 42.0706 8.4231C39.9544 8.4231 38.202 10.1366 38.202 12.3253C38.202 14.514 39.9468 16.2291 42.0706 16.2291ZM31.4336 13.5408H32.7206L35.1399 8.7658V16.0417H36.9469V5.49414H34.9156L32.1006 11.1114L29.3022 5.49414H27.2239V16.0417H29.0066V8.77342L31.4336 13.5408ZM87.5898 9.99648C88.5827 9.99648 89.2497 10.6194 89.4195 11.5394H85.5813C85.798 10.659 86.5196 9.99648 87.5898 9.99648ZM79.0766 14.4607C77.8366 14.4607 76.8588 13.4799 76.8588 12.2644C76.8588 11.049 77.8351 10.0681 79.0766 10.0681C79.8512 10.0681 80.55 10.4732 80.9366 11.0657V13.4646C80.5485 14.0571 79.8512 14.4623 79.0766 14.4623M70.4087 14.5872C69.1687 14.5872 68.191 13.5743 68.191 12.3284C68.191 11.0825 69.1672 10.0696 70.4087 10.0696C71.1833 10.0696 71.8822 10.4747 72.2702 11.0977V13.5591C71.8897 14.182 71.1924 14.5872 70.4087 14.5872ZM42.0706 14.5872C40.8927 14.5872 39.9468 13.6047 39.9468 12.3284C39.9468 11.052 40.8927 10.0696 42.0706 10.0696C43.2484 10.0696 44.1944 11.0505 44.1944 12.3284C44.1944 13.6063 43.2333 14.5872 42.0706 14.5872ZM61.7484 14.4623C60.5084 14.4623 59.5307 13.4814 59.5307 12.2659C59.5307 11.0505 60.5069 10.0696 61.7484 10.0696C62.523 10.0696 63.2219 10.4747 63.6099 11.0672V13.4661C63.2219 14.0586 62.5245 14.4638 61.7484 14.4638M57.3841 15.7265L56.7172 14.246C56.3912 14.4013 55.9425 14.5887 55.415 14.5887C54.4994 14.5887 54.0355 14.0114 54.0355 13.1082V10.2189H57.0052V8.61349H54.0355V6.46284L52.3453 6.77508V13.1082C52.3453 15.0091 53.3837 16.2321 55.3619 16.2321C56.2078 16.2321 56.9051 15.9519 57.3857 15.7249M51.501 10.2173V8.61196C51.2372 8.56475 51.0356 8.53429 50.7718 8.53429C49.7941 8.53429 49.0043 9.03235 48.7557 9.82741V8.53429L47.0655 8.84653V16.0448H48.7708V10.2265H51.4995V10.2189L51.501 10.2173ZM90.9415 14.6024L89.562 13.6215C89.1588 14.2445 88.4766 14.5872 87.7323 14.5872C86.6773 14.5872 85.8557 13.9018 85.5919 12.9666H91.1431C91.1734 12.7015 91.1901 12.4837 91.1901 12.2035C91.1901 10.0528 89.7166 8.42462 87.5853 8.42462C85.3221 8.42462 83.7789 10.1701 83.7789 12.3269C83.7789 14.4836 85.4539 16.2306 87.7096 16.2306C89.0663 16.2306 90.229 15.6 90.943 14.6024M72.2808 16.0433H73.9862V8.54038L72.3581 8.85109V9.36591C71.7533 8.79017 70.962 8.43071 70.0934 8.43071C68.1243 8.43071 66.4568 10.1762 66.4568 12.3329C66.4568 14.4897 68.1318 16.2367 70.1237 16.2367C70.9453 16.2367 71.6896 15.9245 72.2793 15.4112V16.0417L72.2808 16.0433ZM78.878 19.3621C81.0639 19.3621 82.6541 18.069 82.6541 15.958V8.53276L81.026 8.845V9.34306C80.4212 8.7658 79.6299 8.4231 78.7628 8.4231C76.7936 8.4231 75.1262 10.1366 75.1262 12.2644C75.1262 14.3922 76.8012 16.1042 78.7931 16.1042C79.6147 16.1042 80.359 15.8087 80.9487 15.2939V15.8864C80.9487 17.0241 80.1119 17.74 78.8856 17.74C78.0488 17.74 77.2105 17.3821 76.545 16.9769L75.878 18.5351C76.7239 19.0179 77.7775 19.3606 78.878 19.3606M61.5498 19.3606C63.7357 19.3606 65.3259 18.0675 65.3259 15.9564V8.53276L63.6978 8.845V9.34306C63.093 8.7658 62.3017 8.4231 61.4346 8.4231C59.4655 8.4231 57.798 10.1366 57.798 12.2644C57.798 14.3922 59.473 16.1042 61.4649 16.1042C62.2865 16.1042 63.0309 15.8087 63.6205 15.2939V15.8864C63.6205 17.0241 62.7838 17.74 61.5589 17.74C60.7221 17.74 59.8839 17.3821 59.2169 16.9769L58.5499 18.5351C59.3866 19.0179 60.4493 19.3606 61.5498 19.3606ZM35.4446 20.7786C34.8246 20.7786 34.2971 21.2919 34.2971 21.9316C34.2971 22.5713 34.8246 23.0999 35.4446 23.0999C36.0646 23.0999 36.6225 22.5698 36.6225 21.9316C36.6225 21.2935 36.0798 20.7786 35.4446 20.7786ZM27.227 20.9188V31.4664H29.0097V27.2519H32.8161V25.5232H29.0097V22.649H33.3284V20.9203H27.227V20.9188ZM34.6079 31.4664H36.3132V24.0427H34.6079V31.4664ZM58.3013 25.4135C59.279 25.4135 59.9597 26.0364 60.131 26.9716H56.2927C56.5171 26.0684 57.231 25.4135 58.3013 25.4135ZM49.7804 30.0179C48.5404 30.0179 47.5627 29.005 47.5627 27.7591C47.5627 26.5132 48.5404 25.5003 49.7804 25.5003C50.5717 25.5003 51.269 25.9207 51.6571 26.5604V28.9593C51.269 29.5975 50.5717 30.0194 49.7804 30.0194M41.299 25.4927C42.3541 25.4927 42.9741 26.1476 42.9741 27.4865V31.4664H44.6794V27.2519C44.6794 25.3983 43.6865 23.8477 41.678 23.8477C40.7472 23.8477 39.9408 24.2057 39.3374 24.7981V23.9574L37.7094 24.2696V31.4679H39.4148V26.4903C39.8104 25.8826 40.4774 25.4927 41.299 25.4927ZM67.4815 25.648V24.0427C67.2178 23.9955 67.0161 23.965 66.7524 23.965C65.7595 23.965 64.9697 24.4631 64.7211 25.2581V23.965L63.046 24.2772V31.4679H64.7514V25.648H67.48H67.4815ZM61.659 30.0346L60.2795 29.0522C59.8763 29.6752 59.1941 30.0179 58.4498 30.0179C57.3796 30.0179 56.5428 29.3172 56.3094 28.3668H61.8682C61.8985 28.117 61.9152 27.8992 61.9152 27.6342C61.9152 25.4835 60.4417 23.8569 58.3104 23.8569C56.0471 23.8569 54.504 25.6024 54.504 27.7591C54.504 29.9158 56.179 31.6613 58.4347 31.6613C59.7762 31.6537 60.9465 31.0307 61.6605 30.0331M51.7359 31.4664H53.364V20.8411L51.6586 21.1533V24.6976C51.0689 24.1676 50.3095 23.8569 49.4879 23.8569C47.5036 23.8569 45.8209 25.6024 45.8209 27.7591C45.8209 29.9158 47.4808 31.6613 49.4575 31.6613C50.3413 31.6613 51.1326 31.3034 51.7374 30.7109V31.4664H51.7359Z" fill="#EA3934"/>
<path d="M42.0706 16.2291C44.1792 16.2291 45.924 14.5156 45.924 12.3253C45.924 10.1351 44.1868 8.4231 42.0706 8.4231C39.9544 8.4231 38.202 10.1366 38.202 12.3253C38.202 14.514 39.9468 16.2291 42.0706 16.2291ZM31.4336 13.5408H32.7206L35.1399 8.7658V16.0417H36.9469V5.49414H34.9156L32.1006 11.1114L29.3022 5.49414H27.2239V16.0417H29.0066V8.77342L31.4336 13.5408ZM87.5898 9.99648C88.5827 9.99648 89.2497 10.6194 89.4195 11.5394H85.5813C85.798 10.659 86.5196 9.99648 87.5898 9.99648ZM79.0766 14.4607C77.8366 14.4607 76.8588 13.4799 76.8588 12.2644C76.8588 11.049 77.8351 10.0681 79.0766 10.0681C79.8512 10.0681 80.55 10.4732 80.9366 11.0657V13.4646C80.5485 14.0571 79.8512 14.4623 79.0766 14.4623M70.4087 14.5872C69.1687 14.5872 68.191 13.5743 68.191 12.3284C68.191 11.0825 69.1672 10.0696 70.4087 10.0696C71.1833 10.0696 71.8822 10.4747 72.2702 11.0977V13.5591C71.8897 14.182 71.1924 14.5872 70.4087 14.5872ZM42.0706 14.5872C40.8927 14.5872 39.9468 13.6047 39.9468 12.3284C39.9468 11.052 40.8927 10.0696 42.0706 10.0696C43.2484 10.0696 44.1944 11.0505 44.1944 12.3284C44.1944 13.6063 43.2333 14.5872 42.0706 14.5872ZM61.7484 14.4623C60.5084 14.4623 59.5307 13.4814 59.5307 12.2659C59.5307 11.0505 60.5069 10.0696 61.7484 10.0696C62.523 10.0696 63.2219 10.4747 63.6099 11.0672V13.4661C63.2219 14.0586 62.5245 14.4638 61.7484 14.4638M57.3841 15.7265L56.7172 14.246C56.3912 14.4013 55.9425 14.5887 55.415 14.5887C54.4994 14.5887 54.0355 14.0114 54.0355 13.1082V10.2189H57.0052V8.61349H54.0355V6.46284L52.3453 6.77508V13.1082C52.3453 15.0091 53.3837 16.2321 55.3619 16.2321C56.2078 16.2321 56.9051 15.9519 57.3857 15.7249M51.501 10.2173V8.61196C51.2372 8.56475 51.0356 8.53429 50.7718 8.53429C49.7941 8.53429 49.0043 9.03235 48.7557 9.82741V8.53429L47.0655 8.84653V16.0448H48.7708V10.2265H51.4995V10.2189L51.501 10.2173ZM90.9415 14.6024L89.562 13.6215C89.1588 14.2445 88.4766 14.5872 87.7323 14.5872C86.6773 14.5872 85.8557 13.9018 85.5919 12.9666H91.1431C91.1734 12.7015 91.1901 12.4837 91.1901 12.2035C91.1901 10.0528 89.7166 8.42462 87.5853 8.42462C85.3221 8.42462 83.7789 10.1701 83.7789 12.3269C83.7789 14.4836 85.4539 16.2306 87.7096 16.2306C89.0663 16.2306 90.229 15.6 90.943 14.6024M72.2808 16.0433H73.9862V8.54038L72.3581 8.85109V9.36591C71.7533 8.79017 70.962 8.43071 70.0934 8.43071C68.1243 8.43071 66.4568 10.1762 66.4568 12.3329C66.4568 14.4897 68.1318 16.2367 70.1237 16.2367C70.9453 16.2367 71.6896 15.9245 72.2793 15.4112V16.0417L72.2808 16.0433ZM78.878 19.3621C81.0639 19.3621 82.6541 18.069 82.6541 15.958V8.53276L81.026 8.845V9.34306C80.4212 8.7658 79.6299 8.4231 78.7628 8.4231C76.7936 8.4231 75.1262 10.1366 75.1262 12.2644C75.1262 14.3922 76.8012 16.1042 78.7931 16.1042C79.6147 16.1042 80.359 15.8087 80.9487 15.2939V15.8864C80.9487 17.0241 80.1119 17.74 78.8856 17.74C78.0488 17.74 77.2105 17.3821 76.545 16.9769L75.878 18.5351C76.7239 19.0179 77.7775 19.3606 78.878 19.3606M61.5498 19.3606C63.7357 19.3606 65.3259 18.0675 65.3259 15.9564V8.53276L63.6978 8.845V9.34306C63.093 8.7658 62.3017 8.4231 61.4346 8.4231C59.4655 8.4231 57.798 10.1366 57.798 12.2644C57.798 14.3922 59.473 16.1042 61.4649 16.1042C62.2865 16.1042 63.0309 15.8087 63.6205 15.2939V15.8864C63.6205 17.0241 62.7838 17.74 61.5589 17.74C60.7221 17.74 59.8839 17.3821 59.2169 16.9769L58.5499 18.5351C59.3866 19.0179 60.4493 19.3606 61.5498 19.3606ZM35.4446 20.7786C34.8246 20.7786 34.2971 21.2919 34.2971 21.9316C34.2971 22.5713 34.8246 23.0999 35.4446 23.0999C36.0646 23.0999 36.6225 22.5698 36.6225 21.9316C36.6225 21.2935 36.0798 20.7786 35.4446 20.7786ZM27.227 20.9188V31.4664H29.0097V27.2519H32.8161V25.5232H29.0097V22.649H33.3284V20.9203H27.227V20.9188ZM34.6079 31.4664H36.3132V24.0427H34.6079V31.4664ZM58.3013 25.4135C59.279 25.4135 59.9597 26.0364 60.131 26.9716H56.2927C56.5171 26.0684 57.231 25.4135 58.3013 25.4135ZM49.7804 30.0179C48.5404 30.0179 47.5627 29.005 47.5627 27.7591C47.5627 26.5132 48.5404 25.5003 49.7804 25.5003C50.5717 25.5003 51.269 25.9207 51.6571 26.5604V28.9593C51.269 29.5975 50.5717 30.0194 49.7804 30.0194M41.299 25.4927C42.3541 25.4927 42.9741 26.1476 42.9741 27.4865V31.4664H44.6794V27.2519C44.6794 25.3983 43.6865 23.8477 41.678 23.8477C40.7472 23.8477 39.9408 24.2057 39.3374 24.7981V23.9574L37.7094 24.2696V31.4679H39.4148V26.4903C39.8104 25.8826 40.4774 25.4927 41.299 25.4927ZM67.4815 25.648V24.0427C67.2178 23.9955 67.0161 23.965 66.7524 23.965C65.7595 23.965 64.9697 24.4631 64.7211 25.2581V23.965L63.046 24.2772V31.4679H64.7514V25.648H67.48H67.4815ZM61.659 30.0346L60.2795 29.0522C59.8763 29.6752 59.1941 30.0179 58.4498 30.0179C57.3796 30.0179 56.5428 29.3172 56.3094 28.3668H61.8682C61.8985 28.117 61.9152 27.8992 61.9152 27.6342C61.9152 25.4835 60.4417 23.8569 58.3104 23.8569C56.0471 23.8569 54.504 25.6024 54.504 27.7591C54.504 29.9158 56.179 31.6613 58.4347 31.6613C59.7762 31.6537 60.9465 31.0307 61.6605 30.0331M51.7359 31.4664H53.364V20.8411L51.6586 21.1533V24.6976C51.0689 24.1676 50.3095 23.8569 49.4879 23.8569C47.5036 23.8569 45.8209 25.6024 45.8209 27.7591C45.8209 29.9158 47.4808 31.6613 49.4575 31.6613C50.3413 31.6613 51.1326 31.3034 51.7374 30.7109V31.4664H51.7359Z" fill="#EA3934"/>
<path d="M13.5384 1.04498C19.0533 1.04498 23.5312 5.55798 23.5312 11.1295C23.5312 11.9993 23.4205 12.8431 23.2189 13.6503C22.99 14.5413 22.6414 15.3912 22.1972 16.1711C21.7591 16.9372 21.224 17.6409 20.604 18.2608C18.7956 20.0855 16.2989 21.2141 13.546 21.2141V21.0816C13.449 18.2044 12.2181 15.6212 10.299 13.7691C8.53296 12.0632 6.16817 10.9757 3.56689 10.8508C3.63663 8.17622 4.74171 5.76665 6.48802 3.99678C8.28284 2.17209 10.778 1.04346 13.54 1.04346" fill="#EA3934"/>
<path d="M13.5384 1.04498C19.0533 1.04498 23.5312 5.55798 23.5312 11.1295C23.5312 11.9993 23.4205 12.8431 23.2189 13.6503C22.99 14.5413 22.6414 15.3912 22.1972 16.1711C21.7591 16.9372 21.224 17.6409 20.604 18.2608C18.7956 20.0855 16.2989 21.2141 13.546 21.2141V21.0816C13.449 18.2044 12.2181 15.6212 10.299 13.7691C8.53296 12.0632 6.16817 10.9757 3.56689 10.8508C3.63663 8.17622 4.74171 5.76665 6.48802 3.99678C8.28284 2.17209 10.778 1.04346 13.54 1.04346" fill="#EA3934"/>
<path d="M3.56689 31.4664C9.08172 31.4664 13.5597 26.9534 13.5597 21.3818H3.56689V31.4664Z" fill="#EA3934"/>
<path d="M3.56689 31.4664C9.08172 31.4664 13.5597 26.9534 13.5597 21.3818H3.56689V31.4664Z" fill="#EA3934"/>
<path d="M89.6781 40.6539H88.732V36.847H89.633V37.3822C89.8482 36.95 90.2512 36.7339 90.8419 36.7339L90.8043 37.6687C90.4189 37.6737 90.1336 37.7541 89.9484 37.9099C89.7682 38.0657 89.6781 38.2969 89.6781 38.6034V40.6539Z" fill="#101820"/>
<path d="M86.1504 37.5254C85.8951 37.5254 85.6874 37.6033 85.5272 37.7591C85.372 37.9099 85.2719 38.126 85.2269 38.4074H86.9913C86.9163 37.8194 86.6359 37.5254 86.1504 37.5254ZM87.8098 39.8548C87.4193 40.4629 86.8762 40.767 86.1804 40.767C85.6198 40.767 85.1618 40.5785 84.8064 40.2016C84.451 39.8247 84.2733 39.3397 84.2733 38.7467C84.2733 38.1587 84.451 37.6762 84.8064 37.2993C85.1618 36.9223 85.6148 36.7339 86.1654 36.7339C86.711 36.7339 87.144 36.9198 87.4644 37.2917C87.7847 37.6636 87.9449 38.1486 87.9449 38.7467V39.0557H85.2344C85.2844 39.3271 85.3946 39.5457 85.5648 39.7116C85.7349 39.8774 85.9402 39.9603 86.1804 39.9603C86.5308 39.9603 86.8287 39.7794 87.0739 39.4176L87.8098 39.8548Z" fill="#101820"/>
<path d="M80.5985 38.7468C80.5985 39.1037 80.6911 39.3951 80.8763 39.6213C81.0665 39.8424 81.3068 39.953 81.5971 39.953C81.8925 39.953 82.1327 39.8424 82.3179 39.6213C82.5082 39.3951 82.6033 39.1037 82.6033 38.7468C82.6033 38.4051 82.5082 38.1237 82.3179 37.9025C82.1277 37.6764 81.8875 37.5633 81.5971 37.5633C81.3068 37.5633 81.0665 37.6739 80.8763 37.895C80.6911 38.1111 80.5985 38.395 80.5985 38.7468ZM82.5958 40.6541V40.2394C82.3004 40.5912 81.9075 40.7671 81.4169 40.7671C80.8964 40.7671 80.4684 40.5787 80.133 40.2018C79.8026 39.8248 79.6375 39.3399 79.6375 38.7468C79.6375 38.1588 79.8051 37.6764 80.1405 37.2994C80.4759 36.9225 80.9089 36.7341 81.4395 36.7341C81.895 36.7341 82.2604 36.8848 82.5357 37.1864V35.3018H83.4817V40.6541H82.5958Z" fill="#101820"/>
<path d="M76.4598 38.513V40.6539H75.5137V36.847H76.4147V37.3747C76.63 36.9475 76.9954 36.7339 77.511 36.7339C77.8914 36.7339 78.2142 36.862 78.4795 37.1183C78.7498 37.3696 78.885 37.7365 78.885 38.219V40.6539H77.9389V38.4451C77.9389 37.8873 77.7062 37.6083 77.2407 37.6083C77.0004 37.6083 76.8102 37.6913 76.67 37.8571C76.5299 38.0179 76.4598 38.2366 76.4598 38.513Z" fill="#101820"/>
<path d="M73.5926 36.0555C73.4825 35.9399 73.4274 35.8042 73.4274 35.6484C73.4274 35.4926 73.4825 35.3594 73.5926 35.2489C73.7027 35.1383 73.8354 35.083 73.9906 35.083C74.1457 35.083 74.2784 35.1383 74.3885 35.2489C74.4986 35.3594 74.5537 35.4926 74.5537 35.6484C74.5537 35.8042 74.4986 35.9399 74.3885 36.0555C74.2784 36.166 74.1457 36.2213 73.9906 36.2213C73.8354 36.2213 73.7027 36.166 73.5926 36.0555ZM73.5175 40.6539V36.847H74.4636V40.6539H73.5175Z" fill="#101820"/>
<path d="M72.5297 38.483H70.2547V40.6541H69.2786V35.3018H72.7324V36.2064H70.2547V37.6085H72.5297V38.483Z" fill="#101820"/>
<path d="M65.1042 42.2372H64.1581L64.7288 40.6767L63.2722 36.8472H64.3008L65.1718 39.5686L66.0427 36.8472H67.0263L65.1042 42.2372Z" fill="#101820"/>
<path d="M63.0426 40.7221C62.8624 40.7523 62.6947 40.7674 62.5396 40.7674C62.0791 40.7674 61.7387 40.6392 61.5184 40.3829C61.3032 40.1266 61.1956 39.7899 61.1956 39.3727V37.5861H60.6324V36.8474H61.1956V35.6035H62.1416V36.8474H63.0501V37.5861H62.1416V39.3878C62.1416 39.5888 62.1817 39.7346 62.2618 39.8251C62.3469 39.9105 62.4745 39.9532 62.6447 39.9532C62.7448 39.9532 62.8549 39.9432 62.9751 39.9231L63.0426 40.7221Z" fill="#101820"/>
<path d="M59.2034 40.6539H58.2573V36.847H59.1583V37.3822C59.3736 36.95 59.7765 36.7339 60.3672 36.7339L60.3296 37.6687C59.9442 37.6737 59.6589 37.7541 59.4737 37.9099C59.2935 38.0657 59.2034 38.2969 59.2034 38.6034V40.6539Z" fill="#101820"/>
<path d="M55.6757 37.5254C55.4205 37.5254 55.2127 37.6033 55.0525 37.7591C54.8974 37.9099 54.7973 38.126 54.7522 38.4074H56.5167C56.4416 37.8194 56.1613 37.5254 55.6757 37.5254ZM57.3351 39.8548C56.9447 40.4629 56.4016 40.767 55.7058 40.767C55.1451 40.767 54.6871 40.5785 54.3317 40.2016C53.9763 39.8247 53.7986 39.3397 53.7986 38.7467C53.7986 38.1587 53.9763 37.6762 54.3317 37.2993C54.6871 36.9223 55.1401 36.7339 55.6908 36.7339C56.2364 36.7339 56.6693 36.9198 56.9897 37.2917C57.3101 37.6636 57.4702 38.1486 57.4702 38.7467V39.0557H54.7597C54.8098 39.3271 54.9199 39.5457 55.0901 39.7116C55.2603 39.8774 55.4655 39.9603 55.7058 39.9603C56.0562 39.9603 56.354 39.7794 56.5993 39.4176L57.3351 39.8548Z" fill="#101820"/>
<path d="M50.3041 38.7542C50.3041 39.0959 50.3992 39.3799 50.5894 39.606C50.7796 39.8272 51.0199 39.9377 51.3102 39.9377C51.6005 39.9377 51.8383 39.8297 52.0235 39.6136C52.2137 39.3925 52.3088 39.106 52.3088 38.7542C52.3088 38.3974 52.2137 38.1084 52.0235 37.8873C51.8383 37.6611 51.6005 37.548 51.3102 37.548C51.0149 37.548 50.7721 37.6611 50.5819 37.8873C50.3967 38.1084 50.3041 38.3974 50.3041 38.7542ZM51.4679 40.767C51.0124 40.767 50.647 40.6162 50.3717 40.3147V42.237H49.4256V36.847H50.3116V37.2616C50.6069 36.9098 50.9999 36.7339 51.4904 36.7339C52.011 36.7339 52.4365 36.9223 52.7668 37.2993C53.1022 37.6762 53.2699 38.1612 53.2699 38.7542C53.2699 39.3422 53.1022 39.8247 52.7668 40.2016C52.4315 40.5785 51.9985 40.767 51.4679 40.767Z" fill="#101820"/>
<path d="M44.791 38.7467C44.791 38.1587 44.9712 37.6762 45.3316 37.2993C45.692 36.9223 46.1525 36.7339 46.7131 36.7339C47.2737 36.7339 47.7342 36.9223 48.0946 37.2993C48.455 37.6762 48.6352 38.1587 48.6352 38.7467C48.6352 39.3397 48.455 39.8247 48.0946 40.2016C47.7342 40.5785 47.2737 40.767 46.7131 40.767C46.1525 40.767 45.692 40.5785 45.3316 40.2016C44.9712 39.8247 44.791 39.3397 44.791 38.7467ZM46.0148 37.8797C45.8396 38.1009 45.752 38.3898 45.752 38.7467C45.752 39.1035 45.8396 39.395 46.0148 39.6211C46.195 39.8473 46.4278 39.9603 46.7131 39.9603C46.9984 39.9603 47.2287 39.8473 47.4039 39.6211C47.5841 39.395 47.6742 39.1035 47.6742 38.7467C47.6742 38.3898 47.5841 38.1009 47.4039 37.8797C47.2287 37.6536 46.9984 37.5405 46.7131 37.5405C46.4278 37.5405 46.195 37.6536 46.0148 37.8797Z" fill="#101820"/>
<path d="M43.2484 40.6539H42.3023V36.847H43.2033V37.3822C43.4186 36.95 43.8215 36.7339 44.4122 36.7339L44.3746 37.6687C43.9892 37.6737 43.7039 37.7541 43.5187 37.9099C43.3385 38.0657 43.2484 38.2969 43.2484 38.6034V40.6539Z" fill="#101820"/>
<path d="M39.7247 36.2064H38.6434V37.8045H39.7472C40.0075 37.8045 40.2002 37.7291 40.3253 37.5784C40.4555 37.4276 40.5205 37.2366 40.5205 37.0054C40.5205 36.7692 40.453 36.5783 40.3178 36.4325C40.1877 36.2818 39.9899 36.2064 39.7247 36.2064ZM39.8973 38.7091H38.6434V40.6541H37.6674V35.3018H39.8748C40.3704 35.3018 40.7658 35.4651 41.0611 35.7918C41.3615 36.1184 41.5116 36.523 41.5116 37.0054C41.5116 37.4929 41.364 37.9 41.0687 38.2267C40.7783 38.5483 40.3879 38.7091 39.8973 38.7091Z" fill="#101820"/>
<path d="M33.2978 42.2372H32.592L33.2077 40.6391L31.736 36.8623H32.4869L33.538 39.8023L34.5892 36.8623H35.31L33.2978 42.2372Z" fill="#101820"/>
<path d="M29.5615 40.7521C29.0159 40.7521 28.5955 40.536 28.3001 40.1038V40.6541H27.6469V35.3018H28.3377V37.3673C28.638 36.9652 29.051 36.7642 29.5766 36.7642C30.0821 36.7642 30.4976 36.9502 30.823 37.3221C31.1533 37.694 31.3185 38.1739 31.3185 38.7619C31.3185 39.3449 31.1533 39.8223 30.823 40.1942C30.4926 40.5661 30.0721 40.7521 29.5615 40.7521ZM28.2926 38.7619C28.2926 39.164 28.4028 39.4931 28.623 39.7494C28.8432 40.0058 29.1261 40.1339 29.4714 40.1339C29.8018 40.1339 30.0746 40.0058 30.2899 39.7494C30.5051 39.4931 30.6127 39.164 30.6127 38.7619C30.6127 38.3548 30.5051 38.0231 30.2899 37.7668C30.0746 37.5055 29.8018 37.3748 29.4714 37.3748C29.1261 37.3748 28.8432 37.503 28.623 37.7593C28.4028 38.0156 28.2926 38.3498 28.2926 38.7619Z" fill="#101820"/>
</g>
<defs>
<clipPath id="clip0_7002_22790">
<rect width="96" height="42" fill="white"/>
</clipPath>
</defs>
</svg>
