<svg width="100" height="100" viewBox="0 0 100 100" fill="none" xmlns="http://www.w3.org/2000/svg">
<path d="M32.731 30.6146C35.2099 30.541 37.6723 31.0412 39.926 32.0761C40.5102 32.3591 41.0657 32.698 41.5845 33.0881C41.4488 32.2585 41.4678 31.4109 41.6405 30.5881C42.2855 28.4201 44.396 26.4556 44.2545 24.7141C44.1705 23.5641 42.99 23.7581 42.1745 23.7866C41.5 23.8146 41.6125 23.2241 41.5845 22.7466C41.5486 21.9014 41.1854 21.1033 40.5717 20.5211C39.958 19.9388 39.1419 19.6181 38.296 19.6266C37.2 19.6546 36.357 20.3291 35.626 21.0601C34.8873 21.9266 33.965 22.6178 32.926 23.0836C32.0545 23.4491 31.071 23.7301 30.368 24.4046C30.0014 24.7871 29.7485 25.2641 29.6375 25.7821C29.5572 26.3996 29.3263 26.9879 28.965 27.4951C28.2905 28.2821 26.941 29.1811 27.5035 30.4181C27.728 30.9236 28.2905 31.0361 28.74 31.2891C30.0315 30.8757 31.3754 30.6486 32.731 30.6146Z" fill="#EA3934"/>
<path d="M21.8 37.585C21.631 37.9785 20.254 38.344 19.8325 38.4C17.749 38.6975 15.7825 36.565 12.609 36.9385C11.316 37.107 10.0795 37.332 8.78648 37.023C7.12848 36.6295 4.93648 35.8145 3.53098 37.2475C2.23598 38.5685 2.34998 40.986 2.85448 42.616C3.03661 43.2541 3.42128 43.8156 3.95048 44.216C4.93398 44.8905 5.88948 44.413 6.90048 44.216C8.00827 43.9281 9.17866 43.997 10.245 44.413C11.482 44.975 11.8755 46.043 12.1285 47.3075C12.522 49.1345 12.887 50.9335 13.3085 52.76C13.4892 53.701 13.9051 54.581 14.5175 55.318C15.1289 55.8835 15.8195 56.3568 16.5675 56.723C17.2374 57.1638 17.8189 57.7262 18.282 58.381C19.2095 59.7025 20.532 60.7425 22.217 60.0675C22.7653 60.356 23.2914 60.6849 23.791 61.0515C24.409 61.3605 25.365 61.389 25.73 60.686C25.7512 60.6469 25.7607 60.6026 25.7575 60.5583C25.7543 60.514 25.7384 60.4716 25.7118 60.436C25.6851 60.4005 25.6488 60.3734 25.6072 60.3578C25.5656 60.3423 25.5204 60.3391 25.477 60.3485C24.655 60.637 24.052 59.722 23.1445 59.4485C23.285 59.4765 23.6505 58.746 23.7625 58.6335C24.128 58.3525 23.7065 58.2395 23.4535 58.296C22.723 58.4365 22.273 58.9145 21.458 58.718C20.137 58.4085 20.643 56.863 21.402 56.2445C22.7765 55.1665 24.696 55.632 25.8425 53.9115C21.5545 50.85 19.2 43.75 21.8 37.585Z" fill="#EA3934"/>
<path d="M24.805 33.5093C24.662 33.6523 24.052 33.3938 23.2875 33.8188C23.113 33.8831 22.9572 33.9899 22.8343 34.1294C22.7113 34.269 22.6251 34.4369 22.5833 34.6182C22.5414 34.7994 22.5454 34.9882 22.5947 35.1675C22.6441 35.3468 22.7373 35.511 22.866 35.6453C23.4291 34.8619 24.0796 34.1453 24.805 33.5093Z" fill="#EA3934"/>
<path d="M14.378 35.6175C15.2703 35.8019 16.1017 36.2086 16.795 36.8C17.666 37.4465 18.875 38.3455 19.999 37.7C21.517 36.8285 21.2355 34.046 19.184 34.3835C18.397 34.524 17.807 34.6335 17.134 34.102C16.6584 33.6358 16.1199 33.2386 15.534 32.922C15.2408 32.814 14.9215 32.7993 14.6197 32.8799C14.3179 32.9604 14.0483 33.1323 13.848 33.372C13.4781 33.7296 13.2236 34.1896 13.117 34.693C13.012 35.3455 13.721 35.55 14.378 35.6175Z" fill="#EA3934"/>
<path d="M16.008 31.7388C16.598 31.9353 16.795 32.4693 17.1885 32.8628C17.3243 33.0116 17.4883 33.132 17.671 33.217C17.8537 33.3019 18.0515 33.3497 18.2528 33.3576C18.4542 33.3654 18.6551 33.3332 18.8438 33.2628C19.0326 33.1923 19.2055 33.0851 19.3525 32.9473C20.6175 31.5973 19.1275 29.9398 17.7525 29.5473C15.4295 28.7733 14.9345 30.3063 15.1105 30.9528C15.1848 31.1475 15.3056 31.3211 15.4625 31.4583C15.6194 31.5955 15.8076 31.6922 16.0105 31.7398L16.008 31.7388Z" fill="#EA3934"/>
<path d="M21.9385 28.8441C22.1985 29.0826 22.8345 29.2346 23.203 29.5466C23.6245 29.8841 23.906 30.4466 24.4115 30.6711C25.1425 31.0081 25.536 30.4181 25.845 29.8561C26.692 28.3741 27.862 26.2091 29.3865 24.6841C29.8925 24.1501 30.567 23.6446 30.848 22.9416C31.1855 22.0986 30.567 21.3116 29.78 21.0026C27.897 20.2436 25.339 21.0026 23.8215 22.2391C22.4595 23.3391 22.651 24.3551 21.9385 25.7806C21.5637 26.3483 21.3595 27.0115 21.35 27.6916C21.3999 28.1345 21.609 28.5441 21.9385 28.8441Z" fill="#EA3934"/>
<path d="M24.4115 32.1884C24.8615 31.6264 24.3275 30.8954 23.7935 30.6424C22.866 30.1924 21.2355 30.3334 21.264 31.6544C21.264 32.4414 21.77 32.7789 22.5285 32.7504C22.219 32.7499 23.955 32.7589 24.4115 32.1884Z" fill="#EA3934"/>
<path d="M27.2785 58.8897C27.3048 58.8613 27.3232 58.8264 27.3318 58.7887C27.3404 58.7509 27.339 58.7116 27.3276 58.6745C27.3162 58.6375 27.2953 58.6041 27.2669 58.5778C27.2386 58.5514 27.2038 58.5329 27.166 58.5242C26.9884 58.4545 26.8329 58.3381 26.716 58.1872C26.5913 57.987 26.417 57.8223 26.21 57.7092C25.8445 57.4842 24.383 57.3437 24.5235 58.0747C24.8072 58.0647 25.0909 58.0929 25.367 58.1587C25.95 58.3377 26.65 59.6002 27.2785 58.8897Z" fill="#EA3934"/>
<path d="M31.5785 74.6002C32.2374 71.4882 33.9075 68.6817 36.3285 66.6182C36.6765 66.3152 37.0426 66.0336 37.425 65.7752C36.85 65.1947 35.3795 65.0727 34.53 64.5947C32.759 63.5827 31.4665 61.5872 29.3865 61.0532C27.1365 60.4627 25.0865 62.5707 25.1425 64.7917C25.1705 66.2527 25.9855 67.5177 26.7725 68.6982C27.728 70.1317 28.0375 71.1712 27.7 72.9137C27.419 74.2912 26.913 75.6137 26.7445 77.0177C26.5475 78.9567 26.9695 81.3177 28.5715 82.5822C28.717 82.713 28.8772 82.8265 29.049 82.9202C29.274 83.0607 29.4705 82.8072 29.3865 82.5822C28.8714 81.3329 28.8614 79.9324 29.3585 78.6757C29.639 77.9411 30.007 77.2429 30.4545 76.5962C30.6795 76.2587 31.382 75.6962 31.438 75.3312C31.4945 75.1067 31.524 74.8542 31.5785 74.6002Z" fill="#EA3934"/>
<path d="M86.189 68.4999C86.1045 68.3314 85.964 67.4884 85.6265 67.8819C85.458 68.0784 85.571 68.3879 85.1765 68.4154C84.474 68.4719 84.502 67.2349 83.94 66.9539C82.619 66.2799 81.326 68.0504 80.4545 68.7809C80.0412 69.0864 79.5988 69.3501 79.1335 69.5684C78.7359 69.7918 78.3893 70.0957 78.1157 70.4605C77.8421 70.8254 77.6475 71.2432 77.5444 71.6875C77.4412 72.1317 77.4318 72.5926 77.5167 73.0406C77.6016 73.4887 77.779 73.9142 78.0375 74.2899C78.0561 74.3196 78.081 74.345 78.1103 74.3643C78.1396 74.3836 78.1727 74.3963 78.2073 74.4017C78.242 74.4071 78.2774 74.4049 78.3112 74.3954C78.345 74.3858 78.3763 74.3691 78.403 74.3464C78.8462 73.8225 79.446 73.4549 80.114 73.2979C80.7821 73.1409 81.4829 73.2028 82.113 73.4744C83.5185 74.0649 84.474 76.0044 86.2445 75.2454C86.8293 74.9413 87.3393 74.5114 87.7379 73.9865C88.1364 73.4616 88.4136 72.8548 88.5495 72.2099C88.8915 70.2784 86.7325 69.6999 86.189 68.4999Z" fill="#EA3934"/>
<path d="M81.917 64.4546C81.9169 64.4873 81.9279 64.519 81.9483 64.5445C81.9686 64.5701 81.9971 64.5879 82.029 64.5951C82.3571 64.8248 82.6426 65.1101 82.8725 65.4381C83.1402 65.7418 83.4648 65.9902 83.828 66.1691C84.5366 66.5049 85.329 66.6222 86.1045 66.5061C86.498 66.4501 86.8635 66.3656 87.257 66.2811C87.4535 66.2251 87.791 66.2531 87.9315 66.0846C88.2685 65.6631 87.4535 65.7471 87.257 65.8036C87.066 65.5377 86.823 65.3134 86.5427 65.1442C86.2625 64.9751 85.9507 64.8646 85.6265 64.8196C84.3783 64.9073 83.1242 64.7839 81.917 64.4546Z" fill="#EA3934"/>
<path d="M78.7405 63.021C78.6 63.077 78.6845 63.246 78.6 63.3305C78.4056 63.4341 78.1976 63.5096 77.982 63.555C77.5045 63.752 76.661 64.061 76.464 64.595C76.127 65.5505 77.42 65.745 78.038 65.6065C78.6783 65.4526 79.3074 65.2555 79.921 65.0165C80.2865 64.876 80.2865 64.5385 80.2305 64.2015C80.206 64.0669 80.1684 63.9351 80.118 63.808C79.6685 63.583 79.1905 63.3 78.7405 63.021Z" fill="#EA3934"/>
<path d="M73.9065 62.9649C73.7526 62.8459 73.576 62.7596 73.3875 62.7113C73.199 62.6629 73.0027 62.6536 72.8105 62.6839C72.6135 62.7394 73.4005 63.2459 73.4565 63.2459C74.1595 63.7794 74.1875 65.0459 74.9465 65.5784C75.5085 66.0004 75.621 65.6349 75.4805 64.9879C75.2115 64.1487 74.6538 63.432 73.9065 62.9649Z" fill="#EA3934"/>
<path d="M78.6845 66.8998C79.303 66.8453 79.7245 66.3093 78.881 66.3378C77.9449 66.4166 77.0031 66.282 76.1265 65.9443C76.0705 66.0283 76.099 66.1128 76.1265 66.2253C76.183 66.3658 76.7455 66.5628 76.886 66.6188C77.4572 66.8447 78.0716 66.9407 78.6845 66.8998Z" fill="#EA3934"/>
<path d="M58.336 40.9862C57.8745 41.3362 57.38 41.6607 56.986 41.4637C56.2275 41.0987 57.0145 39.0467 56.958 38.4282C56.9599 37.9435 56.7923 37.4734 56.4844 37.099C56.1765 36.7247 55.7475 36.4698 55.2715 36.3782C52.967 35.9567 51.59 38.3737 50.4375 39.9477C49.819 40.7907 48.8635 41.7182 48.442 42.6737C47.8895 43.9792 48.8955 44.5207 50.353 45.0067C50.5708 45.0667 50.7999 45.0725 51.0204 45.0235C51.241 44.9745 51.4461 44.8722 51.618 44.7257C52.6465 43.9392 52.0945 42.1402 53.1075 41.8867C53.243 41.8694 53.3806 41.88 53.5118 41.9179C53.643 41.9559 53.765 42.0203 53.8704 42.1072C53.9757 42.1941 54.0622 42.3016 54.1244 42.4232C54.1866 42.5448 54.2232 42.6779 54.232 42.8142C54.344 43.5172 53.81 44.1352 53.276 44.5007C52.0955 45.2597 50.4655 45.3157 49.4535 46.3277C48.948 46.8337 48.8075 47.5642 48.3295 48.0422C47.711 48.6607 45.6595 49.4477 46.643 50.6842C46.643 50.6842 45.547 51.3867 45.4345 51.4712C45.0653 51.7625 44.8235 52.1857 44.76 52.6517C44.6195 54.6192 46.81 53.3257 47.5425 52.7922C47.9916 52.4075 48.4709 52.0597 48.976 51.7522C49.9875 51.2462 50.6625 51.9772 51.4495 52.5952C53.3045 54.0852 54.063 50.2342 55.637 50.8527C55.4252 51.171 55.2463 51.5101 55.103 51.8647C54.9842 52.0345 54.8984 52.2251 54.85 52.4267C54.8805 52.6769 54.967 52.917 55.103 53.1292C60.503 39.5687 60.612 39.3232 60.612 39.2732C60.0735 39.7147 59.1 40.4052 58.336 40.9862Z" fill="#EA3934"/>
<path d="M97.4875 40.508C97.2201 39.6731 96.7716 38.9076 96.174 38.2662C95.5764 37.6249 94.8444 37.1235 94.0305 36.798C92.738 36.292 91.248 36.264 89.927 35.786C88.522 35.252 87.6505 33.7905 86.1605 33.4535C86.131 33.4434 86.0996 33.4399 86.0686 33.4431C86.0376 33.4464 86.0076 33.4564 85.9809 33.4725C85.9541 33.4885 85.9312 33.5102 85.9137 33.536C85.8962 33.5618 85.8845 33.5912 85.8795 33.622C85.6772 34.1625 85.3583 34.6518 84.9453 35.0551C84.5324 35.4583 84.0357 35.7656 83.4905 35.955C82.8725 34.943 81.72 34.5215 80.5955 34.381C79.9681 34.3155 79.3348 34.3344 78.7125 34.437C78.4595 34.465 76.633 34.5775 76.5485 34.746C76.942 33.931 77.6725 32.891 77.757 31.9635C77.8695 30.952 76.8295 30.502 75.957 30.502C75.0988 31.7401 74.0562 32.8396 72.8655 33.7625C72.8095 33.7905 72.7815 33.847 72.725 33.875C72.855 34.0375 78.4025 43.2405 78.4025 43.2905C80.2495 42.1333 82.3581 41.4598 84.534 41.332C86.7098 41.2043 88.8827 41.6264 90.8525 42.5595C91.5232 42.8757 92.1474 43.2825 92.7075 43.7685C92.792 43.684 92.848 43.5715 92.9325 43.487C94.0005 42.11 95.3495 40.787 97.2045 40.817C97.403 40.789 97.5435 40.65 97.4875 40.508Z" fill="#EA3934"/>
<path d="M56.9585 54.8421C56.9128 55.6526 57.0367 56.4636 57.3223 57.2235C57.6079 57.9834 58.0488 58.6753 58.617 59.2551C59.4035 60.0421 60.781 60.6316 61.7925 59.9011C62.1045 59.693 62.336 59.3844 62.4486 59.0267C62.5612 58.6689 62.5481 58.2834 62.4115 57.9341C62.2099 57.6018 61.942 57.3146 61.6245 57.0906C61.3995 56.8941 61.09 56.5846 61.1185 56.2476C61.062 56.6691 65.531 57.9056 66.093 58.1871C66.3432 58.3231 66.5639 58.5073 66.7424 58.7292C66.921 58.951 67.0537 59.2061 67.133 59.4796L73.71 55.9386C73.0973 53.8296 73.1114 51.5879 73.7506 49.4868C74.3899 47.3857 75.6266 45.516 77.31 44.1056L77.338 44.0776C77.31 44.0216 72.054 35.1401 71.857 34.7466C71.2679 34.9097 70.7016 35.1457 70.171 35.4491C69.593 36.4244 68.9052 37.3303 68.121 38.1491C68.093 37.5591 68.065 36.9991 68.009 36.4066C66.9124 36.7954 65.7837 37.087 64.636 37.2781C64.0455 37.6431 62.6125 38.2336 62.528 38.2896C62.2615 38.9396 58.687 47.9466 56.5135 53.2701C56.6744 53.2691 56.8317 53.3182 56.9635 53.4106C57.288 53.6556 56.9585 54.5501 56.9585 54.8421Z" fill="#EA3934"/>
<path d="M67.5265 60.8571C67.6049 61.1776 67.7181 61.4886 67.864 61.7846C67.8855 61.8171 67.9147 61.8437 67.9491 61.8622C67.9834 61.8806 68.0218 61.8902 68.0607 61.8902C68.0997 61.8902 68.1381 61.8806 68.1724 61.8622C68.2067 61.8437 68.236 61.8171 68.2575 61.7846C68.5882 61.0721 69.0033 60.4019 69.494 59.7886C68.8195 60.1541 68.173 60.5196 67.5265 60.8571Z" fill="#EA3934"/>
<path d="M74.1595 57.3154C73.1755 57.8494 72.2205 58.3554 71.2365 58.8894C71.6012 58.8463 71.9708 58.9046 72.3045 59.0579C73.4285 59.6759 74.581 62.1494 75.4545 59.7324C74.9302 58.9799 74.4956 58.1688 74.1595 57.3154Z" fill="#EA3934"/>
<path d="M46.3625 48.518C46.953 48.715 47.4025 48.0125 47.515 47.5345C47.5464 47.3074 47.5218 47.076 47.4434 46.8605C47.365 46.645 47.2351 46.4519 47.065 46.298C46.7594 46.0937 46.4683 45.8683 46.194 45.6235C46.1364 46.0123 46.0519 46.3965 45.941 46.7735C46.2 47.297 45.559 48.2345 46.3625 48.518Z" fill="#EA3934"/>
<path d="M48.92 54.0272C48.2118 53.8897 47.4825 53.9038 46.7802 54.0685C46.0778 54.2332 45.4183 54.5448 44.845 54.9827C42.595 56.6692 41.669 60.9132 44.1985 62.8522C44.2904 62.9339 44.3947 63.0004 44.5075 63.0492C45.0198 62.9734 45.5359 62.9265 46.0535 62.9087C47.6703 62.8291 49.29 62.9902 50.8595 63.3867H50.8875C50.944 63.3867 51 63.4147 51.0565 63.4147C51.1065 63.3647 52.9695 58.4507 54.3165 55.1797C54.3445 55.1232 51.731 54.7862 51.534 54.7582C50.663 54.5612 49.794 54.2132 48.92 54.0272Z" fill="#EA3934"/>
<path d="M60.8935 61.3065C60.3919 61.3764 59.8809 61.288 59.432 61.0535C59.207 60.941 58.476 60.1535 58.3355 60.632C58.308 60.7445 57.4085 59.7885 57.324 59.6765C56.588 58.5265 56.5305 56.6915 55.524 55.854C55.074 56.95 52.4045 63.583 52.32 63.808C52.6029 63.8909 52.8761 64.0039 53.135 64.145C54.0017 64.5466 54.8139 65.0567 55.552 65.663C55.5805 65.635 60.302 63.1335 60.808 62.8805C61.0101 62.4942 61.1432 62.0756 61.2015 61.6435C61.2305 61.419 61.0895 61.276 60.8935 61.3065Z" fill="#EA3934"/>
<path d="M56.537 66.534C56.6775 66.6745 56.818 66.8435 56.987 66.984C57.156 67.1525 57.2965 67.3495 57.465 67.546C57.4866 67.4955 57.515 67.4483 57.5495 67.4055C57.9905 66.6427 58.5083 65.927 59.095 65.2695C58.2 65.7185 57.35 66.1285 56.537 66.534Z" fill="#EA3934"/>
<path d="M59.713 71.1717C59.713 71.2002 59.741 71.2002 59.741 71.2282C59.7595 71.1722 60.536 69.4537 60.9215 68.3332C61.1745 67.6302 60.781 66.8437 60.1065 67.6302C59.6098 68.2206 59.2456 68.9108 59.0385 69.6542C59.0159 69.6973 59.0062 69.7461 59.0105 69.7947C59.2724 70.239 59.507 70.6989 59.713 71.1717Z" fill="#EA3934"/>
<path d="M86.6385 32.02C86.9195 30.8395 85.149 30.727 84.5025 31.261C82.991 32.4825 86.2575 33.654 86.6385 32.02Z" fill="#EA3934"/>
<path d="M45.126 35.3083C45.6115 34.9823 50.157 31.7948 50.5225 31.5418C50.438 31.4293 50.3535 31.2888 50.2695 31.1768C48.555 32.4133 44.339 35.3363 44 35.6173C44.0845 35.7298 44.1405 35.8423 44.225 35.9548C44.5075 35.7298 44.8215 35.5123 45.126 35.3083Z" fill="#3A307F"/>
<path d="M41.2755 63.8358C40.2915 61.4468 37.79 55.3478 37.706 55.2358C37.5899 55.2899 37.4669 55.3277 37.3405 55.3483C37.3685 55.4608 40.601 63.4428 40.8255 64.0048H40.8535C40.9891 63.9365 41.1303 63.88 41.2755 63.8358Z" fill="#3A307F"/>
<path d="M61.85 37.4727C60.473 40.8172 51.732 62.7397 51.45 63.5272C51.5905 63.5552 51.731 63.6112 51.8435 63.6397C52.151 62.9322 61.7185 39.0542 62.327 37.4727H61.85Z" fill="#3A307F"/>
<path d="M77.7 43.8246C77.8262 43.7242 77.9576 43.6304 78.0935 43.5436C78.0895 43.5351 72.628 34.3691 72.472 34.0996C72.3595 34.1841 72.2475 34.2406 72.135 34.3246C73.35 36.6956 77.65 43.7746 77.7 43.8246Z" fill="#3A307F"/>
<path d="M73.991 56.8655C73.9312 56.7199 73.8842 56.5693 73.8505 56.4155C71.6005 57.652 56.031 65.831 55.8905 65.9155C56.003 65.9995 56.115 66.112 56.228 66.1965C56.635 66.061 70.8955 58.5265 73.991 56.8655Z" fill="#3A307F"/>
<path d="M90.6295 43.0651C88.5516 42.0628 86.2327 41.6682 83.9402 41.9267C81.6477 42.1853 79.4749 43.0866 77.6725 44.5266C72.179 48.9901 72.8535 57.4806 78.1225 61.8121C80.0012 63.3508 82.3494 64.2008 84.7777 64.2213C87.2059 64.2418 89.5682 63.4314 91.4725 61.9246C93.5204 60.3768 94.9961 58.1925 95.6676 55.7149C96.3392 53.2373 96.1685 50.6067 95.1825 48.2366C94.7129 47.0185 94.0273 45.8951 93.1585 44.9206C92.4283 44.1616 91.5728 43.5339 90.6295 43.0651ZM77.532 60.6876C77.8892 59.7347 78.5261 58.9119 79.359 58.3271C81.3165 56.8216 83.309 56.6471 84.1935 56.4441H84.2775C84.595 58.6656 88.9685 58.5391 89.337 56.2751C89.807 56.3211 90.2695 56.4251 90.714 56.5846C91.6018 56.9068 92.3611 57.5082 92.878 58.2986C93.083 58.6229 93.2171 58.9869 93.2715 59.3666V59.4511C93.0434 59.7541 92.7996 60.0448 92.541 60.3221C88.6225 64.6196 82.003 65.1581 77.532 60.6876ZM85.458 54.9541C86.0549 54.821 86.613 54.5517 87.0885 54.1671C87.285 54.0266 87.1165 53.6896 86.8915 53.8301C85.8235 54.5041 84.334 54.9541 83.266 54.0266C81.5515 52.5371 83.35 49.7546 84.166 48.2931C84.166 48.2931 85.4585 48.5741 85.599 48.6021C86.2455 48.6861 87.5385 48.8551 88.213 48.5741C88.0135 49.4541 88.023 50.3686 88.241 51.2441C88.269 51.3846 88.41 51.5531 88.5785 51.4406C88.7412 51.285 88.9576 51.1981 89.1828 51.1981C89.4079 51.1981 89.6244 51.285 89.787 51.4406C90.4335 52.2281 88.8035 53.4361 88.2975 52.5906C88.2659 52.542 88.2169 52.5073 88.1606 52.4936C88.1042 52.4799 88.0448 52.4883 87.9944 52.5171C87.9441 52.5459 87.9066 52.5929 87.8898 52.6484C87.873 52.7039 87.8781 52.7638 87.904 52.8156C87.9849 52.9387 88.09 53.044 88.213 53.1251C87.8724 54.2255 87.711 55.3735 87.735 56.5251C87.7388 56.5822 87.7642 56.6357 87.806 56.6748C87.8477 56.7139 87.9028 56.7356 87.96 56.7356C88.0172 56.7356 88.0723 56.7139 88.1141 56.6748C88.1558 56.6357 88.1812 56.5822 88.185 56.5251V56.2721C88.4373 56.2488 88.6907 56.2395 88.944 56.2441C88.719 57.1716 87.735 57.5941 86.836 57.6216C86.3263 57.6542 85.8183 57.5369 85.3745 57.2841C85.0457 57.0772 84.7901 56.7724 84.6435 56.4126C85.4685 56.2101 85.414 56.5941 85.458 54.9541ZM95.5765 53.6041C95.4295 55.5189 94.7798 57.3609 93.693 58.9441C93.178 56.8146 90.324 55.4341 88.1845 55.9086C88.325 55.8526 88.297 53.1541 88.4655 53.2086C88.8463 53.2671 89.2357 53.1929 89.5683 52.9985C89.9009 52.804 90.1566 52.5012 90.2925 52.1406C90.3785 51.8785 90.366 51.594 90.2573 51.3404C90.1486 51.0869 89.9512 50.8816 89.702 50.7631C90.5805 50.3241 91.152 48.8106 90.714 47.5591C90.5468 47.0389 90.2268 46.581 89.7957 46.2451C89.3646 45.9093 88.8424 45.711 88.297 45.6761C87.3695 45.6057 86.4379 45.7405 85.5684 46.0709C84.6988 46.4012 83.9128 46.9191 83.266 47.5876C83.2397 47.616 83.2213 47.6508 83.2126 47.6885C83.204 47.7263 83.2055 47.7656 83.2169 47.8026C83.2283 47.8396 83.2492 47.873 83.2776 47.8993C83.306 47.9256 83.3408 47.944 83.3785 47.9526C83.575 48.0371 83.772 48.0931 83.9685 48.1776C82.9935 49.2688 82.3756 50.6321 82.198 52.0846C82.1409 52.4598 82.1667 52.8429 82.2734 53.2071C82.3802 53.5713 82.5654 53.9077 82.816 54.1926C83.1186 54.4925 83.4872 54.7174 83.8924 54.8491C84.2975 54.9808 84.7279 55.0158 85.149 54.9511C85.149 55.0071 85.177 55.8786 85.177 55.9351C83.7906 55.9895 82.4228 56.2744 81.13 56.7781C79.8505 57.2984 78.7274 58.1406 77.8695 59.2231C77.6061 59.5574 77.432 59.9531 77.3635 60.3731C73.6635 56.3731 73.4705 50.0796 76.7735 46.1231C79.995 42.2801 86.351 40.8881 91.304 43.9026C94.396 45.8496 95.819 50.0646 95.5765 53.6051V53.6041Z" fill="#3A307F"/>
<path d="M85.4 52.9025C85.7035 52.8191 85.9828 52.6649 86.215 52.4525C86.2596 52.4144 86.2954 52.367 86.3197 52.3136C86.3439 52.2602 86.3562 52.2021 86.3555 52.1435C86.3555 51.9185 86.0745 52.059 85.9905 52.115C85.7829 52.2892 85.5445 52.4229 85.2875 52.509C84.9674 52.6021 84.6288 52.6117 84.304 52.537C84.1635 52.4805 84.051 52.7055 84.1915 52.79C84.5726 52.9533 84.9953 52.9926 85.4 52.9025Z" fill="#3A307F"/>
<path d="M85.2895 49.4742C85.0602 49.7192 84.879 50.0052 84.7555 50.3172C84.6472 50.5295 84.5714 50.7569 84.5305 50.9917C84.4885 51.1099 84.4885 51.239 84.5305 51.3572C84.699 51.6662 85.093 50.6262 85.149 50.5137C85.258 50.2402 85.499 49.8602 85.5705 49.6427C85.583 49.6064 85.5826 49.567 85.5694 49.5309C85.5562 49.4949 85.5311 49.4645 85.4982 49.4447C85.4653 49.425 85.4266 49.4172 85.3886 49.4225C85.3507 49.4279 85.3157 49.4462 85.2895 49.4742Z" fill="#3A307F"/>
<path d="M50.719 63.8361C49.1952 63.452 47.6236 63.291 46.0535 63.3581C38.7415 63.7176 33.3035 68.6421 32.0565 74.6581C31.6501 76.7308 31.6723 78.8648 32.1219 80.9286C32.5714 82.9924 33.4388 84.9422 34.6705 86.6581C35.9136 88.4178 37.5372 89.8748 39.4207 90.9208C41.3042 91.9668 43.3992 92.575 45.55 92.7001C52.745 93.0091 59.294 87.5001 60.643 80.5001C61.89 74.0191 57.6375 65.2706 50.719 63.8361ZM59.404 83.0046C58.4351 85.3415 56.9222 87.4133 54.991 89.0476C53.333 88.7661 51.6745 89.1316 50.0165 89.3561C49.9649 88.7471 49.9837 88.1343 50.0725 87.5296C50.0725 87.3611 50.0165 87.1641 49.7915 87.2206C49.651 87.2766 49.4825 87.3046 49.3415 87.3611C49.3415 87.2766 49.257 86.1241 49.229 86.1241C49.8106 86.1395 50.3905 86.055 50.9435 85.8741C52.711 85.3241 54.8685 83.4966 54.569 81.6016C54.3725 80.4776 53.3325 79.6061 52.461 78.9316C52.461 78.9316 52.5175 78.3696 52.5175 78.2851C52.405 77.4701 51.5335 77.0486 50.803 76.9641C50.4553 76.9407 50.1061 76.9597 49.763 77.0206C49.852 76.8664 49.9004 76.6921 49.9035 76.5141C49.9035 76.2896 49.6785 76.1771 49.51 76.0366C48.8009 75.3356 48.1782 74.5524 47.655 73.7036C47.599 73.6476 47.4865 73.6756 47.5145 73.7601C47.8303 74.7974 48.4347 75.7234 49.257 76.4301C49.5945 76.7111 49.032 77.1611 48.807 77.3016C48.293 77.577 47.8039 77.8967 47.3455 78.2571C46.9027 78.6429 46.6051 79.1684 46.502 79.7466C46.474 79.9156 46.502 80.9551 46.2775 80.8991C45.9447 80.7831 45.6386 80.6013 45.3775 80.3646C44.4299 79.6434 43.6527 78.7224 43.101 77.6671C42.37 76.3171 41.9765 74.0411 43.129 72.7761C44.733 70.9836 47.8445 71.9421 49.6495 70.4716C50.882 69.5006 51.429 67.5996 51.111 66.5366C51.0545 66.3401 50.7735 66.3681 50.6895 66.5366C50.6447 66.6244 50.6161 66.7196 50.605 66.8176C50.324 68.0826 48.805 68.0826 47.7665 68.0266C46.361 67.9421 45.04 67.6611 43.691 68.2231C41.6625 69.0626 41.411 70.2561 39.8125 71.4551C39.2505 71.9051 38.688 72.4111 38.604 73.1701C38.4085 74.8491 39.0195 76.9021 39.728 78.3976C39.9822 78.8851 40.2837 79.3465 40.628 79.7751C39.174 81.5196 41.0175 83.9076 43.128 83.2036C43.9855 86.8481 43.808 87.8351 43.8025 87.7851C43.662 87.7291 43.437 87.7006 43.2965 87.6446C42.7065 87.3911 43.128 89.8086 43.0715 89.8086C41.8151 89.9463 40.5673 90.1527 39.3335 90.4271C33.714 87.1376 30.5005 79.5391 33.066 72.7481C36.3985 63.8611 48.3745 61.3906 54.6515 66.1711C59.0215 69.4831 61.9 76.8841 59.404 83.0046ZM43.4115 82.8921C43.4073 82.8638 43.3972 82.8366 43.3818 82.8125C43.3665 82.7883 43.3462 82.7676 43.3224 82.7517C43.2986 82.7358 43.2717 82.7251 43.2434 82.7203C43.2152 82.7155 43.1863 82.7166 43.1585 82.7236C42.6809 82.9004 42.1534 82.8849 41.687 82.6803C41.2207 82.4758 40.8519 82.0982 40.6585 81.6271C40.0965 80.2216 42.0085 79.3771 42.064 79.3506C42.092 79.3786 42.654 80.4186 42.823 80.7276C43.8345 82.4701 44.959 84.4661 46.7855 85.4776C47.4497 85.8477 48.1905 86.0592 48.95 86.0956C48.922 86.1801 48.8935 87.3881 48.8935 87.4726C47.5794 87.8038 46.2298 87.9737 44.8745 87.9786C44.658 87.9738 44.4421 87.9551 44.228 87.9226C44.512 86.4961 43.9665 83.7801 43.4115 82.8921ZM51.3655 79.6881C51.0546 79.7494 50.7327 79.7201 50.438 79.6036C50.2747 79.5233 50.1308 79.4083 50.0165 79.2666C50.129 79.4071 49.5665 80.1666 49.4825 80.2781C49.145 80.7001 48.274 81.4866 47.6555 81.2621C47.5995 81.2341 47.571 81.1776 47.6275 81.1216C47.9009 80.9094 48.2042 80.7388 48.5275 80.6156C48.8529 80.4036 49.1274 80.1223 49.3314 79.7919C49.5354 79.4614 49.6638 79.09 49.7075 78.7041C49.71 78.6498 49.7315 78.5982 49.7684 78.5583C49.8052 78.5184 49.855 78.4929 49.9089 78.4862C49.9628 78.4795 50.0173 78.492 50.0628 78.5217C50.1083 78.5513 50.1419 78.5961 50.1575 78.6481C50.2199 78.7962 50.3119 78.9299 50.4279 79.0411C50.5439 79.1523 50.6814 79.2386 50.832 79.2946C50.9725 79.3506 51.3375 79.3226 51.422 79.4631C51.4775 79.5756 51.45 79.6596 51.3655 79.6881Z" fill="#3A307F"/>
<path d="M51.337 76.1187C51.1011 75.4177 50.8195 74.7329 50.494 74.0687C50.1731 73.4105 49.7971 72.7805 49.37 72.1857C49.2407 71.991 49.0791 71.8198 48.892 71.6797C48.8075 71.6237 48.7235 71.7082 48.7235 71.7922C48.8705 72.3077 49.6825 73.1037 50.6345 75.6422C50.7222 75.8531 50.7973 76.069 50.8595 76.2887C51.068 77.1297 51.65 76.9217 51.337 76.1187Z" fill="#3A307F"/>
<path d="M54.935 35.0273C60.274 38.2803 67.5555 37.1948 72.5295 33.3688C75.3121 31.2768 77.1675 28.1806 77.7 24.7403C78.784 18.0653 74.922 10.8378 70.2235 8.63526C67.9613 7.73547 65.5476 7.27722 63.113 7.28526C58.2755 7.28526 53.7805 8.94526 50.8305 12.8783C45.92 19.4748 47.789 30.6728 54.935 35.0273ZM48.639 19.8218C49.384 13.4218 53.8595 8.63826 60.839 7.84826C64.0275 7.46876 67.246 7.74826 70.1425 9.19826C71.4075 9.76026 73.167 11.1558 74.6675 13.4703C77.544 17.9833 78.0355 23.2573 76.438 27.3548C72.724 37.0813 56.424 40.8023 50.412 29.6048C48.878 26.587 48.2616 23.1859 48.639 19.8218Z" fill="#3A307F"/>
<path d="M61.54 20.8622C61.5401 20.839 61.5326 20.8165 61.5187 20.7979C61.5048 20.7794 61.4852 20.7659 61.4629 20.7595C61.4406 20.7531 61.4168 20.7542 61.3952 20.7625C61.3736 20.7709 61.3552 20.786 61.343 20.8057C61.0454 21.4178 60.8101 22.0581 60.6405 22.7172C60.5976 22.857 60.6019 23.0069 60.6527 23.144C60.7035 23.2811 60.7979 23.3977 60.9215 23.4757C61.1575 23.5926 61.4298 23.6129 61.6805 23.5322C61.7281 23.5199 61.7695 23.4904 61.7967 23.4495C61.824 23.4086 61.8352 23.3591 61.8283 23.3105C61.8213 23.2618 61.7967 23.2174 61.7592 23.1857C61.7216 23.154 61.6737 23.1373 61.6245 23.1387C61.4538 23.1619 61.2799 23.1425 61.1185 23.0822C60.9495 22.9702 61.09 22.6607 61.1465 22.4922C61.3564 21.971 61.489 21.4218 61.54 20.8622Z" fill="#3A307F"/>
<path d="M61.1185 25.5835C61.0729 25.5876 61.0305 25.6087 60.9996 25.6425C60.9687 25.6763 60.9516 25.7205 60.9516 25.7663C60.9516 25.8121 60.9687 25.8562 60.9996 25.89C61.0305 25.9238 61.0729 25.9449 61.1185 25.949C61.587 25.9627 62.0436 25.7998 62.3976 25.4926C62.7516 25.1854 62.9771 24.7563 63.0295 24.2905C63.0319 24.2561 63.0253 24.2216 63.0105 24.1905C62.9956 24.1593 62.9729 24.1325 62.9446 24.1128C62.9163 24.093 62.8834 24.0809 62.849 24.0776C62.8147 24.0743 62.78 24.0799 62.7485 24.094C62.0308 24.3789 61.2701 24.5405 60.4985 24.572C60.2374 24.6046 59.9747 24.6233 59.7115 24.628C59.6924 24.6302 59.6745 24.6386 59.6605 24.6519C59.6466 24.6651 59.6373 24.6826 59.6341 24.7016C59.6308 24.7206 59.6339 24.7401 59.6427 24.7572C59.6515 24.7743 59.6657 24.7881 59.683 24.7965C60.6171 25.0075 61.5919 24.9491 62.494 24.628C62.3676 24.8931 62.1742 25.1206 61.933 25.2882C61.6918 25.4558 61.4111 25.5575 61.1185 25.5835Z" fill="#3A307F"/>
<path d="M56.0875 21.0027C56.0828 21.171 56.1186 21.3381 56.192 21.4897C56.2653 21.6412 56.3741 21.773 56.509 21.8737C56.7944 22.0846 57.1378 22.2024 57.4925 22.2112C57.4773 22.3074 57.4887 22.4059 57.5256 22.496C57.5625 22.5861 57.6233 22.6644 57.7016 22.7224C57.7799 22.7803 57.8725 22.8157 57.9694 22.8246C58.0664 22.8336 58.164 22.8158 58.2515 22.7732C58.0783 23.3342 57.9467 23.9073 57.858 24.4877C57.5955 26.5222 59.005 27.5302 61.008 27.6637C61.279 27.6917 61.5521 27.6917 61.823 27.6637C61.879 27.6637 61.626 29.9137 61.626 30.1372C61.626 30.4462 61.9635 30.3057 62.048 30.1652C62.1885 29.9122 62.2445 27.6357 62.104 27.6652C62.5163 27.6351 62.9228 27.5501 63.3125 27.4122C63.3626 27.793 63.5144 28.1532 63.752 28.4549C63.9896 28.7566 64.3041 28.9887 64.6625 29.1267C66.016 29.6267 67.5845 27.8392 67.333 25.9507C67.3122 25.8963 67.2718 25.8516 67.2196 25.8256C67.1675 25.7996 67.1075 25.7941 67.0515 25.8102C66.911 25.8382 66.883 25.9507 66.911 26.0912C67.107 27.5277 65.997 28.9217 65.028 28.7912C64.726 28.7234 64.4494 28.5711 64.2305 28.3522C64.0116 28.1333 63.8594 27.8567 63.7915 27.5547C63.7635 27.4702 63.7635 27.3862 63.735 27.3017C63.904 27.2177 64.0445 27.1612 64.213 27.0772C64.3815 26.9647 64.269 26.6552 64.0725 26.7397C63.96 26.7677 63.8475 26.8242 63.7635 26.8522C63.8387 26.3194 64.0558 25.8165 64.3918 25.3963C64.7279 24.976 65.1708 24.6537 65.674 24.4632C65.8599 24.4306 66.0479 24.4117 66.2365 24.4067C66.2626 24.4058 66.2877 24.3964 66.308 24.38C66.3283 24.3636 66.3428 24.341 66.3491 24.3157C66.3555 24.2904 66.3535 24.2637 66.3434 24.2396C66.3332 24.2155 66.3156 24.1954 66.293 24.1822C65.387 23.6542 63.381 25.1707 63.3135 26.9927C61.047 27.7137 58.1565 27.2277 58.339 24.8567C58.3945 23.7892 59.248 21.1437 59.5755 19.1792C60.1669 18.9046 60.6582 18.4527 60.981 17.8862C61.2303 18.0858 61.5376 18.1993 61.8568 18.2095C62.1761 18.2196 62.49 18.126 62.7515 17.9427C62.8825 18.251 63.0823 18.5253 63.3356 18.7445C63.5889 18.9636 63.8891 19.1219 64.213 19.2072C64.1452 19.6035 64.2175 20.0111 64.4175 20.3599C64.6175 20.7088 64.9327 20.977 65.309 21.1187C65.2213 21.3125 65.2014 21.5302 65.2525 21.7367C65.337 22.0742 65.6185 22.2427 65.8995 22.4397C65.815 22.3832 65.0845 23.0857 65.871 22.8897C68.2885 22.2992 68.0075 25.8127 65.5335 25.2787C65.4495 25.2507 65.4495 25.3912 65.506 25.4472C65.7069 25.5572 65.9286 25.6242 66.1568 25.6438C66.385 25.6635 66.6149 25.6354 66.8316 25.5614C67.0484 25.4873 67.2474 25.369 67.4159 25.2138C67.5845 25.0587 67.7188 24.8701 67.8105 24.6602C69.341 25.0247 70.2315 23.8867 69.9465 22.9177C70.3047 22.8653 70.6417 22.7163 70.9216 22.4867C71.2014 22.2572 71.4134 21.9557 71.5348 21.6147C71.6561 21.2737 71.6823 20.9061 71.6105 20.5513C71.5386 20.1966 71.3715 19.8681 71.127 19.6012C71.4671 19.3793 71.7394 19.0679 71.914 18.7012C72.0352 18.4478 72.0745 18.163 72.0265 17.8862C72.0219 17.4947 71.9257 17.1098 71.7455 16.7622C71.8559 16.5825 71.9212 16.3787 71.9359 16.1683C71.9505 15.9578 71.914 15.747 71.8295 15.5537C71.7248 15.3483 71.5782 15.1671 71.3992 15.0218C71.2201 14.8765 71.0126 14.7704 70.79 14.7102C70.894 14.5004 70.9482 14.2694 70.9482 14.0352C70.9482 13.801 70.894 13.57 70.79 13.3602C70.6349 13.1148 70.4294 12.9051 70.1871 12.7452C69.9448 12.5853 69.6712 12.4788 69.3845 12.4327C69.4602 12.2145 69.4713 11.979 69.4165 11.7546C69.3617 11.5303 69.2433 11.3265 69.0755 11.1677C68.6255 10.6902 67.895 10.6622 67.2755 10.6622C67.2505 10.4119 67.1556 10.1737 67.0015 9.97485C66.8475 9.77599 66.6406 9.6245 66.4045 9.53771C66.0801 9.4373 65.7388 9.40301 65.4008 9.43685C65.0629 9.47068 64.7351 9.57197 64.437 9.7347C64.2794 9.4612 64.0484 9.23724 63.7702 9.08818C63.4919 8.93911 63.1775 8.87088 62.8625 8.8912C62.0195 8.9192 61.345 9.4532 60.727 9.9877C60.5053 9.89431 60.2644 9.85573 60.0246 9.87523C59.7848 9.89472 59.5532 9.97172 59.3495 10.0997C58.8921 10.4203 58.5167 10.844 58.2535 11.3367C57.835 11.9632 57.6035 11.9197 56.9605 12.3202C56.5374 12.6056 56.2045 13.0058 56.0008 13.4738C55.7971 13.9417 55.7311 14.4581 55.8105 14.9622C55.5166 15.1781 55.2686 15.4504 55.0809 15.7631C54.8932 16.0758 54.7695 16.4227 54.7172 16.7837C54.6648 17.1446 54.6848 17.5124 54.776 17.8655C54.8671 18.2187 55.0276 18.5502 55.248 18.8407C54.71 19.5692 55.188 20.6932 56.0875 21.0027Z" fill="#3A307F"/>
<path d="M57.83 23.4194C57.8536 23.4131 57.8741 23.3983 57.8875 23.3778C57.9009 23.3574 57.9064 23.3328 57.9029 23.3086C57.8994 23.2844 57.8871 23.2623 57.8684 23.2465C57.8498 23.2308 57.826 23.2224 57.8015 23.2229C56.3065 23.1439 54.742 25.1689 55.5815 26.5954C56.054 27.4224 57.559 27.7239 58.2815 26.8484C58.4505 26.6514 58.197 26.4269 58.0005 26.5674C57.8581 26.6948 57.6908 26.7912 57.5092 26.8506C57.3277 26.91 57.1357 26.9311 56.9456 26.9126C56.7554 26.8941 56.5712 26.8363 56.4045 26.743C56.2378 26.6497 56.0922 26.5229 55.977 26.3704C55.2465 25.3589 56.635 23.6434 57.83 23.4194Z" fill="#3A307F"/>
<path d="M71.995 31.1204C70.4441 30.4907 68.803 30.1113 67.133 29.9964C66.6661 29.9494 66.1967 29.9306 65.7275 29.9399C65.0535 29.9964 64.997 30.7549 64.463 31.0644C64.1166 31.2517 63.732 31.3573 63.3385 31.3734C62.9208 31.367 62.5153 31.231 62.178 30.9844C61.8408 30.7378 61.5883 30.3926 61.4555 29.9964C61.4736 29.964 61.4835 29.9276 61.4843 29.8904C61.4852 29.8533 61.4769 29.8165 61.4603 29.7832C61.4437 29.75 61.4193 29.7213 61.3891 29.6996C61.3589 29.678 61.3238 29.664 61.287 29.6589C58.1976 29.2971 55.08 30.0442 52.49 31.7669C52.4626 31.7832 52.4424 31.8092 52.4334 31.8397C52.4244 31.8702 52.4272 31.903 52.4414 31.9315C52.4556 31.96 52.4801 31.9821 52.5098 31.9933C52.5396 32.0045 52.5726 32.004 52.602 31.9919C54.873 30.8254 56.6405 30.1214 59.207 29.9964C59.8641 29.9682 60.5223 29.9963 61.1745 30.0804C61.2456 30.4522 61.4166 30.7976 61.6692 31.0794C61.9217 31.3613 62.2463 31.5691 62.608 31.6804C62.9758 31.7878 63.3627 31.8133 63.7414 31.7551C64.1201 31.6969 64.4815 31.5564 64.8 31.3434C65.1774 31.0945 65.4481 30.7136 65.559 30.2754C66.009 30.3314 66.459 30.3034 66.88 30.3594C67.414 30.4159 67.948 30.4719 68.48 30.5564C69.807 30.7901 71.1001 31.1866 72.33 31.7369C72.499 31.8209 72.808 32.0459 72.9765 31.8774C73.2885 31.5704 72.192 31.2049 71.995 31.1204Z" fill="#3A307F"/>
<path d="M62.6925 21.5081C62.6925 21.5826 62.7221 21.6541 62.7748 21.7067C62.8275 21.7594 62.899 21.7891 62.9735 21.7891C63.048 21.7891 63.1195 21.7594 63.1722 21.7067C63.2249 21.6541 63.2545 21.5826 63.2545 21.5081C63.2545 21.4335 63.2249 21.3621 63.1722 21.3094C63.1195 21.2567 63.048 21.2271 62.9735 21.2271C62.899 21.2271 62.8275 21.2567 62.7748 21.3094C62.7221 21.3621 62.6925 21.4335 62.6925 21.5081Z" fill="#3A307F"/>
<path d="M59.741 21.3113C59.741 21.3858 59.7706 21.4573 59.8233 21.51C59.876 21.5627 59.9475 21.5923 60.022 21.5923C60.0966 21.5923 60.168 21.5627 60.2207 21.51C60.2734 21.4573 60.303 21.3858 60.303 21.3113C60.303 21.2367 60.2734 21.1653 60.2207 21.1126C60.168 21.0599 60.0966 21.0303 60.022 21.0303C59.9475 21.0303 59.876 21.0599 59.8233 21.1126C59.7706 21.1653 59.741 21.2367 59.741 21.3113Z" fill="#3A307F"/>
<path d="M46.5145 74.9576C46.5775 74.889 46.6605 74.842 46.7518 74.8234C46.8431 74.8048 46.9379 74.8154 47.0227 74.8539C47.1076 74.8924 47.1781 74.9567 47.2242 75.0376C47.2703 75.1186 47.2897 75.212 47.2795 75.3046C47.2694 75.3972 47.2303 75.4842 47.1677 75.5533C47.1051 75.6223 47.0224 75.6698 46.9312 75.689C46.8401 75.7082 46.7452 75.6981 46.6601 75.6601C46.575 75.6221 46.5041 75.5583 46.4575 75.4776C46.3982 75.4003 46.3711 75.3031 46.3817 75.2062C46.3923 75.1093 46.4399 75.0203 46.5145 74.9576Z" fill="#3A307F"/>
<path d="M49.05 73.8063C49.113 73.7376 49.1961 73.6906 49.2873 73.672C49.3786 73.6534 49.4734 73.6641 49.5583 73.7026C49.6431 73.741 49.7136 73.8053 49.7597 73.8863C49.8059 73.9672 49.8252 74.0606 49.8151 74.1533C49.8049 74.2459 49.7658 74.3329 49.7032 74.4019C49.6407 74.4709 49.5579 74.5184 49.4667 74.5376C49.3756 74.5568 49.2807 74.5467 49.1956 74.5087C49.1105 74.4708 49.0396 74.4069 48.993 74.3263C48.9339 74.2489 48.9068 74.1517 48.9174 74.0549C48.928 73.958 48.9755 73.869 49.05 73.8063Z" fill="#3A307F"/>
<path d="M86.307 49.9067C86.482 49.8427 86.657 49.8852 86.701 50.0017C86.745 50.1182 86.637 50.2647 86.462 50.3287C86.287 50.3927 86.112 50.3507 86.068 50.2342C86.024 50.1177 86.132 49.9707 86.307 49.9067Z" fill="#3A307F"/>
<path d="M83.894 49.4031C83.9815 49.3156 84.1595 49.3506 84.2915 49.4826C84.4235 49.6146 84.4585 49.7921 84.3705 49.8826C84.2825 49.9731 84.105 49.9326 83.9705 49.8031C83.836 49.6736 83.806 49.4906 83.894 49.4031Z" fill="#3A307F"/>
<path d="M31.2943 45.1157C31.8504 45.4053 32.5302 45.3054 32.9794 44.8701C33.1625 44.6991 33.5304 44.1995 33.3117 44.0758C33.1354 43.9725 33.1371 44.2029 32.6811 44.5077C32.3573 44.7821 31.908 44.8532 31.5164 44.694C31.0909 44.5145 31.0672 44.5026 30.996 44.5737C30.8671 44.7025 31.14 45.0209 31.296 45.1157H31.2943Z" fill="#3A307F"/>
<path d="M33.1325 46.9285C33.0477 46.793 32.9494 46.8946 32.5765 46.9606C32.1764 47.0656 31.761 47.1029 31.3491 47.0724C29.3487 47.0013 29.0774 44.5659 29.1011 42.5624C29.1011 42.3117 29.1486 40.6977 29.0672 39.9289C29.0672 39.8493 29.0028 39.7832 28.9214 39.7832C28.8401 39.7832 28.7757 39.8476 28.7757 39.9289C28.7757 39.9322 28.7757 39.9356 28.7757 39.939C28.7621 40.4234 28.6451 41.1364 28.6078 42.5573C28.5519 44.7912 28.8892 47.1537 31.0863 47.5246L31.1202 49.5688C30.849 49.6585 30.4268 49.7686 30.098 49.8685C30.02 49.8956 29.9759 49.9752 29.9946 50.0548C30.02 50.1344 30.1064 50.1802 30.1878 50.1565C30.5896 50.043 30.8727 50.0311 31.3745 49.8855C31.4542 49.8601 31.5084 49.7889 31.5101 49.706C31.5169 49.313 31.5508 48.1699 31.5644 47.5957C31.9831 47.6144 32.4001 47.5331 32.7816 47.3586C33.0003 47.2232 33.2291 47.086 33.1325 46.9302V46.9285Z" fill="#3A307F"/>
<path d="M30.8505 43.2172H31.2896C31.3709 43.2036 31.4472 43.2578 31.4608 43.3391C31.4743 43.4204 31.4201 43.4966 31.3387 43.5101C31.3336 43.5101 31.3285 43.5101 31.3235 43.5118C31.0946 43.5813 30.8607 43.6304 30.6233 43.6626C30.503 43.671 30.3978 43.5779 30.3894 43.4576C30.3894 43.4509 30.3894 43.4458 30.3894 43.439C30.386 43.2409 30.3775 43.0444 30.386 42.8463C30.3894 42.4635 30.4928 41.2712 30.5114 41.1019C30.5826 40.2144 30.9946 40.0705 30.9946 41.1306C30.9878 41.4609 30.8505 43.1748 30.8505 43.2172Z" fill="#3A307F"/>
<path d="M32.8799 40.3066C33.0969 40.3066 33.2749 40.5912 33.2749 40.94C33.2749 41.2889 33.0986 41.5701 32.8799 41.5701C32.6612 41.5701 32.4849 41.2889 32.4849 40.94C32.4849 40.5912 32.6612 40.3066 32.8799 40.3066Z" fill="#3A307F"/>
<path d="M29.9504 40.4648C30.1657 40.4648 30.3454 40.7494 30.3454 41.0982C30.3454 41.4471 30.1657 41.7283 29.9504 41.7283C29.7351 41.7283 29.552 41.4471 29.552 41.0982C29.552 40.7494 29.7317 40.4648 29.9504 40.4648Z" fill="#3A307F"/>
<path d="M29.5994 39.6154C29.7503 39.4799 29.9046 39.3596 30.0927 39.4731C30.3691 39.6204 30.4165 39.8355 30.5725 39.7508C30.7556 39.6594 30.564 39.2546 30.3555 39.0751C29.9876 38.8295 29.4892 38.9278 29.2434 39.2953C29.2366 39.3054 29.2298 39.3173 29.2231 39.3275C29.1349 39.4596 29.0824 39.7339 29.2451 39.8067C29.3519 39.844 29.3739 39.7966 29.6011 39.6137L29.5994 39.6154Z" fill="#3A307F"/>
<path d="M38.2805 41.7438C38.2433 41.312 37.9924 40.9292 37.6143 40.7192C37.8042 40.0875 37.9008 39.4304 37.9008 38.7716C37.894 38.6395 37.7872 38.5328 37.655 38.5294C36.9854 38.5175 36.3089 38.4667 35.6359 38.4532C35.1138 37.3845 33.3168 35.9196 31.7148 35.7892C30.2907 35.6791 29.043 35.4403 27.7241 36.282C26.9121 36.8985 26.3374 37.7757 26.0966 38.7648C26.0678 38.8275 26.0407 38.8901 26.0119 38.9579C25.9797 39.0341 26.0153 39.1221 26.0915 39.1526C26.1441 39.1746 26.2051 39.1645 26.2492 39.1272C26.317 39.0595 26.3628 38.9731 26.3848 38.8817C27.1935 37.5928 28.7379 36.9645 30.2178 37.3235C31.0875 37.6352 31.8622 38.1619 32.4692 38.8562C32.342 38.9138 32.2267 39.0002 32.1352 39.1052C32.0589 39.2034 31.8978 39.5286 32.0182 39.6201C32.1318 39.7064 32.3759 39.5286 32.4861 39.4371C32.7319 39.2102 33.0981 39.1713 33.3863 39.3423C33.6779 39.4981 33.6864 39.6421 33.8322 39.554C34.0017 39.4541 33.8067 39.156 33.6372 38.9883H34.1712C34.1848 40.1434 34.9239 41.1629 36.0174 41.5355C36.2411 41.627 36.2818 41.3001 36.8192 41.0816C37.2668 40.8886 37.7414 41.295 37.7991 41.7997C37.8652 42.633 37.243 43.3612 36.4107 43.4273C36.2818 43.4374 36.153 43.4306 36.0258 43.4086C35.8885 43.3849 35.7563 43.4781 35.7342 43.6169C35.7342 43.6203 35.7342 43.6254 35.7326 43.6288C35.5732 44.7245 35.0799 45.7458 34.3204 46.5519C34.2017 46.6789 34.3068 46.6789 34.378 47.8678C34.4153 48.4437 34.4323 49.0161 34.456 49.5902C34.4611 49.6732 34.534 49.7376 34.6171 49.7325C34.695 49.7274 34.7578 49.6631 34.7595 49.5835C34.812 48.6537 34.8035 47.7222 34.734 46.7958C35.485 45.9998 35.9902 45.0057 36.192 43.9319C37.2922 43.9895 38.2314 43.1461 38.289 42.0487C38.2941 41.9487 38.2924 41.8471 38.2822 41.7472L38.2805 41.7438Z" fill="#3A307F"/>
<path d="M28.7837 38.6158C28.9023 38.0467 29.3024 37.5776 29.8449 37.3693C29.9212 37.3371 30.0093 37.3727 30.0416 37.4472C30.0738 37.5217 30.0399 37.6098 29.9653 37.6437C29.7924 37.7436 29.6499 37.8892 29.5516 38.0637C29.3974 38.333 29.2838 38.6226 29.2126 38.924C29.1804 39.029 29.0854 39.1018 28.9752 39.1069C28.3276 39.1188 28.0208 39.2085 27.5614 39.2136C27.3952 39.2204 26.7883 39.1933 26.7883 38.9799C26.8002 38.8309 26.9138 38.8139 27.5342 38.7343C27.953 38.6869 28.2547 38.6395 28.7854 38.6141L28.7837 38.6158Z" fill="#3A307F"/>
<path d="M37.9725 35.3875C36.1162 34.1376 32.5222 32.5558 31.0101 34.2088C30.7168 34.5712 30.4879 34.981 30.3336 35.4197C30.3099 35.4976 30.2268 35.5399 30.1489 35.5162C30.0709 35.4925 30.0285 35.4095 30.0522 35.3316C30.0522 35.3282 30.0539 35.3248 30.0556 35.3215C30.1556 34.8117 30.3642 34.3273 30.6676 33.9056C32.3425 31.9478 36.2196 33.5533 38.3184 35.0623C38.3726 35.0996 38.4082 35.1606 38.4167 35.2266C38.5286 36.2292 38.4947 37.242 38.3184 38.2361C38.3014 38.3174 38.22 38.3699 38.1387 38.353C38.0624 38.3377 38.0098 38.2666 38.0183 38.1887C38.12 37.2572 38.1048 36.3156 37.9708 35.3875H37.9725Z" fill="#3A307F"/>
<path d="M31.5016 48.4284C31.784 49.0691 32.0936 49.7166 32.4085 50.343C33.0845 50.0407 33.7382 49.6978 34.3674 49.3175C35.2019 48.8642 36.0746 48.4566 36.9313 48.045C37.0108 48.0075 38.2821 48.2371 38.9296 48.4017C37.9534 49.4192 36.9059 50.3759 35.7959 51.2654C35.3756 51.5886 34.4511 52.0564 33.8599 52.0425C33.1625 52.0255 32.6093 51.2945 32.3114 50.7786C31.948 51.1723 31.5294 51.5187 31.0677 51.8091C30.4985 52.1417 30.0937 52.1953 30 51.5C29.8929 50.7068 29.4999 49.9998 30.3742 49.0302C30.7508 48.8324 31.1319 48.6313 31.5189 48.4481L31.5016 48.4284Z" fill="#3A307F"/>
<path d="M41.9934 50.2753C40.4879 49.7573 38.8949 49.4452 37.2738 49.3508C36.8206 49.3121 36.365 49.2966 35.9095 49.3043C35.2553 49.3508 35.2004 49.9746 34.6821 50.2292C34.3458 50.3832 33.9725 50.4701 33.5905 50.4834C33.185 50.478 32.7914 50.3662 32.4641 50.1634C32.1367 49.9605 31.8916 49.6766 31.7627 49.3508C31.7803 49.3241 31.4992 49.0304 31.5 48.9998C30.7093 48.843 30.8541 49.1948 31.3828 49.1067C30.9556 49.033 30.8823 48.9998 31.5 48.9998C31.4707 48.982 31.0357 49.1109 31 49.1067C28.001 48.8091 25.5141 49.0828 23 50.4998C22.9949 50.1326 22.9734 50.5131 23 50.4998C22.9863 50.4763 23.4951 50.1326 23 50.4998C23.4872 50.5571 23.471 50.9905 23.4999 50.9998C23.4713 51.0097 23.5289 51.009 23.4999 50.9998C25.7044 50.0403 27.0888 49.4536 29.5801 49.3508C30.2179 49.3276 30.8568 49.3507 31.49 49.4199C31.559 49.7256 31.7249 50.0097 31.9701 50.2416C32.2153 50.4734 32.5303 50.6443 32.8815 50.7359C33.2385 50.8242 33.614 50.8452 33.9816 50.7973C34.3492 50.7494 34.7 50.6338 35.0092 50.4587C35.3755 50.254 35.6382 49.9407 35.746 49.5802C36.1828 49.6263 36.6196 49.6033 37.0283 49.6493C37.5466 49.6958 38.065 49.7419 38.5814 49.8114C39.8695 50.0036 41.1247 50.3297 42.3185 50.7824C42.4826 50.8515 42.8364 51.1384 42.9999 50.9998C43.3028 50.7472 42.1846 50.3448 41.9934 50.2753Z" fill="#3A307F"/>
<path d="M26.7456 54.3789C31.2251 57.1202 37.3343 56.2055 41.5075 52.9812C43.8422 51.2182 45.3988 48.609 45.8456 45.7098C46.7551 40.0846 43.5149 33.9939 39.5728 32.1378C37.6747 31.3795 35.6497 30.9933 33.607 31.0001C29.5483 31.0001 25.777 32.399 23.3019 35.7134C19.182 41.2724 20.7501 50.7092 26.7456 54.3789ZM21.4632 41.5649C22.0883 36.1714 25.8433 32.1403 31.6991 31.4745C34.3743 31.1547 37.0746 31.3903 39.5048 32.6122C40.5662 33.0858 42.0424 34.2618 43.3013 36.2123C45.7147 40.0155 46.1271 44.46 44.7868 47.9131C41.6707 56.1098 27.9949 59.2456 22.9508 49.8092C21.6637 47.2661 21.1466 44.3999 21.4632 41.5649Z" fill="#3A307F"/>
</svg>
