<svg width="100" height="100" viewBox="0 0 100 100" fill="none" xmlns="http://www.w3.org/2000/svg">
<path d="M37.95 55.173C38.074 55.0435 38.458 55.173 38.331 55.4275C36.565 58.5175 33.296 61.9085 33.8835 66.609C34.1441 68.0447 34.6607 69.4219 35.4085 70.675C34.2331 69.6286 33.3933 68.2582 32.9945 66.736C31.8665 62.285 35.09 58.1615 37.95 55.173Z" fill="#3A307F"/>
<path d="M41.3816 52.1235C41.3072 51.8664 41.3163 51.5924 41.4076 51.3408C41.4989 51.0892 41.6677 50.8731 41.8896 50.7235C42.5601 50.1735 44.0046 50.334 44.3041 51.232C44.3041 51.359 44.4311 51.613 44.3041 51.486C44.0912 51.32 43.8401 51.2099 43.5738 51.1655C43.3075 51.1212 43.0343 51.144 42.7791 51.232C42.2711 51.3615 41.3816 51.488 41.3816 52.1235Z" fill="#3A307F"/>
<path d="M46.718 50.0906C46.5832 50.0534 46.4574 49.9893 46.3483 49.9019C46.2391 49.8146 46.1489 49.7059 46.083 49.5826C45.5435 48.5516 46.3495 47.3081 47.0995 48.0576C46.408 48.4036 46.5305 49.3381 46.718 50.0906Z" fill="#3A307F"/>
<path d="M46.5909 45.0082C45.9559 44.6272 44.6849 43.6082 43.9229 44.3732C43.6659 44.698 43.531 45.1026 43.5414 45.5167C43.5414 45.6437 43.6684 46.4062 43.5414 46.4062C42.9064 46.7872 42.1414 47.1682 41.5084 47.5497C40.7459 47.9307 40.1084 48.4392 39.3484 48.8202C38.3319 48.5662 36.4259 48.1852 36.5529 49.7097C36.5322 50.0952 36.5751 50.4816 36.6799 50.8532C36.7994 51.574 37.0584 52.2646 37.4424 52.8862C37.8234 53.5217 38.7129 54.7922 39.0924 54.2862C39.2194 54.1587 38.4569 53.7777 37.9484 52.7612C37.4399 51.7447 36.9319 50.6012 37.1864 49.4577C37.9238 49.4495 38.6563 49.5787 39.3464 49.8387H39.7274L44.3019 47.2977C44.8059 47.0477 44.5559 46.2527 44.5559 45.3917C45.1442 45.611 45.6994 45.9103 46.2059 46.2812C48.2614 47.5147 49.6364 48.9272 49.6364 51.3637C49.6364 53.5592 47.4549 55.2777 45.4434 56.1922C45.6214 56.4292 46.4854 56.2662 47.4794 55.5762C46.5239 58.0372 45.9144 63.0112 46.2059 65.3407C46.1905 65.81 46.2332 66.2793 46.3329 66.7382C46.3329 67.1192 46.5869 67.6277 46.5869 68.0087C46.8739 63.1302 46.3169 62.6622 47.7304 56.0647C47.8077 55.8033 47.8616 55.5356 47.8914 55.2647C49.0666 54.2686 49.9359 52.9604 50.3989 51.4912C50.7184 49.2802 49.6854 46.7767 46.5909 45.0082Z" fill="#3A307F"/>
<path d="M45.5745 50.5988C45.8285 50.3448 46.2745 50.2023 46.337 50.5988C46.3472 50.7256 46.3472 50.8531 46.337 50.9798C46.1878 51.0808 46.0076 51.1258 45.8285 51.1068C45.7669 51.1138 45.7047 51.1016 45.6503 51.0721C45.5959 51.0425 45.5518 50.9969 45.5241 50.9415C45.4964 50.8861 45.4864 50.8235 45.4954 50.7623C45.5044 50.701 45.532 50.6439 45.5745 50.5988Z" fill="#3A307F"/>
<path d="M46.083 53.5213C46.4768 53.01 46.699 52.3873 46.718 51.7423C46.7177 51.7255 46.7207 51.7088 46.727 51.6933C46.7332 51.6777 46.7426 51.6636 46.7544 51.6517C46.7663 51.6398 46.7804 51.6305 46.796 51.6242C46.8116 51.618 46.8282 51.6149 46.845 51.6153C47.1222 51.7498 47.4264 51.8197 47.7345 51.8197C48.0427 51.8197 48.3468 51.7498 48.624 51.6153C48.5245 51.8917 48.327 52.122 48.0689 52.2626C47.8109 52.4031 47.5102 52.4441 47.224 52.3778C47.2135 52.6773 47.09 52.9617 46.8783 53.1738C46.6666 53.3859 46.3825 53.5101 46.083 53.5213Z" fill="#3A307F"/>
<path d="M73.6555 31.6666C67.097 27.2726 57.1375 30.3961 55.3585 36.7491C55.4855 36.7491 64.782 31.5296 69.0815 40.6881C71.7625 46.4001 68.827 55.8086 63.6175 60.3831C58.408 64.9576 56.629 63.0511 56.629 63.0511L57.2645 56.9511C55.8309 56.3486 54.6906 55.2082 54.088 53.7746C53.947 53.5428 53.86 53.2822 53.8335 53.0121C53.0715 49.9621 52.9445 62.9231 51.2925 63.1776C49.6405 63.4321 41.8895 64.8276 36.553 68.6411C35.2334 69.4997 34.1081 70.625 33.2495 71.9446C34.012 72.1991 34.7755 72.3206 35.2825 72.4531C38.0419 73.2044 40.8418 73.7983 43.6685 74.2321C54.9685 75.8441 66.487 74.1011 77.4685 71.6906C76.452 69.6576 74.81 67.3406 72.64 66.6081C68.34 65.1536 74.327 62.3011 78.231 51.8686C82.0765 41.5906 80.185 36.0411 73.6555 31.6666ZM77.5945 45.3881C76.9456 48.5215 75.6943 51.4989 73.91 54.1551C73.8724 54.2153 73.8136 54.2594 73.7453 54.2786C73.6769 54.2979 73.6039 54.291 73.5403 54.2592C73.4768 54.2275 73.4274 54.1732 73.4017 54.107C73.376 54.0408 73.376 53.9674 73.4015 53.9011C74.164 51.9951 74.9635 50.1011 75.5615 48.0561C76.782 43.8846 77.034 40.9656 75.0535 36.7476C74.4005 35.3581 73.6535 34.5876 73.6535 34.3336C73.6535 33.9521 74.915 35.2306 75.4325 35.8581C76.4992 37.1746 77.249 38.7188 77.6239 40.3712C77.9987 42.0237 77.9887 43.7402 77.5945 45.3881Z" fill="#EA3934"/>
<path d="M22.0681 46.0245C21.7966 45.2999 21.3616 44.6477 20.7971 44.1185C20.1946 43.617 19.5057 43.2295 18.7641 42.975C18.0643 42.7657 17.3334 42.6797 16.6041 42.721C16.6041 42.213 16.6041 41.4505 16.4771 41.5775C16.3501 41.5775 16.3501 42.467 16.3501 42.848C16.3498 42.8648 16.3528 42.8815 16.3591 42.897C16.3654 42.9126 16.3747 42.9267 16.3866 42.9386C16.3984 42.9504 16.4126 42.9598 16.4281 42.966C16.4437 42.9723 16.4604 42.9754 16.4771 42.975C17.8635 43.1246 19.1821 43.6522 20.2891 44.5C20.7814 44.9935 21.2083 45.548 21.5596 46.15C21.9406 46.7855 22.0681 48.3105 22.3221 48.183C22.4978 47.4563 22.4077 46.6906 22.0681 46.0245Z" fill="#3A307F"/>
<path d="M68.6999 43.2295C68.4224 40.1735 66.3674 37.165 63.3634 36.241C61.4318 35.6687 59.3594 35.8037 57.5184 36.622C56.1239 37.2645 54.3494 38.022 53.1984 42.467C51.9889 47.1355 52.2939 50.0455 53.1984 52.759C54.0559 54.759 54.9609 56.3695 57.1374 56.952C58.0863 57.2233 59.0785 57.3097 60.0599 57.2065C61.0764 57.079 62.8549 56.19 62.6009 56.0625C62.4739 55.8085 61.8424 56.599 60.0599 56.825C58.6824 57 57.7294 56.7965 56.2479 55.8085C55.2934 55.1725 54.5384 53.6015 54.2149 52.505C53.3504 49.575 53.6614 46.5225 54.3419 43.6105C54.5382 42.5925 54.8806 41.6081 55.3584 40.688C57.6966 40.5752 59.9688 39.8761 61.9659 38.655C62.9824 42.975 68.1919 47.2955 68.5729 46.279C68.8269 45.8975 68.6999 43.738 68.6999 43.2295Z" fill="#3A307F"/>
<path d="M56.2452 46.2881C56.3272 46.3033 56.4121 46.299 56.4949 46.2754C56.5777 46.2518 56.6568 46.2093 56.7278 46.1505C56.7987 46.0916 56.86 46.0175 56.9083 45.9324C56.9566 45.8473 56.9908 45.7528 57.0091 45.6543C57.0274 45.5559 57.0293 45.4554 57.0148 45.3586C57.0002 45.2618 56.9696 45.1706 56.9245 45.0902C56.8793 45.0099 56.8207 44.9419 56.7519 44.8901C56.6831 44.8384 56.6054 44.8039 56.5234 44.7887C56.4413 44.7735 56.3565 44.7778 56.2737 44.8014C56.1909 44.825 56.1117 44.8675 56.0408 44.9263C55.9699 44.9852 55.9085 45.0593 55.8602 45.1444C55.8119 45.2295 55.7777 45.324 55.7594 45.4225C55.7412 45.5209 55.7392 45.6214 55.7538 45.7182C55.7683 45.815 55.799 45.9062 55.8441 45.9866C55.8892 46.0669 55.9478 46.1349 56.0167 46.1867C56.0855 46.2384 56.1631 46.2729 56.2452 46.2881Z" fill="#3A307F"/>
<path d="M61.5833 47.2403C61.749 47.271 61.9226 47.2215 62.0659 47.1026C62.2091 46.9838 62.3104 46.8053 62.3472 46.6065C62.3841 46.4076 62.3537 46.2047 62.2626 46.0424C62.1715 45.8801 62.0272 45.7716 61.8615 45.7408C61.6958 45.7101 61.5222 45.7596 61.3789 45.8785C61.2357 45.9973 61.1345 46.1758 61.0976 46.3746C61.0607 46.5735 61.0911 46.7764 61.1822 46.9387C61.2733 47.101 61.4176 47.2095 61.5833 47.2403Z" fill="#3A307F"/>
<path d="M60.822 44.3727C61.0746 44.0593 61.4168 43.8306 61.8029 43.717C62.189 43.6035 62.6005 43.6105 62.9825 43.7372C63.2873 43.8574 63.5481 44.0679 63.73 44.3404C63.9118 44.613 64.006 44.9346 64 45.2622C64 47.0432 62.7 43.4972 60.95 44.3727C60.95 44.3727 60.7435 44.5297 60.822 44.3727Z" fill="#3A307F"/>
<path d="M56.7561 42.4668C55.4701 42.4668 54.9561 43.7168 55.1061 43.8668C55.1871 43.9478 55.3636 43.8098 55.4871 43.7398C56.5331 43.1473 57.6841 43.0143 58.5371 43.8668C58.7406 43.2483 57.3821 42.4668 56.7561 42.4668Z" fill="#3A307F"/>
<path d="M58.662 45.1348C58.868 45.5473 57.568 47.7038 57.3915 48.0573C57.2645 48.4388 57.4915 48.7028 57.6455 49.0738C57.7545 49.3363 57.8995 49.4553 57.8995 49.7093C57.4668 49.4857 57.0791 49.1841 56.756 48.8198C56.248 48.1843 56.756 47.5493 57.1375 47.0408C57.5418 46.3289 58.0563 45.6856 58.662 45.1348Z" fill="#3A307F"/>
<path d="M61.3305 51.1067C61.837 51.6132 61.4185 52.9952 60.06 53.2672C59.217 53.5477 57.7725 52.9897 57.7725 52.1232C60.0195 53.4072 61.186 50.9627 61.3305 51.1067Z" fill="#3A307F"/>
<path d="M82.423 26.2022C82.423 26.1517 82.4431 26.1032 82.4788 26.0675C82.5145 26.0318 82.563 26.0117 82.6135 26.0117C82.664 26.0117 82.7125 26.0318 82.7482 26.0675C82.7839 26.1032 82.804 26.1517 82.804 26.2022C82.9415 28.8137 83.3125 35.0622 83.3125 38.2737C83.3125 49.4237 83.345 50.7337 83.1855 53.1397C83.0355 55.4257 83.0585 57.5897 82.9315 59.8742C82.929 59.9231 82.9078 59.9692 82.8723 60.0029C82.8368 60.0366 82.7897 60.0555 82.7407 60.0555C82.6918 60.0555 82.6447 60.0366 82.6092 60.0029C82.5737 59.9692 82.5525 59.9231 82.55 59.8742C82.423 57.5872 82.423 55.4272 82.296 53.1397C82.296 51.4897 82.296 49.8362 82.169 48.1847C82.169 36.5272 82.1365 35.3897 82.296 33.3182C82.296 31.0307 82.296 28.6167 82.423 26.2022Z" fill="#3A307F"/>
<path d="M81.2796 23.5346C81.2796 24.6496 67.871 24.2255 62.093 24.424C53.4543 24.7981 44.8018 24.7132 36.1721 24.1696C34.0121 24.0426 29.4375 24.0426 29.8185 23.6616C29.946 23.5346 34.139 23.6616 36.299 23.6616C36.299 23.6616 66.54 23.2806 68.699 23.2806C72.766 23.2806 81.2796 22.8991 81.2796 23.5346Z" fill="#3A307F"/>
<path d="M68.192 76.52C68.192 76.52 37.3155 76.52 35.1555 76.393C29.403 76.393 30.1405 76.1895 29.1835 76.139C29.31 74.1125 29.5645 65.3935 29.5645 63.4325C29.5645 58.985 29.3105 30.1415 29.3105 30.1415C29.1835 27.9815 29.3105 25.186 28.929 25.186C28.04 25.186 28.929 32.302 28.929 36.749L28.167 76.649C28.1913 76.7892 28.2506 76.9209 28.3394 77.032C28.4282 77.1431 28.5437 77.23 28.675 77.2845L30.325 77.4115C31.9779 77.3652 33.6321 77.4076 35.2805 77.5385C37.4405 77.5385 50.6545 77.5175 55.1025 77.4115C78.0965 76.8615 81.5315 76.9615 81.5315 76.649C81.4065 75.8845 68.192 76.52 68.192 76.52Z" fill="#3A307F"/>
<path d="M80.644 81.2217C79.6275 81.2217 71.8765 81.0942 72.004 80.5862C72.131 80.2052 73.91 80.3322 74.9265 80.2052C74.9265 80.2052 82.546 79.4277 83.4395 79.1887C83.565 79.1564 83.696 79.151 83.8237 79.1727C83.9515 79.1944 84.0733 79.2428 84.1812 79.3147C84.289 79.3865 84.3805 79.4803 84.4498 79.5899C84.519 79.6995 84.5644 79.8224 84.583 79.9507C84.456 81.4757 81.6605 81.2217 80.644 81.2217Z" fill="#EA3934"/>
<path d="M21.9405 48.6931C20.67 48.6931 8.72599 48.4391 7.70949 48.4391V48.1236C8.66249 45.3646 11.495 43.5736 14.3165 43.1021C14.3333 43.1026 14.3501 43.0997 14.3657 43.0935C14.3814 43.0873 14.3956 43.078 14.4075 43.0661C14.4194 43.0542 14.4288 43.04 14.435 43.0243C14.4411 43.0087 14.444 42.9919 14.4435 42.9751C14.435 42.5411 14.454 42.0671 14.4435 41.7431C14.9365 41.8726 15.4585 41.8601 15.4585 41.7046C15.5855 41.5776 14.569 41.5776 14.188 41.0691C13.714 40.5956 13.8065 39.7271 13.8065 38.6551C13.7701 38.3541 13.8229 38.0491 13.9585 37.778C14.0941 37.5068 14.3064 37.2815 14.569 37.1301C14.7881 37.0274 15.0271 36.9742 15.269 36.9742C15.5109 36.9742 15.7499 37.0274 15.969 37.1301C16.3414 37.3615 16.6133 37.7242 16.731 38.1466C17.0045 39.0306 17.1125 40.1796 16.604 40.9421C16.4489 41.1721 16.2274 41.3495 15.969 41.4506C16.096 41.5776 16.9855 41.3236 17.1125 40.6881C17.4935 39.4176 17.3665 37.5116 16.223 36.8761C15.83 36.6342 15.3685 36.528 14.9094 36.5739C14.4502 36.6198 14.0188 36.8152 13.6815 37.1301C13.2103 37.6976 12.9821 38.4282 13.0465 39.1631C13.0066 39.9345 13.2306 40.6964 13.6815 41.3236C13.8126 41.4731 13.98 41.5864 14.1675 41.6526C14.173 42.0346 14.19 42.4526 14.19 42.7211C13.4603 42.6087 12.7137 42.6965 12.03 42.9751C10.2419 43.6036 8.72571 44.8304 7.73799 46.4481C7.77549 45.6646 7.83799 45.7691 7.83799 41.4506C7.85912 40.2209 7.81673 38.9909 7.71099 37.7656C7.58399 36.4951 7.96499 34.0806 7.45699 34.0806L7.19999 41.4506C7.19999 41.4506 7.07299 47.5506 6.94549 48.8201C6.93813 48.8719 6.94293 48.9247 6.95951 48.9743C6.97608 49.0239 7.00398 49.069 7.041 49.1059C7.07802 49.1429 7.12313 49.1707 7.17277 49.1873C7.22241 49.2038 7.27521 49.2085 7.32699 49.2011C8.5545 49.2648 9.78448 49.2648 11.012 49.2011C12.2825 49.2011 17.238 49.2011 18.5085 49.0741C19.9075 49.0741 22.068 49.2011 21.9405 48.6931Z" fill="#3A307F"/>
<path d="M22.576 32.9379C21.4815 32.8284 13.1845 33.0299 11.6485 33.1919C10.3785 33.3264 9.23454 33.3194 7.96354 33.4464C7.83654 33.9544 15.2065 33.7004 15.2065 33.7004C15.2065 33.7004 21.0515 33.8274 22.068 33.8274C22.068 33.8774 22.044 45.0089 22.449 45.0089H22.5565L22.83 36.3689C22.806 35.4353 22.8484 34.5011 22.957 33.5734C22.957 33.1909 22.83 32.9379 22.576 32.9379Z" fill="#3A307F"/>
<path d="M27.4045 59.8743C25.3715 59.8743 7.4545 60.0013 3.6435 60.0013C3.5165 57.5873 3.5165 55.3013 3.5165 52.8858C3.5165 52.8858 3.2815 31.6533 3.224 30.1413C6.6595 30.1413 9.9845 30.2028 13.4275 30.1413C16.987 30.0778 20.4145 30.0778 23.974 30.1413C24.0258 30.149 24.0788 30.1445 24.1285 30.1281C24.1783 30.1118 24.2235 30.0839 24.2606 30.0468C24.2976 30.0098 24.3255 29.9646 24.3419 29.9148C24.3583 29.865 24.3628 29.8121 24.355 29.7603C24.362 29.7086 24.357 29.656 24.3403 29.6065C24.3237 29.5571 24.2958 29.5122 24.2589 29.4753C24.2221 29.4384 24.1771 29.4106 24.1277 29.3939C24.0783 29.3773 24.0257 29.3722 23.974 29.3793C18.9955 29.2903 7.8575 29.4678 2.881 29.3793C2.754 29.3768 2.627 29.5063 2.627 29.8873C2.63145 29.9532 2.65964 30.0152 2.70634 30.0619C2.75305 30.1086 2.8151 30.1368 2.881 30.1413C2.881 32.5288 2.8725 35.0118 2.754 37.3843C2.754 37.3843 2.5 58.0953 2.5 60.6368C2.509 60.7687 2.56546 60.8928 2.65894 60.9863C2.75243 61.0798 2.8766 61.1363 3.0085 61.1453C10.778 61.1453 18.9485 60.8103 27.2775 60.6368C27.3765 60.6305 27.4698 60.5884 27.54 60.5182C27.6101 60.4481 27.6522 60.3548 27.6585 60.2558C27.6585 60.1283 27.5315 59.8743 27.4045 59.8743Z" fill="#3A307F"/>
<path d="M23.7194 52.251C24.2279 52.251 23.8464 52.759 23.5924 52.759C22.4489 53.013 17.8744 53.013 16.6039 53.013C13.505 53.0186 10.4082 52.849 7.3284 52.505C6.8199 52.378 7.0744 51.8695 7.4554 51.7425C9.60189 51.4461 11.7723 51.3611 13.9354 51.4885C17.21 51.5261 20.4785 51.7808 23.7194 52.251Z" fill="#3A307F"/>
<path d="M21.0501 55.8086C21.0501 56.5711 17.1106 56.3036 16.4756 56.3171C13.4256 56.3806 10.3756 56.5711 7.32561 55.9356C6.94411 55.8086 7.19861 55.4276 7.45261 55.4276C9.90211 55.1944 12.366 55.152 14.8221 55.3006C16.2231 55.3006 20.6701 55.1731 21.0501 55.8086Z" fill="#3A307F"/>
<path d="M97.2895 77.0281L91.5715 72.3281C91.5715 72.3281 93.8715 69.8961 94.113 69.6596C94.1453 69.6202 94.1679 69.5739 94.1791 69.5242C94.1903 69.4746 94.1897 69.423 94.1773 69.3736C94.165 69.3242 94.1412 69.2784 94.108 69.2399C94.0748 69.2013 94.033 69.1711 93.986 69.1516C89.025 67.1176 76.7515 61.7661 76.324 61.9086C76.2638 61.9314 76.2091 61.9664 76.1632 62.0115C76.1173 62.0566 76.0812 62.1107 76.0573 62.1705C76.0335 62.2302 76.0223 62.2943 76.0244 62.3586C76.0266 62.4229 76.0421 62.4861 76.07 62.5441L85.22 78.6811C85.2373 78.7299 85.2664 78.7738 85.3048 78.8087C85.3431 78.8436 85.3896 78.8684 85.4399 78.881C85.4902 78.8936 85.5428 78.8935 85.5931 78.8808C85.6434 78.8681 85.6897 78.8431 85.728 78.8081L88.0155 76.5211L94.1155 81.6036H94.3695L97.4195 77.2836C97.4195 77.2836 97.5435 77.1556 97.2895 77.0281ZM94.113 81.4781L88.141 76.0141C88.0705 75.9526 87.9802 75.9188 87.8867 75.9188C87.7933 75.9188 87.703 75.9526 87.6325 76.0141C87.1245 76.7766 86.357 77.4081 85.7265 78.3016C85.57 78.5236 85.27 78.1331 85.0915 77.7931L77.4675 63.5621L93.2235 69.7881L91.1905 72.2026C91.1734 72.219 91.1597 72.2387 91.1504 72.2605C91.1411 72.2823 91.1363 72.3058 91.1363 72.3296C91.1363 72.3533 91.1411 72.3768 91.1504 72.3986C91.1597 72.4204 91.1734 72.4401 91.1905 72.4566L96.527 77.4121L94.113 81.4781Z" fill="#3A307F"/>
<path d="M12.7919 40.0523C12.2839 40.0523 11.6484 39.6713 11.6484 39.1628C11.6484 38.4803 12.7514 38.1208 12.6649 38.6548C12.6444 38.7803 12.4499 38.8403 12.2839 38.9088C12.2153 38.9488 12.1568 39.004 12.1127 39.0701C12.0687 39.1362 12.0404 39.2115 12.0299 39.2903C12.0299 39.6713 12.4109 39.7983 12.7919 39.7983C13.0464 39.6713 13.0464 40.0523 12.7919 40.0523Z" fill="#3A307F"/>
<path d="M17.7475 40.0524C17.624 40.0234 17.4935 39.9254 17.4935 39.7984C17.4935 39.6714 17.751 39.6984 17.8745 39.6714C18.4275 39.5409 18.002 38.4009 17.4935 38.5279C17.3665 38.5279 17.2395 38.5279 17.2395 38.4009C17.2395 38.2739 17.2475 38.1914 17.3665 38.1464C17.76 37.9964 18.129 38.2739 18.383 38.6549C18.4893 38.8267 18.5456 39.0247 18.5456 39.2267C18.5456 39.4286 18.4893 39.6266 18.383 39.7984C18.3105 39.8949 18.2129 39.9696 18.1008 40.0144C17.9887 40.0592 17.8665 40.0723 17.7475 40.0524Z" fill="#3A307F"/>
<path d="M37.4425 80.0774C36.172 79.9504 27.4045 79.5694 26.388 79.5694C25.9765 79.5694 25.984 70.5724 25.4985 65.7194C25.4985 65.4654 25.4985 64.5759 25.2445 64.4489C24.863 64.3219 24.863 65.3384 24.863 65.5924C24.863 65.9734 24.5455 73.7229 24.609 77.1554C24.648 79.2519 24.4405 80.4594 25.1175 80.9669C25.6255 81.3484 26.5175 81.0939 27.1505 81.0939C30.581 81.0939 41.1275 80.9669 41.2545 80.7129C41.6355 79.8234 38.713 80.2049 37.4425 80.0774Z" fill="#EA3934"/>
<path d="M34.012 19.0879C31.212 19.0244 28.294 18.8339 25.4985 19.3424C25.3335 19.3531 25.1781 19.4235 25.0612 19.5403C24.9442 19.6571 24.8738 19.8125 24.863 19.9774C24.701 23.0639 24.9905 33.1869 24.9905 35.2274C24.9905 36.1164 25.4985 35.6084 25.6255 35.0999C25.8795 33.4499 25.783 31.7999 25.8795 30.1444C26.065 26.9709 26.261 23.9184 26.261 20.7444C29.9455 20.3634 33.6355 20.4264 37.4425 20.1089C38.715 20.0029 42.398 20.2359 42.398 19.7279C42.398 19.2199 39.6025 19.3469 39.2215 19.3469C38.586 19.2139 35.155 19.1129 34.012 19.0879Z" fill="#EA3934"/>
<path d="M87.5054 20.2302C87.5225 20.0923 87.5085 19.9524 87.4646 19.8205C87.4206 19.6887 87.3478 19.5683 87.2514 19.4683C86.8704 18.8328 85.3454 19.0867 84.5829 19.0867C83.5664 19.0867 70.9874 19.0868 70.8599 19.4683C70.7329 19.9763 82.6769 20.4848 83.6934 20.4848C83.8204 20.4848 85.8534 20.4847 85.8534 20.6117C85.8534 20.9927 86.4889 35.7323 86.8704 35.7323C87.1244 35.7323 87.1144 33.0628 87.2514 31.7933C87.6074 28.4878 87.5054 20.8657 87.5054 20.2302Z" fill="#EA3934"/>
</svg>
