<svg width="100" height="100" viewBox="0 0 100 100" fill="none" xmlns="http://www.w3.org/2000/svg">
<path d="M92.9445 52.8665C92.4905 48.4275 90.9715 42.001 84.7785 39.7165C82.46 42.6595 77.8335 40.655 76.6285 38.6575C74.2045 42.4475 70.0855 46.003 67.3615 50.6075C66.047 52.8315 64.4615 55.4495 66.07 57.8915C70.9094 57.4476 75.7787 57.4369 80.62 57.8595C82.116 55.2625 82.291 54.3025 82.27 52.0095C82.27 51.766 82.62 51.6595 82.651 51.9565C82.8834 54.0396 82.4113 56.1405 81.31 57.924C81.9044 57.9615 82.4947 58.0488 83.0745 58.185C83.5745 58.306 83.4275 58.6475 82.986 58.605C77.5398 58.0812 72.0564 58.0718 66.6085 58.577C68.341 60.772 68.2495 62.106 67.819 64.377C70.674 66.3355 81.119 68.927 85.819 67.4965C90.14 66.1815 93.4785 58.0895 92.9445 52.8665Z" fill="#EA3934"/>
<path d="M48.84 43.6664C46.165 42.0469 40.526 41.6199 37.417 43.2784C36.7465 45.9359 34.5055 49.1084 33.3975 50.1139C31.753 49.7139 28.891 48.3744 27.8215 46.3204C23.0715 47.8379 18.4275 55.0614 17.055 59.9069C15.1495 57.9024 11.472 52.6864 10.705 50.9149C9.08569 52.0186 7.23057 52.728 5.28802 52.9864C6.79502 63.4864 13.6585 73.1419 18.5285 72.7804C22.4105 72.4919 24.923 68.3834 26.405 65.6484C25.4991 64.6387 24.7161 63.5251 24.0725 62.3309C23.942 62.0859 24.1225 61.6219 24.4255 62.0134C30.3755 69.7134 38.6855 74.4354 49.7255 75.0704C44.203 67.5434 42.329 51.0809 48.84 43.6664Z" fill="#EA3934"/>
<path d="M33.574 37.3074C35.1055 37.1029 35.204 34.7314 33.902 34.0254C34.1037 32.6781 34.1782 31.3148 34.1245 29.9534C34.051 28.0194 32.9805 27.1664 31.2095 26.9609C29.6481 26.7786 28.1887 26.0923 27.0525 25.0059C25.084 23.1244 25.2315 26.0889 27.0525 27.3809C25.3856 27.1953 23.7632 26.7237 22.2565 25.9869C21.2225 25.3659 20.719 25.5789 20.9405 26.4774C21.0478 26.9397 21.2558 27.3727 21.5497 27.7453C21.8435 28.118 22.216 28.4212 22.6405 28.6334C20.9469 28.8569 19.2259 28.743 17.5765 28.2984C16.1555 27.8984 15.4595 28.0299 16.204 29.2689C16.8161 30.1574 17.6085 30.907 18.5296 31.4688C19.4507 32.0305 20.4799 32.3919 21.55 32.5294C24.0025 32.7969 26.6455 32.1094 29.504 31.0049C29.8422 32.6177 30.738 34.0596 32.034 35.0774C32.1875 35.1989 32.4075 35.2184 32.484 34.9959C32.939 33.6459 34.687 34.9959 34.026 36.2594C33.7955 36.6999 33.465 36.6689 33.144 36.6724C32.823 36.6759 32.9285 36.8699 32.9745 37.1594C33.162 38.3449 35.1955 42.8779 36.0695 43.6454C36.278 43.8284 36.4725 43.5884 36.3445 43.3809C35.1675 41.482 34.2365 39.4411 33.574 37.3074Z" fill="#3A307F"/>
<path d="M24.9705 33.8704C24.7257 33.9088 24.4953 34.0109 24.3022 34.1663C24.1092 34.3216 23.9603 34.525 23.8705 34.7559C23.7065 35.1849 23.9305 35.3699 24.223 34.9924C24.481 34.7198 24.8024 34.5151 25.1585 34.3964C25.45 34.2799 25.475 33.7889 24.9705 33.8704Z" fill="#3A307F"/>
<path d="M24.374 36.2736C24.297 36.4926 24.474 36.5981 24.6635 36.4361C24.7683 36.3459 24.891 36.2788 25.0235 36.2393C25.156 36.1997 25.2954 36.1886 25.4325 36.2066C25.7045 36.2066 25.724 35.9766 25.5065 35.8536C25.4065 35.7961 25.2952 35.7614 25.1803 35.7518C25.0654 35.7422 24.9498 35.758 24.8417 35.798C24.7337 35.8381 24.6357 35.9015 24.5549 35.9837C24.474 36.0659 24.4123 36.1649 24.374 36.2736Z" fill="#3A307F"/>
<path d="M28.5555 35.0776C28.4483 35.0107 28.328 34.9676 28.2028 34.9513C28.0775 34.9349 27.9502 34.9457 27.8294 34.9828C27.7087 35.0199 27.5973 35.0825 27.5029 35.1664C27.4084 35.2503 27.3331 35.3535 27.282 35.4691C27.204 35.6811 27.344 35.7901 27.482 35.6916C27.7579 35.4889 28.0921 35.3812 28.4345 35.3846C28.6085 35.3631 28.7815 35.2001 28.5555 35.0776Z" fill="#3A307F"/>
<path d="M28.178 39.171C27.999 39.2745 27.978 39.5485 28.323 39.4675C29.4805 39.1925 30.111 38.503 29.653 37.636C29.5215 37.386 29.163 37.5935 29.2755 37.844C29.636 38.645 28.6105 38.9205 28.178 39.171Z" fill="#3A307F"/>
<path d="M28.2 33.3304C27.9315 33.2 27.6344 33.1397 27.3363 33.1552C27.0383 33.1707 26.749 33.2614 26.4955 33.4189C26.4469 33.4561 26.4128 33.509 26.3989 33.5686C26.3849 33.6281 26.3921 33.6907 26.4191 33.7456C26.4461 33.8005 26.4913 33.8443 26.5469 33.8696C26.6026 33.8949 26.6654 33.9001 26.7245 33.8844C27.1547 33.7139 27.6197 33.6498 28.08 33.6974C28.383 33.7499 28.5055 33.5049 28.2 33.3304Z" fill="#3A307F"/>
<path d="M26.1385 36.03C26.0095 36.536 25.807 38.174 26.417 38.3415C26.735 38.429 27.683 38.056 27.497 37.731C27.3515 37.4775 26.6725 37.96 26.5865 37.816C26.4115 37.2329 26.3658 36.6186 26.4525 36.016C26.4595 35.7375 26.2745 35.495 26.1385 36.03Z" fill="#3A307F"/>
<path d="M56.639 45.4276C56.5865 44.2561 55.2275 42.7316 54.112 42.7246C53.851 42.7246 53.65 43.1056 53.912 43.1746C54.4818 43.3266 55.001 43.6273 55.4164 44.0458C55.8319 44.4643 56.1287 44.9857 56.2765 45.5566C56.363 45.8606 56.66 45.9041 56.639 45.4276Z" fill="#3A307F"/>
<path d="M57.6 43.6631C57.234 42.0956 55.483 41.4306 54.0115 41.6306C52.3425 41.8576 50.9515 43.0101 49.8825 44.2806C48.746 45.6306 49.7375 47.7666 47.5535 48.6491C47.0535 48.8491 47.25 49.1961 47.758 49.0411C50.4015 48.2331 49.392 45.5471 50.366 44.6051C51.34 43.6631 52.3705 42.6326 53.7715 42.2936C55.1725 41.9546 56.6365 42.4786 57.2085 43.8356C57.3155 44.0941 57.663 43.9386 57.6 43.6631Z" fill="#3A307F"/>
<path d="M54.9095 46.2466C55.1205 46.6966 55.4315 46.5326 55.3155 46.0966C55.0355 45.0386 54.076 43.5386 52.778 43.6901C52.517 43.7206 52.5625 44.1251 52.778 44.1841C54.2795 44.5921 54.5765 45.5311 54.9095 46.2466Z" fill="#3A307F"/>
<path d="M51.363 44.7115C51.0845 44.757 51.01 45.1925 51.363 45.2055C51.8343 45.1994 52.294 45.3509 52.6693 45.636C53.0447 45.9211 53.314 46.3234 53.4345 46.779C53.5685 47.051 53.7845 47.051 53.7875 46.684C53.793 45.604 52.5135 44.523 51.363 44.7115Z" fill="#3A307F"/>
<path d="M5.00697 45.996C4.39447 43.6135 4.26597 42.896 4.30147 41.373C4.30947 41.02 3.99447 41.1045 3.87447 41.567C3.61653 43.1484 3.86338 44.7708 4.57997 46.204C4.70747 46.458 5.07447 46.257 5.00697 45.996Z" fill="#3A307F"/>
<path d="M2.911 43.1339C2.911 42.7279 2.516 42.9079 2.505 43.1654C2.4598 45.1594 3.00102 47.1227 4.0615 48.8119C4.66689 49.848 5.13211 50.9599 5.445 52.1184C5.5365 52.4429 5.9375 52.4959 5.886 51.8574C5.6691 50.6421 5.21514 49.4814 4.55 48.4414C3.57705 46.8333 3.01421 45.0107 2.911 43.1339Z" fill="#3A307F"/>
<path d="M9.88402 43.9001C9.64352 43.4841 9.35552 43.7816 9.53152 44.1001C10.6695 46.1461 8.20552 48.7391 9.88402 50.6286C9.92593 50.6668 9.9796 50.6896 10.0362 50.6933C10.0928 50.697 10.149 50.6814 10.1955 50.6489C10.242 50.6165 10.2761 50.5692 10.2922 50.5148C10.3083 50.4604 10.3054 50.4021 10.284 50.3496C9.18802 48.2501 11.081 45.9696 9.88402 43.9001Z" fill="#3A307F"/>
<path d="M7.36099 41.35C7.35599 41.117 7.05699 40.905 6.96599 41.35C6.79149 42.2 6.89199 44.7385 7.44199 45.4435C7.4737 45.4823 7.51721 45.5097 7.56591 45.5215C7.61461 45.5333 7.66583 45.5289 7.71178 45.5089C7.75774 45.4889 7.79591 45.4545 7.8205 45.4108C7.84508 45.3672 7.85474 45.3167 7.84799 45.267C7.5682 43.9787 7.4052 42.6677 7.36099 41.35Z" fill="#3A307F"/>
<path d="M5.91402 40.7236C5.91402 40.4626 5.61402 40.4311 5.51902 40.7236C5.14202 41.9106 5.28101 44.4206 5.98101 45.5236C6.13101 45.7631 6.54801 45.6651 6.48101 45.3506C6.05285 43.8471 5.86156 42.286 5.91402 40.7236Z" fill="#3A307F"/>
<path d="M64.5225 58.8501C64.7835 58.9566 64.853 58.5446 64.699 58.4001C63.806 57.5536 61.17 57.4401 59.843 58.4356C59.7933 58.4625 59.7559 58.5074 59.7385 58.5611C59.7211 58.6149 59.7251 58.6732 59.7496 58.7241C59.7742 58.775 59.8174 58.8144 59.8702 58.8342C59.9231 58.8541 59.9816 58.8528 60.0335 58.8306C62.2955 57.9446 63.467 58.4226 64.5225 58.8501Z" fill="#3A307F"/>
<path d="M62.5675 62.7301C64.8815 62.3486 65.081 62.9831 65.8105 63.0336C65.8775 63.0392 65.9441 63.0181 65.9958 62.975C66.0474 62.9318 66.08 62.8701 66.0865 62.8031C66.142 62.1886 63.759 61.6871 62.4225 62.3421C62.159 62.4711 62.3135 62.7721 62.5675 62.7301Z" fill="#3A307F"/>
<path d="M61.23 61.6151C63.599 60.8806 64.4035 61.3446 65.726 61.7066C65.99 61.7791 66.058 61.3886 65.881 61.2446C64.9505 60.4841 62.381 60.4916 61.0925 61.2231C60.863 61.3536 60.944 61.7036 61.23 61.6151Z" fill="#3A307F"/>
<path d="M60.524 60.3794C62.642 59.7359 63.5805 60.0464 64.9955 60.2794C65.0508 60.2879 65.1073 60.2782 65.1566 60.2517C65.2059 60.2252 65.2452 60.1834 65.2687 60.1327C65.2922 60.0819 65.2985 60.0248 65.2867 59.9702C65.275 59.9155 65.2458 59.8661 65.2035 59.8294C64.2975 59.0409 61.4075 59.1429 60.3335 59.9954C60.1 60.1824 60.256 60.4609 60.524 60.3794Z" fill="#3A307F"/>
<path d="M95.305 28.3335C94.1996 28.8813 92.9683 29.125 91.7375 29.0395C90.407 31.6295 88.45 36.1435 84.9 35.7C83.739 35.5555 83.0815 34.6635 82.3875 33.8295C82.1965 33.6005 81.983 33.8095 82.0875 34.0345C82.4642 34.8394 83.0354 35.5379 83.7495 36.067C83.3965 36.817 83.0435 38.802 83.206 39.536C83.2154 39.5809 83.24 39.6213 83.2757 39.6502C83.3113 39.6792 83.3558 39.695 83.4018 39.695C83.4477 39.695 83.4922 39.6792 83.5278 39.6502C83.5635 39.6213 83.5881 39.5809 83.5975 39.536C83.6209 39.1897 83.6741 38.8461 83.7565 38.509C86.1385 39.003 89.244 40.659 90.9345 43.4175C95.903 42.359 96.3405 36.8325 93.521 34.7435C96.9745 33.8635 96.8405 29.5195 95.305 28.3335Z" fill="#3A307F"/>
<path d="M86.836 30.7931C87.236 30.8976 87.636 29.9816 87.305 29.7736C86.865 29.5001 86.2915 30.6501 86.836 30.7931Z" fill="#3A307F"/>
<path d="M89.2215 31.8999C89.518 31.9184 89.847 31.3174 89.7685 31.0809C89.5415 30.3999 88.5195 31.8569 89.2215 31.8999Z" fill="#3A307F"/>
<path d="M90.012 29.6286C90.2608 29.7772 90.456 30.0009 90.5695 30.2676C90.6365 30.5076 90.961 30.5851 90.9575 30.1581C90.9369 29.9352 90.8548 29.7224 90.7202 29.5435C90.5856 29.3646 90.404 29.2266 90.1955 29.1451C89.817 29.0031 89.5035 29.3301 90.012 29.6286Z" fill="#3A307F"/>
<path d="M88.0745 28.7889C88.5295 28.9389 88.6745 28.5484 88.3145 28.2839C88.0401 28.1144 87.7225 28.0279 87.4 28.0348C87.0775 28.0417 86.7639 28.1418 86.497 28.3229C86.3275 28.5029 86.4195 28.6759 86.647 28.6404C87.1263 28.533 87.6276 28.5851 88.0745 28.7889Z" fill="#3A307F"/>
<path d="M84.5775 32.4501C84.5425 32.6298 84.5441 32.8146 84.5821 32.9937C84.6202 33.1727 84.694 33.3422 84.799 33.4921C84.9041 33.642 85.0383 33.7691 85.1936 33.8659C85.3489 33.9628 85.5222 34.0273 85.703 34.0556C85.7277 34.0728 85.756 34.084 85.7858 34.0884C85.8155 34.0927 85.8459 34.0901 85.8744 34.0807C85.903 34.0713 85.929 34.0554 85.9503 34.0343C85.9717 34.0131 85.9879 33.9873 85.9975 33.9588C86.0072 33.9304 86.0101 33.9001 86.0061 33.8703C86.002 33.8405 85.9911 33.812 85.9742 33.7872C85.9573 33.7623 85.9348 33.7418 85.9086 33.7271C85.8823 33.7124 85.853 33.704 85.823 33.7026C85.7021 33.6724 85.5887 33.6177 85.4897 33.542C85.3907 33.4663 85.3082 33.3712 85.2473 33.2625C85.1865 33.1537 85.1485 33.0337 85.1357 32.9097C85.1229 32.7858 85.1356 32.6605 85.173 32.5416C85.3255 31.6686 84.677 31.8451 84.5775 32.4501Z" fill="#3A307F"/>
<path d="M87.8945 33.1859C88.311 32.9884 88.682 31.3714 88.473 31.1564C88.1495 30.8239 88.123 32.2369 87.6615 32.6389C87.4615 32.8119 87.2115 32.3139 86.956 32.4624C86.6425 32.6444 87.3265 33.4544 87.8945 33.1859Z" fill="#3A307F"/>
<path d="M62.1335 78.5255C61.6925 78.914 62.4205 79.431 62.839 79.1605C67.839 75.9315 73.292 79.291 72.0355 85.029C71.9955 85.1516 72.005 85.285 72.0621 85.4007C72.1191 85.5164 72.2192 85.6052 72.3408 85.6481C72.4625 85.691 72.5961 85.6847 72.7131 85.6303C72.8302 85.576 72.9213 85.4781 72.967 85.3575C75.5285 78.905 67.2775 73.987 62.1335 78.5255Z" fill="#3A307F"/>
<path d="M73.2955 76.6726C69.0615 72.9226 60.3405 72.6601 55.9455 76.3766C46.6955 84.1996 55.1855 97.3336 66.9275 95.0371C75.821 93.3001 79.97 82.5821 73.2955 76.6726ZM68.108 93.714C58.2895 96.887 48.058 86.5951 55.5625 78.0951C59.3695 73.7821 67.998 73.5995 72.378 77.1775C78.461 82.1465 75.4085 91.3545 68.108 93.714Z" fill="#3A307F"/>
<path d="M82.626 28.9C82.7825 29.376 82.776 29.536 83.441 29.119C84.479 28.469 85.4735 27.8945 86.098 25.795C87.1425 26.9101 88.479 27.7098 89.9555 28.103C91.432 28.4963 92.9892 28.4673 94.45 28.0195C97.467 27.0875 100.241 20.157 92.4 19.663C92.661 15.5235 85.6595 15.4955 84.8835 18.823C82.3635 17.002 79.237 18.473 78.824 20.097C81.2945 26.8375 79.177 33.4715 77.4125 37.064C76.9185 38.07 77.5625 37.914 77.7125 37.618C78.8455 35.3525 79.7305 33.1285 81.3125 31.0965C81.5885 30.742 81.3445 30.606 81.0445 30.465C80.9343 30.4013 80.838 30.316 80.7616 30.2142C80.6851 30.1124 80.6301 29.9962 80.5997 29.8725C80.5694 29.7489 80.5643 29.6204 80.5849 29.4947C80.6055 29.3691 80.6513 29.2489 80.7195 29.1415C81.129 28.2065 82.322 27.9795 82.626 28.9Z" fill="#3A307F"/>
<path d="M31.372 40.2964C31.1009 40.7701 30.7249 41.1755 30.2728 41.4813C29.8207 41.7872 29.3046 41.9854 28.764 42.0609C24.734 42.5514 23.7865 36.7044 23.167 33.9164C23.0645 33.4539 22.7755 33.7044 22.814 33.9664C23.107 37.0614 24.335 42.9829 28.4605 42.6939C28.6455 43.8065 28.6775 44.9391 28.5555 46.0604C28.528 46.3319 28.8135 46.6039 29.025 46.0249C29.283 45.3194 29.2545 43.5249 29.1025 42.5879C29.6561 42.4431 30.1731 42.1835 30.62 41.826C31.0669 41.4686 31.4336 41.0212 31.6965 40.5129C31.8425 40.2319 31.5185 40.0499 31.372 40.2964Z" fill="#3A307F"/>
<path d="M54.257 73.6729C56.7275 73.1729 63.325 70.9789 65.2495 69.3114C65.563 69.0394 65.207 68.4645 64.826 68.648C59.976 70.98 57.768 71.4709 52.8665 72.9354C47.4885 65.5704 45.148 56.7124 51.642 47.7179C51.978 47.2524 51.2955 46.8229 50.936 47.2804C45.261 54.5079 45.286 63.6934 51.377 72.6884C52.336 74.1044 52.4 74.0499 54.257 73.6729Z" fill="#3A307F"/>
<path d="M28.6825 11.617C39.3535 4.80005 52.269 3.54105 63.7955 9.05005C76.7175 15.2275 81.4355 25.5875 73.719 38.485C70.643 43.6255 63.631 49.907 62.7405 55.2155C62.6405 55.808 63.4505 56.042 63.5555 55.441C64.4215 50.4825 70.871 44.6745 73.8105 40.141C81.928 27.617 79.2185 16.494 66.2105 9.25955C54.597 2.80255 39.032 3.00005 28.3 11.1265C27.9 11.4305 28.2135 11.917 28.6825 11.617Z" fill="#3A307F"/>
<path d="M59.4725 28.0795C63.1295 32.006 61.0065 37.437 57.133 40.332C56.713 40.646 57.214 41.26 57.683 40.914C61.5965 38.031 64.033 32.7985 60.986 28.3585C56.711 22.1305 47.114 23.3755 41.224 28.2585C37.604 24.346 32.2 17.788 28.997 13.4345C28.665 12.9845 28.21 13.3215 28.584 13.8345C31.762 18.216 36.5085 24.4895 40.1625 28.6555C40.8365 29.4245 41.026 29.6325 41.849 28.9805C46.634 25.1915 54.7195 22.976 59.4725 28.0795Z" fill="#3A307F"/>
<path d="M70.539 17.7081C64.365 8.91409 49.56 6.12258 40.1905 11.0351C40.0621 11.0937 39.9622 11.201 39.9127 11.3332C39.8633 11.4654 39.8683 11.6119 39.9267 11.7404C39.9851 11.8689 40.0921 11.969 40.2242 12.0187C40.3564 12.0685 40.5028 12.0637 40.6315 12.0056C52.1185 7.61208 61.5815 10.8346 69.897 18.3116C70.395 18.7596 70.95 18.2941 70.539 17.7081Z" fill="#3A307F"/>
<path d="M65.786 67.5819C66.332 68.5354 67.148 68.0319 66.5725 67.1164C65.997 66.2009 65.3845 65.1924 64.7695 64.2439C64.5405 63.8904 63.9155 64.2439 64.1235 64.6249C64.6645 65.6159 65.224 66.5999 65.786 67.5819Z" fill="#3A307F"/>
</svg>
