<svg width="64" height="64" viewBox="0 0 64 64" fill="none" xmlns="http://www.w3.org/2000/svg">
<rect width="64" height="64" rx="32" fill="#F8D3D2"/>
<g clip-path="url(#clip0_1132_27264)">
<path d="M50 17V18.5H45.323L40.4255 16.0505C38.5055 15.092 36.071 15.452 34.5155 16.919L26.7335 24.2945C25.9115 25.1165 25.7555 26.408 26.3855 27.284C26.786 27.839 27.374 28.175 28.043 28.2275C28.706 28.2785 29.3495 28.043 29.8175 27.5765L36.7895 20.861L37.829 21.9425L34.667 24.9875L38.2475 27.6725C37.595 27.776 36.956 27.9185 36.3395 28.1165L33.572 26.0405L30.866 28.646C30.1685 29.3435 29.2175 29.735 28.226 29.735C28.1255 29.735 28.0235 29.7305 27.9215 29.723C26.8235 29.6345 25.82 29.0645 25.1675 28.16C24.113 26.6945 24.3365 24.5705 25.6865 23.2205L30.965 18.2165L29.477 16.862C27.8795 15.404 25.3865 15.146 23.5715 16.052L18.674 18.5015H14V17.0015H18.323L22.904 14.7095C23.834 14.246 24.872 14 25.9085 14C27.6425 14 29.249 14.6225 30.4895 15.752L32.0585 17.1815L33.485 15.83C35.492 13.94 38.627 13.478 41.096 14.7095L45.6785 17H50ZM50 40.25C50 45.626 45.626 50 40.25 50C34.874 50 30.5 45.626 30.5 40.25C30.5 34.874 34.874 30.5 40.25 30.5C45.626 30.5 50 34.874 50 40.25ZM48.5 40.25C48.5 35.702 44.7995 32 40.25 32C35.7005 32 32 35.702 32 40.25C32 44.798 35.7005 48.5 40.25 48.5C44.7995 48.5 48.5 44.798 48.5 40.25ZM39.47 42.4265C39.3875 42.512 39.2 42.512 39.1085 42.4175L36.3245 39.7175L35.2805 40.796L38.057 43.487C38.3885 43.8185 38.828 44 39.2945 44C39.761 44 40.2005 43.8185 40.5275 43.4915L45.713 38.393L44.6615 37.3235L39.4715 42.4265H39.47ZM27.509 40.076L18.7505 33.5H14V35H18.2495L27.641 42.0515C27.557 41.462 27.5 40.8635 27.5 40.25C27.5 40.1915 27.5075 40.1345 27.509 40.076Z" fill="#EA3934"/>
</g>
<defs>
<clipPath id="clip0_1132_27264">
<rect width="36" height="36" fill="white" transform="translate(14 14)"/>
</clipPath>
</defs>
</svg>
