<svg width="96" height="130" viewBox="0 0 96 130" fill="none" xmlns="http://www.w3.org/2000/svg">
<path d="M33.2192 129.807L36.3641 121.172C36.0455 123.155 35.5137 126.2 34.8662 129.807H56.9808C59.5553 100.563 55.8426 73.5405 55.8426 73.5405L30.9017 74.2959C26.8395 81.5133 17.212 107.102 8.96436 129.807H33.2218H33.2192Z" fill="#FDFDFD"/>
<path d="M34.8738 129.931C34.8738 129.931 34.8558 129.931 34.8456 129.931C34.7582 129.915 34.7017 129.833 34.7171 129.746C35.2284 126.901 35.6344 124.584 35.9324 122.824L33.3887 129.807C33.3579 129.889 33.268 129.931 33.1857 129.902C33.1035 129.871 33.0624 129.782 33.0907 129.699L36.215 121.118C36.2433 121.041 36.3255 120.997 36.4026 121.017C36.4823 121.038 36.5311 121.115 36.5182 121.195C36.2227 123.037 35.7217 125.933 35.0254 129.8C35.0126 129.877 34.9458 129.931 34.8687 129.931H34.8738Z" fill="#3A307F"/>
<path d="M8.95142 129.997C8.93343 129.997 8.91545 129.995 8.89746 129.987C8.81524 129.956 8.77156 129.866 8.80239 129.784C20.0511 98.818 27.4381 80.1233 30.7628 74.2188C30.7911 74.17 30.8399 74.1392 30.8964 74.1392L55.8373 73.3838C55.9196 73.3838 55.9889 73.4403 55.9992 73.52C56.0352 73.7898 59.6811 100.845 57.1477 129.743C57.14 129.83 57.0629 129.895 56.9756 129.887C56.8882 129.879 56.824 129.802 56.8317 129.715C59.2674 101.932 55.9864 75.8555 55.7037 73.705L30.9966 74.4526C27.6616 80.429 20.2952 99.0801 9.10301 129.895C9.07989 129.959 9.01822 130 8.95399 130L8.95142 129.997Z" fill="#3A307F"/>
<path d="M36.3641 121.331C36.3487 121.331 36.3307 121.331 36.3153 121.323C36.2331 121.295 36.1868 121.207 36.2151 121.123L46.6159 89.4628C47.0219 88.2295 48.0574 87.284 49.3215 86.9936L51.1791 86.5646C51.2639 86.544 51.3487 86.598 51.3693 86.6827C51.3898 86.7675 51.3359 86.8523 51.2511 86.8729L49.3934 87.302C48.2372 87.5692 47.2891 88.4351 46.9191 89.563L36.5183 121.223C36.4952 121.29 36.4335 121.331 36.3667 121.331H36.3641Z" fill="#3A307F"/>
<path d="M49.07 43.2677C49.4605 43.0416 51.0535 44.2236 51.4441 44.4394C53.1399 45.3798 54.8356 46.3227 56.5314 47.2631C60.3803 49.4008 64.2293 51.536 68.0756 53.6737C69.8382 50.9296 70.8197 47.8001 71.8012 44.6732C72.7082 46.0093 74.4245 47.5483 77.6748 48.3808C80.2262 49.0334 82.3665 48.4707 83.7796 47.8027C83.0191 52.7462 81.6625 57.5997 79.7457 62.2194C78.849 64.3803 77.7622 66.5771 75.8891 67.9774C74.016 69.3803 71.5366 69.8094 69.219 69.4985C66.9014 69.185 64.7252 68.1855 62.7339 66.9574C57.7133 63.8587 53.7437 59.1567 51.3567 53.7765C50.1645 51.0863 49.3629 48.2189 49.0263 45.2924C48.98 44.8916 48.6383 43.5195 49.07 43.2703V43.2677Z" fill="#FDFDFD"/>
<path d="M70.6448 69.7528C70.1669 69.7528 69.6839 69.7194 69.1957 69.6552C67.1351 69.3777 64.9948 68.5375 62.6489 67.091C57.7106 64.0411 53.6484 59.3366 51.2101 53.8381C49.9922 51.0889 49.2034 48.2189 48.8668 45.3078C48.8591 45.2385 48.8411 45.1357 48.8206 45.0175C48.6793 44.1953 48.5739 43.3705 48.9876 43.1316C49.3139 42.944 49.9871 43.3089 51.115 44.0463C51.2872 44.1593 51.4336 44.2544 51.5159 44.3006L68.0164 53.463C69.7199 50.76 70.6988 47.6434 71.6443 44.6269C71.6623 44.5678 71.7111 44.5267 71.7728 44.5165C71.8319 44.5062 71.8935 44.5344 71.927 44.5833C72.7363 45.778 74.3987 47.3787 77.708 48.2266C80.28 48.8844 82.3894 48.2806 83.7075 47.6588C83.7615 47.6331 83.8231 47.6408 83.8694 47.6742C83.9156 47.7102 83.9413 47.7667 83.9311 47.8258C83.1654 52.7924 81.8062 57.6537 79.8869 62.2785C78.9799 64.4625 77.8802 66.6799 75.9788 68.1033C74.5451 69.1773 72.6541 69.7528 70.6423 69.7528H70.6448ZM49.2111 43.3911C49.1854 43.3911 49.1623 43.3962 49.1469 43.4039C48.89 43.5529 49.0672 44.5756 49.134 44.961C49.1572 45.0894 49.1752 45.1948 49.1829 45.2693C49.5143 48.147 50.2954 50.9861 51.5004 53.7071C53.9131 59.1465 57.9316 63.8022 62.816 66.8186C65.1207 68.242 67.2224 69.0668 69.2368 69.3366C71.6931 69.668 74.0827 69.1259 75.7887 67.8464C77.6284 66.4692 78.705 64.2955 79.594 62.1526C81.467 57.6434 82.8031 52.9029 83.5713 48.0622C82.1967 48.6583 80.1207 49.167 77.6284 48.5298C74.4578 47.7179 72.7491 46.2225 71.8499 45.0201C70.912 48.0082 69.9177 51.0786 68.2014 53.7559C68.1551 53.8253 68.0652 53.8484 67.9907 53.8099L51.3591 44.5756C51.2666 44.5242 51.1227 44.4291 50.9377 44.3083C50.578 44.072 49.5323 43.3885 49.206 43.3885L49.2111 43.3911Z" fill="#3A307F"/>
<path d="M65.8273 56.428C65.7862 56.428 65.7451 56.4126 65.7117 56.3792C65.65 56.3149 65.6526 56.2147 65.7168 56.1556C66.3437 55.557 67.3998 54.3288 67.8905 53.6299C67.9419 53.558 68.0395 53.54 68.1115 53.5914C68.1834 53.6428 68.2014 53.7404 68.15 53.8124C67.6387 54.5369 66.5853 55.7625 65.9352 56.3843C65.9044 56.4126 65.8658 56.428 65.8247 56.428H65.8273Z" fill="#3A307F"/>
<path d="M83.7873 47.944C83.7873 47.944 84.2703 46.5566 86.0714 46.1994C88.3633 45.7472 90.4779 45.8577 91.7934 44.8813C93.1089 43.905 93.4481 43.0571 93.4481 43.0571C93.4481 43.0571 95.0591 41.5001 95.4419 40.1306C95.7862 38.8947 95.3135 38.6455 94.5093 38.6892C94.5093 38.6892 95.0591 37.6845 94.4245 37.2889C93.9055 36.9651 93.1758 37.3993 93.1758 37.3993C93.1758 37.3993 92.6542 36.793 91.7395 37.2246C91.205 37.4764 90.74 38.6224 89.6377 39.0463C88.5355 39.4703 86.2821 39.5782 86.2821 39.5782C86.2821 39.5782 87.8931 37.8824 87.8931 36.441C87.8931 34.9995 86.6624 34.7015 85.8582 35.5494C85.054 36.3973 83.9132 37.3762 81.9193 38.0134C79.9255 38.6506 76.8294 38.7765 74.7508 40.3027C72.6722 41.8289 71.8037 44.6707 71.8037 44.6707C71.8037 44.6707 73.222 47.9029 78.1398 48.6326C81.4003 49.1157 83.7924 47.9389 83.7924 47.9389L83.7873 47.944Z" fill="#FDFDFD"/>
<path d="M79.7354 48.9125C79.2267 48.9125 78.6845 48.8766 78.1141 48.7918C73.1681 48.0569 71.7164 44.8709 71.6547 44.7347C71.6393 44.6988 71.6367 44.6602 71.6496 44.6243C71.6856 44.5061 72.5591 41.7157 74.6558 40.1741C76.11 39.1053 78.0448 38.7121 79.7508 38.3627C80.5216 38.206 81.2513 38.057 81.868 37.8591C83.8695 37.2219 84.9872 36.2301 85.74 35.4388C86.1845 34.9711 86.7678 34.8016 87.2611 34.9968C87.7621 35.1972 88.0499 35.7214 88.0499 36.4382C88.0499 37.579 87.1172 38.8355 86.6522 39.393C87.3356 39.3416 88.7796 39.2029 89.5787 38.8946C90.2056 38.653 90.6116 38.1674 90.9687 37.7409C91.2154 37.448 91.426 37.1936 91.6701 37.078C92.3844 36.7414 92.9394 36.9752 93.2041 37.2013C93.4456 37.0857 94.0365 36.8571 94.5067 37.15C95.0566 37.4917 94.8947 38.1649 94.7534 38.522C95.0334 38.5323 95.3443 38.5965 95.5345 38.8329C95.7529 39.1053 95.7709 39.5292 95.5936 40.1664C95.2261 41.4896 93.7873 42.9388 93.5818 43.1417C93.5047 43.3139 93.0961 44.1053 91.8885 45.002C90.9507 45.6957 89.6635 45.855 88.1732 46.04C87.5052 46.1222 86.8166 46.207 86.1023 46.3483C84.4091 46.6823 83.9415 47.9747 83.9363 47.9876C83.9235 48.0261 83.8952 48.0595 83.8567 48.0775C83.7745 48.1186 82.1429 48.9048 79.7354 48.9048V48.9125ZM71.9708 44.6628C72.1814 45.0765 73.7359 47.8257 78.1604 48.4809C81.0638 48.9126 83.294 47.9927 83.664 47.8283C83.7873 47.5354 84.3757 46.374 86.0406 46.0477C86.7626 45.9064 87.4589 45.819 88.1321 45.7368C89.5787 45.5569 90.8274 45.4028 91.6958 44.7579C92.9523 43.8252 93.294 43.0107 93.2965 43.003C93.3043 42.9824 93.3171 42.9645 93.3325 42.949C93.3479 42.9336 94.9178 41.4074 95.2827 40.0945C95.4266 39.578 95.4266 39.2234 95.2827 39.0436C95.1619 38.892 94.9153 38.8329 94.5119 38.8535C94.4553 38.856 94.4014 38.8278 94.3705 38.7789C94.3397 38.7301 94.3371 38.6685 94.3654 38.6196C94.3705 38.6119 94.8356 37.7409 94.3371 37.43C93.9055 37.1628 93.2606 37.5379 93.2529 37.5405C93.1861 37.579 93.1013 37.5662 93.0525 37.5071C93.0345 37.4865 92.5925 37.0009 91.8037 37.3735C91.6239 37.4583 91.4312 37.687 91.2102 37.9516C90.8454 38.3858 90.3932 38.928 89.6891 39.1978C88.5766 39.6268 86.3772 39.7347 86.2847 39.7399C86.2179 39.7399 86.1588 39.7065 86.1331 39.6474C86.1074 39.5883 86.1177 39.5189 86.1614 39.4727C86.1768 39.4573 87.7287 37.8052 87.7287 36.4434C87.7287 35.8653 87.5129 35.4465 87.1403 35.2974C86.7703 35.151 86.3207 35.2897 85.9661 35.6623C85.1876 36.4819 84.0288 37.5071 81.9605 38.1674C81.3284 38.3704 80.591 38.5194 79.8099 38.6787C78.1347 39.0205 76.2385 39.4059 74.8382 40.4336C72.9908 41.7928 72.1044 44.2543 71.9656 44.6628H71.9708Z" fill="#3A307F"/>
<path d="M84.5375 43.7251C84.481 43.7251 84.4245 43.6942 84.3962 43.6403C84.3551 43.5632 84.3859 43.4681 84.463 43.427C84.499 43.409 85.3469 42.9799 87.4049 42.9799C89.463 42.9799 90.5164 42.8643 91.2359 42.1449C91.408 41.9728 91.5699 41.7929 91.7266 41.6182C92.2996 40.981 92.8417 40.3797 93.5483 40.5673C93.7693 40.6264 93.9337 40.7626 94.0236 40.9604C94.278 41.5231 93.908 42.4866 93.5509 43.1983C93.5123 43.2754 93.4173 43.3088 93.3376 43.2703C93.2605 43.2317 93.2271 43.1367 93.2657 43.057C93.7102 42.168 93.8849 41.4332 93.7307 41.0915C93.6793 40.9784 93.5945 40.909 93.4635 40.8731C92.9471 40.7343 92.4897 41.2431 91.9604 41.8289C91.8011 42.0062 91.6341 42.1911 91.4568 42.3684C90.5935 43.2317 89.3474 43.296 87.4024 43.296C85.4573 43.296 84.6146 43.7045 84.6043 43.7071C84.5812 43.7199 84.5555 43.7251 84.5324 43.7251H84.5375Z" fill="#3A307F"/>
<path d="M93.0241 40.8422C92.9855 40.8422 92.9444 40.8268 92.9136 40.7985C92.8494 40.7368 92.8493 40.6366 92.9084 40.575C93.4583 39.9994 94.0467 39.0154 94.0518 39.0051C94.0955 38.9306 94.1931 38.9049 94.2676 38.9486C94.3422 38.9922 94.3678 39.0899 94.3242 39.1644C94.2985 39.2055 93.7127 40.1896 93.1371 40.7908C93.1063 40.8242 93.0652 40.8396 93.0215 40.8396L93.0241 40.8422Z" fill="#3A307F"/>
<path d="M85.3212 41.5539C85.2492 41.5539 85.1824 41.5025 85.167 41.428C85.149 41.3432 85.203 41.2584 85.2878 41.2404C85.8068 41.1299 86.683 41.0271 87.5308 40.9269C88.4738 40.8165 89.4476 40.7008 89.8716 40.5826C90.7477 40.3386 91.4748 39.7733 91.9245 38.9871C92.3895 38.1726 92.7852 37.7101 92.8006 37.6895C92.8572 37.6227 92.9574 37.615 93.0242 37.6715C93.091 37.7281 93.0987 37.8283 93.0422 37.8951C93.037 37.9002 92.649 38.3576 92.1994 39.1438C91.7087 40.002 90.9121 40.6212 89.9563 40.8858C89.5093 41.0092 88.5663 41.1222 87.5694 41.2404C86.7292 41.3406 85.8582 41.4434 85.3546 41.5487C85.3443 41.5487 85.3315 41.5513 85.3212 41.5513V41.5539Z" fill="#3A307F"/>
<path d="M81.6366 40.8936C81.5544 40.8936 81.485 40.832 81.4799 40.7498C81.4722 40.6624 81.5364 40.5853 81.6238 40.5776C83.8488 40.3849 85.6191 39.6064 85.6371 39.5987C85.7168 39.5627 85.8093 39.5987 85.8452 39.6783C85.8812 39.758 85.8452 39.8505 85.7656 39.8865C85.6911 39.9199 83.9311 40.6932 81.6495 40.8911C81.6443 40.8911 81.6392 40.8911 81.6366 40.8911V40.8936Z" fill="#3A307F"/>
<path d="M50.208 40.6394C50.8632 40.8116 51.3745 41.3203 51.5517 41.9729C54.1391 51.5644 60.1335 60.0511 62.3457 69.753C62.7311 71.4411 62.9957 73.2268 62.505 74.8866C62.0579 76.4 61.0122 77.6795 59.784 78.6713C58.5559 79.6631 58.0471 80.1847 56.6442 80.9092C55.8041 73.4889 55.6473 70.3902 54.0954 65.8527C52.5898 61.4565 47.6848 58.8434 46.7342 54.2931C46.0687 51.1071 35.524 51.3897 35.6165 48.1317C35.6422 47.2068 32.3303 42.2222 32.9469 41.4642C34.4269 39.6528 48.9361 40.3054 50.208 40.6369V40.6394Z" fill="#FDFDFD"/>
<path d="M56.6443 81.0685C56.6186 81.0685 56.593 81.0633 56.5698 81.0505C56.5236 81.0248 56.4927 80.9811 56.4876 80.9297C56.3643 79.8352 56.2538 78.8357 56.1536 77.9107C55.5806 72.6538 55.2646 69.7581 53.9465 65.9066C53.2528 63.8794 51.7959 62.2041 50.3879 60.5803C48.7692 58.7175 47.094 56.7905 46.5801 54.329C46.2744 52.867 43.6073 52.1425 41.0303 51.4436C38.1397 50.66 35.4085 49.92 35.4599 48.1291C35.4701 47.7874 34.8792 46.6517 34.3062 45.5546C33.1551 43.3424 32.428 41.8547 32.8263 41.3691C34.391 39.4549 49.0904 40.1846 50.2517 40.4904C50.9583 40.6754 51.5159 41.2278 51.7086 41.9369C52.9316 46.4719 54.9563 50.8398 56.9116 55.0613C59.0878 59.753 61.336 64.6065 62.5025 69.7221C62.8674 71.3228 63.1731 73.1959 62.6592 74.9354C62.2456 76.3306 61.2872 77.6666 59.8869 78.7972C59.6556 78.9822 59.4501 79.1517 59.26 79.311C58.4249 80.0022 57.8725 80.457 56.7214 81.0531C56.6983 81.0659 56.6726 81.0711 56.6495 81.0711L56.6443 81.0685ZM42.1531 40.4056C41.9861 40.4056 41.8216 40.4056 41.6546 40.4056C36.778 40.4313 33.6485 40.8552 33.0678 41.5644C32.7723 41.9267 33.8617 44.0207 34.5837 45.4056C35.3288 46.8342 35.7836 47.7309 35.7733 48.1368C35.7296 49.6785 38.466 50.4184 41.1099 51.1353C43.7795 51.8599 46.5416 52.6075 46.8884 54.2596C47.3869 56.6415 48.9593 58.4529 50.6243 60.3696C52.0529 62.014 53.5303 63.7149 54.2445 65.8013C55.5729 69.6862 55.8915 72.5947 56.4671 77.8748C56.5621 78.7329 56.6623 79.6579 56.7754 80.6625C57.762 80.1307 58.2862 79.699 59.0544 79.0644C59.2445 78.9051 59.4527 78.7355 59.6839 78.5479C61.0354 77.4559 61.9578 76.1764 62.3509 74.8429C62.8442 73.1728 62.5462 71.3511 62.189 69.7889C61.0303 64.7041 58.7872 59.8686 56.6186 55.1898C54.6556 50.9554 52.6258 46.5772 51.3951 42.014C51.2332 41.4154 50.763 40.9477 50.1644 40.791C49.5529 40.6317 45.9121 40.403 42.1505 40.403L42.1531 40.4056Z" fill="#3A307F"/>
<path d="M34.4268 78.8461H55.4468C56.5182 78.8461 57.2942 77.8261 57.009 76.7932C56.3538 74.4217 55.1513 65.5753 53.5403 59.7814C51.0429 50.804 49.4293 44.4808 48.5557 42.3816C47.6821 40.2824 47.5306 39.1468 43.972 38.99C40.6935 38.8436 36.7546 38.3425 36.3666 42.045C36.2921 42.7644 35.899 43.4119 35.3183 43.841L32.9905 45.5676L34.4268 78.8436V78.8461Z" fill="#EA3934"/>
<path d="M18.2527 84.2008C15.5805 81.0327 16.0841 73.8899 17.1632 67.2763C18.6843 57.9675 21.4644 53.5738 28.7151 47.5435C29.9048 46.5543 31.2563 45.5343 31.616 44.0286C31.8575 43.0163 31.9089 41.5595 32.9443 41.467C32.9443 41.467 35.0307 41.2357 36.4669 43.6381C37.1864 44.8431 37.3996 46.2768 37.5872 47.6669C38.8179 56.7111 39.0851 65.858 39.3498 74.9819C39.3857 76.1869 39.4089 77.4459 38.8821 78.5276C37.988 80.3621 34.5733 77.8878 34.5733 77.8878C34.617 80.9788 33.7974 84.8688 33.6946 87.9598C29.933 88.1576 21.3667 87.893 18.2501 84.1982L18.2527 84.2008Z" fill="#FDFDFD"/>
<path d="M31.9012 88.1627C28.3914 88.1627 21.0276 87.7336 18.1319 84.3035C15.9274 81.6904 15.56 76.1149 17.0065 67.2505C18.4993 58.1164 21.1021 53.6688 28.615 47.4201L28.877 47.2043C29.9896 46.2845 31.1407 45.3338 31.4618 43.99C31.5055 43.8102 31.5415 43.6175 31.58 43.4145C31.7599 42.4664 31.9628 41.395 32.9315 41.3076C33.0163 41.2973 35.1335 41.0943 36.6031 43.5558C37.3611 44.8251 37.5744 46.3898 37.7465 47.6462C38.9798 56.7084 39.2496 65.9967 39.5117 74.9792C39.5451 76.1406 39.5836 77.4561 39.0261 78.5995C38.8436 78.9772 38.5507 79.2161 38.1576 79.3163C37.0322 79.599 35.3673 78.6097 34.7378 78.1935C34.7326 79.8405 34.504 81.7033 34.283 83.507C34.0877 85.0948 33.9027 86.5954 33.859 87.9674C33.8565 88.0496 33.7922 88.1164 33.71 88.119C33.4608 88.1318 32.8133 88.1601 31.9063 88.1601L31.9012 88.1627ZM33.0908 41.6211C33.0112 41.6211 32.9649 41.6262 32.9623 41.6262C32.2301 41.6904 32.0579 42.5974 31.8909 43.4761C31.8524 43.6843 31.8138 43.8795 31.7701 44.0671C31.4233 45.5162 30.2311 46.5003 29.0774 47.4535L28.8179 47.6694C21.377 53.859 18.7974 58.2629 17.32 67.3071C15.8889 76.0738 16.2331 81.5671 18.3734 84.1031C21.801 88.1652 31.819 87.8929 33.543 87.8158C33.597 86.4643 33.7845 84.9458 33.9644 83.471C34.1982 81.5671 34.4397 79.5964 34.4166 77.898C34.4166 77.8389 34.45 77.7824 34.5014 77.7541C34.5553 77.7259 34.6196 77.731 34.6684 77.767C34.689 77.7824 36.8369 79.324 38.0805 79.0131C38.3837 78.9386 38.5995 78.7588 38.7409 78.4659C39.2624 77.3919 39.2265 76.1175 39.1931 74.9946C38.9336 66.0198 38.6638 56.7418 37.4305 47.6951C37.2558 46.4027 37.0553 44.9381 36.3308 43.7254C35.1643 41.7726 33.5507 41.6236 33.0908 41.6236V41.6211Z" fill="#3A307F"/>
<path d="M52.1087 70.4817L38.7338 93.6476C38.3067 94.3875 38.5602 95.3334 39.3 95.7606L54.7447 104.678C55.4845 105.105 56.4305 104.851 56.8576 104.111L70.2325 80.9455C70.6596 80.2057 70.4061 79.2597 69.6663 78.8325L54.2216 69.9155C53.4818 69.4884 52.5358 69.7419 52.1087 70.4817Z" fill="#3A307F"/>
<path d="M56.0584 86.8237C55.953 86.1865 55.4957 85.67 55.0563 85.1947C55.6396 85.5287 56.174 85.5852 56.5568 85.2024C56.9397 84.8195 56.8138 84.3545 56.5877 83.8637C56.359 83.373 55.9376 83.003 55.5137 82.669C50.9376 79.0667 44.8842 77.9953 39.0748 77.5971C35.9479 77.3838 37.469 77.538 34.3472 77.2759C33.1601 82.1757 32.8621 84.1053 33.4556 88.1135C37.9186 88.2882 35.6062 88.3422 40.0101 88.4963C42.564 88.5863 45.3981 88.8946 47.3533 90.5364C47.8595 90.9604 48.3991 91.5282 49.0491 91.4126C49.6709 91.3021 50.0152 90.5621 49.9073 89.9377C49.7994 89.316 49.3729 88.8021 48.9412 88.3396C48.5096 87.8771 48.0445 87.4172 47.8287 86.8237C48.9489 87.5842 50.0692 88.3422 51.1894 89.1027C51.4232 89.2594 51.6699 89.4239 51.9525 89.4393C52.618 89.4753 53.0342 88.6145 52.8261 87.9824C52.618 87.3504 52.0296 86.929 51.4695 86.5693C50.9094 86.2096 50.3056 85.8293 50.0332 85.2204C51.4361 86.1094 52.839 86.9958 54.2393 87.8848C54.4988 88.0493 54.7788 88.2214 55.0872 88.224C55.7346 88.2317 56.1637 87.4634 56.0584 86.8237Z" fill="#FDFDFD"/>
<path d="M48.8719 91.585C48.3194 91.585 47.8544 91.1816 47.4381 90.8219C47.3739 90.7653 47.3097 90.7088 47.2454 90.6574C45.3287 89.049 42.5049 88.7432 39.9972 88.6533C37.7645 88.5737 37.2532 88.5223 36.7136 88.4657C36.1869 88.4118 35.6447 88.3553 33.4428 88.2705C33.3657 88.2679 33.304 88.2114 33.2912 88.1343C32.6822 84.0233 33.0317 81.9935 34.1853 77.235C34.2033 77.1579 34.2752 77.1091 34.3523 77.1143C36.1432 77.2633 36.4078 77.2787 36.8909 77.3018C37.2506 77.3198 37.7439 77.3455 39.0774 77.4354C44.1956 77.7874 50.7012 78.6841 55.6036 82.5408C56.0147 82.8645 56.4721 83.2551 56.7239 83.7946C56.9525 84.2854 57.1247 84.8506 56.6622 85.3131C56.4541 85.5212 56.1175 85.7037 55.6113 85.5932C55.8888 85.9375 56.1329 86.3357 56.21 86.7982C56.2768 87.2093 56.1458 87.6821 55.8734 87.9981C55.6601 88.2473 55.3826 88.3861 55.082 88.381C54.7197 88.3784 54.4037 88.178 54.1493 88.0161L50.7012 85.8321C50.9505 86.0505 51.2408 86.2355 51.5286 86.4205L51.5491 86.4334C52.1195 86.7982 52.7465 87.2479 52.9726 87.9313C53.1062 88.3373 53.0163 88.8434 52.749 89.1954C52.5384 89.4704 52.2506 89.6143 51.9397 89.5963C51.6057 89.5783 51.323 89.3881 51.0969 89.234L48.2578 87.3095C48.4556 87.5973 48.7023 87.8619 48.9464 88.1189L49.0517 88.2319C49.4757 88.6867 49.9407 89.2289 50.0563 89.9123C50.172 90.5932 49.7968 91.4411 49.0697 91.5696C49.0029 91.5824 48.9361 91.5875 48.8693 91.5875L48.8719 91.585ZM33.5867 87.957C35.6884 88.0418 36.2254 88.0958 36.747 88.1497C37.2814 88.2037 37.7876 88.2576 40.0101 88.3347C42.5718 88.4246 45.4597 88.7432 47.451 90.4133C47.5152 90.4673 47.582 90.5238 47.6488 90.5829C48.0805 90.958 48.5276 91.3434 49.0183 91.2561C49.5476 91.1636 49.8405 90.4981 49.748 89.9637C49.6452 89.3676 49.2162 88.8691 48.823 88.4478L48.7177 88.3347C48.3092 87.9005 47.8878 87.4534 47.6797 86.8779C47.6565 86.8136 47.6771 86.7417 47.7311 86.698C47.785 86.6569 47.8595 86.6543 47.916 86.6929L51.2768 88.9719C51.4823 89.1107 51.7136 89.2674 51.9577 89.2802C52.2326 89.2957 52.415 89.1132 52.4972 89.0027C52.7028 88.733 52.7747 88.3424 52.672 88.0315C52.4793 87.4457 51.9268 87.0526 51.3796 86.7006L51.359 86.6877C50.804 86.3306 50.1745 85.9272 49.8842 85.2823C49.8559 85.2181 49.8713 85.1436 49.9253 85.0973C49.9793 85.0511 50.0538 85.0459 50.1129 85.0845L54.3189 87.7489C54.599 87.9262 54.8302 88.0598 55.0846 88.0624C55.0846 88.0624 55.0897 88.0624 55.0923 88.0624C55.3467 88.0624 55.5265 87.9159 55.6344 87.79C55.8477 87.5408 55.953 87.1708 55.8991 86.847C55.7989 86.233 55.321 85.7165 54.9356 85.3003C54.8816 85.2438 54.879 85.1564 54.9279 85.0947C54.9767 85.0331 55.064 85.0177 55.1308 85.0562C55.6961 85.3799 56.1355 85.3902 56.4387 85.0896C56.7444 84.7838 56.6596 84.4061 56.4387 83.9282C56.2177 83.4503 55.7912 83.0906 55.4083 82.79C50.5754 78.9848 44.1314 78.0983 39.0569 77.7515C37.7259 77.6615 37.2352 77.6358 36.8755 77.6179C36.4001 77.5947 36.1355 77.5819 34.4602 77.4406C33.3554 82.0089 33.0163 84.0259 33.5841 87.957H33.5867Z" fill="#3A307F"/>
<path d="M54.5476 85.0665C54.5142 85.0665 54.4808 85.0562 54.45 85.0331C53.5173 84.3162 52.5255 83.6507 51.508 83.0598C51.4335 83.0161 51.4078 82.9185 51.4515 82.844C51.4952 82.7694 51.5928 82.7438 51.6673 82.7874C52.6976 83.3861 53.6997 84.0567 54.6452 84.7838C54.7146 84.8378 54.7274 84.9354 54.6735 85.0048C54.6427 85.0459 54.5964 85.0665 54.5476 85.0665Z" fill="#3A307F"/>
<path d="M34.342 77.4301C34.342 77.4301 34.3291 77.4301 34.3214 77.4301C29.3882 76.7749 29.2957 76.5925 29.2495 76.5026C29.1698 76.3433 29.8148 70.5365 31.1637 59.2416C31.1739 59.1542 31.2536 59.0925 31.341 59.1028C31.4283 59.1131 31.49 59.1927 31.4797 59.2801C30.9453 63.7534 29.5886 75.2616 29.5475 76.3382C30.0152 76.5026 32.6976 76.8957 34.3625 77.1167C34.4499 77.127 34.509 77.2066 34.4987 77.294C34.4884 77.3736 34.4191 77.4327 34.342 77.4327V77.4301Z" fill="#3A307F"/>
<path d="M37.8594 24.8637C38.1137 23.9927 38.5094 23.1191 39.2237 22.5616C39.938 22.004 41.0454 21.8678 41.7365 22.4537C43.3784 21.3283 45.5752 20.9686 47.4226 21.7085C49.2699 22.4485 50.6523 24.3447 50.5957 26.3334C50.5418 28.3221 48.9231 30.208 46.9395 30.3905C46.6235 32.1171 45.0022 33.4249 43.2679 33.6921C41.7006 33.9336 38.6636 33.4095 38.0392 31.7085C37.2556 29.5683 37.2196 27.04 37.8542 24.8637H37.8594Z" fill="#3A307F"/>
<path d="M46.1275 36.652L44.8299 44.8637C44.8299 44.8637 38.8638 41.1509 38.8202 41.0918C38.7765 41.0327 39.8376 34.0466 39.8376 34.0466C39.8376 34.0466 41.2174 31.7368 46.13 36.652H46.1275Z" fill="#FDFDFD"/>
<path d="M45.719 39.4064C45.719 39.4064 45.7036 39.4064 45.6933 39.4064C45.606 39.3935 45.5469 39.3113 45.5623 39.2265L45.9605 36.7085C43.2524 34.0158 41.6748 33.5739 40.8244 33.6793C40.2925 33.7461 40.0484 34.0261 39.9893 34.1083C39.9379 34.4552 39.514 37.2532 39.2339 39.1931C39.2211 39.2805 39.1414 39.3396 39.0541 39.3267C38.9667 39.3139 38.9076 39.2342 38.9205 39.1469C39.2185 37.0837 39.6784 34.0544 39.6836 34.0235C39.6861 34.003 39.6938 33.9824 39.7041 33.967C39.717 33.9465 40.015 33.4609 40.7884 33.3632C41.7134 33.2476 43.4117 33.7075 46.2432 36.539C46.2791 36.5749 46.2946 36.6263 46.2868 36.6751L45.8757 39.2728C45.8629 39.3499 45.7961 39.4064 45.719 39.4064Z" fill="#3A307F"/>
<path d="M48.3142 29.2702C48.3142 29.2702 50.5419 35.1386 48.3142 37.0297C46.9936 38.1499 42.8158 38.7383 40.1462 34.7018C40.1462 34.7018 38.2962 34.7917 37.8749 32.9007C37.4535 31.0096 38.3964 30.2979 39.9252 31.6288C39.9252 31.6288 41.7752 32.5692 41.1662 29.9485C40.9016 28.8077 41.8754 27.7671 44.0105 27.1504C47.8723 26.0353 47.5126 27.0117 48.3142 29.2702Z" fill="#FDFDFD"/>
<path d="M45.5572 38.0162C45.2823 38.0162 44.9945 37.9982 44.7016 37.9545C43.4066 37.7696 41.5567 37.0835 40.0587 34.8585C39.6605 34.8456 38.1086 34.6812 37.718 32.934C37.4919 31.9268 37.6358 31.1842 38.1112 30.9016C38.5762 30.6241 39.2494 30.8348 40.0099 31.4926C40.1898 31.5774 40.6523 31.7315 40.9041 31.5337C41.0839 31.3924 41.2458 31.0095 41.0068 29.9818C40.7114 28.7125 41.7879 27.6231 43.9616 26.9962C47.289 26.0352 47.6255 26.5619 48.1857 28.3734C48.2627 28.6252 48.3501 28.9078 48.458 29.211C48.5582 29.4782 50.6934 35.2105 48.4118 37.1452C47.8619 37.6128 46.8162 38.0111 45.5546 38.0111L45.5572 38.0162ZM40.1435 34.5424C40.1975 34.5424 40.2463 34.5681 40.2746 34.6144C41.7186 36.7958 43.5017 37.4638 44.7453 37.6411C46.2818 37.8595 47.5921 37.4304 48.2088 36.9088C50.326 35.1128 48.1857 29.3831 48.1651 29.3266C48.1651 29.3266 48.1651 29.3266 48.1651 29.324C48.0546 29.0157 47.9673 28.7254 47.8876 28.4736C47.3917 26.8703 47.2427 26.3847 44.0541 27.3071C42.0654 27.88 41.0685 28.8333 41.3203 29.9175C41.5464 30.8888 41.4745 31.5003 41.1019 31.7906C40.6291 32.1606 39.884 31.7906 39.8532 31.7726C39.8429 31.7675 39.8301 31.7598 39.8198 31.7521C39.1723 31.1894 38.6096 30.9813 38.273 31.1817C37.9287 31.3872 37.8362 32.0193 38.0264 32.8723C38.4143 34.6118 40.0639 34.5527 40.1358 34.5476C40.1358 34.5476 40.141 34.5476 40.1435 34.5476V34.5424Z" fill="#3A307F"/>
<path d="M40.1819 33.6176C40.128 33.6176 40.074 33.5894 40.0432 33.538C39.8042 33.1192 39.3186 32.8391 38.8356 32.8391H38.8304C38.7431 32.8391 38.6711 32.7697 38.6711 32.6824C38.6711 32.595 38.7405 32.5231 38.8279 32.5231C39.4342 32.5231 40.0149 32.8571 40.3155 33.3812C40.3592 33.4583 40.3335 33.5534 40.2564 33.5971C40.2308 33.6125 40.2051 33.6176 40.1768 33.6176H40.1819Z" fill="#3A307F"/>
<path d="M45.8705 45.7346C45.8423 45.7346 45.8114 45.7269 45.7857 45.7089L40.7575 42.4972C40.683 42.451 40.6624 42.3533 40.7087 42.2788C40.7549 42.2043 40.8551 42.1838 40.9271 42.23L45.9553 45.4417C46.0298 45.488 46.0504 45.5856 46.0041 45.6601C45.9733 45.7064 45.9219 45.7321 45.8705 45.7321V45.7346Z" fill="#3A307F"/>
<path d="M51.4333 0.159424H4.15946C2.41742 0.159424 1.00684 1.57001 1.00684 3.31204V13.7437C1.00684 15.4857 2.41999 16.8963 4.15946 16.8963H13.2705C16.513 19.2781 23.7021 24.5171 23.7021 24.1574V16.8963H51.4333C53.1754 16.8963 54.586 15.4857 54.586 13.7437V3.31204C54.586 1.57001 53.1728 0.159424 51.4333 0.159424Z" fill="#FDFDFD"/>
<path d="M23.7022 24.3294C23.453 24.3294 22.2993 23.7256 13.2166 17.0555H4.15958C2.33275 17.0555 0.847656 15.5704 0.847656 13.7436V3.31192C0.847656 1.4851 2.33275 0 4.15958 0H51.4335C53.2603 0 54.7454 1.4851 54.7454 3.31192V13.7436C54.7454 15.5704 53.2603 17.0555 51.4335 17.0555H23.859V24.1572C23.859 24.224 23.823 24.2831 23.7639 24.314C23.7485 24.3217 23.7305 24.3294 23.7022 24.3294ZM4.15958 0.316033C2.50747 0.316033 1.16369 1.65981 1.16369 3.31192V13.7436C1.16369 15.3957 2.50747 16.7395 4.15958 16.7395H13.2706C13.304 16.7395 13.3374 16.7497 13.3631 16.7703C18.9797 20.8967 22.7027 23.5226 23.5429 23.9568V16.8988C23.5429 16.8114 23.6149 16.7395 23.7022 16.7395H51.4335C53.0856 16.7395 54.4294 15.3957 54.4294 13.7436V3.31192C54.4294 1.65981 53.0856 0.316033 51.4335 0.316033H4.15958Z" fill="#3A307F"/>
<path d="M9.61451 10.542L7.54102 11.634L7.93928 9.32416L6.26147 7.68747L8.57905 7.35089L9.61451 5.25171L10.6525 7.35089L12.9701 7.68747L11.2923 9.32416L11.6906 11.634L9.61451 10.542Z" fill="#D4D2E1"/>
<path d="M18.7048 10.542L16.6314 11.634L17.0296 9.32416L15.3518 7.68747L17.6694 7.35089L18.7048 5.25171L19.7429 7.35089L22.0604 7.68747L20.3826 9.32416L20.7809 11.634L18.7048 10.542Z" fill="#D4D2E1"/>
<path d="M27.7954 10.542L25.7219 11.634L26.1202 9.32416L24.4424 7.68747L26.76 7.35089L27.7954 5.25171L28.8334 7.35089L31.151 7.68747L29.4732 9.32416L29.8715 11.634L27.7954 10.542Z" fill="#D4D2E1"/>
<path d="M36.8857 10.542L34.8123 11.634L35.2105 9.32416L33.5327 7.68747L35.8503 7.35089L36.8857 5.25171L37.9238 7.35089L40.2413 7.68747L38.5635 9.32416L38.9618 11.634L36.8857 10.542Z" fill="#D4D2E1"/>
<path d="M45.9763 10.542L43.9028 11.634L44.3011 9.32416L42.6233 7.68747L44.9409 7.35089L45.9763 5.25171L47.0143 7.35089L49.3319 7.68747L47.6541 9.32416L48.0524 11.634L45.9763 10.542Z" fill="#D4D2E1"/>
<path d="M80.3311 7.83139V9.28308H81.9627V10.0822H81.1662L80.6163 12.3072H81.9627V13.0446H80.9863V13.8232H81.9627V21.3463H78.6996L78.697 3.58936C80.4982 3.58936 81.9601 5.04876 81.9601 6.85246V7.83396H80.3286L80.3311 7.83139Z" fill="#EA3934"/>
<path d="M86.6056 26.069C86.6056 22.6054 83.7972 19.7971 80.3312 19.7971C76.8677 19.7971 74.0593 22.6054 74.0593 26.0715C74.0593 29.535 76.8676 32.3434 80.3337 32.3434C83.7972 32.3434 86.6056 29.535 86.6056 26.069ZM81.7674 28.5844C81.7674 29.3757 81.1251 30.0181 80.3337 30.0181C79.5424 30.0181 78.9 29.3757 78.9 28.5844C78.9 27.793 79.5424 27.1507 80.3337 27.1507C81.1251 27.1507 81.7674 27.793 81.7674 28.5844Z" fill="#EA3934"/>
<path d="M30.809 32.1864H25.8141C25.8141 30.65 24.568 29.4038 23.0315 29.4038H13.0392C11.5027 29.4038 10.2566 30.65 10.2566 32.1864V42.7491C10.2566 44.2856 11.5027 45.5318 13.0392 45.5318H23.0315C24.568 45.5318 25.8141 44.2856 25.8141 42.7491V35.6962L30.809 32.1864Z" fill="#FDFDFD"/>
<path d="M23.0289 45.6913H13.0367C11.4154 45.6913 10.0947 44.3707 10.0947 42.7494V32.1867C10.0947 30.5654 11.4154 29.2448 13.0367 29.2448H23.0289C24.5988 29.2448 25.8835 30.4806 25.9657 32.0274H30.8064C30.8758 32.0274 30.9375 32.0711 30.958 32.1379C30.9786 32.2047 30.9555 32.2766 30.8989 32.3152L25.9709 35.7761V42.7468C25.9709 44.3681 24.6502 45.6887 23.0289 45.6887V45.6913ZM13.0367 29.5608C11.5901 29.5608 10.4108 30.7376 10.4108 32.1867V42.7494C10.4108 44.1959 11.5875 45.3753 13.0367 45.3753H23.0289C24.4755 45.3753 25.6548 44.1985 25.6548 42.7494V35.6964C25.6548 35.6451 25.6805 35.5962 25.7216 35.568L30.308 32.346H25.8141C25.7268 32.346 25.6548 32.274 25.6548 32.1867C25.6548 30.7401 24.4781 29.5608 23.0289 29.5608H13.0367Z" fill="#3A307F"/>
<path d="M14.8351 40.822C14.794 40.822 14.7529 40.8066 14.722 40.7758C14.6604 40.7141 14.6604 40.6139 14.722 40.5523L21.1172 34.1571C21.1789 34.0954 21.2791 34.0954 21.3407 34.1571C21.4024 34.2188 21.4024 34.319 21.3407 34.3806L14.9456 40.7758C14.9147 40.8066 14.8736 40.822 14.8325 40.822H14.8351Z" fill="#3A307F"/>
<path d="M16.099 36.1021C15.8113 36.1021 15.5389 35.9891 15.3334 35.7861C15.1278 35.5831 15.0173 35.3108 15.0173 35.023C15.0173 34.4269 15.5029 33.9413 16.099 33.9413C16.3868 33.9413 16.6592 34.0543 16.8647 34.2573C17.0703 34.4603 17.1807 34.7327 17.1807 35.0204C17.1807 35.6165 16.6951 36.1021 16.099 36.1021ZM16.1016 34.2547C15.6802 34.2547 15.3359 34.599 15.3359 35.0204C15.3359 35.2234 15.4156 35.4161 15.5595 35.56C15.7034 35.7039 15.8961 35.7835 16.1016 35.7835C16.523 35.7835 16.8673 35.4392 16.8673 35.0178C16.8673 34.8149 16.7876 34.6222 16.6437 34.4783C16.4999 34.3344 16.3072 34.2547 16.1016 34.2547Z" fill="#3A307F"/>
<path d="M20.3051 40.9965C20.0173 40.9965 19.745 40.8835 19.5394 40.6805C19.3339 40.4775 19.2234 40.2052 19.2234 39.9174C19.2234 39.3213 19.709 38.8357 20.3051 38.8357C20.5929 38.8357 20.8652 38.9487 21.0708 39.1517C21.2763 39.3547 21.3868 39.6271 21.3868 39.9148C21.3868 40.5109 20.9012 40.9965 20.3051 40.9965ZM20.3077 39.1492C19.8863 39.1492 19.542 39.4935 19.542 39.9148C19.542 40.1178 19.6216 40.3105 19.7655 40.4544C19.9094 40.5983 20.1021 40.6779 20.3077 40.6779C20.729 40.6779 21.0733 40.3336 21.0733 39.9123C21.0733 39.7093 20.9937 39.5166 20.8498 39.3727C20.7059 39.2288 20.5132 39.1492 20.3077 39.1492Z" fill="#3A307F"/>
<path d="M4.05952 102.332C5.38811 102.018 6.21095 100.687 5.89737 99.3583C5.5838 98.0297 4.25255 97.2069 2.92395 97.5205C1.59535 97.8341 0.772515 99.1653 1.08609 100.494C1.39967 101.822 2.73092 102.645 4.05952 102.332Z" fill="#D4D2E1"/>
<path d="M5.24335 94.4573C6.20862 93.492 6.20862 91.927 5.24334 90.9617C4.27807 89.9964 2.71305 89.9964 1.74778 90.9617C0.782509 91.927 0.782508 93.492 1.74778 94.4573C2.71305 95.4225 4.27808 95.4225 5.24335 94.4573Z" fill="#D4D2E1"/>
<path d="M5.78186 86.4433C6.30426 85.1821 5.70536 83.7362 4.44417 83.2138C3.18298 82.6914 1.73709 83.2903 1.21469 84.5515C0.692289 85.8127 1.29119 87.2586 2.55238 87.781C3.81357 88.3034 5.25946 87.7045 5.78186 86.4433Z" fill="#D4D2E1"/>
<path d="M3.4967 80.6012C3.40934 80.6012 3.3374 80.5292 3.3374 80.4419V38.484C3.3374 38.3966 3.40934 38.3247 3.4967 38.3247H6.52856C6.61592 38.3247 6.68786 38.3966 6.68786 38.484C6.68786 38.5714 6.61592 38.6433 6.52856 38.6433H3.656V80.4419C3.656 80.5292 3.58406 80.6012 3.4967 80.6012Z" fill="#3A307F"/>
</svg>
