<svg width="100" height="100" viewBox="0 0 100 100" fill="none" xmlns="http://www.w3.org/2000/svg">
<path d="M13.0255 58.3321L13.0248 58.3322C13.2009 61.4047 13.0936 81.1017 13.0822 81.9783C13.0822 81.9785 13.0822 81.9788 13.0822 81.979L12.9572 81.9774C12.9572 82.0497 12.9345 82.119 12.8942 82.1702C12.8539 82.2213 12.7992 82.25 12.7422 82.25C12.6852 82.25 12.6305 82.2213 12.5902 82.1702C12.5498 82.119 12.5272 82.0497 12.5272 81.9774L13.0255 58.3321ZM13.0255 58.3321L13.0235 58.3195C13.0159 58.2725 12.9951 58.2254 12.9595 58.1884C12.9232 58.1508 12.8721 58.125 12.8139 58.125C12.7556 58.125 12.7045 58.1508 12.6682 58.1884C12.6326 58.2254 12.6118 58.2725 12.6042 58.3195L12.6031 58.3266L12.6028 58.3338C12.491 60.8573 12.305 75.1982 12.4022 81.9783L13.0255 58.3321Z" fill="#3A307F" stroke="#3A307F" stroke-width="0.25"/>
<path d="M48.1625 83.4816C48.1629 83.5898 48.2105 83.6909 48.2904 83.7635C48.3702 83.836 48.4761 83.875 48.5843 83.875C48.6925 83.875 48.7984 83.836 48.8782 83.7635C48.958 83.6909 49.0056 83.59 49.006 83.4819C49.0856 80.2727 49.125 68.6526 49.125 66.0621C49.125 64.0818 49.0855 62.0627 48.9268 60.0784L48.9261 60.0697L48.9242 60.0611C48.9117 60.0052 48.8788 59.9575 48.8346 59.9246C48.7905 59.8918 48.737 59.875 48.6832 59.875C48.6294 59.875 48.5759 59.8918 48.5319 59.9246C48.4876 59.9575 48.4548 60.0052 48.4423 60.0611L48.4401 60.0708L48.4395 60.0807C48.2851 62.5786 48.0284 76.7693 48.1625 83.4816ZM48.1625 83.4816C48.1625 83.4812 48.1625 83.4807 48.1625 83.4802H48.2875M48.1625 83.4816C48.1625 83.482 48.1626 83.4824 48.1626 83.4827L48.2875 83.4802M48.2875 83.4802C48.1534 76.7705 48.4101 62.582 48.5643 60.0884H48.8022C48.9606 62.0679 49 64.0832 49 66.0621C49 68.6534 48.9606 80.2749 48.8811 83.4802C48.8811 83.5518 48.8498 83.6204 48.7941 83.671C48.7385 83.7216 48.663 83.75 48.5843 83.75C48.5056 83.75 48.4301 83.7216 48.3745 83.671C48.3188 83.6204 48.2875 83.5518 48.2875 83.4802Z" fill="#3A307F" stroke="#3A307F" stroke-width="0.25"/>
<path d="M85.6986 57.0758L85.6956 57.0871L85.6948 57.0987C85.4687 60.15 85.3341 72.8502 85.3862 75.2436L85.3861 75.2436L85.3863 75.2469C85.3913 75.3514 85.4391 75.4482 85.5168 75.5179C85.5944 75.5874 85.696 75.625 85.8002 75.625C85.9045 75.625 86.0061 75.5874 86.0836 75.5179C86.161 75.4485 86.2087 75.3523 86.2141 75.2485C86.3217 73.4712 86.5334 61.2206 86.1759 57.1018C86.1745 57.0387 86.1517 56.9801 86.1068 56.9369C86.0618 56.8936 86.004 56.875 85.9496 56.875C85.8402 56.875 85.7325 56.9487 85.6986 57.0758Z" fill="#3A307F" stroke="#3A307F" stroke-width="0.25"/>
<path d="M62.0403 41.8229C59.2302 42.2992 52.826 43.1612 51.6876 43.283C51.8454 40.7294 52.0093 39.126 53.0815 36.6707C55.2079 31.8033 59.2164 29.0615 63.3153 26.4336C63.5346 26.293 63.7541 26.1527 63.9737 26.0125C67.8259 23.5514 71.6745 21.0927 73.9429 16.963C75.4945 17.1351 79.1204 18.0088 82.4913 18.8623C83.7387 19.1782 84.9488 19.4906 86.0028 19.7627C86.3964 19.8644 86.7683 19.9604 87.1122 20.0489C87.7443 20.2115 88.2821 20.3487 88.6866 20.4483C88.9449 20.5119 89.1528 20.5612 89.2967 20.5918C89.2295 20.7168 89.1612 20.8478 89.0897 20.9848C88.7255 21.6827 88.279 22.5383 87.4912 23.5671C86.4861 24.8797 84.925 26.473 82.2785 28.3502L82.3494 28.4502L82.2785 28.3503C81.2358 29.09 80.1227 29.7889 78.9935 30.498C78.8934 30.5609 78.7932 30.6238 78.6928 30.6869C77.4621 31.4604 76.2188 32.2507 75.0406 33.1199C72.6843 34.858 70.5796 36.917 69.3394 39.8065C69.3017 39.8845 69.3138 39.9639 69.3494 40.0247C69.3833 40.0828 69.4376 40.1247 69.493 40.149C69.5486 40.1733 69.6182 40.1858 69.6873 40.1682C69.7605 40.1495 69.823 40.0992 69.8565 40.0201C71.6578 36.2505 75.013 34.0029 78.6228 31.725C78.8149 31.6038 79.0076 31.4826 79.2009 31.361C82.6323 29.2022 86.2214 26.9442 88.7934 23.2722C89.4089 22.4259 89.8579 21.4717 90.117 20.4598L90.1171 20.4598L90.1184 20.4533C90.1294 20.3984 90.1266 20.3417 90.1102 20.2882C90.0938 20.2347 90.0644 20.1861 90.0247 20.1468C89.985 20.1074 89.9361 20.0785 89.8826 20.0624C89.8411 20.05 89.7977 20.0456 89.7547 20.0493C87.7181 19.348 79.2771 17.1326 76.6513 16.5999L76.6512 16.5999C76.439 16.557 76.2166 16.4951 75.9843 16.4291C75.9649 16.4236 75.9454 16.4181 75.9258 16.4125C75.713 16.3519 75.4926 16.2892 75.2712 16.2382C74.7888 16.1269 74.2834 16.0662 73.8015 16.2069L73.8013 16.2069C73.5184 16.29 73.3232 16.5297 73.0968 16.8589C73.0341 16.95 72.9681 17.0496 72.8962 17.1582C72.7007 17.4533 72.4615 17.8143 72.128 18.2481C71.2194 19.4301 69.6163 21.1426 66.3742 23.3847C64.9889 24.3425 63.7551 25.1461 62.6263 25.8813C61.9542 26.319 61.3193 26.7326 60.7118 27.14C59.087 28.2295 57.6678 29.2693 56.2903 30.5934C52.447 34.2821 50.7064 39.5713 51.0951 43.3564C50.9636 43.3704 50.8162 43.3459 50.655 43.2874C50.4508 43.2134 50.2345 43.0885 50.0171 42.9365C49.673 42.6959 49.341 42.3983 49.0622 42.1484C48.9886 42.0824 48.9187 42.0198 48.8533 41.9624C48.7414 41.8525 48.5894 41.8852 48.5021 41.9457C48.4122 42.008 48.3286 42.1431 48.4031 42.2901L48.409 42.3016L48.417 42.3117C48.8859 42.8967 49.4128 43.4333 49.9899 43.9133L50.0005 43.9222L50.0129 43.9285C50.3503 44.1011 50.7376 44.1358 51.1124 44.1224C51.3704 44.1132 51.6346 44.0801 51.8776 44.0497C51.9846 44.0363 52.0875 44.0234 52.184 44.0133M62.0403 41.8229L62.0612 41.9461L62.0403 41.8229C62.0403 41.8229 62.0403 41.8229 62.0403 41.8229ZM62.0403 41.8229C62.4309 41.7566 63.1091 41.6333 63.9225 41.4855C64.6549 41.3523 65.4969 41.1993 66.3371 41.05C68.1048 40.7359 69.8695 40.4375 70.5655 40.3818L70.5735 40.3811L70.5816 40.3815C70.6456 40.3846 70.7066 40.4101 70.7538 40.4536C70.801 40.4971 70.8314 40.5559 70.8394 40.6197C70.8474 40.6836 70.8325 40.7481 70.7974 40.8019C70.7625 40.8554 70.7099 40.8948 70.649 40.9136M70.649 40.9136C70.6494 40.9135 70.6497 40.9134 70.6501 40.9133L70.6116 40.7943L70.6479 40.9139C70.6483 40.9138 70.6487 40.9137 70.649 40.9136ZM70.649 40.9136C68.9121 41.4754 64.5549 42.2227 60.5127 42.8423C56.4654 43.4627 52.7149 43.9578 52.184 44.0133M52.184 44.0133L52.171 43.889L52.1841 44.0133C52.1841 44.0133 52.184 44.0133 52.184 44.0133ZM51.6799 43.4095C51.6231 43.4155 51.5807 43.4194 51.5539 43.4212C51.5565 43.379 51.5591 43.337 51.5617 43.2953L51.6799 43.4095Z" fill="#3A307F" stroke="#3A307F" stroke-width="0.25"/>
<path d="M91.41 53.5997C88.8882 51.5976 74.1112 38.3073 72.9362 37.167C72.8865 37.1254 72.8254 37.0997 72.7609 37.0932C72.6964 37.0866 72.6314 37.0996 72.5743 37.1304C71.8014 37.7197 71.1402 38.4431 70.6223 39.2662C70.5921 39.3233 70.5794 39.3881 70.5858 39.4525C70.5922 39.5169 70.6174 39.5779 70.6583 39.6279C71.0563 40.0264 71.779 40.8587 71.2009 41.438C70.9476 41.7277 52.2589 44.6769 51.3167 44.7674C50.8538 44.8334 50.3818 44.7836 49.9427 44.6226C49.5093 44.4417 47.9187 42.4507 47.4847 41.7992C48.4269 41.5823 50.594 41.2926 50.594 41.2926C50.4831 37.89 52.6485 34.2299 53.4499 33.1484C53.4707 33.1086 53.4814 33.0643 53.481 33.0195C53.4806 32.9746 53.4691 32.9305 53.4476 32.8911C53.4261 32.8517 53.3953 32.8182 53.3578 32.7936C53.3203 32.769 53.2773 32.754 53.2327 32.75C50.6278 32.9315 32.0111 34.5961 31.975 34.6322C31.6541 34.8736 9.28137 58.1598 8.54812 59.0649C8.40236 59.2446 8.62073 59.4266 8.76538 59.2818C10.4281 57.8946 32.0382 35.2315 32.0837 35.1755C34.9036 38.6502 54.7518 62.286 54.8959 62.25C57.2099 61.8515 88.7042 54.8105 91.2293 54.1057C91.4826 54.0358 91.5912 53.7434 91.41 53.5997Z" fill="#EA3934"/>
<path d="M34.6489 66.2697L34.6486 66.2698C34.6578 66.316 34.6664 66.4141 34.675 66.5462C34.684 66.6824 34.6936 66.8646 34.7039 67.0863C34.7243 67.5298 34.7471 68.1335 34.7713 68.8478C34.8197 70.2764 34.8734 72.1489 34.9241 74.0703C35.0251 77.9048 35.1139 81.9365 35.1228 83.0242C35.1336 83.127 35.1036 83.2186 35.0379 83.284C34.9736 83.348 34.887 83.3749 34.8062 83.375C34.6451 83.3751 34.4632 83.2658 34.438 83.0461L34.438 83.0459C34.2041 80.9854 34.1631 79.6949 33.9313 72.3894C33.8815 70.8194 33.8229 68.9716 33.7516 66.7786C33.73 66.7778 33.7057 66.7769 33.6787 66.7759C33.1508 66.756 31.6159 66.6981 29.9353 66.6465C27.9425 66.5853 25.7428 66.5328 24.7403 66.5609C24.7408 66.6831 24.7447 66.8956 24.7519 67.188C24.7622 67.613 24.7789 68.1968 24.7999 68.8909C24.8276 69.8053 24.8626 70.9105 24.9001 72.0953C24.9196 72.7092 24.9397 73.3445 24.9599 73.9856C25.0778 77.7398 25.1959 81.7013 25.1778 82.7428C25.1767 82.8028 25.1448 82.846 25.1141 82.8719C25.0848 82.8965 25.0508 82.9112 25.0219 82.9204C24.9632 82.939 24.8934 82.9452 24.829 82.9425C24.765 82.9398 24.6931 82.9277 24.6326 82.8998C24.5764 82.8739 24.4927 82.8146 24.4921 82.705M34.6489 66.2697L24.6171 82.7038M34.6489 66.2697L34.6465 66.2609M34.6489 66.2697L34.6465 66.2609M24.4921 82.705C24.4921 82.7046 24.4921 82.7042 24.4921 82.7038H24.6171M24.4921 82.705C24.4921 82.7052 24.4921 82.7055 24.4921 82.7057L24.6171 82.7038M24.4921 82.705C24.4831 82.1219 24.329 78.1147 24.177 74.1808C24.167 73.9241 24.1571 73.6677 24.1473 73.4126C24.0061 69.7617 23.8751 66.3722 23.875 66.1127C23.8748 66.0533 23.8864 65.9944 23.909 65.9395C23.9316 65.8844 23.9648 65.8344 24.0068 65.7923C24.0488 65.7502 24.0988 65.7169 24.1537 65.6942C24.2066 65.6723 24.263 65.6608 24.3202 65.6601M24.6171 82.7038C24.6076 82.0844 24.4337 77.5849 24.2729 73.4259C24.1313 69.765 24 66.3679 24 66.1125C23.9999 66.0694 24.0082 66.0268 24.0246 65.987C24.0409 65.9472 24.065 65.9111 24.0953 65.8806C24.1257 65.8502 24.1618 65.8261 24.2015 65.8097C24.2412 65.7933 24.2837 65.7849 24.3266 65.7851M24.3202 65.6601C24.3181 65.6603 24.3161 65.6605 24.3141 65.6607L24.3266 65.7851M24.3202 65.6601C24.8833 65.6052 26.9911 65.6218 29.0479 65.6615C31.1138 65.7014 33.153 65.7652 33.5587 65.8063M24.3202 65.6601C24.3225 65.6601 24.3248 65.66 24.3271 65.6601L24.3266 65.7851M24.3266 65.7851L33.5587 65.8063M33.5587 65.8063C33.6151 65.8119 33.6774 65.8143 33.7473 65.817M33.5587 65.8063L33.7473 65.817M34.6465 66.2609C34.5719 65.9927 34.3494 65.8922 34.1408 65.8519M34.6465 66.2609L34.1408 65.8519M34.1408 65.8519C34.0362 65.8317 33.9267 65.8245 33.8271 65.8202M34.1408 65.8519L33.8271 65.8202M33.8271 65.8202C33.7995 65.8189 33.7729 65.8179 33.7473 65.817M33.8271 65.8202L33.7473 65.817" fill="#3A307F" stroke="#3A307F" stroke-width="0.25"/>
<path d="M79.4519 61.7442C78.4029 61.8938 76.7288 62.2423 75.2936 62.557C74.4486 62.7423 73.6891 62.9153 73.1841 63.0303C72.8272 63.1115 72.5975 63.1638 72.5545 63.1711L72.5544 63.1707L72.5446 63.1732C72.4674 63.1928 72.4152 63.2459 72.3853 63.3009C72.3558 63.355 72.3437 63.4175 72.3473 63.4757C72.3508 63.5328 72.3705 63.5998 72.4214 63.6504C72.4766 63.7053 72.5526 63.7253 72.6321 63.7103C73.139 63.6364 74.8105 63.3497 76.4604 63.0667C76.567 63.0484 76.6735 63.0302 76.7796 63.012C77.6561 62.8616 78.5054 62.7162 79.1485 62.6084C79.47 62.5545 79.7397 62.51 79.9352 62.479C80.014 62.4666 80.0804 62.4563 80.1332 62.4486L80.1315 62.6125L80.1228 63.4033C80.1155 64.0576 80.1054 64.9319 80.094 65.8211C80.0731 67.4585 80.0482 69.1375 80.0296 69.594C79.9816 69.6039 79.9147 69.6171 79.8291 69.6335C79.6678 69.6644 79.4485 69.705 79.1851 69.7533C78.9396 69.7983 78.6582 69.8496 78.3508 69.9055C77.9955 69.9702 77.6055 70.0412 77.1961 70.1163C75.7443 70.3824 74.0732 70.6947 72.9853 70.9298C72.9823 69.6472 72.9448 65.4832 72.8418 64.3501C72.8404 64.2692 72.8121 64.1961 72.7547 64.1447C72.6975 64.0937 72.6255 64.0767 72.5611 64.0806C72.4368 64.0882 72.3015 64.1768 72.271 64.3324L72.2707 64.3323L72.2696 64.3411C72.1967 64.9349 72.1653 66.4154 72.1496 67.8886C72.1409 68.6995 72.137 69.509 72.1338 70.1748C72.1312 70.7245 72.129 71.1763 72.125 71.4499L72.1249 71.4499L72.1251 71.4553C72.1268 71.5176 72.1419 71.5788 72.1693 71.6348C72.1967 71.6907 72.2358 71.7401 72.284 71.7795C72.3323 71.8188 72.3885 71.8471 72.4488 71.8623C72.5092 71.8774 72.5721 71.8791 72.6331 71.867L72.6331 71.867L72.6351 71.8666C74.2132 71.529 77.3712 70.9499 79.0507 70.642C79.6206 70.5375 80.0203 70.4642 80.1302 70.4421C80.3441 70.4274 80.5463 70.3379 80.7025 70.1892L80.7181 70.1744L80.7278 70.1553C80.7372 70.1367 80.741 70.1181 80.7423 70.1117L80.7423 70.1114C80.7443 70.1015 80.746 70.0908 80.7473 70.0801C80.7501 70.0587 80.7527 70.0312 80.7552 69.9991C80.7602 69.9345 80.7652 69.8454 80.7702 69.736C80.7802 69.5169 80.7902 69.212 80.7999 68.8497C80.8193 68.1247 80.8375 67.1673 80.8511 66.1999C80.8647 65.2324 80.8737 64.2544 80.8749 63.4884C80.8755 63.1054 80.8741 62.775 80.8703 62.5251C80.8666 62.2803 80.8606 62.1019 80.85 62.0321L80.8503 62.0321L80.8486 62.0244C80.812 61.8542 80.7087 61.7452 80.5744 61.686C80.4476 61.63 80.2979 61.62 80.1581 61.6269C80.0163 61.6339 79.8711 61.6593 79.7468 61.6845C79.6986 61.6942 79.6549 61.7036 79.6156 61.712C79.5486 61.7264 79.4943 61.738 79.4519 61.7442ZM79.4519 61.7442C79.4519 61.7442 79.452 61.7442 79.452 61.7442L79.4696 61.8678L79.4518 61.7442C79.4518 61.7442 79.4519 61.7442 79.4519 61.7442Z" fill="#3A307F" stroke="#3A307F" stroke-width="0.25"/>
<path d="M65.3293 64.7738C65.2928 64.604 65.1896 64.4952 65.0556 64.436C64.929 64.3801 64.7796 64.37 64.64 64.3769C64.4985 64.3838 64.3536 64.4091 64.2295 64.4341C64.181 64.4439 64.1371 64.4534 64.0977 64.4618C64.0313 64.4761 63.9776 64.4876 63.9355 64.4937C62.8889 64.6434 61.2187 64.9919 59.7869 65.3066C58.9459 65.4915 58.1899 65.664 57.6861 65.779C57.3277 65.8607 57.0969 65.9134 57.0537 65.9207L57.0536 65.9203L57.0437 65.9228C56.9664 65.9426 56.9145 65.9959 56.8848 66.0508C56.8556 66.1049 56.8437 66.1673 56.8473 66.2254C56.8508 66.2823 56.8705 66.3493 56.9213 66.3999C56.9764 66.4549 57.0524 66.475 57.1319 66.4599C57.6565 66.3831 59.3136 66.0979 60.9485 65.8164C61.06 65.7973 61.1713 65.7781 61.2822 65.759C62.1532 65.6091 62.996 65.4643 63.6346 65.357C63.9539 65.3034 64.2218 65.2591 64.4165 65.2283C64.4955 65.2158 64.5621 65.2056 64.615 65.1979L64.6133 65.3621L64.6046 66.1529C64.5973 66.8072 64.5871 67.6816 64.5757 68.5707C64.5548 70.2081 64.5299 71.8871 64.5116 72.3439C64.4637 72.3538 64.3969 72.367 64.3117 72.3833C64.1507 72.4142 63.9318 72.4549 63.6691 72.5032C63.4246 72.5481 63.1447 72.5992 62.839 72.655C62.484 72.7197 62.0942 72.7909 61.6847 72.8661C60.2365 73.1322 58.5695 73.4445 57.4839 73.6796C57.4809 72.397 57.4439 68.2329 57.3407 67.0997C57.3393 67.019 57.3112 66.9459 57.2539 66.8945C57.1969 66.8433 57.125 66.8263 57.0605 66.8303C56.9362 66.8378 56.8015 66.9267 56.7707 67.0817L56.7704 67.0816L56.7693 67.0908C56.6965 67.6846 56.6653 69.1651 56.6497 70.6384C56.6412 71.4388 56.6374 72.238 56.6342 72.899C56.6314 73.4606 56.6292 73.9223 56.625 74.2003L56.6249 74.2003L56.6251 74.2059C56.6269 74.2681 56.642 74.3293 56.6694 74.3853C56.6968 74.4412 56.7359 74.4905 56.7842 74.5298C56.8324 74.5691 56.8886 74.5974 56.9489 74.6125C57.0093 74.6275 57.0721 74.629 57.1331 74.6169L57.1331 74.6169L57.1348 74.6165C58.7117 74.2783 61.872 73.6975 63.5453 73.3899C64.1086 73.2864 64.5034 73.2138 64.6124 73.1919C64.8259 73.1771 65.0276 73.0876 65.1836 72.939L65.1912 72.9317L65.1976 72.9232C65.2134 72.9019 65.2201 72.8793 65.2223 72.8717C65.2258 72.8601 65.2284 72.848 65.2305 72.8366C65.2347 72.8137 65.2385 72.785 65.2421 72.7525C65.2492 72.6869 65.256 72.5971 65.2626 72.4874C65.2759 72.2676 65.2886 71.9623 65.3003 71.5998C65.3239 70.8746 65.344 69.917 65.3573 68.9495C65.3707 67.982 65.3774 67.0039 65.3742 66.2376C65.3727 65.8545 65.3686 65.5238 65.3617 65.2734C65.3582 65.1483 65.354 65.0425 65.349 64.96C65.3442 64.8806 65.3382 64.8144 65.3293 64.7738ZM65.3293 64.7738C65.3293 64.7738 65.3293 64.7737 65.3293 64.7737L65.2072 64.8003L65.3294 64.774C65.3294 64.7739 65.3293 64.7739 65.3293 64.7738Z" fill="#3A307F" stroke="#3A307F" stroke-width="0.25"/>
<path d="M67.5346 39.6077C70.7213 31.8074 79.494 29.7304 85.0074 23.8062C85.1883 23.5899 86.4878 22.4013 85.8016 22.2225C83.9973 21.7519 74.9353 18.9829 74.7548 19.271C70.2443 25.6007 59.5141 29.0434 55.6212 35.2523C54.4855 37.0638 53.6565 39.2584 54.1413 41.4071C54.1739 41.5522 54.4302 41.5174 54.4302 41.3712C54.3382 39.4382 54.8557 37.5249 55.9101 35.9001C57.8117 32.7272 62.6029 29.4931 65.4769 27.6937C68.9542 25.5163 72.6971 23.3024 75.0797 19.8829C78.4072 21.0226 81.7936 21.9838 85.2243 22.7622C83.9243 24.454 79.8437 27.4757 77.7528 28.8453C73.6817 31.5099 68.6515 34.7661 67.3558 39.5354C67.2468 39.6441 67.4616 39.7875 67.5346 39.6077Z" fill="#615995"/>
<path d="M67.2519 29.3844C67.3232 29.3119 67.2163 29.1663 67.1423 29.2025C64.9052 30.7907 59.9285 33.9575 61.2068 36.4438C61.6738 37.3519 62.7416 37.6063 63.6735 37.4624C65.1031 37.2393 66.1435 36.3746 67.1774 35.4246C67.8702 34.7887 71.0633 31.7953 71.6114 31.0216C71.8865 30.6481 72.023 30.1876 71.9968 29.7215C71.9706 29.2555 71.7835 28.8138 71.4684 28.4746C71.0974 28.1189 70.6325 27.8813 70.1307 27.7908C69.6289 27.7004 69.1121 27.761 68.6437 27.9653C68.3543 28.1036 68.5719 28.5839 68.858 28.4746C70.8862 27.8219 72.17 29.4117 70.9317 30.9848C70.3986 31.5827 69.8251 32.1419 69.2154 32.6583C66.7728 34.9979 65.6984 36.3752 64.1027 36.8064C63.2805 37.0295 61.9216 36.952 61.636 35.9334C61.0725 33.9207 64.5955 31.6146 67.2519 29.3844Z" fill="#8580AE"/>
</svg>
