<svg width="100" height="100" viewBox="0 0 100 100" fill="none" xmlns="http://www.w3.org/2000/svg">
<path d="M86.5788 63.7036C86.7333 56.8701 86.5123 56.4381 86.4338 52.9686C85.6423 17.8976 85.8003 18.4286 85.7103 18.2311C85.5793 17.9426 85.1833 18.0591 84.9353 18.0761C82.6743 18.2261 79.5993 18.0736 77.6218 18.2981C77.5971 18.3004 77.5736 18.3098 77.554 18.3251C77.5345 18.3404 77.5198 18.361 77.5116 18.3845C77.5034 18.4079 77.5022 18.4332 77.508 18.4573C77.5138 18.4815 77.5264 18.5034 77.5443 18.5206C77.1023 34.6706 77.5783 51.7886 77.8593 63.9101C77.8738 64.5366 77.9563 64.4706 79.6373 64.4891C81.5673 64.5106 83.1023 64.4006 85.1158 64.4066C85.525 64.4453 85.9366 64.4486 86.3463 64.4166C86.6498 64.3241 86.5733 63.9411 86.5788 63.7036Z" fill="#EA3934"/>
<path d="M42.9002 49.7845C45.3607 48.5285 48.1412 47.1435 51.1182 45.7375C51.0772 44.859 50.8682 37.194 50.8682 36.8995C50.8682 36.7135 50.9182 36.461 50.7492 36.326C50.6197 36.223 50.4392 36.2685 50.2892 36.276C47.6842 36.373 44.9272 36.271 43.1052 36.4055C43.0813 36.4081 43.0586 36.4173 43.0397 36.4322C43.0208 36.4471 43.0065 36.467 42.9984 36.4897C42.9903 36.5123 42.9888 36.5368 42.994 36.5603C42.9991 36.5838 43.0108 36.6053 43.0277 36.6225C42.8502 41.0035 42.8327 45.3965 42.9002 49.7845Z" fill="#EA3934"/>
<path d="M32.9196 54.4724C35.3796 53.2164 38.1601 51.8314 41.1376 50.4254C41.0961 49.5469 40.8876 41.8819 40.8876 41.5874C40.8876 41.4014 40.9376 41.1484 40.7691 41.0134C40.6391 40.9134 40.4586 40.9564 40.3091 40.9634C37.7036 41.0604 34.9471 40.9584 33.1246 41.0924C33.1006 41.0949 33.0778 41.1042 33.0588 41.1191C33.0398 41.134 33.0255 41.154 33.0174 41.1768C33.0093 41.1995 33.0078 41.2241 33.013 41.2476C33.0183 41.2712 33.0301 41.2928 33.0471 41.3099C32.8676 45.6909 32.8501 50.0894 32.9196 54.4724Z" fill="#EA3934"/>
<path d="M63.2535 51.8674C60.6175 53.0874 57.4955 54.5394 54.188 56.0954C54.2235 64.4914 54.126 63.7179 54.1725 64.1014C54.2145 64.4514 54.6225 64.3864 54.901 64.3959C57.6563 64.5701 60.4195 64.5805 63.176 64.4269C63.176 64.4774 63.375 57.4704 63.2535 51.8674Z" fill="#EA3934"/>
<path d="M53.8211 44.6626C56.7256 43.3756 59.7712 42.0891 62.8452 40.8846C62.7162 37.5611 62.3281 27.3376 62.2716 25.5496C62.2621 25.2496 62.2042 25.0861 61.8527 25.0946C60.3882 25.1311 54.5457 25.5131 54.1157 25.5911C53.8932 25.6311 53.8411 25.7716 53.8366 25.9526C53.8241 26.4436 53.6601 40.4606 53.7226 42.3471C53.7501 43.1226 53.7846 43.8926 53.8211 44.6626Z" fill="#EA3934"/>
<path d="M74.7537 55.8785C74.6312 47.5985 74.1037 35.7585 74.0972 32.1085C74.0942 30.6055 74.3877 30.951 71.9417 30.992C70.1417 31.022 67.9782 30.967 66.3342 31.1055C66.3103 31.1081 66.2876 31.1174 66.2687 31.1323C66.2498 31.1471 66.2355 31.1671 66.2274 31.1897C66.2193 31.2124 66.2178 31.2368 66.223 31.2603C66.2281 31.2838 66.2398 31.3053 66.2567 31.3225C66.1567 34.0415 66.1117 36.765 66.0962 39.489C66.9127 39.246 68.7047 39.1335 70.5567 41.7995C70.721 42.0358 70.845 42.2977 70.9237 42.5745C71.3785 44.1289 71.4598 45.7687 71.1612 47.3605C71.102 47.6209 70.9836 47.864 70.8151 48.0711C70.6466 48.2782 70.4326 48.4436 70.1897 48.5545C69.4027 48.914 68.0087 49.5575 66.1737 50.4045C66.2152 52.7455 66.5337 63.2635 66.5562 63.9875C66.5622 64.1785 66.5182 64.4375 66.7062 64.561C67.0172 64.761 71.5187 64.561 74.3297 64.6025C74.4516 64.6197 74.5754 64.6178 74.6967 64.597C74.9037 64.5305 74.9147 64.344 74.9187 64.158C75.0417 58.446 74.7917 58.477 74.7537 55.8785Z" fill="#EA3934"/>
<path d="M88.7242 2.68889C88.8016 2.84181 88.8442 3.00995 88.8491 3.18127C88.8539 3.3526 88.8208 3.52287 88.7521 3.67991C88.6835 3.83695 88.581 3.97687 88.4519 4.08967C88.3229 4.20247 88.1705 4.28535 88.0057 4.33239C87.8721 4.34641 87.7459 4.40063 87.6437 4.48789C87.6213 4.51164 87.6089 4.54302 87.6089 4.57564C87.6089 4.60826 87.6213 4.63964 87.6437 4.66339C88.0357 4.97489 88.6767 4.48739 88.9202 4.16339C89.0917 3.93705 89.1917 3.66464 89.2074 3.38109C89.2231 3.09753 89.1537 2.81576 89.0082 2.57189C88.9177 2.42389 88.6637 2.52289 88.7242 2.68889Z" fill="#3A307F"/>
<path d="M89.4422 2.9061C89.3551 3.08869 89.3282 3.29422 89.3654 3.49307C89.4026 3.69191 89.502 3.87382 89.6492 4.0126C89.8962 4.2406 90.5312 4.4591 90.7602 4.1126C90.7702 4.09499 90.7762 4.07535 90.7776 4.05513C90.779 4.03492 90.7759 4.01463 90.7685 3.99578C90.7611 3.97692 90.7495 3.95997 90.7346 3.94618C90.7198 3.93239 90.702 3.92211 90.6827 3.9161C90.5659 3.90416 90.4479 3.90938 90.3327 3.9316C90.2229 3.93032 90.1149 3.90295 90.0178 3.85174C89.9206 3.80054 89.8371 3.72696 89.774 3.63709C89.7109 3.54722 89.67 3.44363 89.6549 3.33488C89.6397 3.22612 89.6506 3.11531 89.6867 3.0116C89.7242 2.8641 89.5102 2.7616 89.4422 2.9061Z" fill="#3A307F"/>
<path d="M88.2641 5.2369C88.3816 5.19501 88.5076 5.18307 88.6308 5.20216C88.7541 5.22124 88.8706 5.27075 88.9699 5.3462C89.0691 5.42165 89.148 5.52066 89.1994 5.63428C89.2508 5.74789 89.273 5.87252 89.2641 5.9969C89.234 6.11888 89.2429 6.24725 89.2896 6.3639C89.3001 6.38101 89.3159 6.39429 89.3345 6.40176C89.3532 6.40924 89.3737 6.41051 89.3931 6.4054C89.8471 6.2784 89.5986 5.5229 89.3981 5.2834C89.2538 5.10874 89.0533 4.98958 88.8309 4.94627C88.6085 4.90296 88.378 4.93817 88.1786 5.0459C88.0731 5.1039 88.1451 5.2629 88.2641 5.2369Z" fill="#3A307F"/>
<path d="M90.5793 4.76152C89.7903 4.67902 89.4363 5.76902 89.9538 6.04852C89.9682 6.05599 89.9844 6.05924 90.0005 6.05791C90.0167 6.05658 90.0321 6.05072 90.0451 6.041C90.058 6.03128 90.068 6.01811 90.0738 6.00298C90.0796 5.98786 90.081 5.97141 90.0778 5.95552C90.0213 5.58852 90.1083 5.03202 90.5843 4.99452C90.6152 4.99386 90.6446 4.98095 90.666 4.95863C90.6874 4.93632 90.699 4.90642 90.6983 4.87552C90.6977 4.84463 90.6848 4.81526 90.6625 4.79388C90.6401 4.7725 90.6102 4.76086 90.5793 4.76152Z" fill="#3A307F"/>
<path d="M72.7219 6.3381C72.7051 6.50888 72.6509 6.67388 72.5631 6.82136C72.4754 6.96884 72.3562 7.09518 72.2141 7.1914C72.0721 7.28763 71.9105 7.35137 71.741 7.37811C71.5715 7.40484 71.3982 7.39392 71.2334 7.3461C71.1122 7.2844 70.9746 7.2627 70.8404 7.2841C70.8093 7.29162 70.7822 7.31082 70.7649 7.33773C70.7476 7.36464 70.7413 7.39718 70.7474 7.4286C70.9119 7.9011 71.7144 7.8321 72.0914 7.6871C72.3552 7.58302 72.5831 7.4045 72.7473 7.17325C72.9116 6.942 73.005 6.668 73.0164 6.3846C73.018 6.34773 73.0061 6.31155 72.9827 6.28296C72.9594 6.25436 72.9264 6.23537 72.8899 6.22962C72.8535 6.22386 72.8162 6.23175 72.7852 6.25176C72.7542 6.27177 72.7316 6.30251 72.7219 6.3381Z" fill="#3A307F"/>
<path d="M73.2181 6.90659C73.0469 7.01521 72.9145 7.17547 72.8403 7.3642C72.7661 7.55294 72.7537 7.76039 72.8051 7.95659C72.8921 8.28209 73.3131 8.80659 73.6941 8.63359C73.7119 8.62394 73.7272 8.6104 73.739 8.59399C73.7508 8.57757 73.7587 8.5587 73.7622 8.53879C73.7656 8.51888 73.7646 8.49845 73.759 8.47902C73.7535 8.45958 73.7436 8.44166 73.7301 8.42659C73.6365 8.35503 73.534 8.29603 73.4251 8.25109C73.3328 8.1915 73.256 8.11067 73.2013 8.01536C73.1466 7.92005 73.1155 7.81303 73.1106 7.70324C73.1057 7.59345 73.1272 7.48409 73.1732 7.38429C73.2192 7.28449 73.2884 7.19716 73.3751 7.12959C73.4796 7.02309 73.3531 6.81959 73.2181 6.90659Z" fill="#3A307F"/>
<path d="M70.9751 8.25009C71.0971 8.27728 71.2103 8.33451 71.3046 8.41658C71.3988 8.49866 71.471 8.60298 71.5147 8.72007C71.5583 8.83716 71.5721 8.9633 71.5546 9.08704C71.5371 9.21077 71.489 9.32818 71.4146 9.42859C71.3251 9.51659 71.2655 9.63043 71.2441 9.75409C71.2425 9.775 71.2484 9.7958 71.2606 9.81282C71.2729 9.82983 71.2908 9.84197 71.3111 9.84709C71.7611 9.97109 71.9531 9.21109 71.9161 8.90109C71.889 8.67558 71.7836 8.46673 71.6183 8.31094C71.453 8.15515 71.2383 8.06231 71.0116 8.04859C70.9863 8.04681 70.9612 8.05444 70.9412 8.07001C70.9211 8.08559 70.9075 8.10801 70.903 8.13298C70.8985 8.15795 70.9033 8.18372 70.9167 8.20533C70.93 8.22694 70.9508 8.24288 70.9751 8.25009Z" fill="#3A307F"/>
<path d="M73.1868 9.07757C72.5778 8.59307 71.6868 9.29707 71.9673 9.83207C71.975 9.84689 71.9871 9.85905 72.0018 9.86698C72.0166 9.87491 72.0333 9.87826 72.05 9.8766C72.0666 9.87493 72.0824 9.86833 72.0953 9.85763C72.1082 9.84694 72.1176 9.83264 72.1223 9.81657C72.2723 9.48057 72.6393 9.05707 73.0578 9.27407C73.0838 9.29118 73.1156 9.29723 73.1461 9.2909C73.1766 9.28457 73.2034 9.26638 73.2205 9.24032C73.2376 9.21426 73.2437 9.18248 73.2373 9.15195C73.231 9.12143 73.2128 9.09468 73.1868 9.07757Z" fill="#3A307F"/>
<path d="M88.0676 12.7054C88.0509 12.8763 87.9967 13.0413 87.909 13.1888C87.8213 13.3364 87.7021 13.4627 87.56 13.559C87.4179 13.6552 87.2563 13.719 87.0868 13.7457C86.9172 13.7724 86.7439 13.7614 86.5791 13.7134C86.4579 13.6518 86.3203 13.63 86.1861 13.6514C86.1549 13.6591 86.1279 13.6784 86.1106 13.7054C86.0933 13.7324 86.087 13.765 86.0931 13.7964C86.2576 14.2689 87.0596 14.1994 87.4371 14.0544C87.7005 13.9505 87.9282 13.7724 88.0924 13.5416C88.2566 13.3109 88.3503 13.0374 88.3621 12.7544C88.3645 12.7173 88.3531 12.6806 88.33 12.6514C88.3069 12.6222 88.2737 12.6026 88.237 12.5965C88.2003 12.5904 88.1626 12.5982 88.1313 12.6183C88.1 12.6384 88.0773 12.6695 88.0676 12.7054Z" fill="#3A307F"/>
<path d="M88.5633 13.2745C88.3919 13.383 88.2595 13.5432 88.1851 13.732C88.1108 13.9207 88.0984 14.1282 88.1498 14.3245C88.2373 14.6505 88.6578 15.1745 89.0388 15.0015C89.0566 14.9919 89.072 14.9785 89.0839 14.9621C89.0957 14.9458 89.1037 14.927 89.1072 14.9071C89.1107 14.8872 89.1097 14.8668 89.1041 14.8474C89.0986 14.8279 89.0888 14.81 89.0753 14.795C88.9819 14.7231 88.8794 14.6639 88.7703 14.619C88.6779 14.5595 88.6011 14.4787 88.5463 14.3833C88.4915 14.288 88.4604 14.181 88.4555 14.0711C88.4506 13.9613 88.4721 13.8519 88.5182 13.7521C88.5642 13.6523 88.6336 13.565 88.7203 13.4975C88.8243 13.3905 88.6998 13.187 88.5633 13.2745Z" fill="#3A307F"/>
<path d="M86.3203 14.6131C86.4422 14.6403 86.5555 14.6975 86.6497 14.7796C86.7439 14.8617 86.8162 14.966 86.8598 15.0831C86.9035 15.2002 86.9172 15.3263 86.8997 15.45C86.8823 15.5738 86.8342 15.6912 86.7598 15.7916C86.6701 15.8795 86.6103 15.9934 86.5888 16.1171C86.5875 16.138 86.5935 16.1587 86.6059 16.1757C86.6182 16.1927 86.636 16.2048 86.6563 16.2101C87.1088 16.3341 87.2983 15.5741 87.2608 15.2641C87.2333 15.039 87.1277 14.8306 86.9625 14.6753C86.7972 14.52 86.5827 14.4275 86.3563 14.4141C86.2323 14.3961 86.2123 14.5756 86.3203 14.6131Z" fill="#3A307F"/>
<path d="M88.5373 15.445C87.9398 14.9595 87.0373 15.66 87.3178 16.1995C87.3256 16.2143 87.3376 16.2265 87.3524 16.2344C87.3671 16.2424 87.3839 16.2457 87.4006 16.244C87.4172 16.2424 87.433 16.2358 87.4459 16.2251C87.4587 16.2144 87.4681 16.2001 87.4728 16.184C87.6228 15.848 87.9918 15.42 88.4133 15.6415C88.4393 15.6553 88.4695 15.6588 88.4979 15.6512C88.5263 15.6437 88.5508 15.6257 88.5665 15.6008C88.5822 15.5759 88.5879 15.5461 88.5825 15.5172C88.5771 15.4883 88.5609 15.4625 88.5373 15.445Z" fill="#3A307F"/>
<path d="M52.1359 58.4316C52.4969 62.9436 53.1529 67.4356 53.7124 71.9266C54.2689 76.3976 56.0279 91.6861 56.2654 92.9421C56.3154 93.2156 56.7884 93.2156 56.7769 92.9161C56.7309 91.7026 53.6369 65.2216 52.4304 58.3661C52.3999 58.1786 52.1204 58.2406 52.1359 58.4316Z" fill="#3A307F"/>
<path d="M27.0636 66.7269C27.0696 66.5593 27.0353 66.3926 26.9636 66.2409C26.9496 66.2178 26.9306 66.1981 26.908 66.1833C26.8853 66.1685 26.8596 66.159 26.8328 66.1555C26.806 66.1521 26.7787 66.1547 26.753 66.1633C26.7274 66.1718 26.704 66.1861 26.6846 66.205C26.4461 66.4935 26.5631 67.088 26.6746 67.4195C26.693 67.4838 26.7361 67.5382 26.7944 67.5711C26.8527 67.6039 26.9217 67.6124 26.9862 67.5948C27.0508 67.5771 27.1058 67.5348 27.1394 67.4769C27.1729 67.419 27.1824 67.3502 27.1656 67.2854C27.1286 67.0944 27.0856 66.9129 27.0636 66.7269Z" fill="#3A307F"/>
<path d="M46.7139 69.3059C44.1669 69.1809 43.8099 68.7734 43.6489 69.1199C42.1545 72.1636 40.4464 75.0976 38.5374 77.8999C37.4054 75.2639 36.2049 72.5779 34.0509 70.6124C32.938 69.5635 31.5834 68.8055 30.1074 68.4054C27.6134 67.7519 23.5204 67.3489 21.0629 67.9399C20.8249 67.9974 20.9284 68.3499 21.1629 68.3069C22.5284 68.0569 26.2734 68.0799 29.3444 68.7774C30.8439 69.0532 32.2387 69.7363 33.3759 70.7519C34.2264 71.4804 34.9711 72.324 35.5884 73.2584C36.9771 75.4591 38.062 77.8375 38.8134 80.3289C39.2824 82.0419 39.1919 82.6169 39.4079 82.8924C39.4849 82.9924 39.6619 83.0324 39.7284 82.8924C39.8316 82.4646 39.8099 82.0162 39.6659 81.6004C39.4715 80.5474 39.1649 79.5182 38.7514 78.5304C40.7055 75.6668 42.4758 72.682 44.0514 69.5939C44.8313 69.7427 45.6205 69.8378 46.4134 69.8784C46.3638 72.561 46.0748 75.2337 45.5499 77.8649C45.0789 80.3924 44.3999 82.8839 42.8624 84.9924C39.4244 89.7134 34.8954 89.1924 31.1869 84.7649C29.2694 82.4774 28.2594 79.8249 27.3209 77.9839C27.2919 77.9369 27.247 77.9018 27.1945 77.8848C27.1419 77.8678 27.085 77.8702 27.0339 77.8913C26.9829 77.9125 26.9411 77.9512 26.916 78.0004C26.8909 78.0496 26.8841 78.1062 26.8969 78.1599C27.3084 79.3136 27.8059 80.4348 28.3854 81.5139C30.0614 84.7284 32.6214 87.9924 36.1539 88.7499C38.6884 89.2934 40.7889 88.2259 42.5039 86.3259C44.3294 84.3059 45.2944 81.8034 45.8584 79.1729C46.5707 76.0326 46.9483 72.8257 46.9849 69.6059C46.9884 69.5681 46.9841 69.5299 46.9721 69.4938C46.9601 69.4578 46.9408 69.4246 46.9153 69.3964C46.8898 69.3682 46.8587 69.3456 46.8241 69.33C46.7894 69.3144 46.7519 69.3062 46.7139 69.3059Z" fill="#3A307F"/>
<path d="M34.4337 88.5331C32.8837 94.8561 31.2337 96.1926 30.9812 97.2781C30.9719 97.3166 30.9753 97.3571 30.9909 97.3936C31.0065 97.43 31.0335 97.4604 31.0679 97.4802C31.1022 97.5001 31.142 97.5082 31.1814 97.5035C31.2208 97.4988 31.2575 97.4814 31.2862 97.4541C32.0392 96.8711 34.3957 92.3941 34.8007 88.5796C34.8227 88.3731 34.4822 88.3371 34.4337 88.5331Z" fill="#3A307F"/>
<path d="M15.9876 78.4389C15.8996 78.2474 15.6471 78.3664 15.6306 78.5389C15.5271 79.6184 16.5331 83.2674 15.6101 89.6464C15.3431 91.4894 15.0986 92.0814 15.0986 92.6904C15.0995 92.7259 15.1117 92.7601 15.1336 92.7881C15.1555 92.816 15.1858 92.8361 15.2201 92.8454C15.2543 92.8547 15.2907 92.8526 15.3236 92.8396C15.3566 92.8265 15.3845 92.8031 15.4031 92.7729C15.5892 92.3538 15.7212 91.9128 15.7961 91.4604C17.0826 85.9999 16.5421 79.6499 15.9876 78.4389Z" fill="#3A307F"/>
<path d="M14.5864 90.7914C13.3924 90.8294 12.2034 91.1134 11.0204 90.7709C10.4935 90.6019 10.0176 90.3032 9.63638 89.9021C9.25518 89.5011 8.98093 89.0107 8.83886 88.4759C8.18536 86.3544 9.18886 82.9104 10.0639 80.8759C11.0924 78.4759 11.7334 78.0759 12.0589 77.1079C12.1089 76.9579 11.9089 76.7884 11.7799 76.8909C11.294 77.3387 10.8962 77.8734 10.6069 78.4674C9.09536 81.0594 7.45686 85.6774 8.20686 88.4734C8.99536 91.4019 11.7384 92.0979 14.6159 91.0989C14.7829 91.0394 14.7674 90.7859 14.5864 90.7914Z" fill="#3A307F"/>
<path d="M35.8 60.892C35.6212 60.2523 35.3075 59.6583 34.88 59.15C34.742 58.9785 34.597 58.7545 34.384 58.685C34.3487 58.6722 34.3106 58.6695 34.2739 58.6773C34.2373 58.6851 34.2035 58.7031 34.1766 58.7292C34.1496 58.7552 34.1305 58.7884 34.1215 58.8248C34.1125 58.8611 34.1138 58.8993 34.1255 58.935C34.192 59.1655 34.3195 59.1605 34.756 59.788C34.9785 60.107 35.485 60.9315 35.299 61.2765C35.1915 61.4765 34.999 61.5145 34.4255 61.855C34.551 61.039 33.7335 59.587 32.8755 59.214C32.87 59.214 32.865 59.209 32.86 59.209C32.953 59.1625 33.046 59.116 33.1335 59.0795C33.3975 58.971 33.8085 58.926 33.9295 58.6455C33.9473 58.6015 33.9476 58.5524 33.9303 58.5082C33.913 58.464 33.8794 58.4282 33.8365 58.408C33.5625 58.253 33.109 58.534 32.8545 58.661C32.5832 58.771 32.3359 58.9325 32.126 59.1365C31.999 59.1826 31.8926 59.2724 31.826 59.39C31.7365 59.523 31.821 59.7775 32.0175 59.731C32.2806 59.6834 32.552 59.7221 32.7913 59.8413C33.0306 59.9605 33.225 60.1539 33.3455 60.3925C33.5955 60.7485 34.023 61.4625 33.811 61.917C33.7491 62.018 33.6526 62.0931 33.5395 62.1283C33.4264 62.1635 33.3043 62.1565 33.196 62.1085C32.6195 61.92 32.1895 60.8755 31.996 60.289C31.9255 60.1405 31.8902 59.9778 31.893 59.8135C31.925 59.659 31.687 59.54 31.598 59.6845C31.5065 59.8732 31.462 60.0813 31.4684 60.291C31.4747 60.5006 31.5317 60.7056 31.6345 60.8885C31.7807 61.3392 32.0046 61.7609 32.296 62.1345C32.73 62.651 33.583 62.9715 34.1205 62.47C34.5468 62.3157 34.9556 62.1165 35.34 61.876C35.5097 61.7804 35.6453 61.6342 35.7277 61.4577C35.8102 61.2813 35.8355 61.0835 35.8 60.892Z" fill="#3A307F"/>
<path d="M93.7117 7.08255C91.2472 7.49555 88.8117 8.16605 86.3777 8.73655C83.9437 9.30705 77.9317 10.7046 77.3777 10.8501C76.1497 11.1741 75.9462 11.857 75.3567 12.959C72.8021 17.751 70.6081 22.7266 68.7927 27.8445C62.9872 24.066 57.1977 19.8195 52.9202 16.3755C52.8616 16.3282 52.7867 16.306 52.7118 16.3137C52.6369 16.3214 52.568 16.3583 52.5202 16.4165C49.4482 21.2055 46.3707 25.9847 43.2877 30.754C38.1547 26.95 38.0502 26.15 37.7057 26.4695C32.5462 31.3 30.8302 32.3606 28.2782 34.6566C28.2466 34.6822 28.226 34.719 28.2206 34.7593C28.2153 34.7996 28.2255 34.8405 28.2493 34.8736C28.273 34.9066 28.3085 34.9293 28.3485 34.937C28.3885 34.9447 28.4299 34.9369 28.4642 34.9151C31.1192 33.1476 35.5537 29.195 37.8642 27.0535C39.5697 28.573 41.3552 29.998 43.1827 31.364C43.2108 31.387 43.2432 31.4041 43.2779 31.4144C43.3126 31.4247 43.3491 31.4281 43.3851 31.4242C43.4212 31.4203 43.4561 31.4094 43.4879 31.3919C43.5196 31.3745 43.5476 31.3509 43.5702 31.3225C46.5957 26.5225 49.7262 21.7815 52.8012 17.0166C58.2832 21.3891 63.7232 25.2785 68.7512 28.5215C68.7864 28.5492 68.8273 28.5687 68.8709 28.5786C68.9145 28.5884 68.9598 28.5884 69.0034 28.5784C69.0471 28.5685 69.0879 28.549 69.123 28.5212C69.1581 28.4935 69.1865 28.4582 69.2062 28.418C71.1096 23.0523 73.4145 17.8376 76.1012 12.818C76.2843 12.3214 76.621 11.896 77.0622 11.6036C77.596 11.3975 78.1506 11.2502 78.7162 11.164C78.7692 11.152 92.4877 7.97455 93.8237 7.56405C93.8793 7.54192 93.9251 7.50061 93.9528 7.4476C93.9805 7.39459 93.9883 7.3334 93.9747 7.27515C93.9612 7.21689 93.9272 7.16542 93.8789 7.13008C93.8307 7.09475 93.7714 7.07788 93.7117 7.08255Z" fill="#3A307F"/>
<path d="M37.0694 25.9734C36.9239 26.161 36.836 26.3868 36.8164 26.6234C36.7423 26.8227 36.7299 27.0396 36.7809 27.246C36.8319 27.4524 36.9439 27.6387 37.1024 27.7804C37.2608 27.9222 37.4583 28.0129 37.6691 28.0407C37.8799 28.0685 38.0941 28.0322 38.2839 27.9364C38.4213 27.86 38.542 27.7568 38.6389 27.6331C38.7359 27.5094 38.8072 27.3675 38.8486 27.2159C38.89 27.0643 38.9007 26.9059 38.88 26.75C38.8594 26.5942 38.8079 26.4441 38.7284 26.3084C38.4059 25.7544 37.5499 25.4039 37.0694 25.9734Z" fill="#EA3934"/>
<path d="M52.0325 15.595C51.887 15.7826 51.7989 16.0084 51.779 16.245C51.705 16.4443 51.6928 16.6612 51.7439 16.8676C51.795 17.0739 51.9071 17.2601 52.0656 17.4018C52.224 17.5435 52.4215 17.6342 52.6322 17.6621C52.8429 17.6899 53.0572 17.6537 53.247 17.558C53.3844 17.4815 53.5051 17.3784 53.602 17.2547C53.699 17.131 53.7703 16.9891 53.8117 16.8375C53.8531 16.6858 53.8638 16.5274 53.8431 16.3716C53.8225 16.2158 53.771 16.0656 53.6915 15.93C53.369 15.376 52.512 15.0255 52.0325 15.595Z" fill="#EA3934"/>
<path d="M77.818 10.8605C77.497 10.308 76.639 9.96051 76.1645 10.5245C76.0188 10.712 75.9308 10.9379 75.911 11.1745C75.8369 11.3738 75.8246 11.5908 75.8757 11.7972C75.9268 12.0036 76.0389 12.1897 76.1974 12.3315C76.3559 12.4732 76.5534 12.5638 76.7642 12.5916C76.975 12.6193 77.1893 12.5829 77.379 12.487C77.5157 12.4101 77.6357 12.3067 77.732 12.1829C77.8283 12.059 77.8989 11.9173 77.9398 11.7659C77.9806 11.6144 77.9909 11.4564 77.97 11.3009C77.9491 11.1455 77.8975 10.9958 77.818 10.8605Z" fill="#EA3934"/>
<path d="M68.2051 27.3325C68.0596 27.5202 67.9716 27.7459 67.9516 27.9825C67.8775 28.1818 67.8651 28.3988 67.9162 28.6052C67.9673 28.8116 68.0794 28.9977 68.2379 29.1395C68.3964 29.2812 68.5939 29.3718 68.8047 29.3996C69.0155 29.4273 69.2298 29.3909 69.4196 29.295C69.5569 29.2186 69.6776 29.1154 69.7746 28.9917C69.8715 28.868 69.9428 28.7261 69.9842 28.5745C70.0256 28.4228 70.0363 28.2645 70.0157 28.1086C69.9951 27.9528 69.9435 27.8027 69.8641 27.667C69.5416 27.114 68.6806 26.7645 68.2051 27.3325Z" fill="#EA3934"/>
<path d="M42.5428 30.1234C42.3971 30.3108 42.3091 30.5367 42.2898 30.7734C42.2158 30.9726 42.2035 31.1895 42.2546 31.3958C42.3057 31.6021 42.4177 31.7882 42.5762 31.9299C42.7346 32.0716 42.932 32.1623 43.1427 32.1901C43.3534 32.2179 43.5676 32.1816 43.7573 32.0859C43.8946 32.0094 44.0153 31.9062 44.1122 31.7825C44.2091 31.6588 44.2804 31.5169 44.3218 31.3653C44.3632 31.2137 44.3739 31.0553 44.3533 30.8995C44.3327 30.7437 44.2812 30.5936 44.2018 30.4579C43.8828 29.9059 43.0213 29.5579 42.5428 30.1234Z" fill="#EA3934"/>
<path d="M45.4889 56.7881C46.7759 59.2251 47.5974 61.3171 47.5049 64.1221C47.4549 65.6846 47.1599 66.1091 47.2549 66.6496C47.2909 66.8496 47.5494 66.8306 47.6474 66.6996C47.8602 66.3038 47.9737 65.8624 47.9784 65.4131C48.3784 62.4331 47.6544 58.8326 45.7404 56.6006C45.6184 56.4571 45.4104 56.6391 45.4889 56.7881Z" fill="#3A307F"/>
<path d="M43.6954 56.845C44.7089 58.3285 45.3954 59.4515 45.7424 61.2845C45.9209 62.222 45.8384 62.4925 46.0369 62.861C46.0519 62.8868 46.0734 62.9081 46.0993 62.923C46.1251 62.9378 46.1544 62.9456 46.1842 62.9456C46.214 62.9456 46.2432 62.9378 46.2691 62.923C46.2949 62.9081 46.3164 62.8868 46.3314 62.861C46.4761 62.3245 46.4636 61.7577 46.2954 61.228C45.9847 59.5035 45.1783 57.9068 43.9749 56.633C43.8319 56.4915 43.5759 56.6695 43.6954 56.845Z" fill="#3A307F"/>
<path d="M42.6669 58.3591C43.3932 59.3379 43.9026 60.4604 44.1609 61.6516C44.1982 62.0607 44.3085 62.4598 44.4864 62.8301C44.506 62.8618 44.5344 62.8872 44.5681 62.9032C44.6018 62.9191 44.6395 62.925 44.6764 62.9201C44.7134 62.9152 44.7482 62.8997 44.7766 62.8755C44.805 62.8513 44.8257 62.8193 44.8364 62.7836C44.8859 62.351 44.8291 61.9128 44.6709 61.5071C44.4093 60.2485 43.8034 59.0872 42.9209 58.1526C42.7909 58.0441 42.5499 58.2036 42.6669 58.3591Z" fill="#3A307F"/>
<path d="M41.5097 60.0341C42.4597 61.6886 43.6902 63.1396 44.0782 65.1406C44.1676 65.8002 44.2193 66.4645 44.2332 67.1301C44.2702 67.3526 44.5947 67.3161 44.6522 67.1301C44.7939 66.4532 44.7767 65.7527 44.6022 65.0836C44.2242 63.1131 42.9602 61.4336 41.7442 59.8531C41.6362 59.7156 41.4267 59.8896 41.5097 60.0341Z" fill="#3A307F"/>
<path d="M51.1901 58.6745C50.4111 61.455 44.7546 91.2925 44.5331 92.797C44.4831 93.1435 45.0076 93.3085 45.0831 92.947C45.5331 90.7285 45.8891 88.4865 46.2976 86.259C46.7061 84.0315 51.4476 60.069 51.6416 58.8035C51.6846 58.509 51.2726 58.38 51.1901 58.6745Z" fill="#3A307F"/>
<path d="M43.3339 64.644C43.1889 64.1634 43.002 63.6965 42.7754 63.2485C42.7754 63.3105 42.7799 63.3725 42.7809 63.4345C42.7964 64.3185 42.6999 64.644 43.3339 64.644Z" fill="#EA3934"/>
<path d="M47.9287 59.1189C48.5649 60.8756 48.8427 62.742 48.7457 64.6079C48.8387 64.6079 48.9317 64.6079 49.0197 64.6029C49.7667 61.5069 50.2622 59.6684 50.8232 57.7339C49.8617 58.1884 48.8952 58.6539 47.9287 59.1189Z" fill="#EA3934"/>
<path d="M69.3266 47.6086C68.8331 47.7695 68.3483 47.9559 67.8741 48.1671C67.3891 48.3966 50.5801 56.2766 47.3291 57.8786C47.3651 57.9476 47.5531 58.3156 47.5931 58.4216C48.4661 57.9926 67.4401 49.0506 67.9826 48.7926C68.5151 48.5391 69.0011 48.2451 69.5076 47.9396C69.7041 47.8211 69.5176 47.5416 69.3266 47.6086Z" fill="#3A307F"/>
<path d="M70.6388 43.9185C70.3803 42.7721 69.7295 41.752 68.7988 41.0345C68.3354 40.6538 67.804 40.3644 67.2328 40.1815C66.4938 39.99 65.7858 40.4405 65.1328 40.7245C55.5828 44.8845 49.2138 47.563 43.3063 50.5745C41.7453 51.3705 35.5898 54.689 35.2228 54.9005C34.8093 55.1385 34.4328 55.414 34.0338 55.6655C34.0147 55.6772 33.9993 55.6941 33.9894 55.7142C33.9794 55.7342 33.9752 55.7567 33.9773 55.779C33.1273 55.8465 32.5358 56.8695 32.6798 57.6965C32.7008 57.8155 32.8798 57.862 32.9298 57.733C33.0963 57.268 33.1113 56.767 33.5348 56.4355C33.9898 56.0795 34.4563 56.3355 34.8528 56.6425C35.6128 57.2763 36.2205 58.073 36.6308 58.9735C37.1619 59.8895 37.4567 60.9232 37.4888 61.9815C37.4733 62.4205 37.4213 63.105 36.8388 63.0815C36.594 63.0598 36.3616 62.9643 36.1723 62.8075C35.9913 62.6675 35.8723 62.4715 35.7018 62.3265C35.6683 62.3016 35.6283 62.2869 35.5867 62.2841C35.5451 62.2813 35.5035 62.2906 35.467 62.3108C35.4304 62.3309 35.4005 62.3612 35.3807 62.398C35.3609 62.4347 35.3521 62.4764 35.3553 62.518C35.5453 63.461 37.3143 64.1405 37.8363 62.947C39.1042 62.6235 40.3249 62.1371 41.4678 61.5C41.3577 61.3374 41.2575 61.1682 41.1678 60.9935C40.1253 61.5401 39.0558 62.0336 37.9633 62.472C38.3363 59.982 35.9573 56.2605 34.4073 55.815H34.4018C34.6658 55.7065 34.9343 55.608 35.1878 55.479C45.5413 50.212 42.6058 51.058 66.1778 40.929C66.3385 40.8367 66.5169 40.7793 66.7012 40.7606C66.8856 40.7419 67.0719 40.7623 67.2478 40.8205C68.1421 41.1787 68.9056 41.8016 69.4359 42.6059C69.9662 43.4102 70.238 44.3574 70.2148 45.3205C70.1848 45.987 70.063 46.6462 69.8528 47.2795C69.7443 47.6515 70.3028 47.9 70.4108 47.5295C70.7923 46.2205 70.9948 45.343 70.6388 43.9185Z" fill="#3A307F"/>
<path d="M29.2908 62.4166C29.2908 62.4377 29.295 62.4585 29.303 62.478C29.3111 62.4974 29.3229 62.5151 29.3378 62.5299C29.3528 62.5448 29.3705 62.5566 29.3899 62.5646C29.4094 62.5726 29.4303 62.5767 29.4513 62.5766C29.9628 62.5741 29.9513 61.8116 29.8178 61.4766C29.5923 60.9176 29.0273 60.6391 28.7118 60.1531C28.6618 60.1031 28.6163 59.7256 28.1643 58.6856C28.7433 57.4111 28.1213 55.8246 26.3708 55.4136C25.4502 55.0645 24.4565 54.9526 23.4813 55.0881C19.8813 55.5491 18.0688 58.4026 18.6593 60.8716C18.1693 61.3443 17.8243 61.947 17.6649 62.609C17.5054 63.2709 17.5382 63.9646 17.7593 64.6086C17.39 64.7096 17.0453 64.8849 16.746 65.1237C16.4468 65.3625 16.1994 65.6598 16.019 65.9974C15.8385 66.3351 15.7288 66.706 15.6965 67.0874C15.6643 67.4689 15.7101 67.853 15.8313 68.2161C15.041 68.4793 14.3449 68.968 13.8289 69.6219C13.3128 70.2757 12.9992 71.0663 12.9268 71.8961C12.3382 71.9741 11.7775 72.1948 11.2935 72.5388C10.8096 72.8828 10.417 73.3398 10.1498 73.8701C10.0528 74.0671 10.0063 74.2841 9.91231 74.4801C9.72081 74.8771 9.37031 74.5561 6.85731 75.2706C6.61929 75.309 6.3931 75.401 6.19581 75.5396C5.79831 75.9121 6.16981 76.4396 6.38181 76.7956C6.67131 77.2816 6.98481 77.7481 7.31731 78.2011C7.35877 78.2664 7.42323 78.3138 7.49794 78.3339C7.57265 78.354 7.65218 78.3453 7.72081 78.3096C8.4423 77.9955 9.07703 77.5113 9.57081 76.8986C9.80381 76.6096 9.99981 76.2521 10.3928 76.1856C10.7598 76.1231 11.1318 76.1956 11.5038 76.1356C12.1154 76.0189 12.6776 75.7208 13.1174 75.2801C13.5572 74.8394 13.854 74.2764 13.9693 73.6646C14.4297 73.6681 14.8858 73.5762 15.3089 73.3947C15.732 73.2132 16.1129 72.9461 16.4276 72.61C16.7423 72.274 16.984 71.8765 17.1375 71.4424C17.291 71.0084 17.3529 70.5473 17.3193 70.0881C17.7088 70.0654 18.0897 69.964 18.4389 69.7898C18.7881 69.6157 19.0983 69.3726 19.3508 69.0751C19.8897 68.4103 20.2681 67.6303 20.4568 66.7956C21.4317 67.0125 22.4497 66.924 23.3726 66.5422C24.2954 66.1603 25.0783 65.5035 25.6148 64.6611C25.8651 64.3288 26.0061 63.927 26.0183 63.5111C26.1904 63.5648 26.3715 63.5833 26.5508 63.5655C26.7302 63.5477 26.9041 63.494 27.0623 63.4076C27.8253 63.0046 27.6278 62.4546 27.3363 62.5291C27.1188 62.5846 27.0208 62.8181 26.8298 62.9321C26.6441 63.0335 26.4304 63.0712 26.2212 63.0395C26.0121 63.0078 25.8191 62.9084 25.6718 62.7566C25.5179 62.5608 25.4301 62.3212 25.4211 62.0723C25.4121 61.8233 25.4824 61.578 25.6218 61.3716C25.7295 61.2439 25.8816 61.1617 26.0475 61.1416C26.2133 61.1214 26.3807 61.1649 26.5158 61.2631C26.8048 61.5271 27.2323 61.1046 26.9448 60.8341C26.8277 60.723 26.6995 60.6242 26.5623 60.5391C27.0805 60.1472 27.5357 59.6785 27.9123 59.1491C28.4587 60.8749 28.7936 62.6606 28.9098 64.4671C28.9223 65.3346 28.6598 65.6846 27.6128 65.6561C27.2016 65.6047 26.7941 65.5271 26.3928 65.4236C26.3385 65.4106 26.2812 65.4173 26.2314 65.4426C26.1815 65.4678 26.1422 65.5099 26.1205 65.5614C26.0988 65.6129 26.096 65.6704 26.1127 65.7237C26.1295 65.7771 26.1646 65.8227 26.2118 65.8526C26.6007 66.0708 27.0344 66.1972 27.4796 66.2222C27.9248 66.2473 28.3699 66.1703 28.7808 65.9971C29.5398 65.5721 29.4933 64.6471 29.4268 63.8971C29.3427 62.8978 29.1755 61.9072 28.9268 60.9356C29.0268 61.0546 29.1238 61.1676 29.2213 61.2976C29.6998 61.9371 29.3303 62.1076 29.2908 62.4166ZM18.6538 64.2206C18.3718 64.5026 17.8468 63.5556 18.1783 62.8921C18.2403 62.7681 18.4013 62.8421 18.4113 62.9541C18.4138 63.1503 18.4346 63.3458 18.4733 63.5381C18.5368 63.7706 18.7998 64.1051 18.6538 64.2206ZM20.4733 57.2276C20.3673 57.5711 19.8988 57.9651 19.8013 58.9021C19.8131 59.0968 19.7788 59.2916 19.7013 59.4706C19.6886 59.4914 19.6707 59.5086 19.6494 59.5205C19.6282 59.5324 19.6042 59.5387 19.5798 59.5387C19.5554 59.5387 19.5315 59.5324 19.5102 59.5205C19.4889 59.5086 19.471 59.4914 19.4583 59.4706C19.2233 59.1521 19.4493 58.4996 19.5773 58.1681C19.7183 57.8016 19.9458 57.2711 20.3318 57.1136C20.3998 57.0866 20.4998 57.1401 20.4733 57.2276Z" fill="#3A307F"/>
</svg>
