<svg width="100" height="100" viewBox="0 0 100 100" fill="none" xmlns="http://www.w3.org/2000/svg">
<path d="M60.5996 44.0431C61.0296 44.1351 61.6496 44.2651 61.5996 44.5356C61.5741 44.7986 61.2181 44.7446 60.7206 44.7156C60.4166 44.6966 60.2851 44.6696 60.1306 44.6501C60.0821 44.6445 60.0355 44.6284 59.9937 44.6031C59.952 44.5778 59.9162 44.5438 59.8888 44.5035C59.8614 44.4631 59.843 44.4173 59.8348 44.3692C59.8267 44.3211 59.829 44.2718 59.8416 44.2246C60.082 43.1856 60.4125 42.1694 60.8291 41.1876C60.8791 41.0936 61.2951 40.2876 61.5756 40.4311C61.9161 40.6246 61.2601 41.4961 60.5996 44.0431Z" fill="#3A307F"/>
<path d="M63.6105 40.5774C64.4295 40.2694 64.9845 41.1849 65.2715 40.9619C65.5165 40.7939 65.188 39.9299 64.116 39.8214C63.0755 39.7164 62.583 40.6304 62.866 40.8289C63.016 40.9364 63.0185 40.8524 63.6105 40.5774Z" fill="#3A307F"/>
<path d="M60.3604 46.3569C60.4058 46.7746 60.5197 47.1821 60.6973 47.5629C60.8097 47.7771 60.9711 47.9618 61.1682 48.102C61.3654 48.2422 61.5928 48.334 61.8321 48.3698C62.0714 48.4056 62.3157 48.3844 62.5453 48.3081C62.7748 48.2317 62.9832 48.1023 63.1534 47.9304C63.4237 47.6184 63.6208 47.25 63.7304 46.8521C63.8401 46.4541 63.8593 46.0367 63.7868 45.6304C62.6244 45.7999 61.5004 46.0929 60.3604 46.3569Z" fill="#D4D2E1"/>
<path d="M63.5503 45.4238C63.5597 45.3768 63.585 45.3344 63.6219 45.3038C63.6589 45.2733 63.7052 45.2563 63.7531 45.2559C63.8011 45.2554 63.8477 45.2714 63.8853 45.3013C63.9228 45.3311 63.9489 45.3729 63.9593 45.4198C64.4763 47.0898 63.5003 48.9458 61.7803 48.7148C60.8563 48.5913 60.3773 47.9488 60.1428 47.0648C60.0796 46.847 60.0354 46.6242 60.0108 46.3988C60.0018 46.3142 60.0236 46.2292 60.0722 46.1594C60.1207 46.0896 60.1928 46.0397 60.2753 46.0188C61.3477 45.726 62.4434 45.5269 63.5503 45.4238ZM63.5743 45.9098C62.7843 46.1003 62.8943 46.1098 60.7568 46.6188C60.7711 46.7077 60.7913 46.7955 60.8173 46.8818C60.9713 47.4723 61.2298 47.9353 61.8768 48.0238C62.9763 48.1763 63.5243 47.0048 63.5748 45.9098H63.5743Z" fill="#3A307F"/>
<path d="M39.0288 74.0216C37.4133 73.5311 35.5133 74.2941 35.5133 75.9716C35.4792 75.9928 35.4514 76.0229 35.433 76.0586C35.4146 76.0944 35.4062 76.1344 35.4086 76.1745C35.4111 76.2146 35.4243 76.2533 35.447 76.2865C35.4696 76.3197 35.5008 76.3462 35.5373 76.3631C35.9848 76.6514 36.5215 76.7679 37.0482 76.6911C37.575 76.6144 38.0561 76.3496 38.4028 75.9456C38.7594 75.5122 39.0439 75.0241 39.2453 74.5001C39.2651 74.4547 39.2752 74.4057 39.2749 74.3562C39.2746 74.3067 39.2639 74.2578 39.2435 74.2127C39.2231 74.1676 39.1934 74.1272 39.1564 74.0943C39.1194 74.0614 39.0759 74.0366 39.0288 74.0216Z" fill="#D4D2E1"/>
<path d="M36.684 78.1632C36.6595 78.1296 36.6266 78.103 36.5886 78.0862C36.5506 78.0693 36.5089 78.0628 36.4675 78.0672C36.4395 78.0551 36.4092 78.0492 36.3787 78.0499C36.3481 78.0506 36.3181 78.0579 36.2907 78.0713C36.2632 78.0847 36.239 78.1039 36.2197 78.1275C36.2003 78.1511 36.1863 78.1786 36.1785 78.2082C36.0872 78.4685 35.8969 78.6825 35.649 78.8037C35.4641 78.9133 35.2451 78.951 35.0341 78.9095C34.8231 78.8679 34.6348 78.7501 34.5052 78.5785C34.3756 78.4069 34.3138 78.1935 34.3315 77.9792C34.3493 77.7649 34.4454 77.5646 34.6015 77.4167C34.6648 77.3655 34.7334 77.3213 34.806 77.2847C34.8702 77.2513 34.9222 77.1985 34.9546 77.1339C34.987 77.0693 34.9982 76.996 34.9865 76.9247C34.9125 76.4782 34.219 76.6337 33.807 76.7132C31.9365 77.1012 30.8165 79.6552 32.085 81.3132C32.3491 81.6372 32.6823 81.8981 33.0602 82.0765C33.4382 82.255 33.8513 82.3466 34.2693 82.3446C34.6873 82.3426 35.0995 82.247 35.4758 82.0649C35.852 81.8828 36.1827 81.6188 36.4435 81.2922C36.8288 80.8732 37.062 80.3368 37.1056 79.7693C37.1493 79.2018 37.0008 78.6361 36.684 78.1632Z" fill="#D4D2E1"/>
<path d="M44.8569 31.2562C44.7073 31.1838 44.5789 31.0741 44.4839 30.9377C44.4148 30.8371 44.3758 30.7189 44.3715 30.597C44.3672 30.4751 44.3977 30.3544 44.4594 30.2492C44.5315 30.1266 44.629 30.0209 44.7452 29.939C44.8614 29.8571 44.9938 29.8009 45.1334 29.7742C45.1459 29.7742 45.1459 29.7712 45.1459 29.7712V29.7902C46.0111 29.5486 46.917 29.489 47.8064 29.6152C47.9362 29.6404 48.0573 29.6986 48.158 29.7841C48.2588 29.8697 48.3359 29.9797 48.3818 30.1037C48.4278 30.2276 48.441 30.3613 48.4204 30.4918C48.3998 30.6224 48.3459 30.7455 48.2639 30.8492C48.3955 31.0122 48.4639 31.2173 48.4564 31.4267C48.3734 32.5417 46.6524 32.6702 45.6034 32.3637C45.4816 32.3401 45.3656 32.2928 45.2621 32.2244C45.1586 32.1559 45.0697 32.0677 45.0003 31.9649C44.931 31.862 44.8826 31.7464 44.858 31.6248C44.8334 31.5032 44.833 31.3779 44.8569 31.2562ZM45.2299 30.2012C45.2299 30.2672 45.2344 30.1457 45.0014 30.3807C44.8084 30.6222 45.1614 30.7242 45.4709 30.7267C45.5436 30.7302 45.6131 30.7571 45.6693 30.8033C45.7255 30.8494 45.7653 30.9125 45.7828 30.983C45.8004 31.0536 45.7948 31.128 45.7668 31.1951C45.7388 31.2622 45.6899 31.3185 45.6274 31.3557C45.5429 31.4027 45.4829 31.4387 45.5069 31.4932C45.6639 31.9212 47.6939 31.9392 47.7569 31.3932C47.7569 31.3057 47.6844 31.2332 47.5759 31.1872C47.5123 31.1605 47.4581 31.1156 47.4199 31.0582C47.3817 31.0008 47.3613 30.9334 47.3613 30.8644C47.3613 30.7955 47.3817 30.7281 47.4199 30.6706C47.4581 30.6132 47.5123 30.5684 47.5759 30.5417C47.6604 30.5062 47.7329 30.4417 47.7329 30.3697C47.7344 30.1197 45.5429 30.1927 45.2299 30.2002V30.2012Z" fill="#3A307F"/>
<path d="M45.7569 33.3523C45.802 33.4167 45.8547 33.4755 45.9139 33.5273C46.3273 33.698 46.7879 33.717 47.2139 33.5808C47.3141 33.5367 47.4074 33.4785 47.4909 33.4078C47.5208 33.4016 47.5492 33.3895 47.5743 33.3721C47.5994 33.3547 47.6208 33.3324 47.6371 33.3066C47.6534 33.2808 47.6643 33.2519 47.6692 33.2218C47.6741 33.1916 47.6728 33.1608 47.6655 33.1311C47.6582 33.1015 47.645 33.0736 47.6267 33.0492C47.6083 33.0247 47.5853 33.0043 47.5588 32.989C47.5324 32.9737 47.5032 32.9639 47.4728 32.9601C47.4425 32.9564 47.4118 32.9588 47.3824 32.9673C47.2774 32.9343 47.1674 32.9199 47.0574 32.9248C46.7987 32.9656 46.536 32.9753 46.2749 32.9538C46.0844 32.9238 46.0399 32.9843 45.9499 32.9843C45.8998 32.9586 45.8417 32.9534 45.7878 32.9697C45.7339 32.986 45.6884 33.0226 45.6609 33.0718C45.6365 33.1217 45.633 33.1793 45.651 33.2318C45.669 33.2844 45.7071 33.3277 45.7569 33.3523Z" fill="#3A307F"/>
<path d="M44.2284 29.5094C43.6765 29.0612 43.2665 28.4625 43.0484 27.7859C42.8468 27.2306 42.7727 26.6371 42.8314 26.0494C42.8816 25.5704 43.031 25.1072 43.2703 24.6892C43.5095 24.2713 43.8332 23.9078 44.2208 23.622C44.6084 23.3361 45.0513 23.1343 45.5213 23.0292C45.9913 22.9242 46.478 22.9183 46.9504 23.0119C47.7234 23.1973 48.4116 23.637 48.9048 24.2605C49.398 24.8839 49.6674 25.6549 49.6699 26.4499C49.6374 27.1019 49.4062 27.7285 49.0074 28.2454C48.786 28.5623 48.5273 28.8516 48.2369 29.1069C48.1937 29.146 48.1674 29.2003 48.1634 29.2585C48.1593 29.3166 48.1779 29.374 48.2152 29.4188C48.2524 29.4636 48.3056 29.4922 48.3635 29.4987C48.4214 29.5053 48.4796 29.4892 48.5259 29.4539C49.4984 28.6844 50.2619 27.7124 50.3439 26.4844C50.3588 25.5244 50.0444 24.5884 49.453 23.8321C48.8617 23.0758 48.0291 22.5449 47.0939 22.3279C46.1497 22.1363 45.1682 22.2797 44.3183 22.7335C43.4684 23.1872 42.8031 23.923 42.437 24.8141C42.0708 25.7053 42.0265 26.6962 42.3119 27.6164C42.5972 28.5366 43.1943 29.3287 44.0004 29.8564C44.0463 29.8826 44.1006 29.8904 44.1521 29.8781C44.2035 29.8657 44.2484 29.8342 44.2775 29.79C44.3065 29.7458 44.3176 29.6921 44.3085 29.64C44.2994 29.5878 44.2707 29.5411 44.2284 29.5094Z" fill="#3A307F"/>
<path d="M46.1778 26.1276L47.7188 24.9671C47.7749 24.9254 47.8421 24.9015 47.9119 24.8983C47.9817 24.8952 48.0508 24.913 48.1104 24.9494C48.1699 24.9859 48.2172 25.0393 48.2462 25.1029C48.2752 25.1664 48.2844 25.2372 48.2728 25.3061C47.8873 27.4136 48.2323 25.7706 47.6108 28.6456C47.6071 28.6749 47.5976 28.7033 47.5828 28.7289C47.5681 28.7545 47.5483 28.7769 47.5247 28.7947C47.5011 28.8126 47.4742 28.8255 47.4455 28.8328C47.4169 28.8401 47.3871 28.8415 47.3578 28.8371C47.3277 28.8342 47.2985 28.8251 47.2721 28.8103C47.2458 28.7955 47.2228 28.7754 47.2046 28.7512C47.1864 28.727 47.1735 28.6993 47.1667 28.6698C47.1598 28.6404 47.1592 28.6098 47.1648 28.5801C47.2114 27.7321 47.3038 26.8871 47.4418 26.0491L46.4188 26.8186C46.3649 26.8615 46.2994 26.8873 46.2307 26.8927C46.162 26.8982 46.0933 26.883 46.0333 26.8491C45.7418 26.6926 45.4553 26.5326 45.1668 26.3726C45.4403 27.9636 45.2843 26.8146 45.5878 28.8871C45.5997 28.9409 45.59 28.9972 45.5609 29.044C45.5317 29.0907 45.4854 29.1241 45.4318 29.1371C45.3774 29.1489 45.3206 29.139 45.2734 29.1096C45.2262 29.0802 45.1922 29.0336 45.1788 28.9796C44.785 27.941 44.5141 26.8598 44.3718 25.7581C44.3638 25.6941 44.3739 25.6292 44.401 25.5706C44.4281 25.5121 44.4711 25.4624 44.5252 25.4272C44.5792 25.3919 44.642 25.3726 44.7065 25.3713C44.7709 25.3701 44.8345 25.387 44.8898 25.4201C45.2583 25.6376 45.5943 25.8176 46.1778 26.1276Z" fill="#EA3934"/>
<path d="M39.0035 28.5643C39.425 28.5168 39.846 28.4743 40.2675 28.4053C40.521 28.3623 41.0265 28.2413 41.002 27.9838C40.918 27.5488 39.6125 27.7803 39.172 27.8413C38.8745 27.8808 37.9025 28.0098 37.98 28.3728C38.0095 28.6498 38.728 28.5948 39.0035 28.5643Z" fill="#EA3934"/>
<path d="M41.1333 23.712C41.2103 23.758 41.5933 23.857 41.7113 23.6865C41.8668 23.4185 41.4709 23.1095 41.2059 22.9465C40.2789 22.379 39.7903 23.0715 41.1333 23.712Z" fill="#EA3934"/>
<path d="M45.4318 19.9568C45.4818 20.3068 45.5568 21.7468 45.9853 21.6938C46.4138 21.6408 46.1593 20.0783 46.0938 19.5643C46.0573 19.2783 45.9388 18.1018 45.5518 18.1603C45.1648 18.2188 45.3763 19.5558 45.4318 19.9568Z" fill="#EA3934"/>
<path d="M51.5359 22.2609C51.7859 22.0609 52.5359 21.5019 52.2819 21.2134C52.1294 21.0094 51.7099 21.2749 51.4874 21.4239C51.0744 21.7139 49.6604 22.6899 49.9829 23.0739C50.2279 23.3639 51.1954 22.5299 51.5359 22.2609Z" fill="#EA3934"/>
<path d="M53.7624 26.6498C54.0999 26.6128 54.9624 26.5253 54.9304 26.1843C54.8874 25.7428 53.2584 25.9938 52.7274 26.0628C52.464 26.0867 52.2025 26.1288 51.9449 26.1888C51.8014 26.2293 51.2324 26.4118 51.2824 26.6443C51.3599 27.0078 52.4299 26.8048 53.7624 26.6498Z" fill="#EA3934"/>
<path d="M58.4215 78.7964C58.5068 78.5309 58.6069 78.2703 58.7215 78.0159C58.9182 77.4268 59.2873 76.9103 59.781 76.5334C60.0178 76.3919 60.2823 76.3032 60.5565 76.2732C60.8308 76.2433 61.1082 76.2729 61.37 76.3599C61.4249 76.3875 61.4885 76.3925 61.5471 76.3738C61.6057 76.3551 61.6546 76.3142 61.6835 76.2599C61.7091 76.205 61.7121 76.1423 61.6918 76.0852C61.6715 76.0281 61.6295 75.9813 61.575 75.9549C59.9 74.7324 57.803 76.8509 58.0115 78.7619C58.0069 78.8163 58.0241 78.8703 58.0593 78.912C58.0945 78.9536 58.1449 78.9796 58.1992 78.9842C58.2536 78.9888 58.3076 78.9716 58.3492 78.9363C58.3909 78.9011 58.4169 78.8508 58.4215 78.7964Z" fill="#3A307F"/>
<path d="M60.6132 79.9828C60.6827 79.7698 60.9157 79.2273 60.9377 79.1773C61.0793 78.6915 61.3205 78.2405 61.646 77.8531C61.9715 77.4657 62.3741 77.1504 62.8282 76.9273C63.0465 76.8279 63.2773 76.7587 63.5142 76.7218C63.5743 76.7234 63.6326 76.701 63.6762 76.6597C63.7198 76.6183 63.7451 76.5613 63.7467 76.5013C63.7483 76.4412 63.726 76.383 63.6846 76.3394C63.6433 76.2958 63.5863 76.2704 63.5262 76.2688C63.1479 76.2061 62.7598 76.2419 62.3993 76.3727C62.0388 76.5034 61.718 76.7247 61.4677 77.0153C61.0667 77.386 60.7472 77.8361 60.5296 78.337C60.312 78.8379 60.201 79.3786 60.2037 79.9248C60.1986 79.9523 60.1991 79.9805 60.2051 80.0078C60.2112 80.0351 60.2227 80.0609 60.239 80.0836C60.2553 80.1063 60.276 80.1255 60.3 80.14C60.3239 80.1545 60.3505 80.164 60.3782 80.1679C60.4059 80.1718 60.434 80.1701 60.461 80.1628C60.488 80.1555 60.5133 80.1429 60.5353 80.1256C60.5572 80.1083 60.5755 80.0867 60.5889 80.0622C60.6023 80.0376 60.6106 80.0106 60.6132 79.9828Z" fill="#3A307F"/>
<path d="M62.9239 80.279C62.9714 80.186 63.1844 79.8525 63.2239 79.7925C63.556 79.1814 63.992 78.6328 64.5124 78.1715C64.9573 77.8404 65.4881 77.6444 66.0414 77.607C66.1011 77.6158 66.1619 77.6013 66.2112 77.5665C66.2604 77.5317 66.2944 77.4792 66.3059 77.42C66.3123 77.3603 66.2961 77.3005 66.2604 77.2523C66.2248 77.204 66.1723 77.1709 66.1134 77.1595C65.9194 77.097 65.7173 77.0633 65.5134 77.0595C64.4459 77.032 62.7309 78.4355 62.5279 80.1505C62.5194 80.1763 62.5161 80.2036 62.5182 80.2308C62.5202 80.258 62.5276 80.2844 62.5399 80.3087C62.5522 80.333 62.5692 80.3546 62.5899 80.3724C62.6106 80.3901 62.6346 80.4035 62.6604 80.412C62.713 80.4284 62.77 80.4237 62.8191 80.3989C62.8683 80.374 62.9059 80.331 62.9239 80.279Z" fill="#3A307F"/>
<path d="M65.4169 81.4746C65.7759 80.908 66.1868 80.376 66.6444 79.8856C66.9036 79.5959 67.227 79.3709 67.5886 79.2283C67.9503 79.0858 68.3402 79.0297 68.7274 79.0646C69.7714 79.0776 71.8644 79.6216 74.0124 78.8646C74.7913 78.6036 75.4746 78.1162 75.9749 77.4646C76.0104 77.4166 76.0264 77.357 76.0196 77.2977C76.0129 77.2383 75.9838 77.1838 75.9384 77.1451C75.916 77.1261 75.89 77.1118 75.8619 77.1031C75.8339 77.0944 75.8044 77.0914 75.7752 77.0944C75.746 77.0973 75.7176 77.1061 75.6919 77.1202C75.6662 77.1344 75.6435 77.1535 75.6254 77.1766C74.9702 77.786 74.1566 78.1985 73.2779 78.3671C69.4379 79.2441 67.1399 76.5471 65.0554 81.2776C65.0424 81.3013 65.0343 81.3274 65.0314 81.3543C65.0286 81.3812 65.031 81.4083 65.0387 81.4343C65.0463 81.4602 65.059 81.4844 65.0759 81.5054C65.0929 81.5264 65.1139 81.5439 65.1376 81.5569C65.1614 81.5698 65.1874 81.5779 65.2143 81.5808C65.2412 81.5837 65.2683 81.5812 65.2943 81.5736C65.3202 81.5659 65.3444 81.5533 65.3654 81.5363C65.3864 81.5193 65.4039 81.4983 65.4169 81.4746Z" fill="#3A307F"/>
<path d="M65.1034 71.4455C65.5282 71.6645 65.9279 71.9292 66.2954 72.235C66.5379 72.385 66.8454 72.6445 67.0419 72.4605C67.2029 72.2885 66.8669 71.866 66.8254 71.8145C66.4763 71.4507 66.0643 71.1531 65.6094 70.936C65.3169 70.8065 64.7729 70.6995 64.6944 70.936C64.6504 71.0735 64.6939 71.1605 65.1034 71.4455Z" fill="#3A307F"/>
<path d="M67.2215 70.2501C68.014 71.1671 68.3105 72.1206 68.6665 71.9546C69.1775 71.7401 68.2165 70.2981 67.7755 69.8436C67.532 69.5936 67.0375 69.2676 66.8725 69.4671C66.737 69.6326 67.0705 70.1001 67.2215 70.2501Z" fill="#3A307F"/>
<path d="M64.5373 65.123C65.4873 65.273 65.4638 65.2045 67.3543 65.0675C68.1055 65.0858 68.8563 65.0211 69.5933 64.8745C69.6494 64.8652 69.6999 64.8353 69.7349 64.7905C69.7699 64.7458 69.7869 64.6895 69.7823 64.6329C69.7778 64.5763 69.7521 64.5234 69.7105 64.4848C69.6688 64.4462 69.6141 64.4246 69.5573 64.4245C68.8106 64.3371 68.0573 64.3193 67.3073 64.3715C66.3709 64.3841 65.4385 64.4974 64.5263 64.7095C64.4716 64.7119 64.4199 64.7351 64.3817 64.7745C64.3436 64.8138 64.322 64.8662 64.3213 64.921C64.3219 64.9485 64.3281 64.9756 64.3393 65.0008C64.3506 65.0259 64.3667 65.0485 64.3868 65.0674C64.407 65.0862 64.4306 65.1008 64.4565 65.1103C64.4823 65.1199 64.5098 65.1242 64.5373 65.123Z" fill="#3A307F"/>
<path d="M56.2666 83.5347C56.2658 84.4318 56.3423 85.3273 56.4951 86.2112C56.6411 86.6867 56.6366 86.8932 56.8801 86.8742C56.9397 86.8686 56.9946 86.8398 57.033 86.7939C57.0714 86.748 57.0901 86.6888 57.0851 86.6292C57.1391 85.9262 57.1851 86.5497 57.0126 84.6857C56.9326 83.8232 56.9376 82.7317 56.5911 82.7217C56.3496 82.7147 56.2666 83.3967 56.2666 83.5347Z" fill="#3A307F"/>
<path d="M63.7766 43.0897C63.9291 43.0994 64.0806 43.0247 64.1979 42.8822C64.3151 42.7397 64.3885 42.541 64.4019 42.3297C64.4153 42.1185 64.3676 41.9121 64.2692 41.7559C64.1709 41.5998 64.03 41.5066 63.8775 41.4969C63.802 41.4921 63.726 41.508 63.6537 41.5436C63.5814 41.5792 63.5143 41.6339 63.4563 41.7044C63.3982 41.775 63.3503 41.8601 63.3153 41.9549C63.2803 42.0497 63.2588 42.1523 63.2522 42.2569C63.2456 42.3615 63.2539 42.466 63.2767 42.5645C63.2994 42.6629 63.3362 42.7534 63.3849 42.8307C63.4336 42.9081 63.4933 42.9707 63.5605 43.0152C63.6277 43.0596 63.7011 43.0849 63.7766 43.0897Z" fill="#3A307F"/>
<path d="M59.1396 64.1438C59.1396 64.2385 59.1559 64.3323 59.1876 64.4198C59.2193 64.5072 59.2657 64.5867 59.3242 64.6537C59.3827 64.7206 59.4521 64.7737 59.5286 64.81C59.605 64.8462 59.6869 64.8648 59.7696 64.8648C59.8524 64.8648 59.9343 64.8462 60.0107 64.81C60.0872 64.7737 60.1566 64.7206 60.2151 64.6537C60.2736 64.5867 60.32 64.5072 60.3517 64.4198C60.3834 64.3323 60.3997 64.2385 60.3997 64.1438C60.3997 64.0492 60.3834 63.9554 60.3517 63.8679C60.32 63.7805 60.2736 63.701 60.2151 63.634C60.1566 63.5671 60.0872 63.514 60.0107 63.4777C59.9343 63.4415 59.8524 63.4229 59.7696 63.4229C59.6869 63.4229 59.605 63.4415 59.5286 63.4777C59.4521 63.514 59.3827 63.5671 59.3242 63.634C59.2657 63.701 59.2193 63.7805 59.1876 63.8679C59.1559 63.9554 59.1396 64.0492 59.1396 64.1438Z" fill="#3A307F"/>
<path d="M58.5742 70.2059C58.5742 70.3971 58.6406 70.5805 58.7587 70.7157C58.8769 70.8509 59.0371 70.9269 59.2042 70.9269C59.3713 70.9269 59.5315 70.8509 59.6497 70.7157C59.7678 70.5805 59.8342 70.3971 59.8342 70.2059C59.8342 70.0146 59.7678 69.8313 59.6497 69.696C59.5315 69.5608 59.3713 69.4849 59.2042 69.4849C59.0371 69.4849 58.8769 69.5608 58.7587 69.696C58.6406 69.8313 58.5742 70.0146 58.5742 70.2059Z" fill="#3A307F"/>
<path d="M26.2052 27.2998C26.2527 27.3011 26.2993 27.2873 26.3383 27.2603C26.3773 27.2334 26.4067 27.1947 26.4222 27.1498H26.3997C27.5327 23.4148 30.8812 21.0428 32.1547 17.6498C32.5982 16.4259 32.7443 15.114 32.5809 13.8225C32.4175 12.531 31.9495 11.2968 31.2152 10.2218C31.1865 10.1737 31.1461 10.1337 31.0977 10.1054C31.0494 10.0771 30.9947 10.0614 30.9387 10.0598C27.7507 9.93382 13.5387 10.0728 10.5927 10.8068C10.5475 10.8184 10.5051 10.8389 10.4679 10.8671C10.4308 10.8954 10.3996 10.9307 10.3763 10.9712C10.353 11.0116 10.3381 11.0563 10.3323 11.1026C10.3265 11.1489 10.3301 11.1959 10.3427 11.2408C11.5062 15.5628 9.09623 17.1908 6.64673 20.7088C5.28054 22.575 4.44437 24.7758 4.22673 27.0783C4.2195 27.1665 4.24671 27.254 4.30265 27.3225C4.35859 27.3911 4.43891 27.4353 4.52673 27.4458C6.69673 27.6528 8.87173 27.4613 11.0637 27.4278C15.0997 27.3633 26.2052 27.3498 26.2052 27.2998ZM30.7317 10.7358C27.1022 10.6123 14.5387 10.8008 11.1082 11.4158C12.1582 15.8158 9.51823 17.7848 7.20823 21.1028C5.99773 22.784 5.21656 24.7357 4.93273 26.7878C6.95423 26.9458 9.05523 26.7683 11.0482 26.7498C12.7337 26.7343 25.2302 26.8468 26.0482 26.8613C27.6397 21.5213 33.2842 18.9568 31.6947 12.9223C31.4864 12.1484 31.1617 11.4107 30.7317 10.7343V10.7358Z" fill="#EA3934"/>
<path d="M29.3498 54.5115C29.3867 54.5134 29.4234 54.5055 29.4561 54.4885C29.4889 54.4715 29.5165 54.4461 29.5362 54.4148C29.5558 54.3836 29.5668 54.3477 29.568 54.3108C29.5692 54.2739 29.5605 54.2374 29.5428 54.205H29.5303C28.3698 52.038 27.8498 49.261 27.2998 46.826C26.3158 42.471 25.3293 36.395 26.2763 32.015C26.2862 31.9663 26.2853 31.9161 26.2736 31.8678C26.262 31.8195 26.2399 31.7744 26.2089 31.7356C26.1779 31.6967 26.1388 31.6652 26.0943 31.6432C26.0498 31.6211 26.001 31.6091 25.9513 31.608C23.6763 31.5855 14.6013 31.677 12.3358 31.7285C9.3173 31.7975 6.1968 32.01 3.1858 31.757C3.0967 31.7503 3.00843 31.778 2.93908 31.8344C2.86973 31.8907 2.82455 31.9714 2.8128 32.06C1.7728 40.0355 3.3998 47.6195 6.8348 55.0685C6.86371 55.1323 6.91154 55.1858 6.97182 55.2215C7.03209 55.2573 7.1019 55.2737 7.1718 55.2685C14.9023 54.696 29.3498 54.579 29.3498 54.5115ZM25.5313 32.291C23.4123 32.2755 8.6768 32.562 6.8348 32.576C5.7033 32.5845 4.5848 32.563 3.4638 32.482C2.5293 40.122 4.1313 47.4775 7.3523 54.568C13.5198 54.144 22.8403 54.058 28.9863 54.076C27.8258 51.815 27.3743 49.5555 26.7473 46.955C25.6243 42.3 24.7573 36.996 25.5313 32.291Z" fill="#EA3934"/>
<path d="M44.1558 67.4498C42.6478 64.8598 41.6723 60.9438 38.2688 60.1368C37.829 60.0358 37.3724 60.0329 36.9313 60.1283C36.2458 60.0613 36.1943 60.0283 32.1048 60.2743C31.2758 60.3283 30.5638 60.3743 30.5638 60.6393C30.5638 60.9148 31.1468 60.9308 31.7438 60.9523C32.4568 60.9758 34.6718 60.8363 35.3748 60.7908C33.4388 62.0078 32.3748 64.1513 30.0343 61.0643C29.615 60.4763 29.2331 59.8626 28.8908 59.2268C28.8591 59.1693 28.8116 59.1222 28.7539 59.091C28.6962 59.0598 28.6307 59.0459 28.5653 59.0508C23.6023 59.4473 20.6283 60.1008 14.8408 60.1253C8.66881 60.1498 8.62431 59.9138 8.43631 60.2633C8.40571 60.3179 8.39066 60.3799 8.39277 60.4424C8.39489 60.505 8.41409 60.5658 8.44831 60.6183C9.82631 62.7743 10.9518 64.0348 14.0108 64.5018C15.6528 64.7518 17.6138 64.6968 21.8368 64.5118C22.2947 64.8322 22.7004 65.2213 23.0398 65.6653C23.3634 66.1656 23.6147 66.7091 23.7863 67.2798C23.9323 67.7403 23.9698 67.7163 24.0748 68.0233C24.0865 68.0819 24.121 68.1335 24.1707 68.1667C24.2203 68.2 24.2811 68.2122 24.3398 68.2008C24.3988 68.1886 24.4506 68.1538 24.4843 68.1039C24.518 68.0541 24.5309 67.993 24.5203 67.9338C24.5142 67.6514 24.4821 67.3702 24.4243 67.0938C24.2009 66.0672 23.645 65.1431 22.8428 64.4648C23.1978 64.4473 28.5533 64.1148 30.8768 63.9623C30.9074 63.9619 30.9376 63.9553 30.9655 63.943C30.9935 63.9306 31.0187 63.9128 31.0396 63.8904C31.0605 63.8681 31.0767 63.8418 31.0871 63.8131C31.0976 63.7844 31.1022 63.7538 31.1006 63.7233C31.099 63.6927 31.0912 63.6629 31.0777 63.6354C31.0643 63.6079 31.0454 63.5835 31.0223 63.5635C30.9991 63.5435 30.9722 63.5284 30.9431 63.5191C30.914 63.5098 30.8833 63.5064 30.8528 63.5093C28.5293 63.6093 20.7883 63.9093 19.2353 63.9353C16.5233 63.9953 13.2533 64.2698 11.0488 62.6658C10.3919 62.1357 9.83022 61.4976 9.38781 60.7788C12.0793 60.7948 14.7768 60.8788 17.4658 60.7753C21.1468 60.6328 24.7308 60.0688 28.3968 59.7623C29.2648 61.3373 30.7083 63.5233 32.4903 63.3313C33.3328 63.2398 34.1033 62.6208 34.9223 61.9588C35.8338 61.1998 36.9788 60.5153 38.1363 60.7693C41.1938 61.4358 42.2623 65.1863 43.8068 67.6633C43.8197 67.6867 43.8373 67.7073 43.8585 67.7238C43.8796 67.7402 43.9039 67.7521 43.9299 67.7588C43.9558 67.7655 43.9828 67.7668 44.0093 67.7627C44.0358 67.7586 44.0611 67.7491 44.0838 67.7348C44.1309 67.7063 44.1649 67.6604 44.1784 67.6071C44.1919 67.5537 44.1837 67.4972 44.1558 67.4498Z" fill="#3A307F"/>
<path d="M85.7617 80.5932C85.9782 79.5237 86.3517 78.4512 86.5082 77.3722C87.0489 73.7819 86.7899 70.1164 85.7497 66.6377C84.0677 61.1377 80.4852 56.9877 74.7942 55.1337C72.2062 54.2877 69.4137 53.9627 66.8082 53.5477C66.8442 53.1827 65.3307 51.8917 64.8262 51.6827C64.7728 51.6584 64.7145 51.6469 64.6559 51.6492C64.5973 51.6515 64.54 51.6674 64.4887 51.6957C60.8887 53.6457 60.0012 54.1302 59.5092 54.4577C59.4122 53.7122 59.4052 53.1807 59.3362 52.4327C59.3368 52.4027 59.3307 52.3729 59.3182 52.3455C59.3058 52.3182 59.2873 52.294 59.2642 52.2747C59.2428 52.2257 59.2032 52.1869 59.1538 52.1665C59.1044 52.1461 59.0489 52.1456 58.9992 52.1652C58.1912 52.4367 56.7082 52.5152 56.3092 53.6397C54.6359 53.7272 52.9779 54.0036 51.3667 54.4637C47.9127 55.4192 43.7062 57.6082 42.4577 60.9482C42.4384 60.9972 42.4386 61.0517 42.4583 61.1004C42.4781 61.1492 42.5158 61.1885 42.5638 61.2102C42.6117 61.232 42.6661 61.2344 42.7158 61.2171C42.7655 61.1998 42.8066 61.164 42.8307 61.1172C43.2846 60.2941 43.8703 59.5509 44.5647 58.9172C47.6012 55.9097 51.9707 54.8472 56.1707 54.1517C55.8849 55.4411 55.6715 56.7455 55.5317 58.0587C55.5243 58.1275 55.5371 58.197 55.5685 58.2587C55.5999 58.3204 55.6485 58.3716 55.7085 58.4061C55.7684 58.4407 55.8372 58.457 55.9063 58.4532C55.9754 58.4494 56.0419 58.4256 56.0977 58.3847C57.0887 57.5831 58.0365 56.7296 58.9372 55.8277C57.4297 61.2542 56.6837 67.8917 56.3747 73.4707C56.2567 75.8517 56.4032 76.4022 56.3627 78.2707C56.3608 78.3309 56.3827 78.3894 56.4236 78.4336C56.4645 78.4777 56.5212 78.504 56.5813 78.5067C56.6415 78.5094 56.7002 78.4883 56.745 78.448C56.7897 78.4076 56.8167 78.3513 56.8202 78.2912C57.1247 74.2287 56.8017 69.1027 59.4127 55.7747C60.1502 56.7517 61.1727 57.9332 61.9247 58.8327C61.956 58.8704 61.9951 58.9009 62.0392 58.9223C62.0833 58.9436 62.1314 58.9553 62.1804 58.9566C62.2294 58.9579 62.278 58.9487 62.3232 58.9297C62.3683 58.9106 62.4089 58.8822 62.4422 58.8462C62.9547 58.3072 64.1862 56.8432 64.5252 56.4297C65.9567 54.6132 66.3482 54.1857 66.5452 53.9297C69.4072 54.4912 72.0697 54.8867 74.5897 55.7547C80.1222 57.6577 83.4547 61.5387 85.0897 66.8462C86.0981 70.2258 86.3489 73.7862 85.8242 77.2737C85.6152 78.6952 84.8567 80.7797 84.9332 81.7597C84.9642 82.4447 85.2722 83.3747 84.8967 84.0212C84.7227 84.3127 84.5227 84.3212 84.3672 84.1927C84.1717 84.0082 84.0702 83.5722 83.6447 82.4397C83.356 81.7263 83.0056 81.0394 82.5977 80.3867C81.1047 77.9127 78.9677 75.0312 76.2532 76.0517C76.2243 76.0605 76.1975 76.075 76.1743 76.0944C76.1511 76.1138 76.1321 76.1376 76.1183 76.1644C76.1045 76.1913 76.0962 76.2207 76.094 76.2508C76.0918 76.2809 76.0956 76.3111 76.1053 76.3397C76.1149 76.3683 76.1303 76.3947 76.1503 76.4173C76.1704 76.4398 76.1948 76.4581 76.2221 76.4711C76.2493 76.4841 76.2789 76.4914 76.3091 76.4927C76.3393 76.494 76.3694 76.4893 76.3977 76.4787C78.8082 75.5992 80.7672 78.5287 82.0437 80.7177C82.8292 82.0702 82.8437 82.2637 83.5967 84.2482C84.1507 85.4222 85.6467 85.1372 85.7637 83.3892C85.8242 82.4207 85.4107 82.1112 85.7617 80.5932ZM56.6997 56.9722C56.5792 57.0772 56.4592 57.1807 56.3497 57.2827C56.4655 56.1241 56.666 54.9755 56.9497 53.8462C57.1247 53.2577 58.1242 52.9737 58.8757 52.6657C58.824 53.4207 58.832 54.1785 58.8997 54.9322C58.1687 55.5957 57.4462 56.3082 56.6997 56.9722ZM64.0677 55.9277C63.6537 56.4142 62.4177 57.8467 62.2017 58.0812C61.4787 57.2212 60.4587 56.0162 59.7937 55.1122C60.5807 54.5582 62.1542 53.7942 63.9472 52.7507C64.7972 52.2722 64.6507 52.2867 64.7297 52.3202C65.305 52.6294 65.8322 53.0206 66.2947 53.4817C65.5747 54.3347 65.5417 54.1952 64.0677 55.9277Z" fill="#3A307F"/>
<path d="M74.8787 74.0345C75.0593 72.4996 74.8307 70.9442 74.2162 69.526C74.1987 69.5018 74.1863 69.4742 74.1798 69.445C74.1734 69.4158 74.173 69.3856 74.1786 69.3562C74.1843 69.3268 74.1959 69.2989 74.2128 69.2742C74.2297 69.2495 74.2514 69.2285 74.2767 69.2125C74.3017 69.1962 74.3296 69.185 74.3589 69.1795C74.3882 69.1741 74.4183 69.1746 74.4475 69.1809C74.4766 69.1872 74.5042 69.1993 74.5286 69.2164C74.5531 69.2335 74.5738 69.2553 74.5897 69.2805C75.6367 70.6305 75.7797 72.6085 75.5397 74.3085C75.5315 74.3599 75.5121 74.4089 75.483 74.4521C75.4539 74.4953 75.4158 74.5316 75.3712 74.5585C74.4052 75.071 74.1902 76.055 74.3477 77.1475C74.3555 77.1737 74.3579 77.2012 74.3548 77.2283C74.3517 77.2554 74.3431 77.2816 74.3296 77.3053C74.3161 77.3291 74.298 77.3498 74.2763 77.3663C74.2545 77.3829 74.2297 77.3948 74.2032 77.4015C74.177 77.4088 74.1495 77.4107 74.1225 77.4072C74.0955 77.4037 74.0694 77.3948 74.0459 77.3811C74.0223 77.3674 74.0017 77.3492 73.9853 77.3275C73.9689 77.3057 73.957 77.2809 73.9502 77.2545C73.4627 76.0145 73.6767 74.7935 74.8787 74.0345Z" fill="#3A307F"/>
<path d="M77.6843 74.1499C78.151 74.1391 78.6169 74.1931 79.0688 74.3104C80.2523 74.6364 80.9493 75.4524 81.1998 75.1814C81.3998 74.9659 80.9403 74.5349 80.7178 74.3489C79.8381 73.6909 78.7431 73.3879 77.6503 73.4999C77.4633 73.5284 76.7903 73.6754 76.8193 73.9499C76.8573 74.1364 76.9883 74.1299 77.6843 74.1499Z" fill="#3A307F"/>
<path d="M10.2424 22.3406C12.2579 22.5651 11.7774 22.4201 14.0829 22.5906C15.3464 22.6831 15.9934 22.9011 17.2369 22.7236C17.2982 22.7225 17.3566 22.6972 17.3995 22.6533C17.4423 22.6094 17.4662 22.5505 17.4659 22.4891C17.4604 22.4292 17.4326 22.3734 17.3879 22.333C17.3433 22.2925 17.2851 22.2703 17.2249 22.2706C16.4279 22.2241 13.1749 21.5281 10.2304 21.9281C10.1757 21.9306 10.124 21.9538 10.0858 21.9931C10.0477 22.0325 10.0261 22.0849 10.0254 22.1396C10.0262 22.1672 10.0324 22.1943 10.0438 22.2194C10.0552 22.2445 10.0714 22.267 10.0916 22.2857C10.1119 22.3045 10.1356 22.319 10.1615 22.3284C10.1874 22.3378 10.2149 22.342 10.2424 22.3406Z" fill="#EA3934"/>
<path d="M9.17096 24.0404C9.73696 24.0604 10.3025 24.1009 10.8685 24.1284C11.073 24.1379 20.078 24.4474 20.2585 24.4504C20.8365 24.4594 21.4145 24.4424 21.9925 24.3954C22.023 24.3958 22.0533 24.39 22.0816 24.3784C22.1098 24.3668 22.1355 24.3496 22.1569 24.3278C22.1784 24.306 22.1952 24.2802 22.2064 24.2518C22.2176 24.2233 22.223 24.193 22.2222 24.1624C22.2214 24.1319 22.2144 24.1018 22.2017 24.074C22.189 24.0462 22.1708 24.0213 22.1482 24.0007C22.1257 23.9801 22.0992 23.9643 22.0704 23.9542C22.0415 23.9441 22.0109 23.9399 21.9805 23.9419C21.39 23.9419 20.8005 23.8584 20.211 23.8024C17.801 23.5829 12.143 23.4304 10.7 23.5024C10.1825 23.5274 9.66446 23.5774 9.15896 23.6264C9.13006 23.6245 9.1011 23.6287 9.07391 23.6387C9.04672 23.6486 9.02191 23.6642 9.00108 23.6843C8.98024 23.7044 8.96383 23.7286 8.95289 23.7554C8.94196 23.7823 8.93675 23.811 8.93759 23.84C8.93843 23.8689 8.9453 23.8974 8.95777 23.9235C8.97023 23.9497 8.98802 23.9729 9.00999 23.9918C9.03196 24.0106 9.05762 24.0247 9.08534 24.0331C9.11306 24.0415 9.14222 24.0439 9.17096 24.0404Z" fill="#F8D3D2"/>
<path d="M6.45023 35.4344C8.15823 35.4304 16.0697 35.5734 17.7792 35.4799C18.3087 35.4524 18.8142 35.4029 19.3322 35.3529C19.3923 35.3513 19.4493 35.3259 19.4906 35.2823C19.532 35.2387 19.5543 35.1805 19.5527 35.1204C19.5511 35.0603 19.5257 35.0034 19.4821 34.962C19.4385 34.9207 19.3803 34.8983 19.3202 34.8999C19.2702 34.8999 13.2702 34.7359 10.3027 34.7539C9.00134 34.7313 7.70042 34.8203 6.41423 35.0199C6.36029 35.0266 6.31074 35.053 6.27518 35.0941C6.23962 35.1352 6.22058 35.1881 6.22173 35.2424C6.22681 35.2981 6.25368 35.3495 6.29647 35.3854C6.33926 35.4214 6.39452 35.439 6.45023 35.4344Z" fill="#F8D3D2"/>
<path d="M16.3698 40.2C18.2823 40.1765 17.6473 40.129 19.2108 40.043C22.3748 39.868 20.9833 40.0035 22.3048 39.8305C22.365 39.8288 22.4222 39.804 22.4647 39.7613C22.5072 39.7186 22.5317 39.6613 22.5333 39.601C22.5321 39.5412 22.5075 39.4843 22.4648 39.4424C22.422 39.4005 22.3646 39.377 22.3048 39.377C21.1012 39.2304 19.8843 39.2304 18.6808 39.377C17.8699 39.3933 17.0662 39.5329 16.2973 39.791C16.2455 39.8032 16.2003 39.8347 16.171 39.8791C16.1418 39.9235 16.1306 39.9775 16.1399 40.0299C16.1492 40.0822 16.1782 40.1291 16.2209 40.1607C16.2637 40.1924 16.317 40.2064 16.3698 40.2Z" fill="#F8D3D2"/>
<path d="M16.4997 42.5616C16.8637 42.6686 16.6997 42.6881 17.7522 42.6861C18.1729 42.7405 18.6004 42.6983 19.0022 42.5626C19.0605 42.5599 19.1155 42.5348 19.1558 42.4925C19.1961 42.4503 19.2186 42.3942 19.2186 42.3358C19.2186 42.2775 19.1961 42.2214 19.1558 42.1791C19.1155 42.1369 19.0605 42.1118 19.0022 42.1091C18.8334 42.0464 18.6561 42.0097 18.4762 42.0001C17.9388 41.9705 17.4001 41.9752 16.8632 42.0141C16.7305 42.0447 16.6014 42.0889 16.4777 42.1461C16.424 42.1511 16.3743 42.1764 16.3385 42.2168C16.3028 42.2572 16.2837 42.3097 16.2852 42.3636C16.2877 42.4182 16.3116 42.4696 16.3518 42.5067C16.3919 42.5438 16.4451 42.5635 16.4997 42.5616Z" fill="#EA3934"/>
<path d="M7.77366 48.5318C8.15066 48.5623 8.71266 48.6128 9.26666 48.6183C10.3887 48.6293 16.1412 48.3443 16.4167 48.3243C16.8257 48.2938 17.2352 48.2483 17.6567 48.2163C17.7168 48.215 17.7741 48.1906 17.8167 48.1481C17.8592 48.1056 17.8838 48.0484 17.8852 47.9883C17.8822 47.9289 17.8571 47.8728 17.8148 47.8311C17.7725 47.7893 17.7161 47.7649 17.6567 47.7628C17.1512 47.7318 16.6567 47.6928 16.1637 47.6858C14.9537 47.6688 9.29616 47.9613 9.01366 47.9858C8.59216 48.0213 8.18316 48.0768 7.77366 48.1168C7.72112 48.1204 7.67192 48.1439 7.63599 48.1824C7.60006 48.2209 7.58008 48.2716 7.58008 48.3243C7.58008 48.3769 7.60006 48.4277 7.63599 48.4662C7.67192 48.5047 7.72112 48.5281 7.77366 48.5318Z" fill="#F8D3D2"/>
<path d="M8.64029 51.1433C9.66379 51.2353 9.18179 51.2323 11.5658 51.0983C12.4594 51.0843 13.3516 51.0232 14.2388 50.9153C14.2695 50.9167 14.3001 50.9119 14.3289 50.9012C14.3576 50.8904 14.3839 50.874 14.4061 50.8528C14.4284 50.8316 14.446 50.8061 14.4581 50.7779C14.4702 50.7496 14.4764 50.7192 14.4764 50.6885C14.4764 50.6578 14.4702 50.6274 14.4581 50.5992C14.446 50.571 14.4284 50.5455 14.4061 50.5243C14.3839 50.5031 14.3576 50.4866 14.3289 50.4759C14.3001 50.4651 14.2695 50.4603 14.2388 50.4618C13.9401 50.4086 13.6386 50.3724 13.3358 50.3533C12.7518 50.3288 10.6783 50.4153 9.61579 50.5353C9.27922 50.5817 8.9454 50.6463 8.61579 50.7288C8.56112 50.7325 8.51015 50.7578 8.47407 50.799C8.43798 50.8402 8.41972 50.8941 8.42329 50.9488C8.42775 51.0028 8.45272 51.0531 8.49308 51.0892C8.53343 51.1254 8.58611 51.1448 8.64029 51.1433Z" fill="#EA3934"/>
<path d="M27.5659 66.2641C27.8994 66.2401 28.7329 66.2076 29.0949 66.1836C34.5024 65.8261 34.4004 66.1211 37.1489 65.7211C37.2087 65.7148 37.2639 65.6864 37.304 65.6416C37.344 65.5968 37.3659 65.5387 37.3654 65.4786C37.3593 65.4174 37.3294 65.361 37.282 65.3217C37.2347 65.2824 37.1737 65.2633 37.1124 65.2686C36.3409 65.2686 36.3664 65.2321 35.1024 65.2531C30.6734 65.3271 29.3689 65.3591 27.4939 65.8531C27.4394 65.8626 27.3909 65.8935 27.3592 65.9387C27.3274 65.984 27.3149 66.0401 27.3244 66.0946C27.334 66.1491 27.3648 66.1976 27.4101 66.2294C27.4554 66.2611 27.5114 66.2736 27.5659 66.2641Z" fill="#8580AE"/>
<path d="M29.4204 68.1435C30.3299 68.1468 31.2386 68.0934 32.1414 67.9835C32.9796 67.9682 33.8159 67.8979 34.6449 67.773C34.6756 67.7744 34.7062 67.7696 34.735 67.7589C34.7638 67.7481 34.7901 67.7317 34.8123 67.7105C34.8345 67.6893 34.8522 67.6638 34.8643 67.6356C34.8763 67.6073 34.8826 67.577 34.8826 67.5462C34.8826 67.5155 34.8763 67.4852 34.8643 67.4569C34.8522 67.4287 34.8345 67.4032 34.8123 67.382C34.7901 67.3608 34.7638 67.3443 34.735 67.3336C34.7062 67.3229 34.6756 67.3181 34.6449 67.3195C33.7641 67.182 32.8679 67.1728 31.9844 67.292C31.4949 67.325 30.5309 67.416 30.1304 67.501C29.869 67.5617 29.6118 67.6392 29.3604 67.733C29.3051 67.7411 29.2551 67.7705 29.2213 67.815C29.1875 67.8595 29.1724 67.9155 29.1794 67.971C29.1902 68.0249 29.2211 68.0728 29.2659 68.1048C29.3106 68.1368 29.3659 68.1507 29.4204 68.1435Z" fill="#8580AE"/>
<path d="M14.5397 44.6959C14.0643 42.782 13.7499 40.8317 13.5997 38.8654C13.5953 38.7791 13.5577 38.6979 13.4948 38.6387C13.4319 38.5795 13.3485 38.547 13.2622 38.5479C11.8177 38.5659 7.02617 38.6439 6.06217 38.6734C5.97448 38.6765 5.89118 38.7125 5.82876 38.7742C5.76635 38.8359 5.72938 38.9187 5.72517 39.0064C5.6881 41.072 6.06113 43.1244 6.82267 45.0449C6.96167 45.4044 7.40217 45.2584 8.59267 45.2669C9.12167 45.2669 9.66367 45.2784 10.1927 45.2739C10.3112 45.2739 12.9962 45.1969 13.0462 45.1939C13.4867 45.1785 13.9236 45.1073 14.3462 44.9819C14.3789 44.9784 14.4104 44.9678 14.4386 44.9508C14.4668 44.9339 14.4909 44.911 14.5093 44.8838C14.5277 44.8566 14.54 44.8256 14.5452 44.7932C14.5505 44.7607 14.5486 44.7275 14.5397 44.6959ZM13.9732 44.3959C12.7547 43.6409 11.4877 42.8149 10.3297 41.9519C12.2797 40.0864 12.0297 40.4269 12.9677 39.4219C13.1339 41.1109 13.4708 42.7787 13.9732 44.3999V44.3959ZM12.3497 39.2439C11.4469 39.957 10.5829 40.7177 9.76117 41.5229C8.41117 40.4904 8.84417 40.7639 6.83867 39.3519C8.66467 39.2999 10.6412 39.2704 12.3497 39.2439ZM6.42317 39.6939C6.87917 40.1629 6.90467 40.1894 9.26467 42.0154C8.51599 42.7291 7.86531 43.539 7.32967 44.4239C6.77454 42.9061 6.46793 41.3088 6.42167 39.6934L6.42317 39.6939ZM7.88467 44.5974C8.63467 43.7359 9.22617 43.0434 9.82717 42.4474C10.9353 43.3254 12.1369 44.0787 13.4102 44.6934C13.2367 44.6954 9.40567 44.5684 7.88317 44.5969L7.88467 44.5974Z" fill="#F8D3D2"/>
<path d="M29.6004 13.6959C29.5937 13.6116 29.5552 13.533 29.4925 13.4763C29.4299 13.4195 29.3479 13.3888 29.2634 13.3904C25.9904 13.3784 15.5339 13.0154 13.8174 13.3404C13.7477 13.3536 13.6833 13.3867 13.632 13.4356C13.5807 13.4846 13.5447 13.5474 13.5284 13.6164C13.1654 15.6191 12.3548 17.514 11.1569 19.1594C11.1198 19.2104 11.0971 19.2704 11.0913 19.3332C11.0855 19.396 11.0968 19.4592 11.1239 19.5161C11.1511 19.573 11.1931 19.6215 11.2455 19.6565C11.298 19.6915 11.3589 19.7117 11.4219 19.7149C14.1979 19.8904 16.9144 19.8689 19.6684 19.9839C22.9864 20.0839 26.7844 20.5169 27.0599 20.2304C27.9208 19.3825 28.5924 18.3617 29.0303 17.2354C29.4682 16.1091 29.6625 14.9028 29.6004 13.6959ZM27.5159 14.0339C23.8729 15.0234 23.6879 14.9959 20.0659 16.2134C16.7004 14.5899 19.1139 15.6999 15.2799 13.9299C18.0429 13.8439 24.3659 13.9909 27.5164 14.0339H27.5159ZM14.1579 14.0339C14.6176 14.2405 15.0629 14.4777 15.4909 14.7439L19.1259 16.5299C15.0359 17.9054 14.4869 17.8869 12.2679 18.7764C13.1733 17.3195 13.8133 15.7137 14.1584 14.0334L14.1579 14.0339ZM19.6929 19.3189C17.7664 19.2294 13.2194 19.1104 12.8659 19.0949C15.3834 18.4139 15.4484 18.4949 20.0159 16.9649C21.2989 17.5884 25.6564 19.6574 26.0269 19.8289C23.8954 19.6924 21.8004 19.4409 19.6929 19.3189ZM26.9329 19.7464C24.9679 18.5564 22.8619 17.5544 20.9704 16.6464C25.5264 15.1369 26.4039 15.1599 28.9639 14.0794C29.0265 16.1571 28.301 18.1815 26.9329 19.7464Z" fill="#F8D3D2"/>
<path d="M75.9861 89.2743C75.9861 89.2743 78.7551 89.2633 79.4051 89.2448C79.6646 89.2378 93.7266 88.5873 97.2826 88.3448C97.3419 88.34 97.3972 88.313 97.4375 88.2691C97.4777 88.2253 97.4999 88.1678 97.4996 88.1083C97.4957 88.0479 97.4683 87.9914 97.4233 87.9509C97.3782 87.9104 97.3191 87.8892 97.2586 87.8918C90.2396 88.0868 77.6086 88.6948 75.9741 88.8573C75.9183 88.8594 75.8657 88.8833 75.8274 88.9239C75.7891 88.9645 75.7684 89.0185 75.7696 89.0743C75.7736 89.1289 75.7982 89.1799 75.8384 89.217C75.8786 89.2541 75.9314 89.2746 75.9861 89.2743Z" fill="#3A307F"/>
<path d="M83.113 85.0273C82.1559 85.7743 81.1414 86.4449 80.079 87.0328C77.3225 88.5718 74.395 89.5143 71.229 89.1563C67.363 88.7173 63.9835 86.3913 61.5015 83.4283C61.1405 82.9998 60.8875 82.6783 60.7795 82.5193C60.7155 82.4252 60.6284 82.3491 60.5265 82.2983C58.6165 81.7573 57.932 81.6398 56.951 81.4168C56.8972 81.4043 56.8406 81.4134 56.7933 81.4421C56.7461 81.4708 56.7119 81.5168 56.698 81.5703C56.6872 81.6241 56.6974 81.68 56.7265 81.7265C56.7556 81.773 56.8014 81.8065 56.8545 81.8203C57.7665 82.0703 58.9245 82.4163 60.2495 82.8703C61.8316 85.1323 63.9138 86.9992 66.3345 88.3258C65.9935 88.3153 63.4695 88.2463 62.42 88.2968C62.2775 87.5968 61.42 87.3783 60.707 87.3943L54.0735 87.2658C53.7235 86.0398 49.6795 72.0913 49.4735 71.4353C49.305 70.8076 48.9313 70.2544 48.4121 69.8635C47.8929 69.4726 47.2578 69.2667 46.608 69.2783C46.258 69.2873 20.1345 69.4518 19.4965 69.4478C18.485 69.4423 17.962 69.7863 17.6905 70.1883C17.5284 70.4872 17.4375 70.8195 17.425 71.1594C17.4125 71.4992 17.4788 71.8373 17.6185 72.1473C17.6185 72.0973 18.2635 73.8638 24.004 88.3118C22.4315 88.2528 12.3855 88.3523 9.48003 88.6488C9.4267 88.6514 9.37641 88.6744 9.33959 88.7131C9.30276 88.7518 9.28223 88.8031 9.28223 88.8565C9.28223 88.9099 9.30276 88.9613 9.33959 89C9.37641 89.0386 9.4267 89.0617 9.48003 89.0643C12.6075 89.2423 22.23 88.9438 24.1855 88.7773C24.3911 89.1195 24.6839 89.4008 25.0341 89.5924C25.3842 89.7841 25.779 89.8791 26.178 89.8678H60.7445C61.1689 89.7755 61.5755 89.6151 61.9485 89.3928C62.1365 89.2726 62.2837 89.0983 62.3705 88.8928C63.414 88.9693 66.728 89.0793 67.7655 88.9928C72.001 90.6848 76.4595 89.9978 80.392 87.5758C81.448 86.9194 82.4539 86.1857 83.4015 85.3808C83.4446 85.3414 83.471 85.287 83.4753 85.2288C83.4795 85.1705 83.4613 85.1129 83.4244 85.0677C83.3875 85.0224 83.3346 84.993 83.2767 84.9855C83.2188 84.978 83.1603 84.993 83.113 85.0273ZM61.455 88.8833C60.92 89.1398 63.055 89.0238 26.181 89.5028C25.8017 89.4817 25.4354 89.3574 25.1215 89.1433C24.417 88.6478 24.9875 89.6433 18.2355 71.9063C18.2235 71.9063 18.2235 71.8998 18.2235 71.8998C18.1577 71.7146 18.113 71.5226 18.0905 71.3273C18.018 70.5868 18.352 70.1093 19.4875 70.1208C20.33 70.1283 46.623 69.9778 46.623 69.9778C47.1172 69.9704 47.5999 70.1271 47.9955 70.4233C48.3878 70.7346 48.6704 71.1631 48.802 71.6463C49.0065 72.3003 53.485 87.7073 53.485 87.7073C53.5041 87.779 53.5464 87.8424 53.6053 87.8877C53.6641 87.9329 53.7363 87.9574 53.8105 87.9573C53.8105 87.9573 60.7105 88.0878 60.7205 88.0873C60.959 88.0758 61.744 88.1173 61.744 88.5103C61.756 88.7063 61.5995 88.8103 61.455 88.8833Z" fill="#3A307F"/>
<path d="M69.654 35.1999C69.2973 34.4313 68.7554 33.7632 68.077 33.2554C67.1915 32.7691 66.1979 32.5131 65.1875 32.5109C63.8659 32.4196 62.5402 32.6177 61.303 33.0916C60.0659 33.5654 58.947 34.3036 58.0245 35.2544C55.7305 37.5604 55.093 40.8904 54.244 44.0159C53.577 46.6591 52.5906 49.2113 51.3065 51.6159C51.2801 51.6643 51.2655 51.7182 51.2638 51.7733C51.2622 51.8284 51.2736 51.8831 51.2971 51.9329C51.3205 51.9828 51.3555 52.0264 51.399 52.0602C51.4425 52.094 51.4934 52.117 51.5475 52.1274C54.224 52.7074 57.681 51.9529 60.011 50.3679C60.011 51.6749 60.035 51.9754 60.035 52.6344C60.0314 52.6951 60.0521 52.7547 60.0925 52.8001C60.1328 52.8456 60.1896 52.8731 60.2503 52.8767C60.3109 52.8803 60.3705 52.8596 60.416 52.8192C60.4614 52.7789 60.4889 52.7221 60.4925 52.6614C60.6045 51.6754 60.6305 51.0804 60.657 50.6089C60.7762 50.6509 60.8981 50.6843 61.022 50.7089C61.6305 50.8369 62.656 50.7589 62.575 50.3459C62.5435 50.0244 61.6925 50.1419 61.1665 50.0229C59.555 49.6764 58.8355 48.1699 58.7345 46.5194C58.619 44.1829 59.395 41.9924 59.8785 39.9194C61.495 39.6389 63.269 39.7844 64.9105 39.8444C64.9922 39.8469 65.0722 39.8204 65.1362 39.7696C65.2002 39.7188 65.2443 39.647 65.2605 39.5669C65.452 38.7595 65.8223 38.0053 66.344 37.3599C66.2946 38.2358 66.5734 39.0986 67.126 39.7799C67.0925 40.6203 67.1167 41.4619 67.1985 42.2989C67.1932 42.3481 67.1978 42.3978 67.2119 42.4452C67.226 42.4926 67.2495 42.5367 67.2809 42.5749C67.3122 42.6131 67.3509 42.6447 67.3946 42.6678C67.4384 42.6909 67.4863 42.7051 67.5355 42.7094C67.8855 42.7184 68.282 42.6504 68.655 42.6709C69.97 42.7484 69.637 44.6234 68.198 44.8319C67.528 44.9319 67.3615 44.7539 67.1505 44.9354C67.1145 44.9656 67.0851 45.003 67.0644 45.0452C67.0436 45.0874 67.0319 45.1335 67.03 45.1804C66.9883 46.1367 66.6976 47.0654 66.1866 47.8747C65.6755 48.684 64.962 49.3457 64.1165 49.7944C64.0649 49.8117 64.0198 49.8445 63.9875 49.8884C63.9552 49.9322 63.9372 49.985 63.936 50.0394L63.9 51.3429C63.8956 51.3988 63.9136 51.454 63.95 51.4966C63.9864 51.5392 64.0382 51.5656 64.094 51.5699C64.1499 51.5743 64.2051 51.5563 64.2477 51.5199C64.2903 51.4836 64.3166 51.4318 64.321 51.3759L64.4655 50.2579C65.2723 49.9298 65.9702 49.3808 66.479 48.6739C66.767 48.7029 66.9325 48.7239 68.379 48.7904C69.0045 48.8194 70.04 48.9459 70.7025 48.6359C70.8853 48.5565 71.0445 48.4313 71.1647 48.2723C71.2849 48.1133 71.362 47.926 71.3885 47.7284C71.3907 47.6897 71.3867 47.6509 71.3765 47.6134C71.6725 46.3354 71.5905 45.0734 71.6535 43.7394C71.7825 40.8764 72.7065 35.7289 69.654 35.1999ZM58.7345 37.6899C56.7115 40.6664 55.969 45.2359 55.1845 47.9764C55.028 48.5079 54.8345 49.0124 54.667 49.4989C54.6505 49.5521 54.6139 49.5966 54.5649 49.6231C54.516 49.6495 54.4586 49.6558 54.4051 49.6405C54.3516 49.6252 54.3062 49.5896 54.2786 49.5413C54.2511 49.493 54.2435 49.4358 54.2575 49.3819C54.7278 46.8883 55.3225 44.4197 56.0395 41.9854C56.599 40.2469 57.198 38.7559 58.3895 37.4124C58.4263 37.366 58.4801 37.3361 58.5389 37.3293C58.5977 37.3225 58.6569 37.3394 58.7033 37.3762C58.7497 37.413 58.7796 37.4667 58.7864 37.5255C58.7932 37.5844 58.7763 37.6435 58.7395 37.6899H58.7345ZM61.7445 35.2189C61.3484 35.5578 60.9257 35.8643 60.4805 36.1354C60.4388 36.1709 60.3861 36.1908 60.3313 36.1916C60.2766 36.1925 60.2233 36.1742 60.1805 36.1399C59.8805 35.8349 60.941 35.0399 61.5045 34.8329C61.797 34.7259 61.971 35.0129 61.7445 35.2189Z" fill="#3A307F"/>
</svg>
