<svg width="123" height="120" viewBox="0 0 123 120" fill="none" xmlns="http://www.w3.org/2000/svg">
<g filter="url(#filter0_d_934_13994)">
<path d="M6 32C6 20.9543 14.9543 12 26 12H88C99.0457 12 108 20.9543 108 32V91C108 102.046 99.0457 111 88 111H26C14.9543 111 6 102.046 6 91V32Z" fill="#F6F7FB" fill-opacity="0.8"/>
<circle cx="57.2676" cy="61.2676" r="35.2676" fill="#EA3934"/>
<path d="M79.4638 77.5688H35.3845C35.0187 77.5688 34.2871 77.9347 34.2871 78.8492C34.2871 79.7637 35.0187 80.1295 35.5674 80.1295H79.4638C79.8296 80.1295 80.3783 79.5808 80.3783 78.8492C80.3783 78.1176 79.8296 77.5688 79.4638 77.5688Z" fill="#FDFDFD"/>
<path d="M35.3863 55.6205H40.5076V73.179H37.2153C36.8495 73.179 36.1179 73.5448 36.1179 74.4593C36.1179 75.3738 36.8495 75.7396 37.2153 75.7396H77.4537C77.8195 75.7396 78.5511 75.3738 78.5511 74.4593C78.5511 73.5448 77.8195 73.179 77.2708 73.179H74.1615V55.6205H79.2827C79.4656 55.6205 79.6485 55.4376 79.6485 55.2547V52.5111C79.6485 50.3163 78.3682 48.3044 76.3563 47.207L59.8951 38.9764C58.4319 38.0619 56.6029 38.0619 54.9568 38.9764L38.3127 47.3899C36.3008 48.3044 35.0205 50.4992 35.0205 52.694V55.4376C35.0205 55.6205 35.2034 55.8034 35.3863 55.8034V55.6205ZM37.5811 53.0598V52.694C37.5811 51.4137 38.3127 50.3163 39.4101 49.7676L56.2371 41.3541C56.9687 40.9883 57.8832 40.9883 58.6148 41.3541L75.2589 49.7676C76.3563 50.3163 77.0879 51.4137 77.0879 52.694V53.0598H37.5811ZM71.6008 55.6205V73.179H65.0164V55.6205H71.6008ZM62.4558 55.6205V73.179H52.2133V55.6205H62.4558ZM49.6526 55.6205V73.179H43.2511V55.6205H49.6526Z" fill="#FDFDFD"/>
</g>
<defs>
<filter id="filter0_d_934_13994" x="0.0601997" y="0.120401" width="122.789" height="119.789" filterUnits="userSpaceOnUse" color-interpolation-filters="sRGB">
<feFlood flood-opacity="0" result="BackgroundImageFix"/>
<feColorMatrix in="SourceAlpha" type="matrix" values="0 0 0 0 0 0 0 0 0 0 0 0 0 0 0 0 0 0 127 0" result="hardAlpha"/>
<feOffset dx="4.45485" dy="-1.48495"/>
<feGaussianBlur stdDeviation="5.19732"/>
<feComposite in2="hardAlpha" operator="out"/>
<feColorMatrix type="matrix" values="0 0 0 0 0 0 0 0 0 0 0 0 0 0 0 0 0 0 0.15 0"/>
<feBlend mode="normal" in2="BackgroundImageFix" result="effect1_dropShadow_934_13994"/>
<feBlend mode="normal" in="SourceGraphic" in2="effect1_dropShadow_934_13994" result="shape"/>
</filter>
</defs>
</svg>
