<svg width="50" height="50" viewBox="0 0 50 50" fill="none" xmlns="http://www.w3.org/2000/svg">
<rect width="50" height="50" rx="4" fill="#F8D3D2"/>
<path d="M12.6572 24.0143L37.3001 12.8071" stroke="#EA3934" stroke-linecap="round" stroke-linejoin="round"/>
<path d="M32.6934 11.0714L37.3005 12.8071L35.5862 17.4143" stroke="#EA3934" stroke-linecap="round" stroke-linejoin="round"/>
<path d="M38.3936 38.95H33.0364V23.95C33.0364 23.6658 33.1493 23.3933 33.3502 23.1923C33.5512 22.9914 33.8237 22.8785 34.1078 22.8785H37.3221C37.6063 22.8785 37.8788 22.9914 38.0797 23.1923C38.2807 23.3933 38.3936 23.6658 38.3936 23.95V38.95Z" stroke="#EA3934" stroke-linecap="round" stroke-linejoin="round"/>
<path d="M27.6787 38.95H22.3216V27.1642C22.3216 26.8801 22.4344 26.6076 22.6354 26.4066C22.8363 26.2057 23.1088 26.0928 23.393 26.0928H26.6073C26.8914 26.0928 27.164 26.2057 27.3649 26.4066C27.5658 26.6076 27.6787 26.8801 27.6787 27.1642V38.95Z" stroke="#EA3934" stroke-linecap="round" stroke-linejoin="round"/>
<path d="M16.9648 38.95H11.6077V30.3785C11.6077 30.0944 11.7206 29.8218 11.9215 29.6209C12.1224 29.42 12.395 29.3071 12.6791 29.3071H15.8934C16.1776 29.3071 16.4501 29.42 16.651 29.6209C16.852 29.8218 16.9648 30.0944 16.9648 30.3785V38.95Z" stroke="#EA3934" stroke-linecap="round" stroke-linejoin="round"/>
</svg>
