<svg width="100" height="100" viewBox="0 0 100 100" fill="none" xmlns="http://www.w3.org/2000/svg">
<path d="M76.467 62.41C76.4067 62.1868 76.2682 61.9928 76.0767 61.8633C75.8852 61.7339 75.6535 61.6777 75.424 61.705C75.1135 61.705 64.3675 59.9095 61.324 58.547C58.202 57.147 56.1095 56.0715 54.332 52.993C54.2755 52.88 54.104 52.9085 54.1345 53.0495C54.4677 54.6111 55.1516 56.0766 56.1345 57.335C59.4585 61.6085 64.795 63.444 70.147 64.385C72.4238 64.781 74.7203 65.0539 77.0265 65.2025C77.4215 65.2285 77.56 64.8085 77.421 64.4975C77.111 63.793 76.786 63.1105 76.467 62.41Z" fill="#D4D2E1"/>
<path d="M93.6656 12.4499C93.4156 12.2224 92.9066 12.5599 93.1866 12.8164C97.0536 16.3614 93.1036 27.8164 91.8331 33.7664C90.5381 39.8284 89.8121 46.0264 88.4216 52.0364C88.0501 53.6419 85.8026 59.1214 84.5871 59.5364C84.495 59.5646 84.4116 59.6156 84.3446 59.6848C84.2775 59.7539 84.2291 59.8388 84.2037 59.9317C84.1784 60.0246 84.1769 60.1224 84.1996 60.216C84.2222 60.3095 84.2681 60.3959 84.3331 60.4669C84.8536 61.1279 85.3706 61.7969 85.9121 62.4404C86.0045 62.5291 86.1233 62.5854 86.2504 62.6006C86.3776 62.6158 86.5063 62.5893 86.6171 62.5249C89.4366 60.9179 90.2171 57.4204 90.9591 54.5179C92.4001 48.8524 94.0861 41.1934 96.4001 30.7499C97.0879 27.8278 97.4567 24.8396 97.5001 21.8379C97.5001 18.3999 96.2751 14.7999 93.6656 12.4499Z" fill="#D4D2E1"/>
<path d="M82.7543 61C82.3043 60.55 80.3543 61.3405 80.4703 61.536C80.6068 61.764 82.2203 64.183 82.5288 64.3835C82.6055 64.438 82.6937 64.474 82.7866 64.4886C82.8795 64.5033 82.9746 64.4962 83.0643 64.468C83.1208 64.468 84.5303 64.158 84.5303 63.568C84.5303 63.312 82.9498 61.169 82.7543 61Z" fill="#D4D2E1"/>
<path d="M79.0323 61.3099C78.8323 61.1724 78.6378 61.3949 78.6658 61.5919C79.1463 62.6626 79.6829 63.7072 80.2733 64.7214C80.3386 64.8199 80.4375 64.8913 80.5515 64.9225C80.6655 64.9537 80.7869 64.9425 80.8933 64.8909C80.9968 64.83 81.0725 64.731 81.104 64.6151C81.1356 64.4991 81.1206 64.3755 81.0623 64.2704C80.6998 63.7619 79.2833 61.4834 79.0323 61.3099Z" fill="#D4D2E1"/>
<path d="M20.4165 46.1136C25.428 45.7226 30.3665 44.5486 35.3315 43.6886C36.656 43.4596 38.011 43.3001 39.335 43.0966C39.871 43.0146 39.7575 42.1051 39.194 42.1381C36.7145 42.3586 34.2548 42.7638 31.8355 43.3501C29.325 43.8806 21.657 45.3801 20.3605 45.6056C20.0785 45.6906 20.134 46.1356 20.4165 46.1136Z" fill="#D4D2E1"/>
<path d="M26.6499 49.4121C29.2729 49.1661 31.8649 48.6686 34.4599 48.3691C34.7134 48.3401 35.4749 48.2281 35.1929 47.8336C35.0519 47.6361 34.5164 47.6101 34.3189 47.6361C31.7569 47.9741 29.0569 48.1401 26.5654 48.9046C26.3074 48.9831 26.3374 49.4416 26.6499 49.4121Z" fill="#D4D2E1"/>
<path d="M23.7998 53.895C27.9528 53.404 35.5193 51.9185 39.4758 51.245C40.0103 51.154 39.7873 50.321 39.2503 50.427C35.1733 51.233 27.8528 52.373 23.7718 53.416C23.4613 53.472 23.5178 53.95 23.7998 53.895Z" fill="#D4D2E1"/>
<path d="M42.5501 79.4674C42.5461 79.3416 42.4944 79.222 42.4054 79.133C42.3164 79.0439 42.1969 78.992 42.0711 78.9879C40.8301 78.9739 39.5616 78.9879 38.3211 78.9879C38.1952 78.9917 38.0754 79.0434 37.9864 79.1326C37.8974 79.2217 37.8457 79.3415 37.8421 79.4674C37.8421 84.1174 37.4046 88.7434 37.3921 93.3954C37.3955 93.5137 37.444 93.6262 37.5277 93.7099C37.6113 93.7935 37.7238 93.842 37.8421 93.8454C39.0826 93.7324 42.4376 93.9584 42.4376 93.4509C42.4366 91.0879 42.4936 96.4164 42.5501 79.4674Z" fill="#EA3934"/>
<path d="M35.106 70.389C33.978 70.389 32.8505 70.3465 31.7225 70.3605C31.5966 70.3644 31.4769 70.4162 31.3879 70.5053C31.2989 70.5944 31.2472 70.7141 31.2435 70.84C30.519 78.027 30.373 86.459 30.313 93.7055C30.313 94.0155 35.251 94.467 35.3315 93.5055C35.345 93.345 35.5815 71.0395 35.585 70.8655C35.5811 70.7399 35.5293 70.6206 35.4402 70.532C35.3511 70.4434 35.2316 70.3923 35.106 70.389Z" fill="#EA3934"/>
<path d="M27.6061 85.4444C26.4501 85.4729 25.2666 85.4024 24.1101 85.4164C23.9833 85.4169 23.8617 85.4676 23.772 85.5573C23.6823 85.647 23.6317 85.7685 23.6311 85.8954C23.5746 88.0689 23.2926 93.0569 23.2646 93.3669C23.2646 93.5924 27.7756 93.5364 27.8036 93.4519C27.8711 93.41 27.927 93.3519 27.9663 93.2829C28.0057 93.214 28.0273 93.1363 28.0291 93.0569C28.0431 91.2244 28.0856 85.9804 28.0856 85.9519C28.0938 85.8857 28.0873 85.8185 28.0665 85.7552C28.0457 85.6918 28.0111 85.6338 27.9653 85.5853C27.9195 85.5368 27.8636 85.4991 27.8015 85.4747C27.7394 85.4504 27.6727 85.44 27.6061 85.4444Z" fill="#EA3934"/>
<path d="M20.5859 75.35C19.5424 75.364 18.5279 75.3075 17.4859 75.322C17.36 75.3257 17.2403 75.3774 17.1512 75.4664C17.0621 75.5554 17.0103 75.6751 17.0064 75.801C16.4189 81.6092 16.1272 87.4436 16.1324 93.2815C16.1342 93.3466 16.1503 93.4105 16.1796 93.4687C16.2088 93.5268 16.2504 93.5779 16.3015 93.6182C16.3527 93.6586 16.412 93.6872 16.4754 93.7021C16.5388 93.717 16.6047 93.7178 16.6684 93.7045C17.9109 93.551 20.8684 93.9045 20.8684 92.9715C20.8684 92.9215 21.0424 80.4835 21.0939 75.8575C21.0908 75.7238 21.0363 75.5964 20.9417 75.5018C20.8471 75.4073 20.7196 75.3529 20.5859 75.35Z" fill="#EA3934"/>
<path d="M46.6655 55.7839C42.4365 55.9764 28.43 58.6804 16.836 60.4644C16.6885 57.4237 16.3779 54.3932 15.9055 51.3859C14.077 38.6974 9.61248 22.1859 6.60148 13.8859C13.5565 9.55488 29.9485 8.13938 38.0665 7.31638C39.4805 13.5874 44.7195 30.9569 45.3125 49.3259C45.397 51.0174 45.1715 52.8784 45.538 54.5419C45.5673 54.6426 45.6285 54.7311 45.7123 54.7941C45.7962 54.8571 45.8983 54.8912 46.0032 54.8912C46.1081 54.8912 46.2102 54.8571 46.2941 54.7941C46.378 54.7311 46.4392 54.6426 46.4685 54.5419C46.8065 53.0194 46.609 51.4419 46.5245 49.8919C46.3201 45.1547 45.878 40.4307 45.2 35.7379C43.642 24.7824 40.6 12.8819 38.5745 7.12038C38.856 6.78238 38.7155 6.19038 38.1795 6.24638C30.4455 6.99338 11.996 8.61238 6.09448 13.5464C5.95598 13.6624 6.00998 13.8284 6.12248 13.9409C6.68648 16.3094 7.30698 18.6779 7.95498 21.0459C7.92698 21.0744 6.52448 23.1959 6.23548 23.5834C5.95998 23.9549 4.74098 25.4724 4.68548 25.5574C4.26098 24.0654 3.80998 22.5999 3.27448 21.1334C3.30248 21.1049 5.38898 17.5524 5.78398 15.0994C5.83998 14.7614 5.33398 14.7614 5.21998 15.0149C4.48298 16.8039 4.41998 17.5244 2.56998 20.5409C2.52867 20.6055 2.50571 20.6801 2.50358 20.7568C2.50145 20.8334 2.52022 20.9092 2.55789 20.976C2.59555 21.0428 2.65069 21.0981 2.71739 21.136C2.78408 21.1738 2.85982 21.1928 2.93648 21.1909C3.37548 22.7269 4.80248 28.5499 6.20648 35.8499C8.97348 49.7439 10.1515 58.6884 11.2255 64.3259C11.056 64.5514 11.31 64.9179 11.5635 64.7209C13.7305 63.0954 15.2635 62.1089 16.3285 61.0834C21.1285 60.9334 32.231 58.7134 40.5475 57.4464C42.26 57.1884 43.9915 56.9889 45.7105 56.7504C44.6655 57.6579 43.6605 58.6279 42.6605 59.5644C39.368 59.6509 21.3985 63.8249 13.5105 64.5514C13.3415 64.5799 13.3415 64.8094 13.5105 64.8054C20.3835 64.6284 27.1285 63.0984 36.63 61.2529C38.647 60.8659 40.745 60.5874 42.739 60.0189C42.7866 60.0377 42.8381 60.0443 42.8889 60.0382C42.9397 60.0321 42.9882 60.0134 43.03 59.9839C44.4115 58.8839 45.793 57.8129 47.118 56.6569C47.4445 56.3849 47.0085 55.7639 46.6655 55.7839ZM4.85348 26.0389C5.05098 25.9544 8.03948 22.1764 8.23648 21.8944C8.57515 23.1647 8.91298 24.4332 9.24998 25.6999C8.96798 26.0379 5.97948 29.2804 5.72598 29.5624C5.58648 29.0559 5.02248 26.6874 4.85348 26.0389ZM5.83998 30.1834C6.10348 30.1834 9.30598 26.8589 9.47748 26.6594C9.81548 27.9279 10.1275 29.1969 10.464 30.4654C10.3795 30.5499 6.91398 34.4689 6.82698 34.5539C6.51698 33.0874 6.17848 31.6214 5.83998 30.1834ZM6.93998 35.1174C7.10948 35.0049 10.549 31.5084 10.662 31.3394C10.69 31.4804 11.254 33.8489 11.5075 34.8919C10.8875 35.5969 8.29348 38.1064 7.67348 38.6699C7.44998 37.4859 7.19348 36.2999 6.93948 35.1174H6.93998ZM7.78598 39.2059C9.17484 38.1262 10.4845 36.9483 11.705 35.6814C11.9306 36.6964 12.1561 37.7114 12.3815 38.7264C11.677 39.3764 8.63148 42.1379 8.40648 42.3634C8.20848 41.3204 8.01098 40.2774 7.78548 39.2059H7.78598ZM8.54748 43.0684C8.91398 42.8429 11.987 40.1359 12.579 39.5724C12.7485 40.4179 12.9175 41.2359 13.0865 42.0814C12.3535 42.7584 9.67498 45.2114 9.02648 45.7184C8.85698 44.8444 8.68798 43.9424 8.54698 43.0684H8.54748ZM9.70348 49.6379C9.53398 48.7074 9.16748 46.5379 9.13948 46.3669C9.44948 46.1979 12.6075 43.5194 13.256 42.8994C13.425 43.7994 13.6225 44.6754 13.7635 45.5779C13.7065 45.6059 9.87198 49.4404 9.70298 49.6379H9.70348ZM9.81598 50.2579C9.90048 50.1734 13.3685 47.2694 13.9325 46.5644C14.0735 47.4104 14.2145 48.2844 14.3555 49.1584C14.017 49.4684 10.549 52.8519 10.267 53.1054C10.1255 52.1469 9.95648 51.2164 9.81548 50.2579H9.81598ZM10.352 53.7539C11.1975 53.1619 14.299 50.3144 14.4965 50.0889C14.5245 50.1734 14.9755 53.3029 15.1465 54.7689C14.977 54.9944 11.8465 57.8689 11.058 58.6879C11 57.9834 10.492 54.6564 10.35 53.7539H10.352ZM15.7925 60.5499C15.0315 61.1419 12.184 63.4259 11.62 64.0179C11.5355 62.4389 11.366 60.8599 11.17 59.3094C11.649 58.9149 14.8915 56.1514 15.3145 55.7569C15.399 56.5179 15.681 59.7324 15.822 60.5499H15.7925Z" fill="#3A307F"/>
<path d="M13.7063 17.4401C13.9303 17.2621 14.1888 17.1326 14.4654 17.0598C14.7421 16.987 15.0308 16.9724 15.3134 17.0171C15.9408 17.2288 16.4712 17.6589 16.8079 18.2291C17.5409 19.1596 18.8378 20.2591 20.0218 19.3291C20.8958 18.6521 20.9218 17.4961 21.0648 16.5096C21.2058 15.5791 21.4878 14.2821 22.7003 14.4511C24.7208 14.6886 24.9563 17.0846 26.7603 17.8066C27.128 17.9723 27.5415 18.0067 27.9315 17.904C28.3215 17.8013 28.6644 17.5678 28.9028 17.2426C29.6568 16.1746 28.9188 14.3226 30.2283 13.7181C30.6607 13.5714 31.1219 13.5307 31.5732 13.5994C32.0246 13.6682 32.4528 13.8443 32.8218 14.1131C34.1473 15.0436 34.7958 16.6221 36.0078 17.6656C36.0842 17.7334 36.1835 17.7695 36.2856 17.7664C36.3877 17.7633 36.4847 17.7214 36.5568 17.6491C36.6289 17.5768 36.6706 17.4796 36.6734 17.3776C36.6762 17.2755 36.6399 17.1762 36.5718 17.1001C34.9368 15.1266 33.3858 12.0816 30.3128 12.7001C29.0158 12.9541 28.4238 13.9691 28.3128 15.2096C28.2563 15.6886 28.3408 16.5066 27.8898 16.8446C27.2398 17.3241 26.4518 16.5346 26.1138 16.0556C25.4088 15.0966 24.7888 14.1666 23.6328 13.6871C23.3181 13.5326 22.9736 13.4484 22.6231 13.4401C22.2725 13.4318 21.9244 13.4997 21.6027 13.6391C21.281 13.7785 20.9934 13.986 20.7597 14.2474C20.5261 14.5088 20.3519 14.8178 20.2493 15.1531C20.1076 15.7267 20.0227 16.3128 19.9959 16.9031C19.9959 17.6361 19.8548 18.9616 18.7548 18.6796C17.8803 18.4606 17.4259 17.2876 16.4994 16.5931C15.3154 15.7471 13.6238 16.1986 12.7778 17.2981C12.3266 17.9262 12.1007 18.6883 12.1365 19.4609C12.1723 20.2335 12.4679 20.9714 12.9753 21.5551C13.1443 21.7526 13.4254 21.4991 13.3134 21.2731C12.7499 20.0901 12.4938 18.3701 13.7063 17.4401Z" fill="#3A307F"/>
<path d="M60.6781 39.1774C62.4826 38.9239 64.2875 38.6404 66.0915 39.1494C67.586 39.5709 68.9416 40.2994 70.4336 40.6719C73.0661 41.3219 75.9076 40.2794 78.1306 40.5874C80.7916 40.9559 83.244 42.8709 85.2635 42.8709C85.3521 42.8691 85.4372 42.8361 85.5038 42.7777C85.5704 42.7194 85.6143 42.6394 85.6278 42.5518C85.6413 42.4643 85.6235 42.3748 85.5776 42.2991C85.5316 42.2234 85.4604 42.1663 85.3766 42.1379C84.6211 41.8669 83.829 41.6794 83.0925 41.3769C82.3925 41.0879 81.681 40.7619 80.978 40.4744C76.441 38.6184 74.3246 40.5819 70.9411 39.8824C67.3461 39.1394 66.3411 37.1659 60.6501 38.9239C60.4246 38.9499 60.5091 39.1774 60.6781 39.1774Z" fill="#EA3934"/>
<path d="M59.8605 42.6454C61.4955 42.4159 63.078 42.1169 64.738 42.3919C66.3205 42.6534 67.669 43.4674 69.1645 43.9704C72.3145 45.0299 75.6595 43.2644 78.5815 44.6204C79.7779 45.2733 81.0589 45.7572 82.388 46.0584C82.8656 46.187 83.3597 46.2439 83.854 46.2274C83.9372 46.2266 84.0173 46.1955 84.0794 46.1401C84.1415 46.0847 84.1814 46.0087 84.1917 45.9261C84.2021 45.8435 84.1821 45.76 84.1355 45.691C84.089 45.622 84.019 45.5722 83.9385 45.5509C83.326 45.3319 82.8385 45.4299 81.373 44.9589C78.9005 44.1634 78.5435 42.9589 74.409 43.3234C72.802 43.4659 71.137 43.6939 69.559 43.2109C68.009 42.7354 66.6275 41.8814 64.963 41.6319C63.244 41.3739 61.27 41.4064 59.7475 42.2819C59.494 42.3919 59.663 42.6734 59.8605 42.6454Z" fill="#EA3934"/>
<path d="M26.4498 27.4771C26.3373 28.4641 25.9143 31.8771 25.7998 32.6086C25.9688 32.5801 28.7038 31.9316 29.2393 31.7906C29.0438 31.4526 26.4783 27.4771 26.4498 27.4771Z" fill="#EA3934"/>
<path d="M29.1848 21.4435C22.5873 20.6545 17.8778 23.9245 17.1743 29.817C16.3833 36.4425 21.3498 40.074 26.3093 40.7C28.882 41.0298 31.4818 40.342 33.5548 38.783C40.2378 33.7455 37.5498 22.444 29.1848 21.4435ZM30.4253 35.6535C30.3829 35.6607 30.3395 35.6576 30.2986 35.6445C30.2576 35.6314 30.2204 35.6087 30.1901 35.5783C30.1597 35.5479 30.1371 35.5107 30.1241 35.4698C30.1111 35.4288 30.1081 35.3854 30.1153 35.343C30.1653 35.0605 30.5393 35.0375 30.7358 34.9765C30.9058 34.924 31.2713 34.751 31.2993 34.5265C31.2993 34.3575 29.7493 32.5265 29.6358 32.3265C29.5798 32.242 26.3938 33.0875 25.7453 33.144C25.7453 33.2285 25.1883 35.5615 25.4913 35.8505C25.8228 36.1665 26.8168 35.6445 26.8168 36.2455C26.8195 36.3331 26.7933 36.4191 26.7424 36.4904C26.6914 36.5617 26.6185 36.6142 26.5348 36.64C25.9693 36.8335 23.5458 37.1475 23.2078 36.9785C23.0383 36.894 22.9538 36.64 23.1513 36.5555C23.6588 36.3865 24.3103 36.528 24.5893 34.7795C24.6748 34.244 25.9443 24.213 26.4498 24.0935C26.7893 24.0135 27.6188 25.2125 28.0573 25.8435C28.5798 26.5935 31.2433 30.4675 32.0323 31.6515C32.5398 32.413 33.1323 33.923 34.1473 34.1045C34.8818 34.2365 35.1028 34.8495 34.2318 35.007C32.9583 35.235 31.6953 35.464 30.4253 35.6535ZM31.0753 38.642C29.9948 39.2595 27.7458 39.6335 25.6903 39.0365C25.6611 39.028 25.6358 39.0094 25.619 38.9841C25.6021 38.9587 25.5947 38.9283 25.598 38.898C25.6013 38.8678 25.6152 38.8397 25.6372 38.8186C25.6592 38.7976 25.6879 38.785 25.7183 38.783C28.7963 38.833 30.0183 38.1055 30.7653 37.937C30.8561 37.9096 30.9537 37.9164 31.0398 37.9561C31.1259 37.9958 31.1945 38.0657 31.2325 38.1526C31.2705 38.2395 31.2753 38.3372 31.2461 38.4274C31.2169 38.5176 31.1556 38.594 31.0738 38.642H31.0753ZM20.6703 34.6385C20.6823 34.6649 20.6848 34.6947 20.6772 34.7227C20.6696 34.7508 20.6525 34.7752 20.6288 34.792C20.605 34.8087 20.5762 34.8166 20.5473 34.8143C20.5184 34.8121 20.4911 34.7997 20.4703 34.7795C19.5543 34.064 19.2928 32.805 19.2018 31.6795C19.1246 30.3448 19.2868 29.0071 19.6808 27.7295C20.0022 26.5825 20.6367 25.5477 21.5133 24.741C22.3363 23.9855 23.3178 23.2045 24.4738 23.191C24.5059 23.1901 24.5371 23.2013 24.5613 23.2224C24.5856 23.2434 24.601 23.2728 24.6046 23.3047C24.6082 23.3366 24.5996 23.3686 24.5807 23.3945C24.5617 23.4204 24.5338 23.4383 24.5023 23.4445C23.4719 23.8786 22.5553 24.5444 21.8238 25.39C21.1251 26.1584 20.6314 27.0904 20.3883 28.1C20.1138 29.2173 19.9629 30.3613 19.9383 31.5115C19.9273 32.5976 20.1784 33.6702 20.6703 34.6385ZM33.6398 27.1385C32.9306 25.6581 31.7368 24.4645 30.2563 23.7555C30.1153 23.671 30.2283 23.4735 30.3973 23.53C31.8633 24.15 33.2778 24.9645 34.1753 26.349C35.1958 27.9245 35.8048 30.019 35.4158 31.8755C35.3997 31.9303 35.3662 31.9784 35.3205 32.0127C35.2748 32.0469 35.2192 32.0654 35.162 32.0654C35.1049 32.0654 35.0493 32.0469 35.0036 32.0127C34.9578 31.9784 34.9244 31.9303 34.9083 31.8755C34.6923 30.2483 34.2659 28.656 33.6398 27.1385Z" fill="#EA3934"/>
<path d="M70.7719 68.95C69.7284 68.978 68.7139 68.9075 67.6719 68.9215C67.5459 68.9254 67.4262 68.9772 67.3371 69.0663C67.248 69.1554 67.1963 69.2751 67.1924 69.401C66.4924 76.4365 66.2339 87.2285 66.2339 93.8735C66.2339 94.184 70.7169 94.043 70.7449 93.9585C70.8125 93.9168 70.8686 93.8588 70.908 93.7898C70.9474 93.7208 70.9688 93.643 70.9704 93.5635C70.9704 93.5135 71.2054 74.658 71.2524 69.4575C71.2561 69.3922 71.2464 69.3268 71.2239 69.2654C71.2014 69.2039 71.1666 69.1477 71.1216 69.1002C71.0766 69.0527 71.0223 69.0148 70.9622 68.989C70.9021 68.9632 70.8373 68.9499 70.7719 68.95Z" fill="#EA3934"/>
<path d="M77.8204 84.5705C76.5794 84.5845 75.3394 84.5285 74.0984 84.5425C73.9727 84.5467 73.8532 84.5985 73.7642 84.6874C73.6753 84.7764 73.6235 84.8958 73.6194 85.0215C73.6741 86.8273 73.627 88.6346 73.4784 90.435C73.4284 91.535 73.4219 92.635 73.4219 93.735C73.4219 94.0735 78.1924 94.13 78.1869 93.425C78.1644 90.625 78.2994 89.025 78.2994 85.025C78.2911 84.903 78.2373 84.7885 78.1485 84.7044C78.0598 84.6202 77.9427 84.5724 77.8204 84.5705Z" fill="#EA3934"/>
<path d="M63.6384 74.646H60.1144C59.9884 74.6498 59.8686 74.7015 59.7795 74.7906C59.6904 74.8797 59.6387 74.9995 59.6349 75.1255C59.0349 80.4605 58.9019 89.0755 58.9019 93.903C58.9012 93.9587 58.9116 94.0141 58.9326 94.0657C58.9536 94.1174 58.9847 94.1643 59.0241 94.2037C59.0636 94.2432 59.1105 94.2743 59.1621 94.2953C59.2138 94.3163 59.2691 94.3267 59.3249 94.326C60.5634 94.192 63.9204 94.4385 63.9204 93.9595C63.9204 93.593 64.1179 76.338 64.1459 75.1255C64.1314 74.9986 64.0725 74.8809 63.9796 74.7931C63.8868 74.7054 63.7659 74.6533 63.6384 74.646Z" fill="#EA3934"/>
<path d="M85.5454 79.8341C85.5421 79.708 85.4906 79.5881 85.4015 79.4988C85.3124 79.4096 85.1925 79.358 85.0664 79.3546C83.9384 79.3546 82.5004 79.2981 81.3729 79.2981C81.2468 79.3014 81.1267 79.353 81.0375 79.4422C80.9483 79.5314 80.8967 79.6515 80.8934 79.7776C80.5459 83.2421 80.3579 92.8596 80.3579 94.1851C80.3579 94.4951 85.3764 94.4671 85.4044 93.9851C85.4044 93.2826 85.5174 83.8381 85.5454 79.8341Z" fill="#EA3934"/>
<path d="M39.8708 78.7346C39.7334 78.3088 39.5638 77.8941 39.3633 77.4941C39.2533 77.2386 39.0813 76.7891 38.7133 76.7891C38.6283 76.7891 37.9798 77.1556 38.0363 77.2391C36.7393 75.7731 35.5273 74.1941 34.2583 72.6996C34.3647 72.5156 34.4408 72.3157 34.4838 72.1076C34.6813 70.5006 31.7493 70.7546 32.3413 72.5576C29.9179 76.7525 27.7986 81.1158 25.9998 85.6141C25.7244 85.5846 25.4459 85.6134 25.1823 85.6986C23.1516 83.1684 21.2957 80.5025 19.6278 77.7196C19.7696 77.5552 19.8925 77.3754 19.9943 77.1836C20.0744 76.9322 20.0543 76.6596 19.9383 76.4226C19.8581 76.2637 19.7417 76.1259 19.5986 76.0201C19.4555 75.9142 19.2896 75.8434 19.1141 75.8133C18.9387 75.7832 18.7587 75.7945 18.5884 75.8465C18.4182 75.8985 18.2625 75.9896 18.1338 76.1126C17.961 76.2752 17.8356 76.4818 17.7711 76.7101C17.7065 76.9385 17.7052 77.1801 17.7673 77.4091C17.8697 77.6656 18.069 77.8715 18.322 77.9821C18.5751 78.0928 18.8615 78.0992 19.1193 78.0001C20.0883 79.7886 22.7648 83.6766 23.2923 84.4001C23.6013 84.8236 23.9423 85.2456 24.2508 85.6971C24.3918 85.8661 24.5048 86.0636 24.6458 86.2606C24.5821 86.4247 24.5349 86.5947 24.5048 86.7681C24.4825 86.919 24.4915 87.0728 24.5312 87.22C24.571 87.3672 24.6407 87.5046 24.7359 87.6237C24.8312 87.7428 24.9499 87.841 25.0848 87.9121C25.2197 87.9832 25.3678 88.0258 25.5198 88.0371C25.7765 88.0412 26.0285 87.9686 26.2436 87.8285C26.4586 87.6884 26.6269 87.4872 26.7269 87.2508C26.8268 87.0144 26.8538 86.7535 26.8045 86.5016C26.7551 86.2497 26.6316 86.0183 26.4498 85.8371C26.4728 85.7871 27.5223 83.2411 29.5498 79.1831C30.1138 78.0551 32.3913 73.6926 32.8498 73.1211C32.9058 73.0651 33.2443 73.1776 33.2998 73.1776C33.3843 73.1776 33.9763 73.0931 33.9198 72.9776C34.9513 74.6601 36.1208 76.2539 37.4163 77.7426C37.193 77.9122 36.9939 78.1113 36.8243 78.3346C36.6603 78.6476 37.5888 79.2321 37.7828 79.3781C38.479 79.9063 39.2038 80.3957 39.9538 80.8441C40.0178 80.8774 40.09 80.8916 40.1618 80.8848C40.2336 80.878 40.3019 80.8506 40.3585 80.8059C40.4151 80.7612 40.4575 80.7011 40.4808 80.6328C40.504 80.5646 40.5069 80.491 40.4893 80.4211C40.3323 79.8871 40.0838 79.3311 39.8708 78.7346Z" fill="#3A307F"/>
<path d="M83.1776 80.2C81.8516 80.535 79.2586 82.2865 79.2586 82.54C79.2586 82.709 79.8221 83.386 79.8786 83.3295C79.7941 83.414 77.3696 85.416 76.9181 85.726C76.7962 85.6104 76.6433 85.5328 76.478 85.5028C76.3127 85.4728 76.1423 85.4916 75.9876 85.557C75.7906 85.134 75.5671 84.7385 75.3676 84.3165C72.7071 78.685 71.4676 74.9165 69.9541 71.2625C71.3091 69.501 68.4541 68.455 68.0371 70.3035C67.9241 70.8065 68.2841 70.222 63.1871 74.5895C62.8526 74.876 62.4821 75.1815 62.1441 75.4895C61.9517 75.423 61.7533 75.3757 61.5516 75.3485C61.3679 75.3705 61.1924 75.4367 61.0401 75.5416C60.8878 75.6465 60.7633 75.7868 60.6773 75.9505C60.5912 76.1142 60.5463 76.2964 60.5464 76.4813C60.5464 76.6662 60.5915 76.8484 60.6776 77.012C60.8124 77.2586 61.0395 77.4416 61.3091 77.5209C61.5787 77.6002 61.8687 77.5693 62.1156 77.435C62.2426 77.3738 62.3557 77.2871 62.4479 77.1804C62.5401 77.0736 62.6094 76.9491 62.6516 76.8145C62.6594 76.5122 62.6309 76.21 62.5666 75.9145C65.5611 73.4745 67.7436 71.58 68.2621 71.234C68.2056 71.2625 68.7416 71.6005 68.8261 71.629C69.0775 71.7089 69.3501 71.6887 69.5871 71.5725C70.7463 75.3844 72.1593 79.1144 73.8166 82.7375C74.3721 84.0115 74.5871 84.354 75.2541 85.867C75.057 86.0369 74.9202 86.266 74.8644 86.5202C74.8085 86.7743 74.8364 87.0396 74.9441 87.2765C75.4126 88.2985 76.9516 88.087 77.3126 87.051C77.4111 86.7889 77.4209 86.5017 77.3406 86.2335C77.3406 86.2335 79.6526 84.288 80.3011 83.7525C80.5346 84.0513 80.8336 84.2925 81.1751 84.4575C81.3441 84.542 83.2501 81.6155 83.5996 80.623C83.6891 80.371 83.4026 80.1435 83.1776 80.2Z" fill="#3A307F"/>
<path d="M53.9397 41.6026C53.6297 44.3371 52.9707 47.0725 53.1507 49.835C53.2043 51.0556 53.51 52.2519 54.0486 53.3486C54.5872 54.4452 55.347 55.4185 56.2802 56.2071C58.0302 57.6391 60.3072 58.531 62.4262 59.307C66.8874 61.0284 71.629 61.9079 76.4107 61.9011C81.1377 61.9011 85.2867 60.6561 87.4067 56.4011C88.8032 53.5986 89.2532 47.951 91.4382 37.257C93.7207 26.0896 96.7507 18.5571 94.2882 13.3481C93.3889 11.5289 91.8239 10.1255 89.9177 9.42905C88.7743 9.00427 87.5948 8.68347 86.3937 8.47055C79.8777 7.13705 72.5557 4.21755 65.7552 6.41255C64.6333 6.73436 63.5867 7.27657 62.6767 8.0075C61.7667 8.73842 61.0115 9.64341 60.4552 10.6696C59.0877 13.0461 58.4162 15.7431 57.8897 18.3951C56.6097 24.8416 54.8952 33.2176 54.4497 39.8511C54.4177 40.3301 55.1567 40.3306 55.2112 39.8511C56.0432 32.5011 56.1237 31.327 57.7487 23.1595C59.6562 13.573 60.1057 7.29805 69.3927 6.46855C74.8322 5.98305 80.0477 7.87655 85.9427 9.14705C88.0292 9.59705 90.2557 10.0496 91.9197 11.4876C95.6407 14.7026 94.4412 20.478 93.5267 24.654C92.9532 27.274 92.3702 29.8701 91.7507 32.4641C89.9902 39.8356 89.3722 44.9816 88.1137 51.1851C87.5137 54.1391 87.1637 56.4135 84.9837 58.5155C81.9132 61.4785 77.2032 61.3781 73.2267 61.0531C68.5222 60.6458 63.9237 59.4268 59.6352 57.4501C52.2967 54.0876 53.5797 49.1185 54.2502 41.5765C54.2782 41.405 53.9397 41.4051 53.9397 41.6026Z" fill="#3A307F"/>
<path d="M75.7059 19.808C73.5179 17.908 69.9814 18.0295 69.7559 18.1165C69.6139 18.1715 67.4559 27.733 67.3589 28.21C67.2839 28.5785 66.9649 30.1535 67.4719 30.268C68.2059 30.4345 71.1654 31.1055 71.7294 31.114C73.6844 31.1445 75.5919 30.4945 76.1294 28.605C76.4287 27.5656 76.3385 26.4527 75.8759 25.475C75.6505 25.0677 75.3316 24.7198 74.9454 24.46C75.3762 24.2736 75.7532 23.982 76.0418 23.6119C76.3304 23.2418 76.5214 22.805 76.5971 22.3418C76.6728 21.8786 76.6309 21.4038 76.4752 20.9611C76.3194 20.5183 76.0549 20.1218 75.7059 19.808ZM70.9124 23.53C71.0534 22.825 71.6174 20.1185 71.7019 19.357C72.5867 19.5362 73.383 20.014 73.9574 20.7105C74.6844 21.9265 73.6459 23.157 72.4349 23.4735C71.9305 23.5423 71.4205 23.5612 70.9124 23.53ZM70.7154 24.6575C71.5522 24.8025 72.3609 25.0784 73.1119 25.475C73.5572 25.788 73.8813 26.2446 74.0302 26.7682C74.179 27.2917 74.1434 27.8505 73.9294 28.351C73.5684 29.34 72.5764 29.7645 71.5609 29.817C70.9811 29.8377 70.4015 29.7713 69.8414 29.62C70.1234 27.9565 70.4049 26.293 70.7154 24.6575Z" fill="#EA3934"/>
<path d="M84.8968 21.979C84.4627 21.2693 83.9922 20.5824 83.4873 19.921C83.0903 19.387 82.3313 18.1445 82.2468 18.032C81.9083 17.468 80.9208 17.357 80.3578 17.186C75.9123 15.836 70.3453 14.581 65.6968 14.677C65.6634 14.6782 65.6307 14.687 65.6012 14.7028C65.5718 14.7186 65.5464 14.741 65.527 14.7682C65.5077 14.7955 65.4949 14.8268 65.4896 14.8599C65.4844 14.8929 65.4868 14.9266 65.4968 14.9585C64.8863 16.5865 63.7213 21.9655 63.3823 23.6145C62.7848 26.5175 62.1823 29.4765 62.1133 32.439C62.8782 33.4775 63.697 34.4752 64.5663 35.4281C64.8851 35.7239 65.2243 35.9971 65.5813 36.2455C66.0018 36.531 66.5158 35.8746 66.1168 35.5406C65.8098 35.2836 63.7488 33.5105 63.4948 33.285C64.3408 33.539 65.2158 33.702 66.0608 33.877C67.2463 34.1225 74.8853 35.0021 75.5903 35.0331C76.1823 35.0591 77.3903 35.371 77.4793 34.723C77.5873 33.933 70.9378 33.6265 69.6978 33.4825C68.5133 33.3445 63.0438 32.439 63.0438 32.439C63.3488 29.797 63.3698 28.622 64.2843 23.6145C65.3578 17.7375 65.6818 16.9 65.8633 15.156C69.9888 15.6055 74.0654 16.4265 78.0433 17.609C78.7473 17.809 79.4518 18.0365 80.1578 18.2295C80.6034 18.4085 81.0664 18.5407 81.5393 18.624C80.5423 24.0195 79.8058 28.5491 78.7763 32.5801C78.5516 33.1936 78.4464 33.8445 78.4663 34.4976C78.4943 34.6386 80.1053 37.0031 80.4663 37.4296C80.5426 37.5009 80.642 37.5424 80.7463 37.5467C80.8507 37.551 80.9532 37.5178 81.0351 37.453C81.117 37.3882 81.173 37.2961 81.1928 37.1936C81.2127 37.091 81.1951 36.9847 81.1433 36.8941C80.9738 36.6401 79.3668 34.6101 79.2258 34.4691C79.5223 33.9653 79.7231 33.4109 79.8178 32.834C79.9873 32.1575 80.1523 31.4515 80.2973 30.7755C80.5973 29.3645 81.8763 21.697 82.1298 19.244C82.1608 19.294 83.9203 22.113 84.1298 22.402C84.1585 22.4511 84.1969 22.4938 84.2426 22.5276C84.2883 22.5614 84.3404 22.5857 84.3957 22.5988C84.451 22.612 84.5084 22.6139 84.5644 22.6043C84.6205 22.5947 84.674 22.5739 84.7218 22.543C84.774 22.5216 84.8208 22.4889 84.8589 22.4473C84.897 22.4057 84.9254 22.3561 84.9421 22.3023C84.9588 22.2484 84.9634 22.1915 84.9556 22.1356C84.9478 22.0797 84.9277 22.0263 84.8968 21.979Z" fill="#EA3934"/>
<path d="M68.178 11.1245C68.289 11.1963 68.4139 11.2442 68.5445 11.265C68.657 11.2935 69.3905 11.431 69.616 11.4625C71.2265 11.6905 71.561 11.519 71.5895 11.2935C71.6 11.1829 71.5721 11.072 71.5105 10.9795C71.4488 10.8871 71.3572 10.8187 71.251 10.786C70.4857 10.6581 69.7138 10.5733 68.939 10.532C68.6724 10.5399 68.4076 10.5778 68.1495 10.645C68.1148 10.6756 68.0875 10.7138 68.0698 10.7565C68.052 10.7992 68.0442 10.8455 68.0469 10.8917C68.0497 10.9379 68.0629 10.9829 68.0856 11.0232C68.1083 11.0635 68.1399 11.0982 68.178 11.1245Z" fill="#3A307F"/>
<path d="M76.1283 12.224C76.6908 12.345 78.3838 12.621 78.6378 12.647C78.9478 12.678 79.3403 12.812 79.5963 12.647C79.651 12.6117 79.6972 12.5649 79.7318 12.5098C79.7664 12.4547 79.7885 12.3927 79.7966 12.3282C79.8046 12.2636 79.7984 12.1981 79.7784 12.1362C79.7584 12.0743 79.7251 12.0176 79.6808 11.97C79.3618 11.611 76.6598 11.5754 76.1848 11.5754C75.8463 11.5469 75.7608 12.1445 76.1283 12.224Z" fill="#3A307F"/>
<path d="M83.5999 13.4644C84.0829 13.7404 86.5604 14.5919 86.8424 14.3949C86.9224 14.3466 86.9849 14.2741 87.0208 14.1879C87.0568 14.1017 87.0644 14.0062 87.0424 13.9154C86.9579 13.6899 84.3064 12.9154 83.7424 12.9569C83.6818 12.955 83.6222 12.9735 83.5733 13.0094C83.5244 13.0453 83.4889 13.0965 83.4725 13.1549C83.4561 13.2133 83.4597 13.2755 83.4828 13.3316C83.5059 13.3877 83.5471 13.4345 83.5999 13.4644Z" fill="#3A307F"/>
<path d="M64.2871 48.9045C66.3541 49.5015 66.4701 49.2045 73.5371 50.6545C74.3131 50.813 74.5371 50.0295 74.1006 49.8085C73.3231 49.5068 72.5068 49.3169 71.6761 49.2445C69.1421 48.8 66.2131 48.3265 64.3456 48.455C64.2918 48.4579 64.2407 48.4795 64.2012 48.5161C64.1617 48.5527 64.1363 48.602 64.1294 48.6554C64.1224 48.7088 64.1344 48.763 64.1632 48.8085C64.192 48.854 64.2358 48.8879 64.2871 48.9045Z" fill="#D4D2E1"/>
<path d="M66.345 51.7805C67.2509 52.0643 68.1739 52.2903 69.1085 52.457C69.4465 52.542 69.8965 52.626 70.0085 52.2035C70.176 51.5825 69.332 51.527 68.937 51.4705C68.1012 51.3111 67.2478 51.2637 66.3995 51.3295C66.3432 51.3289 66.2887 51.3491 66.2463 51.3862C66.204 51.4233 66.1769 51.4747 66.1701 51.5306C66.1634 51.5865 66.1775 51.6429 66.2097 51.689C66.242 51.7352 66.2902 51.7677 66.345 51.7805Z" fill="#D4D2E1"/>
<path d="M60.5369 53.3309C61.7339 54.0884 68.9329 55.3119 70.3204 55.5584C72.2374 55.8989 74.1269 56.3209 76.0704 56.5169C76.6339 56.5739 76.7459 55.6749 76.2114 55.5584C73.5849 54.9854 70.9114 54.6294 68.2614 54.1489C67.0209 53.9239 63.2689 53.2604 62.6224 53.1619C61.9755 53.0148 61.3114 52.958 60.6489 52.9929C60.6075 52.9883 60.5657 52.998 60.5306 53.0205C60.4955 53.0431 60.4691 53.0769 60.456 53.1165C60.4429 53.1561 60.4438 53.199 60.4585 53.238C60.4732 53.2771 60.5009 53.3098 60.5369 53.3309Z" fill="#D4D2E1"/>
</svg>
