<svg width="94" height="79" viewBox="0 0 94 79" fill="none" xmlns="http://www.w3.org/2000/svg">
<path fill-rule="evenodd" clip-rule="evenodd" d="M6.76913 74.2502C2.93188 74.2827 0.65429 74.3022 0.655475 74.3022C0.0282252 74.3197 0.0288803 74.6787 0.0314053 76.0587C0.0323303 76.5652 0.0335103 77.2092 0.00397528 78.0247C0.00351028 78.0372 0.00285526 78.0497 0.00221026 78.0622C-0.000344737 78.1112 -0.00273984 78.1567 0.00758016 78.1997C0.15484 78.8092 2.89162 78.7927 44.6989 78.5462C57.0805 78.4732 72.889 78.3802 93.072 78.2772C93.624 78.2742 93.7955 78.2177 93.6975 74.7857H93.697C93.692 74.6192 93.692 74.4747 93.6915 74.3487V74.3482C93.6905 73.9872 93.69 73.7807 93.5875 73.6632C93.4495 73.5057 93.127 73.5097 92.371 73.5192C92.302 73.5202 92.2295 73.5212 92.153 73.5222L91.425 73.5282C91.1155 73.8022 90.784 74.0432 90.435 74.2522L92.613 74.2367C93.0495 74.2117 93.05 74.4657 93.055 76.6942C93.056 76.9577 93.0565 77.2492 93.058 77.5712C92.6695 77.7032 90.744 77.7022 82.674 77.6992C74.3605 77.6962 59.5275 77.6907 33.138 77.8257H33.1385C22.3606 77.8802 15.1584 77.9412 10.3463 77.9817C1.55782 78.0562 0.74169 78.0627 0.675435 77.8432C0.668655 77.8212 0.66973 77.7962 0.670915 77.7687L0.671475 77.7552C0.707185 76.7617 0.70152 76.1092 0.69781 75.6812C0.693045 75.1327 0.691485 74.9527 0.784475 74.8972L7.52527 74.8487C7.25862 74.6632 7.00618 74.4632 6.76913 74.2502ZM17.108 74.7797L17.2972 74.7782C17.2705 74.7502 17.2447 74.7177 17.2184 74.6782C17.1854 74.7112 17.1485 74.7452 17.108 74.7797ZM19.8376 74.7602C19.8895 74.7057 19.9388 74.6367 19.9829 74.5497C20.2327 74.5347 20.4573 74.3772 20.5526 74.1327L30.446 74.0482C30.663 74.2772 30.8926 74.4867 31.1327 74.6787L19.8376 74.7602ZM45.7311 74.5737L41.4998 74.6042C41.5479 74.5367 41.5906 74.4677 41.6275 74.3977C42.197 74.5412 43.7528 74.4687 44.3898 73.9297L45.6286 73.9192C45.5939 74.1527 45.6403 74.3622 45.7311 74.5737ZM66.395 74.4252L82.109 74.3122C81.6765 74.1107 81.2525 73.8792 80.842 73.6187L80.375 73.6227C80.1125 73.7227 79.718 73.7197 79.2585 73.6322L67.187 73.7352C66.9385 73.9847 66.6735 74.2147 66.395 74.4252Z" fill="#3A307F"/>
<path d="M46.1365 36.4223C44.5885 36.3913 41.9665 36.6223 41.123 35.6833C40.131 34.5793 38.77 33.3338 38.9205 33.0633C38.9825 32.9518 40.505 32.8303 40.9905 32.8733C41.658 32.9328 41.2195 32.3598 41.3595 31.4023C41.475 30.6133 42.548 31.4378 42.8995 29.9648C43.0575 29.3023 42.5245 28.4213 41.7595 28.4758C41.3685 28.5038 41.376 28.3533 41.4035 27.2203C41.4135 26.8083 41.1635 26.9453 40.6725 26.9148C39.962 26.8703 40.056 28.4673 38.521 28.3193C36.791 28.1528 37.6645 26.5653 36.1205 27.0283C35.695 27.1558 35.264 27.0573 34.8365 27.0918C34.4235 27.1248 32.3065 22.6058 31.696 19.7048C31.6085 19.2898 31.477 18.9338 32.871 19.0823C34.41 19.2463 33.473 17.3828 35.6265 17.5363C37.1215 17.6428 37.1895 18.9983 37.397 19.0373C37.6745 19.0898 37.969 19.0703 38.2535 19.0523C38.4155 19.0423 38.373 18.8813 38.374 18.7738C38.3885 17.5173 38.2495 17.2308 38.8055 17.2083C40.1035 17.1563 40.5945 15.4173 39.3325 14.7413C38.9855 14.5553 38.315 14.8718 38.3755 14.2578C38.481 13.1893 38.501 13.0923 38.097 13.1138C36.819 13.1813 36.7375 13.1578 36.729 12.7638C36.699 11.4418 35.029 11.0518 34.3395 12.1798C34.077 12.6088 34.415 13.1578 33.9785 13.1708C31.617 13.2428 31.4655 13.3498 31.583 12.6783C32.6485 6.57984 37.1445 1.91534 42.8445 0.0898406C43.337 -0.0681594 43.355 -0.05816 43.35 0.45384C43.3435 1.16034 43.131 1.73184 43.8235 2.14484C45.1535 2.93834 44.8225 4.76434 43.6615 5.20384C43.354 5.32034 43.372 5.54784 43.371 5.79484C43.3675 6.71584 43.367 6.70084 44.302 6.72184C44.666 6.72984 44.844 6.64334 44.9795 6.26134C45.485 4.83784 47.496 4.53684 48.304 6.35584C48.4215 6.62034 48.1685 6.83434 49.436 6.67634C49.5245 6.66534 49.5385 6.67634 49.469 5.24684C49.455 4.95934 49.5735 4.83584 49.869 4.82284C51.6245 4.74334 51.6395 2.40884 49.9315 2.26534C49.5935 2.23684 49.5235 2.09934 49.5565 1.80584C49.711 0.44184 49.429 -0.0521597 49.994 0.0748403C54.795 1.15084 59.8305 5.41934 61.3125 10.7028C61.43 11.1218 61.3435 11.2393 60.9305 11.2348C59.2435 11.2148 58.8685 11.3023 58.784 10.6638C58.5355 8.78584 56.2815 9.34284 56.309 10.6468C56.3305 11.6733 54.1595 10.2788 54.586 11.9798C54.6385 12.1888 54.825 12.2083 54.971 12.2833C56.166 12.9003 56.3845 14.4133 55.397 15.2608C54.65 15.9023 54.6835 15.0013 54.653 16.8353C54.651 16.9578 54.7255 17.0153 54.845 17.0143C55.779 17.0053 55.75 17.0638 55.8645 16.7508C56.623 14.6728 59.0025 15.4848 59.2495 16.7578C59.298 17.0073 59.2735 17.0798 61.654 17.0163C62.02 17.0063 62.0875 17.1643 62.059 17.4858C61.462 24.2768 56.9935 29.9858 53.2445 34.8483C51.8635 36.6398 49.0935 36.4808 46.136 36.4218L46.1365 36.4223ZM48.489 34.1403C48.5115 34.3183 48.51 34.5948 48.8015 34.5718C49.5 34.5163 48.4295 30.4138 49.0365 25.5453C49.0985 25.0478 49.297 25.3933 50.645 25.1963C52.3085 24.9538 53.4535 23.6068 53.9455 22.1533C55.022 18.9703 53.1795 16.9433 51.4845 17.6443C49.2525 18.5678 48.7535 21.0483 48.342 23.9003C48.2545 24.5063 48.1005 24.0908 46.419 24.3398C45.9575 24.4078 46.342 24.2068 45.7615 21.8788C45.449 20.6253 45.132 19.3558 44.0935 18.4598C43.1825 17.6738 42.224 17.3803 41.2215 18.1313C38.8655 19.8953 40.9 25.9523 44.9995 25.3908C45.4165 25.3338 45.695 25.2723 45.687 29.2933C45.678 33.8833 45.269 34.4968 45.7995 34.5308C46.622 34.5838 46.392 26.8703 46.299 25.7133C46.2595 25.2238 46.472 25.4073 47.8745 25.3413C48.6085 25.3068 47.669 27.6163 48.4885 34.1408L48.489 34.1403Z" fill="#EA3934"/>
<path d="M45.4839 37.0871C50.999 37.6271 52.2185 36.2486 52.074 37.3376C51.82 39.2486 51.5965 39.2436 51.137 39.3543C48.468 39.9968 45.3049 39.8643 42.5819 39.5213C41.8719 39.4318 41.6679 39.1291 41.5614 37.4661C41.5274 36.9331 41.5674 37.0871 45.4839 37.0871Z" fill="#3A307F"/>
<path d="M46.486 42.6184C45.367 42.6014 44.2565 42.4509 43.1425 42.3539C42.874 42.3304 42.657 42.2344 42.6075 41.9499C42.4145 40.8369 42.149 40.1404 42.8135 40.1764C46.733 40.3894 48.158 40.5389 50.9575 40.0194C51.7475 39.8729 51.3565 40.6004 51.1085 41.8449C50.966 42.5599 47.205 42.6289 46.486 42.6179V42.6184Z" fill="#3A307F"/>
<path d="M47.3385 46.5398C44.923 46.5518 43.69 44.9363 43.301 43.2523C43.2175 42.8903 43.509 42.9828 43.684 43.0008C49.647 43.6123 50.776 42.2918 50.491 43.2128C49.9295 45.0273 49.2355 46.4238 47.3385 46.5393V46.5398Z" fill="#3A307F"/>
<path d="M44.378 24.4381C40.23 24.3801 40.1175 16.8301 43.221 18.9261C44.53 19.8101 45.0495 22.2426 45.2185 23.7946C45.291 24.4601 45.333 24.4516 44.378 24.4381Z" fill="#EA3934"/>
<path d="M51.0965 24.1063C50.604 24.2923 50.029 24.2648 49.489 24.3103C49.2315 24.3323 49.2025 24.1433 49.2195 23.9313C49.273 23.2718 49.4335 22.6313 49.5915 21.9943C50.1095 19.9053 50.5075 19.2588 51.5305 18.6033C53.7985 17.1508 54.496 22.8238 51.096 24.1063H51.0965Z" fill="#EA3934"/>
<path d="M84.973 62.7842C85.0515 62.4937 84.9679 62.3532 84.5639 62.2657C81.8454 61.6757 83.1034 57.6512 82.7019 57.3832C80.7579 56.0822 81.7954 52.7867 84.5629 53.7362C86.2649 54.3202 85.658 55.2057 86.1445 55.1497C88.3925 54.8907 89.1789 56.5782 88.7439 58.3427C88.6464 58.7377 88.4434 59.0997 88.4414 59.5302C88.4384 60.0682 87.4605 60.0582 87.5195 61.0812C87.5445 61.5107 87.5445 61.9417 87.5445 62.3732C87.5445 63.4617 86.294 64.2187 85.3095 63.7362C84.9055 63.5382 84.9754 63.1802 84.9724 62.7852L84.973 62.7842ZM83.3685 60.1642C83.4995 61.1722 84.3435 61.9012 85.374 61.6227C86.0065 61.4517 86.2565 61.2872 86.357 61.5472C86.4405 61.7622 86.0414 61.9947 85.9359 62.0147C85.3479 62.1267 85.353 62.5547 85.373 63.0132C85.403 63.6897 87.0385 63.3572 87.052 62.2792C87.056 61.9637 87.0785 61.6457 87.052 61.3332C86.9145 59.7027 88.2885 59.7217 87.972 59.2792C87.8555 59.1162 87.65 59.1932 87.4915 59.2392C86.8375 59.4267 86.8449 59.4342 86.8379 58.7387C86.8299 57.9192 86.7694 57.3927 86.1129 56.9642C85.7819 56.7482 86.0464 57.0992 84.1674 57.5402C83.8589 57.6127 83.4284 57.3712 83.2699 57.6892C83.1114 58.0072 83.3245 59.8272 83.3685 60.1642Z" fill="#3A307F"/>
<path d="M90.665 63.8011C90.1635 63.4241 88.0675 62.1781 87.865 62.5551C87.7675 62.7361 87.8455 62.7736 89.4365 63.5736C92.5825 65.1556 93.341 68.8691 91.625 71.4961C88.0315 76.9976 79.7595 72.1371 80.08 71.3771C80.243 70.9911 80.463 70.6381 80.7185 70.3086C80.9125 70.0581 82.8395 71.2081 86.0715 70.0941C88.4235 69.2831 89.1405 67.0356 88.7285 66.5421C88.439 66.7521 87.376 71.1366 81.191 69.8686C80.3285 69.6916 80.255 70.0681 80.1155 70.1416C79.9635 70.3716 78.696 71.2166 79.975 72.3021C83.898 75.6321 90.027 75.7851 92.4175 71.3976C93.463 69.4786 93.6075 66.0141 90.6655 63.8021L90.665 63.8011Z" fill="#3A307F"/>
<path d="M79.6905 67.6003C80.4675 63.8403 84.5425 62.4873 84.731 63.0453C84.8205 63.3108 84.4205 63.2993 84.2355 63.3748C80.384 64.9478 80.2115 68.2818 79.8435 68.1913C79.6475 68.1433 79.6995 67.8778 79.6905 67.6003Z" fill="#3A307F"/>
<path d="M76.3055 70.9753C75.3565 70.0658 75.7845 69.6603 76.421 68.7073C76.5125 68.5703 76.7425 68.4288 76.656 68.2923C76.502 68.0488 76.093 68.4078 75.91 68.6198C73.4435 71.4773 80.0255 73.6783 80.2145 73.0683C80.0235 72.8903 77.8005 72.4088 76.305 70.9753H76.3055Z" fill="#3A307F"/>
<path d="M82.46 66.2237C82.5265 66.7052 82.4895 67.0267 82.281 69.3232C82.271 69.4347 82.275 69.5787 82.125 69.5867C81.6135 69.6137 81.9945 66.1737 82.46 66.2242V66.2237Z" fill="#3A307F"/>
<path d="M73.037 68.2551C73.002 68.1496 73.1275 68.0641 73.213 68.1346C74.8655 69.5006 75.2485 69.1591 75.2235 69.4806C75.184 69.9871 73.4 69.3446 73.037 68.2551Z" fill="#3A307F"/>
<path d="M76.0915 68.2268C76.367 67.0798 75.197 65.7468 74.9125 65.9648C74.7405 66.0963 74.9005 66.2893 74.991 66.4223C75.8405 67.6678 75.6965 68.4258 76.092 68.2268H76.0915Z" fill="#3A307F"/>
<path d="M73.017 66.8716C74.2745 68.2086 74.305 68.1826 74.2085 68.3031C73.9205 68.6616 72.596 67.1801 73.017 66.8716Z" fill="#3A307F"/>
<path d="M74.9605 67.2008C74.9265 68.0373 73.827 66.2087 74.0465 66.0397C74.259 65.8762 74.8085 66.5748 74.9605 67.2008Z" fill="#3A307F"/>
<path d="M73.4665 66.5658C73.33 65.9203 74.726 67.4363 74.3925 67.6668C74.131 67.8473 73.5855 67.1278 73.4665 66.5658Z" fill="#3A307F"/>
<path d="M77.2285 70.6881C77.164 70.5976 77.2585 70.4786 77.361 70.5211C79.342 71.3416 79.6075 70.9031 79.678 71.2176C79.789 71.7131 77.8945 71.6236 77.228 70.6876L77.2285 70.6881Z" fill="#3A307F"/>
<path d="M80.1395 69.7651C80.066 68.5871 78.556 67.6566 78.348 67.9486C78.2225 68.1246 78.4315 68.2621 78.557 68.3626C79.735 69.3041 79.8195 70.0706 80.1395 69.7651Z" fill="#3A307F"/>
<path d="M76.803 69.3711C78.3975 70.2801 78.4195 70.2466 78.362 70.3896C78.1915 70.8156 76.491 69.7896 76.803 69.3711Z" fill="#3A307F"/>
<path d="M78.7575 69.1158C78.9695 69.9253 77.3825 68.5008 77.543 68.2733C77.698 68.0543 78.4285 68.5618 78.7575 69.1158Z" fill="#3A307F"/>
<path d="M77.142 68.9477C76.8225 68.3707 78.602 69.4102 78.3505 69.7287C78.1535 69.9782 77.4205 69.4502 77.142 68.9477Z" fill="#3A307F"/>
<path d="M86.297 57.7833C86.218 58.0118 85.9605 57.7858 85.5905 57.7563C85.4265 57.7433 85.1915 57.7933 85.2195 57.5373C85.271 57.0698 86.4435 57.3618 86.297 57.7838V57.7833Z" fill="#3A307F"/>
<path d="M85.0695 59.8407C84.174 60.1092 83.993 59.6622 84.359 58.8272C84.4045 58.7237 84.5745 58.8212 84.537 59.0342C84.473 59.3972 84.545 59.6907 85.07 59.8407H85.0695Z" fill="#3A307F"/>
<path d="M85.2285 60.9378C84.8325 60.9148 84.8115 60.2453 85.2225 60.2403C85.6335 60.2353 85.678 60.8818 85.2285 60.9378Z" fill="#3A307F"/>
<path d="M83.576 58.7952C83.606 58.3367 84.0105 58.4022 84 58.8142C83.996 58.9732 83.9475 59.1132 83.767 59.1057C83.569 59.0972 83.586 58.9247 83.576 58.7952Z" fill="#3A307F"/>
<path d="M85.5765 58.4211C85.9205 58.4461 85.896 58.9951 85.5985 59.0081C85.329 59.0201 85.311 58.4896 85.5765 58.4211Z" fill="#3A307F"/>
<path d="M62.897 55.8259C63.609 53.7944 66.1885 53.8899 67.069 55.4679C67.47 56.1869 67.258 56.8864 67.1885 57.7869C67.103 58.9019 68.2765 58.5884 67.9445 59.3089C67.434 60.4169 65.334 60.4189 65.1065 58.9669C64.968 58.0814 65.392 56.9704 63.867 57.0759C64.4985 58.2089 64.1865 59.3189 64.1375 59.3919C63.7575 59.9589 63.7685 60.7519 63.109 61.1614C62.596 61.4799 63.411 63.9624 62.2785 64.5524C61.7125 64.8474 61.151 64.8144 60.5935 64.5064C60.352 64.3729 60.3715 64.1564 60.3725 63.9454C60.3825 61.9519 59.2015 63.7009 58.5035 61.6654C57.806 59.6299 58.7465 58.7809 57.867 58.8739C57.5925 58.9029 57.188 58.9554 57.086 58.6829C56.927 58.2589 57.666 58.4789 58.3305 57.1469C59.221 55.3614 61.615 54.6629 62.8965 55.8259H62.897ZM58.6115 59.6459C58.72 60.4844 58.727 63.1024 61.174 62.2889C61.2825 62.2529 61.4295 62.0454 61.529 62.2499C61.6055 62.4069 61.4485 62.5374 61.328 62.6419C61.0545 62.8789 60.6875 62.6954 60.766 63.4219C60.815 63.8744 60.6825 64.0944 60.8895 64.1849C61.518 64.4594 62.463 64.2039 62.4355 63.3124C62.3735 61.2849 62.4845 61.0864 62.7735 60.8254C62.9835 60.6354 63.416 60.4814 63.201 60.1509C62.975 59.8039 62.677 60.1454 62.43 60.2884C62.065 60.4999 61.9155 60.1849 61.9555 59.7709C62.0665 58.6229 62.394 57.4294 61.2135 57.7714C60.8215 57.8849 59.996 58.3884 59.37 58.5899C58.614 58.8329 58.616 58.8414 58.612 59.6464L58.6115 59.6459Z" fill="#3A307F"/>
<path d="M65.595 64.9228C64.1485 63.8368 63.2245 63.7987 63.3795 63.4427C63.6085 62.9167 68.204 64.7698 68.557 68.7818C68.9605 73.3698 63.2775 77.5383 56.9175 74.5018C56.3325 74.2223 55.9225 73.2162 56.031 72.6722C56.413 70.7542 63.1155 71.6388 64.0605 68.0833C64.1805 67.6318 64.456 67.6442 64.4245 68.1647C64.192 72.0067 56.577 71.5488 56.703 72.9943C56.73 73.3028 56.7795 73.6213 57.114 73.7903C64.7845 77.6683 71.6705 69.4827 65.5955 64.9222L65.595 64.9228Z" fill="#3A307F"/>
<path d="M56.4689 70.9808C55.3019 71.3418 52.7284 71.2003 49.5099 72.9168C49.3099 73.0233 49.2624 73.0998 49.3684 73.2988C49.5624 73.6648 49.7834 73.8948 50.2679 73.8378C54.8659 73.2963 52.5784 74.7138 49.8879 74.3323C49.3764 74.2598 48.7449 73.5058 48.8044 73.0063C48.8574 72.5588 51.2049 71.1748 54.0289 70.7733C54.7294 70.6738 54.7199 70.7813 54.8009 70.0483C55.4584 64.1093 60.0684 63.3703 60.1499 63.8213C60.1909 64.0493 59.9419 63.8928 58.6259 64.6023C56.3114 65.8508 55.4009 68.7008 55.3559 70.2833C55.3329 71.0898 55.8459 70.4178 56.4539 70.6988C56.5289 70.7333 56.5139 70.9663 56.4689 70.9803V70.9808Z" fill="#3A307F"/>
<path d="M57.7725 67.3213C57.9675 67.5173 57.938 67.4973 57.856 70.6238C57.849 70.8943 57.8025 71.1858 57.5795 71.1738C57.079 71.1468 57.27 67.6333 57.7725 67.3213Z" fill="#3A307F"/>
<path d="M53.3444 74.1783C52.9194 73.4403 54.2439 72.3533 55.3489 72.5808C55.5009 72.6123 55.6959 72.6313 55.6754 72.8393C55.6329 73.2798 55.0379 72.2703 53.3439 74.1783H53.3444Z" fill="#3A307F"/>
<path d="M55.4825 73.6034C55.5085 73.7984 55.3275 73.8034 55.186 73.8274C54.2765 73.9814 54.353 74.5079 54.1035 74.2629C53.748 73.9139 55.399 72.9764 55.483 73.6034H55.4825Z" fill="#3A307F"/>
<path d="M56.079 74.2289C56.066 74.3234 56.0085 74.3809 55.9385 74.3809C55.475 74.3809 54.8535 75.0334 54.91 74.5299C54.976 73.9409 56.074 73.8264 56.079 74.2294V74.2289Z" fill="#3A307F"/>
<path d="M46.255 74.4029C45.83 73.6649 47.1545 72.5779 48.2595 72.8054C48.4115 72.8369 48.6065 72.8559 48.586 73.0639C48.5435 73.5044 47.9485 72.4949 46.2545 74.4029H46.255Z" fill="#3A307F"/>
<path d="M48.3925 73.8288C48.4185 74.0238 48.2375 74.0288 48.096 74.0528C47.1865 74.2068 47.263 74.7333 47.0135 74.4883C46.658 74.1393 48.309 73.2018 48.393 73.8288H48.3925Z" fill="#3A307F"/>
<path d="M48.9895 74.4538C48.9765 74.5483 48.919 74.6058 48.849 74.6058C48.3855 74.6058 47.764 75.2583 47.8205 74.7548C47.8865 74.1658 48.9845 74.0513 48.9895 74.4543V74.4538Z" fill="#3A307F"/>
<path d="M60.481 60.6584C60.0245 61.0514 59.451 60.4479 59.6495 60.0834C59.758 59.8844 59.6425 59.4579 59.927 59.4994C60.2335 59.5444 60.0405 59.9044 60.0045 60.1189C59.9385 60.5099 60.3785 60.4144 60.481 60.6589V60.6584Z" fill="#3A307F"/>
<path d="M61.1484 61.1319C60.9524 61.8314 60.2324 61.8384 60.1784 61.5349C60.1149 61.1809 60.4449 61.6384 60.8719 61.0314C61.0149 60.8284 61.1514 60.9779 61.1484 61.1319Z" fill="#3A307F"/>
<path d="M61.054 59.2539C61.3845 59.2759 61.3805 59.8359 61.092 59.8519C60.7655 59.8699 60.7705 59.3209 61.054 59.2539Z" fill="#3A307F"/>
<path d="M59.0844 59.2817C59.3749 59.3057 59.3479 59.7512 59.1044 59.8067C58.8339 59.8682 58.7969 59.3907 59.0844 59.2817Z" fill="#3A307F"/>
<path d="M61.8389 58.6708C61.7599 58.8993 61.5024 58.6733 61.1324 58.6438C60.9684 58.6308 60.7334 58.6808 60.7614 58.4248C60.8129 57.9573 61.9854 58.2493 61.8389 58.6713V58.6708Z" fill="#3A307F"/>
<path d="M35.092 56.2994C36.463 55.3174 38.9195 55.7274 39.5815 58.3059C39.8535 59.3654 38.6045 58.2164 38.8245 59.2409C39.014 60.1234 38.912 61.0134 38.693 61.8839C38.474 62.7544 37.906 63.2184 37.0565 63.2904C36.6795 63.3224 36.7695 63.4734 36.776 63.7909C36.8155 65.8014 34.4985 65.0174 34.4445 63.7449C34.4285 63.3649 34.6185 62.8564 34.341 62.6399C34.1065 62.4569 33.625 62.5904 33.2535 62.5844C32.22 62.5679 32.0525 62.7709 32.623 58.4999C32.639 58.3784 32.663 58.2789 32.5185 58.1714C30.7845 56.8814 33.8115 53.9399 35.092 56.2994ZM35.062 59.5624C35.06 60.2824 35.061 60.2764 34.477 60.1779C34.27 60.1429 34.053 60.1579 33.9585 60.3779C33.659 61.0739 34.7645 60.6039 34.801 61.9844C34.833 63.2049 34.6635 64.4809 35.75 64.5459C36.4415 64.5874 36.531 63.9899 36.4155 63.3114C36.378 63.0924 35.5675 63.0679 35.6745 62.7224C35.7655 62.4279 35.995 62.7114 36.6565 62.8109C38.1765 63.0394 38.5385 61.2969 38.3805 59.7679C38.271 58.7074 38.266 58.6869 37.2065 58.8369C36.882 58.8829 36.767 58.8009 36.719 58.5054C36.633 57.9749 36.217 57.9614 36.2065 58.4994C36.188 59.4074 34.7085 58.5889 35.0625 59.5629L35.062 59.5624Z" fill="#3A307F"/>
<path d="M42.1429 69.9519C41.6544 68.7759 40.4164 65.4359 37.3169 64.1669C37.2094 64.1229 37.0064 64.1044 37.0704 63.9164C37.2609 63.3574 41.2844 65.0654 42.3569 69.6929C42.3734 69.7644 42.3554 70.4649 42.1424 69.9519H42.1429Z" fill="#3A307F"/>
<path d="M44.571 72.1728C44.4835 72.1028 43.9205 72.5128 43.3275 72.6703C43.1265 72.7238 42.791 72.7408 42.822 72.9288C42.9085 73.4553 45.0305 72.5393 44.571 72.1728Z" fill="#3A307F"/>
<path d="M44.5089 71.5214C44.4214 71.4514 43.8584 71.8614 43.2654 72.0189C43.0644 72.0724 42.7289 72.0894 42.7599 72.2774C42.8464 72.8039 44.9684 71.8879 44.5089 71.5214Z" fill="#3A307F"/>
<path d="M43.8575 70.6428C43.753 70.6018 43.3375 71.1588 42.817 71.4853C42.641 71.5958 42.325 71.7118 42.41 71.8823C42.6475 72.3613 44.404 70.8568 43.8575 70.6428Z" fill="#3A307F"/>
<path d="M39.247 68.8738C39.247 67.9963 39.213 67.7903 39.426 67.7628C39.8765 67.7053 40.0445 71.6918 39.6775 71.7158C39.413 71.7328 39.4535 71.4373 39.247 68.8738Z" fill="#3A307F"/>
<path d="M44.1055 73.3267C44.023 73.0062 42.704 73.5522 41.726 73.4442C41.4235 73.4107 41.558 73.7037 41.558 73.7147C41.5575 74.1127 44.2425 73.8602 44.1055 73.3267Z" fill="#3A307F"/>
<path d="M42.9015 70.7718C42.743 71.1658 42.3055 71.0858 41.268 72.2738C41.032 72.5443 40.823 72.3193 40.9645 72.0948C41.7065 70.9168 43.08 70.3298 42.9015 70.7718Z" fill="#3A307F"/>
<path d="M37.4474 60.6484C37.4244 61.0234 36.9699 61.1214 36.8834 61.0014C36.8609 60.9704 36.8734 60.8699 36.9024 60.8534C37.3879 60.5769 36.6479 59.9284 37.0614 59.8259C37.2674 59.7749 37.2434 59.8934 37.4474 60.6484Z" fill="#3A307F"/>
<path d="M36.216 61.2883C36.6755 61.3898 36.551 62.0353 36.1645 61.9868C35.778 61.9383 35.8145 61.3073 36.216 61.2883Z" fill="#3A307F"/>
<path d="M36.1125 60.1064C35.7645 60.1014 35.7525 59.5464 36.048 59.4964C36.3135 59.4514 36.5205 60.0159 36.1125 60.1064Z" fill="#3A307F"/>
<path d="M38.0015 59.7174C38.0115 60.0664 37.5525 60.1044 37.554 59.7014C37.5555 59.3344 37.9885 59.2619 38.0015 59.7174Z" fill="#3A307F"/>
<path fill-rule="evenodd" clip-rule="evenodd" d="M40.784 73.562C40.8475 74.3315 38.1985 75.275 36.3085 75.231C34.1222 75.1795 32.4139 74.3815 31.2765 73.214C31.2337 73.433 31.1892 73.6624 31.1435 73.9029C33.4748 76.0379 37.4404 76.7315 40.774 74.537C41.4455 74.0945 41.4205 73.1325 40.761 72.659C40.2564 72.2965 39.3605 72.0489 38.3572 71.7714C36.3997 71.2304 34.0338 70.5765 33.37 68.7385C33.3328 68.6355 33.3003 68.544 33.2714 68.463C33.0797 67.926 33.05 67.8425 32.9205 67.859C32.7185 67.8845 32.7625 68.1815 32.813 68.3795C33.4567 70.908 36.1881 71.6534 38.2763 72.2229C39.6397 72.5949 40.7289 72.892 40.784 73.562ZM29.1205 68.654C29.3286 68.6465 29.5224 68.641 29.7027 68.6385C29.9424 66.774 31.1821 64.9625 33.591 63.891C33.6104 63.882 33.6312 63.8735 33.6525 63.865C33.7949 63.8065 33.9588 63.7395 33.8775 63.549C33.6154 62.9355 29.5851 65.0215 29.1205 68.654Z" fill="#3A307F"/>
<path d="M11.402 64.7223C10.28 64.7303 10.126 64.1103 10.09 63.0423C10.076 62.6223 10.1705 62.2513 9.475 62.1848C8.6525 62.1063 8.1585 60.7568 8.513 59.8808C8.7115 59.3898 9.076 59.2678 8.55 58.8888C8.024 58.5098 8.0825 57.7263 8.6255 57.3448C8.8075 57.2168 8.8945 57.1408 8.8375 56.8833C8.7125 56.3183 9.302 55.8293 9.9565 55.9433C10.1825 55.9828 10.297 55.9733 10.421 55.7463C10.6335 55.3568 11.1675 55.3098 11.6315 55.6118C11.76 55.6953 11.8245 55.7583 11.9855 55.6318C12.396 55.3093 12.894 55.3968 13.22 55.8298C13.3425 55.9928 13.416 56.0713 13.6585 56.0038C15.2005 55.5728 15.6795 57.6938 14.668 58.4518C14.3835 58.6648 14.7365 59.5968 14.5675 60.8053C14.4185 61.8708 13.888 62.9333 12.773 63.0168C11.9415 63.0793 13.2855 64.7093 11.403 64.7228L11.402 64.7223ZM14.1365 59.9178C14.1075 58.7728 14.239 58.7003 13.826 58.7163C12.2525 58.7783 12.576 57.0418 11.4555 58.0118C10.983 58.4208 10.879 59.1138 10.833 59.7883C10.788 60.4538 10.623 60.3753 10.047 60.1253C9.688 59.9693 9.5475 60.2748 9.679 60.5183C9.8955 60.9183 10.461 61.1033 10.5055 62.0613C10.5845 63.7613 10.433 64.0108 11.0465 64.1533C11.4225 64.2408 12.101 64.1393 12.108 64.0003C12.123 63.6998 12.1365 63.3983 12.12 63.0983C12.1085 62.8893 11.8725 62.9523 11.757 62.8613C11.6415 62.7703 11.479 62.7038 11.542 62.5338C11.621 62.3208 11.766 62.4633 11.894 62.5028C13.471 62.9868 14.178 61.5408 14.137 59.9183L14.1365 59.9178Z" fill="#3A307F"/>
<path d="M12.2175 75.0983C14.1075 75.1423 16.7565 74.1988 16.693 73.4293C16.5535 71.7333 9.786 72.4268 8.722 68.2468C8.6715 68.0488 8.6275 67.7518 8.8295 67.7263C8.9785 67.7073 8.9955 67.8208 9.279 68.6058C10.283 71.3863 15.181 71.4573 16.67 72.5263C17.3295 72.9998 17.3545 73.9618 16.683 74.4043C12.404 77.2213 7.0835 75.2798 5.515 71.6388C3.151 66.1518 9.4565 62.6443 9.7865 63.4163C9.88 63.6353 9.6495 63.6913 9.5 63.7583C2.999 66.6513 5.0135 74.9298 12.2175 75.0983Z" fill="#3A307F"/>
<path d="M15.555 68.0683C19.902 65.8193 21.5445 61.7783 21.433 58.8428C21.423 58.5803 21.3715 58.4768 21.091 58.4428C20.169 58.3308 20.173 58.3183 19.913 59.1838C19.095 61.9033 17.2195 63.7458 13.461 64.0928C13.268 64.1108 12.9495 64.1108 12.9555 63.9168C12.973 63.3318 17.229 64.0463 19.088 59.7983C19.7525 58.2793 19.5565 57.7748 20.1165 57.8563C21.8595 58.1093 21.695 57.9628 21.744 58.5048C22.1165 62.5973 19.526 66.7628 16.1175 68.2553C15.2035 68.6553 15.895 69.0443 15.681 70.8428C15.6155 71.3928 15.2725 71.3143 15.2225 70.8668C14.9655 68.5698 15.175 70.3188 14.718 66.2878C14.664 65.8103 15.0375 65.8253 15.132 66.2143C15.2775 66.8133 15.4075 67.4158 15.555 68.0693V68.0683Z" fill="#3A307F"/>
<path d="M20.2115 54.6363C20.334 55.0403 19.819 55.6828 20.1825 57.0753C20.289 57.4843 20.118 57.6758 19.921 57.4923C19.1125 56.7408 19.719 54.3998 20.2115 54.6363Z" fill="#3A307F"/>
<path d="M18.1335 72.7088C19.4775 72.6503 20.2145 73.7673 20.0225 73.9653C19.754 74.2428 19.388 72.8858 17.609 73.1538C16.995 73.2463 17.2815 72.6713 18.134 72.7083L18.1335 72.7088Z" fill="#3A307F"/>
<path d="M22.5025 56.1304C22.427 56.4269 22.3295 56.9199 22.036 56.8289C21.7895 56.7529 22.1775 56.2029 21.872 55.8429C21.4405 55.3344 22.5175 55.2174 22.5025 56.1304Z" fill="#3A307F"/>
<path d="M21.779 56.3074C21.7035 56.6039 21.606 57.0969 21.3125 57.0059C21.066 56.9299 21.454 56.3799 21.1485 56.0199C20.717 55.5114 21.794 55.3944 21.779 56.3074Z" fill="#3A307F"/>
<path d="M21.005 56.5013C20.9295 56.7978 20.832 57.2908 20.5385 57.1998C20.292 57.1238 20.68 56.5738 20.3745 56.2138C19.943 55.7053 21.02 55.5883 21.005 56.5013Z" fill="#3A307F"/>
<path d="M19.4456 74.3674C19.3191 74.4939 19.2586 74.3019 19.1771 74.2529C18.9221 74.0994 18.6846 73.9159 18.3881 73.8419C18.2506 73.8074 18.0041 73.8809 18.0231 73.6599C18.0741 73.0739 19.8856 73.9279 19.4456 74.3674Z" fill="#3A307F"/>
<path d="M18.7471 74.6982C18.6586 74.8642 18.5121 74.6843 17.9076 74.4683C17.7951 74.4283 17.6191 74.4432 17.6701 74.2502C17.7871 73.8107 18.9381 74.3388 18.7466 74.6988L18.7471 74.6982Z" fill="#3A307F"/>
<path d="M13.1885 60.4248C13.2215 61.4903 12.2615 60.9053 12.6195 60.7998C13.1845 60.6328 12.5985 59.7873 12.916 59.7093C13.128 59.6568 13.114 59.9273 13.1885 60.4253V60.4248Z" fill="#3A307F"/>
<path d="M11.8911 58.4617C12.1446 58.4577 12.4911 58.6637 12.4046 58.8487C12.3021 59.0677 11.9961 58.5187 11.4011 59.0912C10.9131 59.5607 11.0071 58.4757 11.8906 58.4617H11.8911Z" fill="#3A307F"/>
<path d="M12.155 61.6013C11.358 61.4728 11.6105 60.4648 12.0165 61.0998C12.2315 61.4358 12.583 61.2443 12.481 61.4968C12.4315 61.6193 12.3 61.6153 12.1555 61.6013H12.155Z" fill="#3A307F"/>
<path d="M12.0585 59.6718C12.057 60.1003 11.6155 60.1103 11.615 59.6688C11.615 59.2528 12.06 59.2758 12.0585 59.6718Z" fill="#3A307F"/>
<path d="M13.8391 59.7234C13.7886 60.0924 13.4196 60.0219 13.4461 59.6569C13.4541 59.5464 13.48 59.4144 13.629 59.4209C13.821 59.4289 13.8141 59.5949 13.8391 59.7234Z" fill="#3A307F"/>
<path d="M26.298 69.3158C21.15 69.4173 21.2245 69.3924 21.0945 70.0114C19.9545 75.4744 20.3265 75.4428 19.6065 75.4518C15.5855 75.5038 15.313 75.4289 15.2055 75.8639C15.0255 76.5919 14.967 76.6239 22.6015 76.5224C30.1645 76.4219 30.114 76.7243 30.255 75.7373C30.411 74.6403 31.044 71.7593 31.23 69.8813C31.3135 69.0398 31.3065 69.2169 26.298 69.3154V69.3158ZM26.3525 72.7809C25.9915 72.9379 25.9485 73.2793 26.255 73.5238C26.795 73.9533 24.9905 74.6368 24.9955 73.0483C25.131 71.4538 27.131 72.4434 26.3525 72.7809ZM26.087 71.6778C25.573 71.7028 26.1595 70.9288 26.5 70.7198C27.0215 70.3993 26.745 71.6458 26.087 71.6778Z" fill="#3A307F"/>
<path d="M32.441 27.6733C30.76 29.4113 26.6405 32.5793 22.8315 36.2013C15.284 43.3783 15.4535 43.5903 15.2215 43.3853C14.561 42.8013 29.692 28.2543 32.4415 27.6733H32.441Z" fill="#3A307F"/>
<path d="M9.37148 45.4663C10.754 45.4573 10.8405 45.5708 11.006 45.1618C11.709 43.4233 13.749 43.5168 14.3635 45.1398C14.5105 45.5278 14.643 45.3563 15.412 45.4363C16.341 45.5333 16.0735 45.5963 16.137 46.6073C16.1695 47.1238 16.18 47.5468 15.4735 47.6968C14.9305 47.8123 14.6765 48.4548 14.7535 49.0218C14.9155 50.2088 16.123 49.8273 16.1135 50.3258C16.0825 51.9633 16.233 52.5688 15.5755 52.5323C14.0655 52.4488 13.94 52.6748 13.9135 52.0198C13.86 50.6908 12.012 50.5118 11.535 51.6318C11.352 52.0613 11.715 52.5043 11.0775 52.4743C9.38348 52.3943 8.98948 52.6563 8.99148 51.9183C9.00748 45.5518 8.61348 45.4713 9.37048 45.4663H9.37148Z" fill="#EA3934"/>
<path d="M37.31 33.9365C37.5725 34.602 36.5565 37.624 35.7365 40.4648C35.5355 41.1613 35.1575 42.8123 34.925 42.7738C34.328 42.6753 36.649 34.5445 37.3095 33.9365H37.31Z" fill="#3A307F"/>
<path d="M36.731 51.9619C36.522 50.5989 34.265 50.6649 34.249 52.0404C34.24 52.7964 33.7875 52.4554 32.2435 52.4789C31.6575 52.4879 31.693 52.5179 31.734 46.4249C31.739 45.6479 31.6555 45.4659 32.9325 45.5554C34.383 45.6569 33.5285 43.8854 35.6165 43.9869C37.247 44.0664 36.8945 45.5394 37.7135 45.4819C37.998 45.4619 38.2865 45.4939 38.572 45.5119C38.8465 45.5289 39.0235 45.6739 38.959 45.9564C38.534 47.8204 40.84 46.9384 40.5905 49.0979C40.3855 50.8744 38.8525 50.2229 38.9125 51.2309C38.9305 51.5304 38.8825 51.8339 38.8945 52.1349C38.9075 52.4594 38.753 52.5739 38.455 52.5684C36.76 52.5344 36.8465 52.7184 36.731 51.9624V51.9619Z" fill="#EA3934"/>
<path d="M62.2994 40.7853C62.4099 42.3153 60.5019 37.8821 57.2789 32.7446C56.5359 31.5606 57.0104 31.3041 57.8869 32.5576C60.0284 35.6191 61.2789 38.1016 62.2994 40.7853Z" fill="#3A307F"/>
<path d="M63.2234 50.5639C63.0454 49.1764 60.9704 49.1174 60.8159 50.6934C60.7614 51.2474 60.6049 51.0529 58.7239 51.0644C58.2414 51.0674 58.3739 50.8504 58.3499 49.0234C58.3419 48.4304 59.5009 48.8774 59.5804 47.6469C59.6164 47.0899 59.2599 46.4674 58.7299 46.3489C58.3099 46.2549 58.2614 46.0424 58.2854 45.6904C58.3664 44.5154 58.0724 44.1264 58.7729 44.1364C59.6154 44.1479 60.2519 44.4019 60.5049 43.5129C60.8449 42.3204 63.2824 42.1859 63.6979 43.7099C63.8274 44.1854 63.9954 44.0949 64.7074 44.1109C65.5739 44.1304 65.4784 44.1489 65.4674 45.0094C65.4614 45.4669 65.4734 45.7104 65.9879 45.8559C67.5549 46.2994 67.6074 48.8519 65.7819 49.1904C65.5429 49.2349 65.4339 49.3269 65.4469 49.5854C65.5354 51.3394 65.4199 51.1509 64.3944 51.1509C64.3944 51.0404 63.3419 51.4849 63.2234 50.5629V50.5639Z" fill="#EA3934"/>
<path d="M61.388 27.2239C62.733 26.1534 83.012 42.2648 82.031 43.1888C81.7855 43.4198 81.877 43.3608 77.3465 39.3034C67.9085 30.8519 62.2075 28.5204 61.3885 27.2239H61.388Z" fill="#3A307F"/>
<path d="M85.0185 50.5714C84.787 48.9589 82.7715 49.4234 82.7845 50.5424C82.7935 51.2944 82.465 51.0404 80.8865 51.0664C80.4665 51.0734 80.4165 50.8324 80.454 50.4099C80.6505 48.2234 78.5395 49.9734 78.8075 47.2394C78.8635 46.6664 79.464 45.9474 80.055 45.8429C80.9205 45.6899 79.893 44.0274 80.837 44.1429C82.1065 44.2984 82.761 43.7479 82.778 44.5944C82.799 45.6199 84.501 46.0419 84.9445 44.8499C85.19 44.1904 84.7165 44.0704 86.0705 44.0969C87.15 44.1179 87.1605 44.1219 87.143 45.2129C87.138 45.5274 87.183 45.7054 87.537 45.8239C88.9945 46.3124 89.2595 48.6374 87.4125 49.1939C87.2415 49.2454 87.144 49.3094 87.143 49.5134C87.1355 51.3644 87.109 51.1539 86.0915 51.1539C86.0915 51.0354 85.1475 51.4724 85.018 50.5719L85.0185 50.5714Z" fill="#EA3934"/>
</svg>
