<svg width="53" height="52" viewBox="0 0 53 52" fill="none" xmlns="http://www.w3.org/2000/svg">
<g clip-path="url(#clip0_737_3397)">
<path d="M38.2499 23.8333C30.4846 23.8333 24.1666 30.1513 24.1666 37.9167C24.1666 45.682 30.4846 52 38.2499 52C46.0153 52 52.3333 45.682 52.3333 37.9167C52.3333 30.1513 46.0153 23.8333 38.2499 23.8333ZM38.2499 49.8333C31.6806 49.8333 26.3333 44.486 26.3333 37.9167C26.3333 31.3473 31.6806 26 38.2499 26C44.8193 26 50.1666 31.3473 50.1666 37.9167C50.1666 44.486 44.8193 49.8333 38.2499 49.8333ZM44.6178 33.6895L46.1366 35.2343L38.6486 42.5988C38.1784 43.0712 37.5436 43.3333 36.8676 43.3333C36.1916 43.3333 35.5589 43.0712 35.0801 42.5902L31.0718 38.7053L32.5776 37.1475L36.5989 41.0475C36.8134 41.262 36.9391 41.2403 37.1189 41.0627L44.6178 33.6895ZM26.3831 23.8333H8.99992V21.6667H29.5768C28.4349 22.2777 27.3646 23.0057 26.3831 23.8333ZM26.3831 52H0.333252V5.41667C0.333252 2.42883 2.76209 0 5.74992 0H33.9166C36.9044 0 39.3333 2.42883 39.3333 5.41667V19.5325C38.9736 19.5108 38.6139 19.5 38.2499 19.5C37.8859 19.5 37.5263 19.5108 37.1666 19.5325V5.41667C37.1666 3.62483 35.7084 2.16667 33.9166 2.16667H5.74992C3.95809 2.16667 2.49992 3.62483 2.49992 5.41667V49.8333H24.2099C24.8729 50.6133 25.6009 51.3392 26.3853 52H26.3831ZM30.6666 13H8.99992V10.8333H30.6666V13ZM8.99992 32.5H19.8333V34.6667H8.99992V32.5Z" fill="#B7B1DD"/>
</g>
<defs>
<clipPath id="clip0_737_3397">
<rect width="52" height="52" fill="white" transform="translate(0.333252)"/>
</clipPath>
</defs>
</svg>
