<svg width="50" height="50" viewBox="0 0 50 50" fill="none" xmlns="http://www.w3.org/2000/svg">
<rect width="50" height="50" rx="4" fill="#F8D3D2"/>
<g clip-path="url(#clip0_4172_43307)">
<path d="M12.1427 19.6428C11.8586 19.6428 11.586 19.53 11.3851 19.329C11.1842 19.1281 11.0713 18.8556 11.0713 18.5714V12.1428C11.0713 11.8587 11.1842 11.5862 11.3851 11.3852C11.586 11.1843 11.8586 11.0714 12.1427 11.0714H37.857C38.1412 11.0714 38.4137 11.1843 38.6146 11.3852C38.8155 11.5862 38.9284 11.8587 38.9284 12.1428V18.5714C38.9284 18.8556 38.8155 19.1281 38.6146 19.329C38.4137 19.53 38.1412 19.6428 37.857 19.6428" stroke="#EA3934" stroke-linecap="round" stroke-linejoin="round"/>
<path d="M31.4286 16.4286H18.5714C17.9797 16.4286 17.5 16.9083 17.5 17.5V32.5C17.5 33.0918 17.9797 33.5714 18.5714 33.5714H31.4286C32.0203 33.5714 32.5 33.0918 32.5 32.5V17.5C32.5 16.9083 32.0203 16.4286 31.4286 16.4286Z" stroke="#EA3934" stroke-linecap="round" stroke-linejoin="round"/>
<path d="M24.9994 28.2142C26.7746 28.2142 28.2137 26.7751 28.2137 24.9999C28.2137 23.2247 26.7746 21.7856 24.9994 21.7856C23.2242 21.7856 21.7852 23.2247 21.7852 24.9999C21.7852 26.7751 23.2242 28.2142 24.9994 28.2142Z" stroke="#EA3934" stroke-linecap="round" stroke-linejoin="round"/>
<path d="M17.5 38.9286H32.5" stroke="#EA3934" stroke-linecap="round" stroke-linejoin="round"/>
</g>
<defs>
<clipPath id="clip0_4172_43307">
<rect width="30" height="30" fill="white" transform="translate(10 10)"/>
</clipPath>
</defs>
</svg>
