<svg width="50" height="50" viewBox="0 0 50 50" fill="none" xmlns="http://www.w3.org/2000/svg">
<rect width="50" height="50" rx="4" fill="#F8D3D2"/>
<path d="M20.714 22.8571C23.3768 22.8571 25.5354 20.6985 25.5354 18.0357C25.5354 15.3729 23.3768 13.2142 20.714 13.2142C18.0512 13.2142 15.8926 15.3729 15.8926 18.0357C15.8926 20.6985 18.0512 22.8571 20.714 22.8571Z" stroke="#EA3934" stroke-linecap="round" stroke-linejoin="round"/>
<path d="M30.357 38.9285H11.0713V36.7857C11.0713 34.2282 12.0872 31.7755 13.8956 29.9672C15.704 28.1588 18.1567 27.1428 20.7141 27.1428C23.2716 27.1428 25.7243 28.1588 27.5327 29.9672C29.3411 31.7755 30.357 34.2282 30.357 36.7857V38.9285Z" stroke="#EA3934" stroke-linecap="round" stroke-linejoin="round"/>
<path d="M29.2852 13.2142C30.5639 13.2142 31.7902 13.7222 32.6944 14.6264C33.5986 15.5306 34.1066 16.7569 34.1066 18.0357C34.1066 19.3144 33.5986 20.5407 32.6944 21.4449C31.7902 22.3491 30.5639 22.8571 29.2852 22.8571" stroke="#EA3934" stroke-linecap="round" stroke-linejoin="round"/>
<path d="M32.7139 27.5499C34.5392 28.2443 36.1107 29.4766 37.2204 31.0837C38.33 32.6908 38.9256 34.597 38.9282 36.5499V38.9285H35.7139" stroke="#EA3934" stroke-linecap="round" stroke-linejoin="round"/>
</svg>
