<svg width="100" height="100" viewBox="0 0 100 100" fill="none" xmlns="http://www.w3.org/2000/svg">
<path fill-rule="evenodd" clip-rule="evenodd" d="M31.8508 77.7524C34.0121 77.7519 36.3032 77.7519 38.7287 77.7519C45.4183 77.7508 53.1311 77.7503 61.9656 77.753C61.7646 77.3342 61.5949 76.8964 61.4571 76.4436C51.7261 76.4798 41.3163 76.5457 31.9321 76.6295C31.9236 77.1196 31.8976 77.4822 31.8508 77.7524ZM15.4807 76.8116C15.493 76.9537 15.5067 77.1039 15.5222 77.2617L15.528 77.3223C15.5445 77.4936 15.5578 77.6308 15.5616 77.7416C8.36972 77.7276 4.16046 77.6935 2.31087 77.6162C0.733966 77.5503 0.851775 77.1601 2.32276 77.0921C4.40597 76.9959 9.15472 76.9002 15.4807 76.8116ZM87.4873 76.4376C87.5187 76.9326 87.5457 77.3752 87.5646 77.7719C88.0661 77.7724 88.5703 77.773 89.0772 77.7735C98.2506 77.7849 98.7553 77.7151 98.0706 76.6781C97.9868 76.55 93.9165 76.4738 87.4873 76.4376Z" fill="#EA3934"/>
<path fill-rule="evenodd" clip-rule="evenodd" d="M29.2961 64.5264C28.9758 64.5069 28.5891 64.5107 28.1236 64.5151L28.045 64.5156C26.5559 64.3632 21.0945 64.6123 19.8903 64.6674C19.7564 64.6734 19.6752 64.6772 19.6579 64.6777C14.8722 64.7436 14.8664 64.8317 14.8365 65.2878L14.8348 65.3132C14.7319 66.8102 14.7412 67.7488 14.747 68.34C14.7529 68.9356 14.7553 69.1782 14.636 69.2847C14.5539 69.3576 14.4139 69.3663 14.1777 69.3798C14.1533 69.3814 14.1279 69.383 14.1015 69.3846C13.3168 69.4338 13.0834 69.6597 13.125 70.4655C13.3184 74.1942 13.6113 74.4309 14.9423 74.2942C15.3305 74.2542 15.3358 74.3666 15.3787 75.2729C15.3998 75.7193 15.43 76.358 15.5195 77.2664L15.5247 77.3189C15.6106 78.1851 15.6108 78.1873 14.7629 78.2981C13.8826 78.4148 13.6821 78.6526 13.7632 79.5556L13.7715 79.6491C13.9743 81.942 14.0473 82.7683 14.4815 83.0639C14.7259 83.2303 15.0846 83.2293 15.6453 83.2271C15.7231 83.2266 15.8049 83.2266 15.8908 83.2266C19.4053 83.232 21.4967 83.1704 23.4713 83.1125L23.4751 83.112C23.8392 83.1012 24.1995 83.0909 24.564 83.0807C23.9903 82.8748 23.5315 82.6289 23.2295 82.3425C22.8218 82.3344 22.5129 82.343 22.2787 82.3489C21.8845 82.3597 21.7018 82.3646 21.615 82.276C21.54 82.1993 21.5368 82.0523 21.5307 81.7788C21.5229 81.4238 21.5102 80.8553 21.3305 79.9501C21.3251 79.9236 21.3209 79.8966 21.3167 79.8706C21.2916 79.7134 21.2695 79.575 21.0397 79.5934L21.0292 79.594C20.752 79.6156 20.7009 79.6199 20.9619 81.9793C20.9997 82.3241 20.8852 82.4262 20.5404 82.4241H20.5032C20.011 82.4208 19.7681 82.4197 19.641 82.2976C19.5173 82.1787 19.5035 81.9458 19.4761 81.4854C19.4752 81.4686 19.4741 81.4513 19.4731 81.434C19.4241 80.6115 19.3531 80.0393 19.3039 79.6421C19.2047 78.8428 19.1937 78.7536 19.6277 78.7628C20.9127 78.7893 21.7815 78.7682 22.369 78.7536C22.7227 78.745 22.9744 78.739 23.1535 78.7471C23.4445 78.5256 23.8963 78.3818 24.5703 78.2327C25.8435 77.989 27.1285 77.8209 28.4186 77.729C28.0774 77.7312 27.7248 77.7317 27.3738 77.7307C27.2934 77.6193 27.2984 77.3605 27.3092 76.8022C27.3146 76.5239 27.3214 76.171 27.3198 75.7257C27.3198 75.7025 27.3206 75.6787 27.3215 75.6544C27.3273 75.4831 27.3336 75.3015 27.0496 75.3188C26.6113 75.3453 26.6025 75.5053 26.5732 76.0397C26.5639 76.2072 26.5527 76.4126 26.5254 76.6617C26.5117 76.7876 26.5265 76.9249 26.5412 77.0605C26.5682 77.3113 26.5948 77.5566 26.4405 77.7177C26.2867 77.8787 26.042 77.8587 25.7934 77.8387C25.6578 77.8279 25.521 77.8166 25.397 77.8349C25.069 77.8825 25.0187 77.7409 25.0603 77.4826C25.1298 76.8033 25.1558 76.1197 25.1382 75.4372L25.1391 75.4112C25.1461 75.2361 25.1534 75.0502 24.8836 75.0589H24.8754C24.6001 75.0681 24.5819 75.0686 24.4513 77.5258C24.4313 77.9009 24.3606 77.8998 23.5949 77.8917C23.3477 77.889 23.0279 77.8852 22.6139 77.8933C22.3859 77.8976 22.2735 77.8155 22.2859 77.5761C22.3084 77.1503 22.3094 76.7244 22.3104 76.298C22.3116 75.7836 22.3128 75.2691 22.3518 74.7546C22.3525 74.7455 22.3532 74.7363 22.3538 74.7276C22.3615 74.6239 22.3676 74.5406 22.4035 74.4731C22.5532 74.1899 23.2208 74.1813 26.6763 74.1348C27.1198 74.1289 27.6092 74.1224 28.1493 74.1148C28.4976 74.1099 28.8252 74.1045 29.1289 74.0997C29.2282 74.098 29.3249 74.097 29.419 74.0953C29.4187 73.7873 29.418 73.4841 29.417 73.1853C29.0398 73.2048 28.5149 73.214 27.9823 73.2118C27.7408 73.0248 27.6705 70.0066 27.6737 69.7029L27.6754 69.7035C28.2467 69.7435 28.8201 69.73 29.3883 69.6635C29.385 69.4036 29.3816 69.1474 29.3779 68.895C28.7678 68.9361 27.651 68.908 27.3387 68.888C27.266 68.8734 27.188 68.8713 27.1122 68.8696C26.8914 68.8642 26.688 68.8594 26.6816 68.5411C26.6577 67.6602 26.6237 67.016 26.5988 66.5448C26.5593 65.7969 26.5429 65.4872 26.6275 65.3619C27.5212 65.2684 28.4217 65.2705 29.3141 65.3667C29.3081 65.0803 29.302 64.8004 29.2961 64.5264ZM25.3765 70.8583C25.287 70.3114 25.2422 70.0374 25.3586 69.8986C25.4754 69.7586 25.7549 69.7554 26.3148 69.7483H26.3179C27.0123 69.7397 27.0204 69.7397 27.0388 70.4438C27.122 73.3274 27.0768 73.328 26.7085 73.3318L26.6864 73.3323C25.9643 73.342 25.4293 73.3653 25.0323 73.382C23.9651 73.4285 23.8945 73.4317 23.865 73.014C23.7868 71.9094 23.7071 71.188 23.6548 70.7135C23.5576 69.8332 23.5545 69.8051 23.8298 69.7667C24.71 69.6451 24.715 69.7002 24.8497 71.2015C24.876 71.4938 24.9071 71.8408 24.9506 72.2526C24.9532 72.2769 24.9556 72.3034 24.958 72.3309C24.98 72.5811 25.0102 72.9227 25.3468 72.9043C25.6613 72.8838 25.6861 72.7557 25.3797 70.8778L25.3765 70.8583ZM23.3446 65.3602C23.7064 65.3462 23.713 65.431 23.7844 66.3476C23.8049 66.6097 23.8306 66.9399 23.8715 67.3554L23.876 67.4019C23.9169 67.8202 23.9446 68.1044 24.2454 68.0579C24.5118 68.0153 24.5356 67.9228 24.3049 65.7256C24.2708 65.4013 24.374 65.3062 24.6956 65.3035L24.7342 65.303C25.6841 65.2959 25.6887 65.2959 25.798 66.2887C25.8438 66.7086 25.8851 67.0609 25.9198 67.356C26.0895 68.8032 26.0987 68.881 25.684 68.874C25.1635 68.8615 22.3504 68.8729 22.0659 68.874H22.0427C21.6679 68.874 21.6661 68.8361 21.618 67.8094C21.5968 67.3554 21.5665 66.7086 21.491 65.7866C21.4563 65.3613 21.5919 65.3624 22.3004 65.3705C22.563 65.3732 22.9042 65.377 23.3446 65.3602ZM20.2005 71.1129C20.233 71.7327 20.2726 72.1899 20.3018 72.5276C20.384 73.476 20.3841 73.4777 19.913 73.4847C19.8512 73.4858 19.7933 73.4868 19.7391 73.4879C19.4071 73.4955 19.2107 73.4998 19.0856 73.4074C18.9047 73.2739 18.8727 72.9389 18.7942 72.118C18.7519 71.6754 18.6961 71.0912 18.596 70.3217C18.5292 69.8078 18.6526 69.8094 19.6041 69.824C19.8526 69.8278 20.1577 69.8321 20.5307 69.8289C21.1 69.8234 21.5348 69.8116 21.8669 69.8024C22.9118 69.7732 22.9416 69.7727 22.956 70.0915C22.9957 70.9675 23.0453 71.6154 23.0819 72.0937C23.1774 73.3409 23.1848 73.4371 22.6993 73.4242C22.1841 73.409 21.8178 73.4328 21.557 73.4501C21.0563 73.4825 20.9447 73.4901 20.916 73.1442C20.7079 70.7005 20.6998 70.6362 20.3783 70.6762C20.1484 70.7049 20.1708 70.8729 20.1906 71.0215C20.1949 71.0534 20.199 71.0842 20.2005 71.1129ZM17.9367 65.4537C18.7083 65.4446 19.267 65.4208 19.6723 65.4035C20.7044 65.3602 20.7416 65.3586 20.7668 65.7423C20.8367 66.7939 20.9163 67.4911 20.9693 67.9564C21.0675 68.8178 21.0749 68.8815 20.7614 68.9258C19.9328 69.042 19.9277 68.9907 19.7773 67.4619C19.7512 67.196 19.7206 66.8858 19.6806 66.5237C19.6773 66.4946 19.6746 66.4632 19.6717 66.4308C19.6493 66.1763 19.621 65.8553 19.2802 65.8828C18.9675 65.9077 18.9887 66.0644 19.1417 67.1933C19.1767 67.4516 19.2186 67.7607 19.265 68.1314C19.2709 68.1785 19.277 68.2233 19.2828 68.2665C19.3433 68.7194 19.3774 68.9734 18.9478 68.9421C18.6926 68.9248 18.475 68.9345 18.2935 68.9426C17.8217 68.9631 17.5947 68.9729 17.5893 68.4768C17.5853 68.1017 17.581 67.7732 17.5771 67.4857C17.5569 65.952 17.5519 65.5786 17.7109 65.4856C17.7621 65.4559 17.8303 65.4548 17.9204 65.4537H17.9367ZM15.7751 65.5078C16.6749 65.4408 16.7343 65.4716 16.7673 65.7672C17.1234 68.9599 16.9782 68.9556 16.5545 68.9437L16.5446 68.9431C16.5137 68.9421 16.4839 68.9415 16.4549 68.9404C16.0586 68.9296 15.843 68.9237 15.7266 68.8134C15.5879 68.6816 15.5901 68.4011 15.5951 67.7867C15.5961 67.6575 15.5973 67.5138 15.5973 67.3538C15.6006 66.848 15.5728 66.3427 15.5141 65.8407C15.501 65.8012 15.498 65.7585 15.5052 65.7175C15.5124 65.6764 15.5297 65.638 15.5555 65.6051C15.5813 65.5726 15.6148 65.5467 15.653 65.5299C15.6912 65.5132 15.733 65.5062 15.7746 65.5094L15.7751 65.5078ZM14.1847 73.2015C14.1061 72.4682 14.0234 71.897 13.9589 71.4517C13.7496 70.0072 13.7322 69.8867 14.6711 69.851C14.7297 69.8488 14.7847 69.8456 14.8362 69.8429C15.2178 69.8213 15.4022 69.811 15.4141 70.246C15.496 73.1977 15.5693 73.1956 15.7916 73.188H15.7983C16.081 73.1788 16.0775 73.0416 16.0512 71.9797V71.9791C16.0483 71.8635 16.0452 71.737 16.0421 71.5981C16.032 71.1366 16.0145 70.7951 16.0014 70.5422C15.9672 69.8742 15.9647 69.8278 16.2161 69.8299C16.5545 69.8326 16.8269 69.8294 17.0461 69.8267C17.8423 69.8164 17.9384 69.8153 17.9524 70.1542C17.9924 71.1301 18.0351 71.8219 18.0654 72.312C18.1182 73.1669 18.1332 73.4096 18.0303 73.4804C17.9894 73.5079 17.9299 73.509 17.8469 73.5101H17.8443C16.9634 73.5252 16.2979 73.5474 15.7944 73.5641C14.2309 73.6165 14.2292 73.6165 14.1847 73.2015ZM16.7797 74.4747C17.1019 74.4439 17.3118 74.4239 17.4436 74.5158C17.6903 74.6882 17.6638 75.2513 17.5878 76.8687C17.5759 77.1227 17.5627 77.4026 17.5493 77.7107C17.5395 77.9311 17.4228 78.0235 17.1915 78.0176L17.174 78.0171C16.7377 78.0052 16.5182 77.9992 16.4083 77.8868C16.2969 77.7723 16.2977 77.5491 16.2993 77.0989C16.3016 76.4429 16.2906 75.9543 16.2824 75.5896C16.2601 74.5974 16.2583 74.5206 16.6009 74.4909C16.664 74.4855 16.7235 74.4796 16.7797 74.4747ZM18.4355 82.45C17.4325 82.4522 16.7116 82.477 16.1921 82.4949C14.9362 82.5386 14.8572 82.5413 14.8148 82.0804C14.7411 81.3027 14.6598 80.7099 14.5977 80.2576C14.419 78.9552 14.4001 78.8174 15.1834 78.7839C15.2459 78.7812 15.3039 78.779 15.3574 78.7763C15.7039 78.7607 15.8697 78.7531 15.9531 78.8325C16.0297 78.9055 16.0368 79.0509 16.0504 79.3308L16.0518 79.3578C16.0685 79.6983 16.0824 79.9966 16.0946 80.2587C16.1783 82.055 16.1812 82.1176 16.4533 82.1101C16.691 82.1036 16.6897 81.9788 16.6825 81.2535C16.6809 81.1049 16.6792 80.9315 16.6792 80.7283C16.6802 80.2014 16.6542 79.6745 16.6014 79.1503C16.5522 78.8947 16.616 78.7482 16.9256 78.7617C17.3626 78.7812 17.687 78.772 17.9274 78.7655C18.4654 78.7509 18.5822 78.7477 18.596 79.0979C18.6339 80.0647 18.6782 80.7531 18.7098 81.2422C18.7866 82.4316 18.7877 82.4495 18.4355 82.45ZM18.3372 77.3788C18.3214 77.107 18.3061 76.8584 18.2922 76.6315C18.1706 74.653 18.1498 74.3148 18.763 74.3877C19.0368 74.4207 19.2555 74.412 19.4271 74.4055C19.9095 74.3872 20.0189 74.3834 19.9292 75.3458C19.9013 75.6441 19.8756 75.9019 19.8535 76.1235C19.731 77.3524 19.7169 77.495 20.0373 77.4967C20.381 77.4967 20.4728 77.367 20.5609 74.7552C20.577 74.2775 20.8405 74.2991 21.1008 74.3207C21.1901 74.3283 21.2791 74.3358 21.3575 74.3229C21.6998 74.2672 21.6832 74.4963 21.6682 74.7038C21.6666 74.7255 21.665 74.7471 21.6639 74.7681C21.6274 75.455 21.6043 75.9938 21.5861 76.4169C21.5208 77.9387 21.5199 77.9598 21.1965 77.9533C20.3641 77.9376 19.7783 77.9565 19.3648 77.9695C18.7797 77.9879 18.5398 77.9954 18.4346 77.8803C18.3614 77.8004 18.3534 77.6609 18.3398 77.4242C18.339 77.4096 18.3381 77.3945 18.3372 77.3788Z" fill="#3A307F"/>
<path fill-rule="evenodd" clip-rule="evenodd" d="M61.3071 43.4414C61.4622 43.2334 61.6076 43.0382 61.7421 42.8546C64.2626 44.3716 66.8722 46.223 67.5439 46.7137C68.5204 47.4277 67.893 48.2695 66.3588 50.3279C65.9022 50.9408 65.365 51.6615 64.7657 52.5189C64.5501 52.4213 64.3128 52.3509 64.0507 52.3118C64.0145 52.3065 63.9778 52.3011 63.9405 52.2958C64.6625 51.3033 65.2996 50.5116 65.8173 49.868C66.7647 48.6912 67.3132 48.0099 67.251 47.5027H67.2499C67.2245 47.2903 64.1097 45.133 61.3071 43.4414ZM63.1456 47.2347C61.6514 46.1928 60.6781 45.5522 60.0366 45.1704C60.1312 45.0386 60.2236 44.9103 60.3144 44.7854C61.5811 45.4958 63.0834 46.6447 63.5201 46.9888C63.6184 47.0525 63.6925 47.1469 63.7308 47.2575C63.7697 47.3679 63.7703 47.488 63.733 47.5989C63.6427 48.0145 63.6844 48.4478 63.8519 48.8386C64.0194 49.2293 64.3047 49.5582 64.6679 49.7795C64.7117 49.8103 64.7419 49.8567 64.7527 49.9092C64.7635 49.9616 64.7538 50.0162 64.7252 50.0617C64.6971 50.1072 64.6522 50.1401 64.6009 50.1538C64.549 50.1674 64.4939 50.1607 64.4469 50.1351C63.9962 49.894 63.6373 49.5123 63.4239 49.048C63.211 48.5838 63.1553 48.0625 63.2661 47.5638C63.2855 47.5034 63.2839 47.4382 63.2623 47.3786C63.2407 47.319 63.1996 47.2684 63.1456 47.2347Z" fill="#3A307F"/>
<path fill-rule="evenodd" clip-rule="evenodd" d="M34.2546 52.1595C34.4873 52.1353 34.7304 52.1112 34.9842 52.0862C34.9601 47.7662 35.2233 41.5763 35.4983 40.868C36.2078 40.1509 44.7149 40.6716 46.896 41.0069C47.0342 40.7739 47.1731 40.5405 47.3121 40.3079C47.2974 40.3059 47.2824 40.304 47.2672 40.3022C45.6854 40.1174 35.4815 39.102 34.846 40.5746C34.4285 41.5396 34.292 47.807 34.2546 52.1595ZM44.9068 44.4124C44.991 44.2662 45.0772 44.1168 45.1652 43.9646C44.6154 43.6467 44.5023 43.3009 44.4124 43.0259C44.3297 42.7731 44.2666 42.5801 43.9016 42.5238C43.004 42.386 38.564 41.7851 38.216 42.6357C37.799 43.6554 37.0324 43.808 36.5234 43.9093C36.2197 43.9698 36.0077 44.012 36.0165 44.2093C36.0452 44.8411 38.5251 44.0894 38.6196 43.001L38.6205 42.9915C38.646 42.6929 38.6655 42.4654 43.6962 42.9232C43.8508 42.9372 43.9124 43.0107 43.9632 43.1501C44.1138 43.638 44.4194 44.0634 44.8338 44.3618C44.8578 44.3792 44.8822 44.396 44.9068 44.4124Z" fill="#3A307F"/>
<path fill-rule="evenodd" clip-rule="evenodd" d="M51.4707 34.0483C50.2851 34.9437 44.3601 45.3298 43.3058 47.2271C42.5337 48.6166 41.8376 50.1729 41.218 51.7767C41.5531 51.7678 41.8938 51.7597 42.2396 51.7524C43.2004 49.5515 44.1605 47.5274 44.434 46.9506L44.4346 46.9495C44.4623 46.891 44.483 46.8474 44.4958 46.8202C45.9662 43.6961 51.1427 35.2415 51.8955 34.6281C52.9979 34.3142 62.0729 40.3629 62.1162 40.7261H62.1167C62.1788 41.2329 61.6303 41.9139 60.6835 43.0901C59.3606 44.7339 57.259 47.3448 54.9558 51.7993C55.2817 51.808 55.6043 51.8173 55.922 51.8271C58.0491 47.8108 59.9502 45.26 61.225 43.5495C62.7587 41.4918 63.3861 40.6505 62.4096 39.9371C61.1256 38.9989 52.7499 33.0826 51.4707 34.0483ZM53.5621 38.0137L53.5567 38.0213C52.9401 38.9211 50.4099 38.3505 50.6969 37.7884C50.7866 37.6125 50.9919 37.6804 51.2859 37.7777C51.7782 37.9407 52.5202 38.1862 53.3865 37.5053C54.1095 36.9368 57.6724 39.6507 58.3863 40.2127C58.4846 40.2764 58.5587 40.3709 58.597 40.4813C58.636 40.5918 58.6365 40.7119 58.5992 40.8228C58.509 41.2384 58.5506 41.6717 58.7181 42.0625C58.8856 42.4534 59.171 42.7822 59.5341 43.0033C59.579 43.0339 59.6098 43.0804 59.6211 43.1334C59.6319 43.1863 59.6222 43.2414 59.5936 43.2873C59.5649 43.3331 59.5201 43.3662 59.4676 43.3796C59.4152 43.3929 59.3596 43.3855 59.3125 43.3589C58.8624 43.1179 58.503 42.7361 58.2896 42.2719C58.0766 41.8076 58.021 41.2864 58.1318 40.7877C58.1512 40.7273 58.1501 40.6621 58.1285 40.6025C58.1069 40.5429 58.0658 40.4922 58.0118 40.4586C53.8669 37.5688 53.7312 37.7662 53.5621 38.0137Z" fill="#3A307F"/>
<path d="M33.3113 66.9276C33.3756 69.2513 33.3426 74.3965 33.3426 74.4084C33.334 74.9953 33.3253 74.9764 32.7368 74.9861C32.4245 74.9915 32.3488 74.8894 32.3256 74.583C31.9473 70.1241 31.8864 65.6441 32.1435 61.1772C32.5423 56.3389 32.3672 56.2054 32.7844 56.1844C33.6631 56.1406 33.1562 61.2901 33.3113 66.9276Z" fill="#EA3934"/>
<path d="M56.5967 66.3229C56.5297 64.0175 59.8813 63.783 59.9472 66.3396C60.0099 68.6623 56.6691 68.8077 56.5967 66.3229ZM58.4687 66.1067C58.4654 67.0486 59.3095 66.7774 59.2793 66.0835C59.2587 65.5998 58.5654 65.3945 58.4687 66.1067Z" fill="#EA3934"/>
<path fill-rule="evenodd" clip-rule="evenodd" d="M67.1779 61.4391C66.8818 61.4359 66.8801 60.5631 66.878 59.3591C66.8737 56.8073 66.8672 52.7667 64.049 52.3457C59.4555 51.6594 41.9005 51.4405 35.2995 52.089C35.2596 52.0929 35.2198 52.0968 35.1804 52.1007C32.7213 52.3422 31.2462 52.4871 30.3771 53.2887C29.0744 54.4906 29.1332 57.1683 29.28 63.8601C29.3554 67.2933 29.4539 71.7835 29.4037 77.6734C29.7244 77.6604 30.0452 77.6518 30.3662 77.648C30.3604 77.2065 30.3536 76.7083 30.3461 76.163C30.2661 70.2861 30.1127 59.0284 30.2986 56.3355C30.558 52.5705 34.9461 52.5364 51.257 52.9456C54.0947 53.0169 59.8441 53.2498 63.0108 53.4638C64.3435 53.5546 64.906 54.0912 65.1935 55.3147C65.5794 56.9727 65.7707 58.6695 65.7642 60.3718C65.7642 61.5072 64.8833 61.5618 63.2519 61.6628C62.0451 61.7374 60.4283 61.8374 58.4536 62.4194C51.2295 64.5475 53.2176 69.6862 58.8319 70.4174C59.8608 70.5509 60.8471 70.5379 61.7344 70.4822C61.8917 70.1396 62.0732 69.8067 62.2764 69.4863C60.9006 69.5371 59.7122 69.5755 59.6355 69.5614C52.5945 68.2779 53.4965 64.0628 60.7844 62.8123C62.1397 62.5794 63.5069 62.5621 64.8742 62.5442C65.441 62.5367 66.0074 62.5297 66.5732 62.507C66.7407 62.4994 66.905 62.5567 67.0315 62.6675C67.1574 62.7788 67.2357 62.9339 67.2492 63.1014C67.3352 64.1028 67.3924 64.9561 67.4222 65.6797C67.7189 65.5975 68.022 65.5305 68.3306 65.4803C68.323 65.2776 68.3149 65.0933 68.3074 64.9339C68.2765 64.2584 68.2652 63.7137 68.256 63.2743C68.2193 61.5294 68.2176 61.451 67.1779 61.4391ZM63.9944 80.4062C63.6145 80.0863 63.2713 79.7323 62.9644 79.3497C58.2483 79.5243 47.1473 79.5859 39.3231 79.6075C39.3447 79.9134 39.3215 80.2646 39.2947 80.6662L39.2891 80.751C41.2874 80.7451 43.183 80.7418 44.973 80.7386H44.9808C54.3622 80.7213 60.8406 80.7094 63.9944 80.4062Z" fill="#EA3934"/>
<path d="M33.668 77.7735C30.6288 77.5044 27.5669 77.6589 24.5703 78.2328C22.8275 78.6192 22.5708 78.9694 22.7367 80.7219C22.7865 80.9543 22.8168 81.1905 22.8275 81.4277C22.5573 84.7782 39.0818 84.6858 39.2644 81.1607C39.392 78.6949 39.9097 77.8718 33.668 77.7735ZM31.9927 80.8495C31.9668 79.9551 33.2357 80.5052 37.0661 79.9978C37.082 79.9946 37.0984 79.9951 37.1141 80C37.1297 80.0043 37.1441 80.0124 37.1561 80.0232C37.168 80.034 37.1772 80.0481 37.1829 80.0632C37.1886 80.0783 37.1906 80.0945 37.1887 80.1107C36.8429 82.4204 37.8529 82.1999 35.4638 82.6993C34.7547 82.8474 34.7072 82.9695 34.6364 82.301C34.5498 81.7514 34.4317 81.2078 34.283 80.6717C34.2511 80.529 34.2024 80.3383 34.0349 80.3653C33.8879 80.3891 33.8188 80.3804 34.1619 82.5415C34.2565 83.1359 33.9295 82.896 32.5348 83.0819C31.9798 83.1597 32.0522 82.8695 31.9933 80.8495H31.9927ZM29.2556 80.9159C29.2345 80.5323 29.3037 80.643 31.3361 80.5155C31.6604 80.495 31.3713 80.5123 31.6512 82.8684C31.6928 83.2197 31.6085 83.1386 29.6641 83.1035C29.2615 83.0965 29.3658 82.9214 29.2561 80.9159H29.2556ZM24.6773 80.335C25.9325 80.542 27.2031 80.6414 28.4752 80.6322C28.9243 80.6414 28.5644 80.8484 28.9508 82.8052C29.04 83.2564 28.7476 82.9484 27.4052 82.8944C26.9513 82.8765 27.0653 82.709 26.9016 81.0954C26.8643 80.7268 26.5001 80.7436 26.499 81.1143C26.4947 82.5815 26.6471 82.7895 26.2628 82.7063C24.3287 82.2832 25.2026 82.7533 24.6773 80.335ZM24.2239 80.6592C24.2247 81.1834 24.2608 81.7071 24.332 82.2264C23.3468 81.8481 23.497 82.4329 23.2468 80.2415C23.1836 79.7157 24.2039 80.2269 24.2223 80.6592H24.2239ZM23.4284 79.339C25.4619 78.1847 34.4813 77.9297 37.7318 78.7576C40.2842 79.4082 26.4876 80.6717 23.4268 79.339H23.4284ZM38.8083 79.5892C38.7089 81.5347 38.7473 81.6768 37.968 81.9784C37.952 81.9843 37.9348 81.9865 37.9179 81.9838C37.9011 81.9816 37.8851 81.9751 37.8714 81.9649C37.8577 81.9546 37.8468 81.9411 37.8398 81.926C37.8326 81.9103 37.8295 81.8935 37.8307 81.8762C37.8621 81.2769 37.2509 79.8627 38.6781 79.4828C38.6938 79.479 38.7102 79.479 38.7259 79.4828C38.7416 79.4866 38.7563 79.4941 38.7688 79.5044C38.7812 79.5147 38.7911 79.5276 38.7977 79.5422C38.8043 79.5568 38.8073 79.573 38.8067 79.5892H38.8083Z" fill="#3A307F"/>
<path d="M74.4484 81.2935C73.9161 81.253 72.2667 82.8315 67.9916 82.1706C63.6786 81.5043 61.3673 78.1419 61.0458 74.2645C60.6529 69.5327 65.0286 65.0084 70.377 65.3889C75.2298 65.7336 78.028 69.1409 78.2398 72.8664C78.3641 75.0583 77.7978 75.3291 78.4944 75.3096C86.7907 75.081 87.411 75.1875 87.4824 76.3639C87.8066 81.5129 87.6985 81.1195 82.9532 81.2011C81.9486 81.2179 75.0823 81.3421 74.4484 81.2935ZM69.7771 66.4708C65.4112 66.4362 62.3941 70.0012 62.1882 72.9961C62.1028 74.1034 62.2628 75.2156 62.6573 76.2532C63.0518 77.2913 63.6711 78.2289 64.4703 78.9995C65.2701 79.7701 66.2299 80.3543 67.2815 80.7104C68.3331 81.0665 69.4507 81.186 70.5537 81.0595C79.6038 80.2846 79.4871 66.547 69.7766 66.4708H69.7771ZM79.2693 79.6274C79.2644 80.0646 78.7597 80.036 78.6668 79.6572C78.6424 79.5583 78.5533 77.3178 78.5668 76.679C78.5668 76.5331 78.6668 76.2921 78.3836 76.2829C78.1469 76.2753 77.8794 76.198 77.7637 76.5482C76.3803 80.7466 74.2214 80.2894 76.9531 80.2522C84.2881 80.1527 84.2859 80.4143 84.2621 79.7658C84.154 76.7228 84.114 76.5774 84.4431 76.5693C84.7571 76.5617 84.7674 76.7801 84.7593 77.0892C84.7393 78.0311 84.9074 78.9627 84.9344 79.902C84.9376 80.0225 84.9279 80.1543 85.1149 80.1333C86.0876 80.0214 86.5977 80.0906 86.6545 79.3897C86.7523 78.4537 86.7058 77.508 86.5172 76.5855C86.4988 76.4731 86.4399 76.371 86.3524 76.2986C86.2643 76.2261 86.1535 76.1878 86.0395 76.1905C84.8101 76.1035 83.5774 76.0808 82.3458 76.1235C81.2504 76.1651 81.6973 76.1829 81.5893 78.4883C81.5704 78.8871 81.1542 78.9611 81.0591 78.5137C81.0245 78.3515 80.9656 76.9962 80.9705 76.5715C80.9775 76.0311 80.7441 76.2072 79.4482 76.2472C79.0758 76.2607 79.3066 76.3477 79.2688 79.6274H79.2693Z" fill="#3A307F"/>
<path d="M65.9969 69.3712C66.2471 69.402 66.232 69.5733 66.0628 69.7117C65.1112 70.5423 64.4768 71.6766 64.2671 72.9222C64.0574 74.1678 64.2849 75.4475 64.9123 76.544C66.313 79.2033 67.8797 78.8137 67.6333 79.3633C67.5209 79.6146 67.3014 79.4838 67.1545 79.4092C62.6588 77.1255 62.7367 71.2491 65.9969 69.3712Z" fill="#3A307F"/>
<path d="M76.1586 73.1643C76.1721 73.3912 76.1375 74.1132 75.9084 74.0938C75.6165 74.0694 75.9786 73.6533 75.576 72.2391C74.5363 68.5892 71.7608 68.4022 71.9434 67.9986C72.1855 67.4614 75.9192 69.2285 76.1586 73.1643Z" fill="#3A307F"/>
<path d="M72.1619 79.4794C72.1143 79.4773 72.0684 79.4584 72.0332 79.4259C71.9981 79.3941 71.9749 79.3503 71.9689 79.3027C71.9625 79.2557 71.9727 79.2076 71.9981 79.1671C72.0235 79.1266 72.0624 79.0963 72.1078 79.0812C72.7731 78.7456 74.2278 78.2408 74.9282 76.4683C74.9887 76.3148 75.0606 76.0954 75.2768 76.1689C76.0036 76.4164 74.0987 79.3314 72.1619 79.4794Z" fill="#3A307F"/>
<path d="M76.3609 17.2449C83.4542 18.2549 83.7817 18.1176 83.1159 19.5146C82.87 20.0301 79.158 27.2326 79.1521 27.2424C78.9235 27.6315 78.7559 28.1427 78.1853 28.1248C77.6395 28.1076 77.5465 27.5682 77.352 27.2105C75.5443 23.8908 75.8259 23.7519 75.3638 24.0016C60.1082 32.2308 59.9936 32.3454 60.0023 31.2295C60.0077 30.5015 60.2022 25.4515 60.2865 24.4452C60.3681 23.4725 60.1784 23.9464 53.5455 27.1829C51.7784 28.0476 15.5578 45.7442 13.7128 46.1879C13.0919 46.337 13.2546 46.3284 10.9935 41.5161C10.605 40.6887 10.3396 39.8133 10.017 38.9605C9.9854 38.8898 9.96978 38.8129 9.97129 38.7355C9.97275 38.658 9.99129 38.5818 10.0255 38.5123C10.0598 38.4428 10.1089 38.3817 10.1695 38.3334C10.23 38.285 10.3005 38.2506 10.3758 38.2326C13.5491 36.9037 18.3603 34.9518 20.3733 34.1704C66.5206 16.2565 63.911 17.1222 64.0056 18.3127C64.4152 23.4585 63.6197 25.2666 64.379 24.8516C65.2485 24.3782 73.1725 21.3547 73.9982 21.1228C74.6959 20.9267 73.8285 20.5684 72.9806 17.7458C72.7899 17.1109 72.9336 16.959 73.5918 17.0087C74.5127 17.0806 75.4411 17.1136 76.3609 17.2449Z" fill="#EA3934"/>
</svg>
