<svg width="96" height="115" viewBox="0 0 96 115" fill="none" xmlns="http://www.w3.org/2000/svg">
<path d="M28.4282 38.8618C28.352 38.8618 28.2896 38.7994 28.2896 38.7232L28.2388 0.207916C28.2388 0.170954 28.2526 0.1363 28.278 0.110888C28.3035 0.0854765 28.3381 0.0693052 28.3751 0.0693052L82.5095 0C82.5857 0 82.6481 0.0623753 82.6481 0.138611L82.6989 38.6539C82.6989 38.6909 82.685 38.7255 82.6596 38.7509C82.6342 38.7763 82.5996 38.7925 82.5626 38.7925L28.4282 38.8618ZM28.5183 0.348837L28.5668 38.5869L82.424 38.5176L82.3755 0.279531L28.5183 0.348837Z" fill="#3A307F"/>
<path d="M77.5634 33.489H43.3035V7.62885L77.5634 20.5589V33.489Z" fill="#3A307F"/>
<path d="M77.5635 33.6271H43.3012C43.225 33.6271 43.1626 33.5647 43.1626 33.4885V7.62836C43.1626 7.58216 43.1857 7.54058 43.2227 7.51517C43.2596 7.48975 43.3081 7.48282 43.3497 7.49899L77.612 20.4291C77.6651 20.4499 77.7021 20.5007 77.7021 20.5584V33.4885C77.7021 33.5647 77.6397 33.6271 77.5635 33.6271ZM43.4398 33.3499H77.4248V20.6531L43.4398 7.82704V33.3476V33.3499Z" fill="#3A307F"/>
<path d="M40.8616 5.31116L80.0052 20.0824V17.8208L40.8616 3.0495V5.31116Z" fill="#3A307F"/>
<path d="M80.0054 20.2209C79.9892 20.2209 79.9731 20.2186 79.9569 20.2117L40.8132 5.44042C40.7601 5.41963 40.7231 5.3688 40.7231 5.31105V3.04939C40.7231 3.00318 40.7462 2.9616 40.7832 2.93619C40.8202 2.91077 40.8687 2.90384 40.9103 2.92002L80.0539 17.6913C80.1071 17.7121 80.144 17.7629 80.144 17.8207V20.0823C80.144 20.1285 80.1209 20.1701 80.084 20.1955C80.0608 20.2117 80.0331 20.2209 80.0054 20.2209ZM41.0004 5.21402L79.8668 19.8813V17.9154L41.0004 3.24806V5.21402Z" fill="#3A307F"/>
<path d="M43.3034 33.4889H31.6255V22.2822L43.3034 17.1121V33.4889Z" fill="#3A307F"/>
<path d="M43.3034 33.6274H31.6254C31.5492 33.6274 31.4868 33.5651 31.4868 33.4888V22.2822C31.4868 22.2267 31.5192 22.1782 31.57 22.1551L43.2479 16.9826C43.2895 16.9641 43.3403 16.9688 43.3796 16.9942C43.4189 17.0196 43.442 17.0635 43.442 17.1097V33.4865C43.442 33.5628 43.3796 33.6251 43.3034 33.6251V33.6274ZM31.764 33.3502H43.1648V17.3222L31.764 22.3723V33.3502Z" fill="#3A307F"/>
<path d="M59.2692 33.6274C59.193 33.6274 59.1306 33.5651 59.1306 33.4888V13.6559C59.1306 13.5797 59.193 13.5173 59.2692 13.5173C59.3455 13.5173 59.4078 13.5797 59.4078 13.6559V33.4888C59.4078 33.5651 59.3455 33.6274 59.2692 33.6274Z" fill="#3A307F"/>
<path d="M77.5635 25.4375H67.1516C67.0753 25.4375 67.0129 25.3751 67.0129 25.2989C67.0129 25.2227 67.0753 25.1603 67.1516 25.1603H77.5635C77.6398 25.1603 77.7021 25.2227 77.7021 25.2989C77.7021 25.3751 77.6398 25.4375 77.5635 25.4375Z" fill="#3A307F"/>
<path d="M65.7768 31.6683H61.3806C61.3043 31.6683 61.2419 31.6059 61.2419 31.5296V21.1639C61.2419 21.0876 61.3043 21.0253 61.3806 21.0253H65.7768C65.8531 21.0253 65.9154 21.0876 65.9154 21.1639V31.5296C65.9154 31.6059 65.8531 31.6683 65.7768 31.6683ZM61.5169 31.391H65.6382V21.3025H61.5169V31.391Z" fill="#3A307F"/>
<path d="M67.3364 31.6683H59.2692C59.193 31.6683 59.1306 31.6059 59.1306 31.5297C59.1306 31.4534 59.193 31.3911 59.2692 31.3911H67.3364C67.4126 31.3911 67.475 31.4534 67.475 31.5297C67.475 31.6059 67.4126 31.6683 67.3364 31.6683Z" fill="#3A307F"/>
<path d="M75.3803 20.817H69.3484V24.4555H75.3803V20.817Z" fill="#D4D2E1"/>
<path d="M45.9441 10.6455L56.6263 14.7114V30.3721H45.9441V10.6455Z" fill="#D4D2E1"/>
<path d="M51.2853 30.0696C51.2091 30.0696 51.1467 30.0072 51.1467 29.931V13.3323C51.1467 13.2561 51.2091 13.1937 51.2853 13.1937C51.3616 13.1937 51.424 13.2561 51.424 13.3323V29.931C51.424 30.0072 51.3616 30.0696 51.2853 30.0696Z" fill="#3A307F"/>
<path d="M21.7797 103.406L3.01413 113.129L0.218811 71.9112C-0.0838226 67.4618 3.44151 63.6824 7.90246 63.6778L26.9014 63.6523L21.7797 103.404V103.406Z" fill="#D4D2E1"/>
<path d="M33.4621 97.0807C33.3859 97.0807 33.3235 97.0183 33.3235 96.9421C33.3235 96.8658 33.3859 96.8035 33.4621 96.8035C33.4621 96.8035 92.9492 96.8104 92.97 96.8196L33.4621 97.0784V97.0807Z" fill="#3A307F"/>
<path d="M0.137909 114.77C0.0893954 114.77 0.040882 114.744 0.01547 114.696C-0.0191827 114.629 0.0062293 114.546 0.0732244 114.509L8.26973 110.159C8.33673 110.122 8.41989 110.149 8.45686 110.216C8.49151 110.283 8.4661 110.366 8.3991 110.403L0.202594 114.754C0.181802 114.765 0.161011 114.77 0.137909 114.77Z" fill="#3A307F"/>
<path d="M69.5471 62.361C69.4708 62.361 69.4084 62.2987 69.4084 62.2224V40.9503C69.4084 40.8741 69.4708 40.8117 69.5471 40.8117C69.6233 40.8117 69.6857 40.8741 69.6857 40.9503V62.2224C69.6857 62.2987 69.6233 62.361 69.5471 62.361Z" fill="#3A307F"/>
<path d="M8.67613 78.8737L8.51904 110.438L19.6703 104.889L8.67613 78.8737Z" fill="#EA3934"/>
<path d="M79.8457 69.82C79.6448 69.2494 79.0857 68.8636 78.5012 68.7088C77.9167 68.5541 77.2999 68.591 76.6947 68.628C72.8528 68.8705 69.011 69.1131 65.1692 69.3557C67.7358 70.6979 70.6189 71.2916 73.4928 71.4579C74.6871 71.5272 80.6982 72.2388 79.8434 69.8223L79.8457 69.82Z" fill="#FDFDFD"/>
<path d="M76.3598 71.7446C75.4265 71.7446 74.5232 71.6729 73.9295 71.6267C73.747 71.6129 73.5968 71.6013 73.4859 71.5944C70.2517 71.4073 67.4333 70.6957 65.1069 69.4783C65.0515 69.4505 65.0237 69.3882 65.0353 69.3281C65.0469 69.268 65.1 69.2241 65.1624 69.2195L76.6878 68.4918C77.2677 68.4549 77.9238 68.4133 78.5383 68.5773C79.2406 68.7644 79.7789 69.2126 79.9775 69.7763C80.13 70.2083 80.0907 70.5802 79.8597 70.8805C79.3261 71.5759 77.8083 71.7469 76.3621 71.7469L76.3598 71.7446ZM65.6891 69.4598C67.8907 70.5202 70.5174 71.1462 73.5044 71.3172C73.6153 71.3241 73.7678 71.3356 73.9526 71.3495C75.2925 71.4535 78.8525 71.733 79.6402 70.7073C79.8135 70.4832 79.8389 70.206 79.7165 69.8641C79.5478 69.3859 79.0812 69.0024 78.4667 68.8383C77.8984 68.6859 77.2908 68.7252 76.7063 68.7621L65.6891 69.4575V69.4598Z" fill="#3A307F"/>
<path d="M58.9065 69.7253C60.3504 66.4055 65.0724 64.9039 66.7126 64.4303C68.3528 63.9568 68.5792 66.1976 65.9826 67.5191C63.3859 68.8382 64.2315 69.4111 64.2315 69.4111C64.2315 69.4111 79.8067 69.3603 80.5459 71.0097C80.5459 71.0097 81.5231 73.41 75.3804 73.4308C73.6408 73.4377 72.0722 74.4796 71.3999 76.0829C71.2105 76.5357 70.998 77.0393 70.7716 77.5729C65.9086 77.6538 61.0249 76.3901 56.8135 73.9598C57.7653 72.1163 58.5415 70.5685 58.9065 69.7253Z" fill="#FDFDFD"/>
<path d="M70.9217 77.356C70.9032 77.356 70.8847 77.3514 70.8685 77.3445C70.7992 77.3144 70.7669 77.2336 70.7969 77.1643C70.8038 77.1504 70.8962 76.931 71.0233 76.6283L71.2751 76.0277C71.9682 74.3713 73.5807 73.2971 75.3803 73.2901C78.6954 73.2786 79.869 72.574 80.2663 71.9849C80.5898 71.5067 80.4257 71.077 80.4188 71.0585C79.9059 69.9126 70.4596 69.5222 64.2337 69.5453C64.206 69.5453 64.1783 69.5361 64.1575 69.5222C64.0789 69.4691 63.9519 69.3212 63.9657 69.0948C63.9957 68.6097 64.6541 68.0368 65.9224 67.3922C67.5442 66.5675 67.9693 65.4263 67.7521 64.8788C67.6181 64.5369 67.2439 64.4167 66.7518 64.56C63.9103 65.3778 60.2625 66.9487 59.0335 69.7763C58.7193 70.4971 57.8345 72.2644 57.1114 73.6782C57.0768 73.7452 56.9936 73.773 56.9266 73.7383C56.8596 73.7036 56.8319 73.6205 56.8665 73.5535C57.5873 72.1443 58.4698 70.3839 58.7817 69.6678C60.0546 66.7408 63.7763 65.1306 66.6756 64.2966C67.4333 64.0794 67.8607 64.4029 68.0085 64.7794C68.3042 65.5325 67.7174 66.7893 66.0472 67.6394C64.4601 68.4457 64.2568 68.9331 64.2406 69.1064C64.2337 69.1872 64.2637 69.2404 64.2868 69.2704C64.772 69.2704 68.429 69.2704 72.1183 69.4529C80.1739 69.8433 80.5482 70.6796 80.6706 70.9522C80.6822 70.9799 80.8993 71.5344 80.4973 72.135C79.8667 73.0753 78.1456 73.5581 75.378 73.5673C73.6893 73.5743 72.1761 74.5815 71.5246 76.1363L71.2728 76.7369C71.1457 77.0395 71.051 77.259 71.0464 77.2729C71.0233 77.326 70.9725 77.356 70.9193 77.356H70.9217Z" fill="#3A307F"/>
<path d="M36.3962 66.6505C36.3962 66.6505 39.7529 67.868 42.1901 71.257C46.4801 77.2196 51.9275 83.7366 51.9275 83.7366C51.9275 83.7366 54.0113 79.375 56.8112 73.9599C61.025 76.3925 65.9064 77.6539 70.7693 77.573C68.1496 83.7366 64.488 92.1965 61.5748 95.239C57.4604 99.5382 47.9748 106.598 41.6357 90.8681C35.2966 75.1404 36.3962 66.6505 36.3962 66.6505Z" fill="#EA3934"/>
<path d="M56.8135 73.9598L55.4136 76.6951C55.4136 76.6951 57.7376 79.7122 61.591 80.9966C67.1216 82.8425 69.1822 81.2785 69.1822 81.2785L70.7739 77.5729C70.7739 77.5729 67.4126 77.8409 63.2058 76.5957C58.999 75.3506 56.8159 73.9575 56.8159 73.9575L56.8135 73.9598Z" fill="#FDFDFD"/>
<path d="M69.1799 81.4173C69.1614 81.4173 69.1429 81.4127 69.1244 81.4058C69.0551 81.3757 69.0228 81.2949 69.0528 81.2256L70.5568 77.7234C69.7297 77.758 66.7311 77.7857 63.1642 76.73C59.5534 75.6604 57.398 74.4683 56.869 74.1541L55.536 76.7577C55.5013 76.8247 55.4182 76.8524 55.3512 76.8178C55.2842 76.7831 55.2564 76.6999 55.2911 76.6329L56.6911 73.8977C56.7095 73.863 56.7396 73.8376 56.7765 73.8284C56.8135 73.8191 56.8528 73.8238 56.8874 73.8446C56.9082 73.8584 59.1075 75.2422 63.2427 76.4666C67.3733 77.6887 70.7277 77.4415 70.76 77.4369C70.8086 77.4369 70.8548 77.4554 70.8825 77.4946C70.9102 77.5339 70.9171 77.5847 70.8964 77.6286L69.3046 81.3342C69.2815 81.3873 69.2307 81.4173 69.1776 81.4173H69.1799Z" fill="#3A307F"/>
<path d="M48.9542 85.6958L42.19 71.2572C40.6699 68.0114 37.3964 65.9484 33.811 65.9807L16.2652 66.1355C9.97225 66.191 5.60832 72.4261 7.70828 78.3563L14.1791 97.778C15.4705 101.465 18.9381 105.369 22.7337 106.293L37.4703 109.511L48.9519 96.2718V85.6958H48.9542Z" fill="#EA3934"/>
<path d="M19.668 105.027C19.6426 105.027 19.6149 105.021 19.5918 105.004C17.1453 103.355 15.0222 100.603 14.0496 97.8243L9.16824 83.1755C9.14514 83.1039 9.18442 83.0253 9.25603 82.9999C9.32765 82.9768 9.40619 83.0161 9.4316 83.0877L14.313 97.7365C15.2648 100.46 17.3486 103.159 19.7465 104.778C19.8089 104.82 19.8274 104.907 19.7835 104.97C19.7558 105.009 19.7142 105.03 19.668 105.03V105.027Z" fill="#3A307F"/>
<path d="M39.9791 95.3522C39.9791 95.3522 39.9583 95.3522 39.9467 95.3476L26.9358 92.2519C26.8619 92.2334 26.8157 92.1595 26.8342 92.0856C26.8526 92.0117 26.9266 91.9655 27.0005 91.9839L40.0114 95.0796C40.0853 95.0981 40.1315 95.172 40.1131 95.2459C40.0969 95.3083 40.0414 95.3522 39.9791 95.3522Z" fill="#3A307F"/>
<path d="M29.5188 92.8754C29.4656 92.8754 29.4148 92.8431 29.3917 92.79L22.2741 75.831C22.244 75.7616 22.2787 75.6808 22.348 75.6508C22.4173 75.6207 22.4981 75.6554 22.5282 75.7247L29.6458 92.6837C29.6759 92.753 29.6412 92.8339 29.5719 92.8639C29.5534 92.8708 29.5372 92.8754 29.5188 92.8754Z" fill="#3A307F"/>
<path d="M50.0261 87.0173C50.003 87.0173 49.9799 87.0103 49.9591 86.9988C49.8921 86.9618 49.869 86.8763 49.906 86.8117L51.5901 83.8361C51.6271 83.7691 51.7126 83.746 51.7772 83.783C51.8442 83.82 51.8673 83.9054 51.8304 83.9701L50.1463 86.9456C50.1208 86.9895 50.0746 87.0149 50.0261 87.0149V87.0173Z" fill="#3A307F"/>
<path d="M41.7466 95.625C41.6773 95.625 41.6195 95.5742 41.6103 95.5049L39.5404 79.8003C39.5311 79.7241 39.5842 79.6548 39.6582 79.6455C39.7344 79.6363 39.8037 79.6894 39.813 79.7633L41.8829 95.4679C41.8921 95.5442 41.839 95.6135 41.7651 95.6227C41.7581 95.6227 41.7535 95.6227 41.7466 95.6227V95.625Z" fill="#3A307F"/>
<path d="M44.5303 96.0476L40.3535 95.2575C40.3535 95.2575 37.7684 97.6971 36.8559 101.654C35.5483 107.335 37.4519 109.458 37.4519 109.458L41.6911 110.292L44.528 96.0476H44.5303Z" fill="#FDFDFD"/>
<path d="M41.6911 110.431C41.6911 110.431 41.6726 110.431 41.6634 110.429L37.4242 109.595C37.3502 109.581 37.3017 109.507 37.3156 109.433C37.3295 109.359 37.4034 109.308 37.4773 109.325L41.5825 110.133L44.394 96.0225C44.4078 95.9486 44.4818 95.8978 44.5557 95.914C44.6296 95.9278 44.6781 96.0017 44.6643 96.0757L41.8274 110.323C41.8135 110.387 41.7558 110.433 41.6911 110.433V110.431Z" fill="#3A307F"/>
<path d="M44.5302 96.048C44.5302 96.048 49.0304 96.7549 51.0287 95.8377C53.027 94.9206 54.3092 94.7496 54.8244 95.9209C55.3395 97.0922 53.6762 98.8156 52.297 99.4878C50.9178 100.16 51.7333 100.902 52.3016 101.477C52.8699 102.052 56.8042 104.175 59.015 105.088C61.2259 106 59.9021 107.841 57.8461 107.592C57.8461 107.592 57.3702 109.417 55.1986 109.281C55.1986 109.281 54.5448 110.738 52.2832 110.42C52.2832 110.42 52.796 111.82 49.4116 111.649C46.0272 111.478 41.6933 110.293 41.6933 110.293C41.6933 110.293 40.4088 108.243 40.7508 103.695C41.0927 99.1459 44.5302 96.0457 44.5302 96.0457V96.048Z" fill="#FDFDFD"/>
<path d="M49.957 111.801C49.7815 111.801 49.5966 111.796 49.4049 111.787C46.0459 111.618 41.7005 110.438 41.6566 110.426C41.6242 110.417 41.5942 110.396 41.5757 110.366C41.5226 110.281 40.2728 108.227 40.6124 103.685C40.9543 99.134 44.4034 95.9759 44.438 95.9436C44.4935 95.8928 44.5813 95.8974 44.6321 95.9528C44.6829 96.0083 44.6783 96.0961 44.6228 96.1469C44.5882 96.1769 41.2223 99.2656 40.8873 103.703C40.58 107.793 41.6057 109.849 41.7836 110.172C42.2965 110.308 46.2908 111.352 49.4188 111.51C51.1861 111.6 51.826 111.258 52.0524 110.957C52.2349 110.715 52.1563 110.475 52.1517 110.465C52.1355 110.419 52.1448 110.368 52.1748 110.331C52.2048 110.294 52.2534 110.276 52.2996 110.283C54.4342 110.583 55.0648 109.239 55.0695 109.225C55.0926 109.172 55.148 109.142 55.2034 109.144C57.2295 109.271 57.6892 107.626 57.7077 107.557C57.7262 107.49 57.7885 107.448 57.8578 107.455C58.9852 107.592 59.8423 107.065 59.9924 106.499C60.1218 106.007 59.7429 105.54 58.9575 105.214C56.7027 104.283 52.787 102.172 52.2002 101.574L52.1309 101.504C51.8444 101.215 51.521 100.885 51.4263 100.527C51.4078 100.453 51.4517 100.377 51.5256 100.358C51.5996 100.34 51.6758 100.384 51.6943 100.458C51.7705 100.744 52.0662 101.047 52.3273 101.31L52.3966 101.382C52.9556 101.952 56.8806 104.059 59.0638 104.963C59.9786 105.341 60.4244 105.942 60.2604 106.573C60.0849 107.245 59.1746 107.853 57.9387 107.744C57.7862 108.151 57.1417 109.502 55.2751 109.428C55.0902 109.74 54.321 110.78 52.4451 110.583C52.4497 110.726 52.422 110.923 52.2765 111.121C51.9415 111.577 51.1606 111.805 49.957 111.805V111.801Z" fill="#3A307F"/>
<path d="M57.8439 107.728C57.8439 107.728 57.83 107.728 57.8208 107.728C57.7931 107.723 54.91 107.231 50.0563 104.817C49.987 104.783 49.9593 104.699 49.9939 104.632C50.0286 104.563 50.1094 104.535 50.1787 104.57C54.9908 106.963 57.837 107.451 57.867 107.455C57.9432 107.467 57.9941 107.539 57.9802 107.615C57.9687 107.682 57.9109 107.73 57.8439 107.73V107.728Z" fill="#3A307F"/>
<path d="M55.1963 109.419C55.1963 109.419 55.1871 109.419 55.1825 109.419C55.1478 109.417 51.6479 109.079 47.8245 107.476C47.7552 107.446 47.7206 107.365 47.7506 107.296C47.7806 107.227 47.8615 107.192 47.9308 107.222C51.7172 108.809 55.1732 109.142 55.2079 109.144C55.2841 109.151 55.3395 109.218 55.3326 109.294C55.3257 109.366 55.2656 109.419 55.1963 109.419Z" fill="#3A307F"/>
<path d="M52.281 110.556C52.281 110.556 52.2671 110.556 52.2602 110.556C52.2209 110.549 48.3352 109.925 46.3738 109.308C46.3022 109.285 46.2606 109.209 46.2837 109.135C46.3068 109.063 46.3854 109.022 46.457 109.045C48.3976 109.657 52.2648 110.276 52.3041 110.283C52.3803 110.294 52.4311 110.366 52.4196 110.44C52.408 110.507 52.3503 110.556 52.2833 110.556H52.281Z" fill="#3A307F"/>
<path d="M23.2952 53.9124C23.3114 54.3144 23.3622 54.7117 23.4223 55.1068C23.4869 55.5434 23.5655 55.9777 23.6787 56.4028C23.8843 57.179 24.2077 57.8929 24.6721 58.5143C25.5961 59.7502 26.9453 60.5057 28.3822 60.6882C29.8861 60.8822 31.4802 60.4733 32.7484 59.5239C33.7765 58.7546 34.5689 57.5787 34.8415 56.2434C35.1233 56.0932 35.382 55.8922 35.6131 55.6566C36.1421 55.1091 36.5233 54.4022 36.8097 53.6722C37.1308 52.8567 37.3272 51.9649 37.318 51.0755C37.3018 49.5069 36.6203 47.9383 35.3243 47.2337C34.7029 46.8964 33.9682 46.7786 33.2844 46.9657C32.6144 47.1505 31.926 47.7512 31.2283 47.4C31.0458 47.3076 30.8772 47.1875 30.6993 47.0882C30.5168 46.9888 30.332 46.8987 30.1403 46.8225C29.7983 46.6885 29.4356 46.5822 29.066 46.61C28.731 46.6354 28.4215 46.7902 28.1881 47.0651C27.9825 47.3053 27.837 47.5918 27.6776 47.8667C27.5297 48.1231 27.3634 48.3888 27.1139 48.532C26.8044 48.7099 26.4393 48.6822 26.1044 48.6868C25.7625 48.6914 25.4206 48.7284 25.111 48.9155C24.8268 49.0888 24.582 49.3544 24.4272 49.6709C24.2585 50.0152 24.2054 50.3709 24.2239 50.7567C24.2354 50.9646 24.2632 51.1864 24.2123 51.392C24.1661 51.5815 24.0437 51.7039 23.9189 51.8356C23.3992 52.3831 23.2605 53.1431 23.2883 53.9078L23.2952 53.9124Z" fill="#3A307F"/>
<path d="M21.9438 64.6937C22.4751 64.3541 22.9164 63.8898 23.2282 63.34L26.7905 57.0471L32.2818 58.9299L29.9832 65.7795L31.8198 65.9921L35.1788 90.1634L19.6775 66.1399L21.9461 64.6937H21.9438Z" fill="#FDFDFD"/>
<path d="M19.6751 66.2789C19.6289 66.2789 19.585 66.2558 19.5596 66.2142C19.518 66.1495 19.5365 66.0641 19.6011 66.0248L21.8697 64.5786C22.3803 64.2529 22.81 63.8024 23.108 63.2734L26.6703 56.9805C26.7026 56.9227 26.7719 56.8973 26.8343 56.9181L32.3256 58.8009C32.3972 58.8263 32.4365 58.9025 32.4111 58.9764L30.1679 65.6644L31.8358 65.8585C31.9121 65.8677 31.9652 65.9347 31.956 66.0109C31.9467 66.0872 31.8797 66.1426 31.8035 66.1311L29.9669 65.9185C29.9253 65.9139 29.8884 65.8908 29.8676 65.8561C29.8445 65.8215 29.8399 65.7776 29.8537 65.7383L32.1084 59.0203L26.8551 57.2207L23.3506 63.4143C23.0294 63.9803 22.5697 64.4654 22.0199 64.8166L19.7513 66.2627C19.7282 66.2766 19.7028 66.2835 19.6774 66.2835L19.6751 66.2789Z" fill="#3A307F"/>
<path d="M28.008 66.5167C27.807 66.5167 27.5875 66.5075 27.3496 66.482C25.3143 66.2811 22.6414 64.3867 22.5305 64.3059C22.4682 64.262 22.4543 64.1765 22.4982 64.1141C22.5421 64.0517 22.6276 64.0379 22.69 64.0818C22.7177 64.1002 25.416 66.0131 27.3773 66.2071C29.3017 66.3966 29.8677 65.6989 29.8746 65.692C29.9208 65.6319 30.0086 65.6203 30.0687 65.6689C30.1287 65.7151 30.1403 65.8028 30.0918 65.8629C30.0687 65.8929 29.5627 66.5167 28.008 66.5167Z" fill="#3A307F"/>
<path d="M28.195 66.9487L27.1416 68.9932L28.3244 70.2892L28.6201 79.9989L35.2041 90.2122L34.2362 83.3325L29.3109 70.2361L29.9646 69.0163L28.195 66.9487Z" fill="#D4D2E1"/>
<path d="M26.4486 70.4418C26.4255 70.4418 26.4024 70.4349 26.3816 70.4234L20.1303 66.9003C20.0633 66.8634 20.0402 66.7779 20.0771 66.7132C20.1141 66.6462 20.1996 66.6231 20.2643 66.6601L26.3908 70.1138L28.0773 66.9096C28.0981 66.8703 28.1373 66.8426 28.1835 66.838C28.2297 66.8333 28.2736 66.8495 28.3037 66.8842L30.496 69.4323L31.7551 67.2607C31.792 67.1937 31.8775 67.1729 31.9445 67.2099C32.0115 67.2469 32.0323 67.3323 31.9953 67.3993L30.6393 69.7395C30.6162 69.7788 30.5769 69.8042 30.533 69.8089C30.4891 69.8135 30.4452 69.795 30.4152 69.7603L28.2298 67.2191L26.571 70.3679C26.5526 70.4003 26.5248 70.4257 26.4879 70.4349C26.474 70.4395 26.4625 70.4395 26.4486 70.4395V70.4418Z" fill="#3A307F"/>
<path d="M25.7346 55.2662C25.157 55.2962 24.6511 55.7536 24.4847 56.3081C24.3207 56.8625 24.4686 57.4816 24.7989 57.9552C25.1293 58.4288 25.6283 58.7684 26.1643 58.9879C26.4415 59.1011 26.7487 59.2004 26.9266 59.4407C27.1761 59.7756 27.0791 60.2423 27.0976 60.6581C27.1391 61.5845 27.8137 62.3931 28.6361 62.8228C29.4586 63.2525 30.4057 63.368 31.3298 63.4142C31.9235 63.4442 32.5242 63.4488 33.104 63.3218C33.6839 63.1947 34.2476 62.9221 34.638 62.4739C35.3357 61.67 35.3449 60.4941 35.3172 59.4291C35.2571 57.1536 35.197 54.8781 35.1393 52.6049C33.4298 53.2378 31.5192 53.3164 29.7635 52.822C29.4331 52.7296 29.0289 52.6326 28.784 52.8751C28.62 53.0369 28.6015 53.2887 28.5899 53.5197C28.5599 54.1619 28.5322 54.8041 28.5021 55.4487C28.4883 55.7744 28.4675 56.1163 28.2896 56.3889C28.1649 56.5807 27.8992 56.7539 27.6589 56.7124C27.3563 56.6592 27.324 56.3658 27.1692 56.1348C26.8504 55.6543 26.3398 55.2338 25.7299 55.2639L25.7346 55.2662Z" fill="#FDFDFD"/>
<path d="M31.9513 63.5736C31.7387 63.5736 31.5285 63.5666 31.3252 63.5551C30.452 63.5112 29.4424 63.4026 28.5738 62.9475C27.6197 62.4462 27.0029 61.573 26.9613 60.6651C26.9567 60.5565 26.9613 60.4456 26.9613 60.337C26.9682 60.0275 26.9752 59.7364 26.8157 59.5215C26.6818 59.3436 26.4577 59.2535 26.2197 59.1588L26.1111 59.1149C25.4966 58.8608 25.0046 58.4889 24.6858 58.0338C24.3092 57.4955 24.1845 56.8348 24.3508 56.2688C24.5379 55.6404 25.1155 55.1599 25.7253 55.1276C26.3052 55.0975 26.8735 55.4371 27.287 56.0586C27.3355 56.1325 27.3702 56.2064 27.4048 56.278C27.4903 56.4582 27.5435 56.5529 27.6844 56.576C27.86 56.6084 28.0771 56.4628 28.1741 56.3127C28.3358 56.0632 28.352 55.7328 28.3659 55.4394L28.4537 53.5104C28.4652 53.2425 28.4929 52.9676 28.6893 52.7735C29.0035 52.4616 29.5048 52.6025 29.8028 52.6857C31.5308 53.1708 33.409 53.0946 35.0931 52.4709C35.1347 52.4547 35.1809 52.4616 35.2179 52.487C35.2548 52.5124 35.2779 52.554 35.2779 52.5979L35.4558 59.4222C35.4859 60.5588 35.4558 61.7393 34.742 62.5617C34.2661 63.1115 33.6054 63.3518 33.1341 63.4534C32.739 63.5412 32.3394 63.5666 31.949 63.5666L31.9513 63.5736ZM25.7415 55.4048C25.2448 55.4302 24.7712 55.8276 24.6165 56.3473C24.4709 56.8325 24.5818 57.4054 24.9122 57.8744C25.1986 58.2856 25.6514 58.6252 26.2151 58.8585L26.3214 58.9024C26.5732 59.0017 26.8573 59.1172 27.0375 59.3575C27.2524 59.6486 27.2454 60.002 27.2362 60.3439C27.2339 60.4525 27.2316 60.5542 27.2362 60.6535C27.2709 61.4505 27.8461 62.2545 28.7009 62.7026C29.521 63.1346 30.4959 63.2363 31.3391 63.2802C31.9005 63.3079 32.5011 63.3171 33.0763 63.1901C33.506 63.0954 34.1067 62.8782 34.5341 62.3861C35.1809 61.64 35.2086 60.5634 35.1786 59.436L35.0053 52.8012C33.3143 53.3857 31.4477 53.4411 29.7266 52.9583C29.4008 52.8659 29.0682 52.792 28.881 52.9768C28.7563 53.0992 28.7378 53.3071 28.7286 53.5289L28.6408 55.4579C28.6269 55.7698 28.6084 56.1556 28.4052 56.4698C28.255 56.7008 27.9408 56.9064 27.6359 56.8533C27.3494 56.8024 27.2454 56.5899 27.1553 56.4028C27.123 56.3358 27.093 56.2734 27.056 56.2157C26.8874 55.9615 26.4184 55.3724 25.7392 55.4071L25.7415 55.4048Z" fill="#3A307F"/>
<path d="M27.1183 58.2534C27.079 58.2534 27.0375 58.2349 27.0097 58.2025C26.7094 57.8283 26.2682 57.5557 25.7969 57.4586C25.723 57.4425 25.6744 57.3709 25.6906 57.2946C25.7068 57.2207 25.7784 57.1722 25.8546 57.1884C26.3952 57.3016 26.8827 57.5996 27.2269 58.0293C27.2754 58.0893 27.2638 58.1748 27.2061 58.2233C27.1807 58.2441 27.1506 58.2534 27.1206 58.2534H27.1183Z" fill="#3A307F"/>
<path d="M18.153 53.3419V48.9895C19.4929 48.9895 20.5787 47.9037 20.5787 46.5638V37.8591C20.5787 36.5192 19.4929 35.4334 18.153 35.4334H8.95157C7.61166 35.4334 6.52588 36.5192 6.52588 37.8591V46.5638C6.52588 47.9037 7.61166 48.9895 8.95157 48.9895H15.0966L18.153 53.3419Z" fill="#FDFDFD"/>
<path d="M18.1528 53.4784C18.1089 53.4784 18.0674 53.4576 18.0396 53.4206L15.0248 49.126H8.95139C7.53756 49.126 6.3894 47.9756 6.3894 46.564V37.8593C6.3894 36.4455 7.53987 35.2973 8.95139 35.2973H18.1528C19.5667 35.2973 20.7148 36.4478 20.7148 37.8593V46.564C20.7148 47.9317 19.6383 49.0521 18.2891 49.1237V53.3421C18.2891 53.4022 18.2499 53.4553 18.1921 53.4738C18.1782 53.4784 18.1644 53.4807 18.1505 53.4807L18.1528 53.4784ZM8.95139 35.5722C7.69003 35.5722 6.66432 36.5979 6.66432 37.8593V46.564C6.66432 47.8254 7.69003 48.8511 8.95139 48.8511H15.0965C15.1404 48.8511 15.1842 48.8719 15.2097 48.9089L18.0165 52.9032V48.9874C18.0165 48.9112 18.0789 48.8488 18.1551 48.8488C19.4165 48.8488 20.4422 47.8231 20.4422 46.5617V37.857C20.4422 36.5956 19.4165 35.5699 18.1551 35.5699H8.9537L8.95139 35.5722Z" fill="#3A307F"/>
<path d="M10.7651 45.1341C10.7304 45.1341 10.6934 45.1202 10.668 45.0948C10.6149 45.0417 10.6149 44.9539 10.668 44.9008L16.2379 39.3309C16.291 39.2778 16.3788 39.2778 16.4319 39.3309C16.4851 39.3841 16.4851 39.4719 16.4319 39.525L10.8621 45.0948C10.8344 45.1225 10.7997 45.1341 10.7651 45.1341Z" fill="#3A307F"/>
<path d="M11.4188 41.4724C11.1669 41.4724 10.9313 41.3754 10.7534 41.1975C10.5755 41.0197 10.4785 40.7817 10.4785 40.5299C10.4785 40.0101 10.9013 39.5873 11.4211 39.5873C11.6729 39.5873 11.9085 39.6867 12.0864 39.8646C12.2643 40.0424 12.3613 40.2804 12.3613 40.5322C12.3613 41.052 11.9385 41.4748 11.4188 41.4748V41.4724ZM11.4211 39.8623C11.0538 39.8623 10.7534 40.1626 10.7534 40.5299C10.7534 40.7078 10.8227 40.8764 10.9475 41.0012C11.0722 41.1259 11.2409 41.1952 11.4188 41.1952C11.7861 41.1952 12.0864 40.8949 12.0864 40.5276C12.0864 40.3497 12.0171 40.1811 11.8923 40.0563C11.7676 39.9292 11.599 39.8599 11.4211 39.8599V39.8623Z" fill="#3A307F"/>
<path d="M15.681 45.1364C15.4292 45.1364 15.1935 45.037 15.0156 44.8592C14.8378 44.6813 14.7407 44.4433 14.7407 44.1915C14.7407 43.6717 15.1635 43.249 15.6833 43.249C15.9351 43.249 16.1707 43.3483 16.3486 43.5262C16.5265 43.7041 16.6235 43.942 16.6235 44.1938C16.6235 44.7136 16.2008 45.1364 15.681 45.1364ZM15.6833 43.5239C15.316 43.5239 15.0156 43.8242 15.0156 44.1915C15.0156 44.3694 15.0849 44.538 15.2097 44.6628C15.3344 44.7898 15.5031 44.8592 15.681 44.8592C16.0483 44.8592 16.3486 44.5588 16.3486 44.1915C16.3486 44.0136 16.2793 43.845 16.1546 43.7202C16.0298 43.5932 15.8612 43.5239 15.6833 43.5239Z" fill="#3A307F"/>
<path d="M84.3645 114.363L62.7297 114.335L70.6536 92.6267C70.8777 92.0122 71.4622 91.6056 72.1137 91.6056L93.6884 91.6333C94.765 91.6333 95.5135 92.7052 95.1438 93.7171L88.7192 111.318C88.0516 113.148 86.312 114.363 84.3645 114.361V114.363Z" fill="#3A307F"/>
<path d="M54.293 111.609L88.5529 111.653L88.4674 111.886C87.8691 113.497 86.4691 114.566 84.7504 114.564L49.8621 114.518C50.6267 112.75 52.3686 111.607 54.293 111.609Z" fill="#3A307F"/>
</svg>
