<svg width="100" height="100" viewBox="0 0 100 100" fill="none" xmlns="http://www.w3.org/2000/svg">
<path d="M62.2235 60.4173C62.6735 59.5893 62.5665 59.2113 63.6975 55.8878C64.2475 54.2688 64.8375 52.6523 65.513 51.0798C65.593 50.8938 65.3255 50.7298 65.2345 50.9173C64.1279 53.1549 63.1835 55.469 62.4085 57.8418C62.0873 58.6288 61.8734 59.4554 61.7725 60.2993C61.7748 60.3514 61.7937 60.4013 61.8264 60.4419C61.8592 60.4824 61.904 60.5114 61.9545 60.5246C62.0049 60.5378 62.0582 60.5345 62.1066 60.5152C62.155 60.4959 62.196 60.4616 62.2235 60.4173Z" fill="#EA3934"/>
<path d="M60.377 56.6195C58.5015 57.0555 58.007 57.247 55.7335 56.7665C55.5495 56.7275 55.414 56.9885 55.6025 57.085C57.027 57.815 59.161 57.885 60.545 57.013C60.5888 56.9856 60.6214 56.9435 60.6369 56.8943C60.6524 56.845 60.6498 56.7918 60.6295 56.7443C60.6092 56.6968 60.5726 56.6581 60.5263 56.6352C60.48 56.6123 60.427 56.6067 60.377 56.6195Z" fill="#EA3934"/>
<path d="M68.3772 43.996C68.3548 43.9628 68.3207 43.9393 68.2816 43.9303C68.2426 43.9213 68.2016 43.9276 68.167 43.9478C68.1324 43.968 68.1068 44.0006 68.0954 44.039C68.084 44.0774 68.0877 44.1187 68.1057 44.1545C68.576 45.1266 69.2495 45.9864 70.0805 46.676C70.9116 47.3656 71.8809 47.8689 72.923 48.1519C73.9652 48.4349 75.0559 48.4911 76.1216 48.3166C77.1873 48.1422 78.2032 47.7411 79.1007 47.1405C80.0407 46.5315 81.3142 45.4905 81.7237 44.3405C82.0372 44.6405 83.8807 46.367 83.8952 46.372C81.2727 49.672 77.7852 52.2845 73.4327 52.5055C69.2622 52.7175 64.2327 50.6485 62.8612 46.3865C62.848 46.3526 62.8227 46.3248 62.7902 46.3084C62.7577 46.2921 62.7203 46.2884 62.6852 46.298C62.6501 46.3077 62.6199 46.33 62.6003 46.3606C62.5807 46.3913 62.5732 46.4281 62.5792 46.464C63.6197 52.042 72.8687 55.8605 80.2192 50.8705C81.9166 49.8168 83.3019 48.3291 84.2322 46.561C84.6272 45.74 81.6552 43.476 81.4087 43.7285C80.9722 44.1755 80.6917 44.766 80.2747 45.238C79.6299 45.9696 78.8463 46.5659 77.9694 46.9925C77.0925 47.419 76.1397 47.6673 75.1662 47.723C72.4262 47.85 69.8352 46.262 68.3772 43.996Z" fill="#EA3934"/>
<path d="M82.5106 43.2575C82.1991 42.4495 82.6296 41.8685 83.0571 41.2315C83.0754 41.1961 83.0833 41.1562 83.0797 41.1165C83.0761 41.0768 83.0613 41.039 83.0369 41.0074C83.0125 40.9759 82.9796 40.952 82.9421 40.9385C82.9045 40.9251 82.864 40.9226 82.8251 40.9315C81.8426 41.278 81.7686 42.6115 82.1696 43.4025C82.2621 43.5835 82.5861 43.454 82.5106 43.2575Z" fill="#EA3934"/>
<path d="M83.5503 41.3465C83.9873 40.9465 84.3011 41.0777 84.4918 41.74C84.4593 41.937 84.6238 42.212 84.8633 42.1125C85.2218 41.9625 85.6603 42.339 85.2213 42.6885C84.9713 42.8885 85.2433 43.306 85.5293 43.213C85.9743 43.322 86.0793 43.5385 85.8558 43.8685C85.6028 44.2405 85.1668 44.3505 84.8213 44.5715C84.765 44.6055 84.7229 44.6586 84.7025 44.7211C84.6821 44.7836 84.6849 44.8513 84.7103 44.912C84.7357 44.9726 84.782 45.022 84.8409 45.0513C84.8997 45.0806 84.9671 45.0878 85.0308 45.0715C85.7743 44.955 86.6203 44.361 86.6153 43.528C86.6143 43.3373 86.5576 43.1509 86.4523 42.9919C86.347 42.8328 86.1975 42.7079 86.0223 42.6325C86.0595 42.4904 86.0629 42.3415 86.0324 42.1978C86.0018 42.054 85.938 41.9194 85.8461 41.8047C85.7543 41.69 85.6369 41.5984 85.5033 41.5372C85.3697 41.4759 85.2237 41.4468 85.0768 41.452C85.0396 41.2576 84.944 41.079 84.8028 40.9402C84.6616 40.8014 84.4815 40.7089 84.2864 40.675C84.0913 40.6411 83.8905 40.6675 83.7108 40.7506C83.5311 40.8336 83.3809 40.9695 83.2803 41.14C83.1683 41.3035 83.4153 41.487 83.5503 41.3465Z" fill="#EA3934"/>
<path d="M55.6535 42.4827C55.5415 42.6602 55.812 42.8107 55.9315 42.6452C56.8805 41.3467 58.1307 40.2981 59.5746 39.5897C61.0116 38.8727 62.4745 38.7292 64.019 38.4447C64.0591 38.432 64.0954 38.4095 64.1246 38.3793C64.1539 38.3492 64.1752 38.3122 64.1866 38.2718C64.1981 38.2313 64.1993 38.1887 64.1902 38.1477C64.1811 38.1066 64.162 38.0685 64.1345 38.0367C64.659 37.2262 66.2475 39.1497 66.587 39.5317C67.1939 40.2221 67.6891 41.0032 68.0545 41.8467C68.1355 42.0307 68.377 41.9122 68.394 41.7547C68.4304 41.232 68.2886 40.7123 67.9916 40.2807C68.1606 40.049 68.2998 39.797 68.406 39.5307C68.6649 39.7255 68.9667 39.8555 69.2861 39.9099C69.6055 39.9643 69.9333 39.9414 70.242 39.8432C70.7814 39.6509 71.2572 39.3135 71.617 38.868C71.9768 38.4226 72.2066 37.8864 72.281 37.3187C72.7875 37.6322 73.281 36.9987 73.392 36.6237C73.547 35.9321 73.6061 35.2224 73.5675 34.5147C73.5675 34.2522 73.5675 33.9902 73.556 33.7342C74.5061 33.5142 75.1671 32.5542 75.2061 31.2752C75.225 30.6562 75.1375 30.0052 74.529 29.7017C73.729 29.3017 73.074 30.0207 72.31 29.8327C71.3925 29.6072 71.1656 28.1677 70.2331 28.0297C69.6876 27.9492 69.2575 28.3462 68.7905 28.5372C68.2725 28.7487 67.7621 28.5607 67.2536 28.7652C65.1631 29.6057 64.9346 34.0112 66.1976 35.6072C65.7656 36.1472 65.3822 36.7243 65.0515 37.3317C64.2745 36.9632 63.6721 37.3707 63.6016 37.9217C61.2026 37.7352 57.6345 39.3387 55.6535 42.4827ZM66.7 35.8502C67.15 35.7832 68.1296 34.5122 68.1296 34.5122C68.1296 34.5122 67.92 33.5242 68.326 33.2087C68.4721 33.0888 68.6524 33.0182 68.841 33.0072C69.0297 32.9961 69.217 33.0451 69.376 33.1472C69.5065 33.2442 69.6121 33.3897 69.7696 33.4092C70.1771 33.4592 70.125 32.8227 70.529 32.7182C71.249 32.5327 71.4791 33.6042 72.9261 33.7767C72.9261 33.9827 72.8436 36.2002 72.8226 36.2957C72.8226 36.5767 72.6366 36.6892 72.2536 36.6457C72.0036 36.6022 71.8601 36.5957 71.8076 36.6917C71.3656 37.5097 71.3961 38.4152 70.5131 38.9787C70.3095 39.1183 70.078 39.2119 69.8346 39.2529C69.5912 39.2939 69.3418 39.2812 69.1038 39.2159C68.8658 39.1506 68.6449 39.0342 68.4565 38.8747C68.2681 38.7153 68.1168 38.5166 68.0131 38.2927C67.963 38.1622 67.7305 38.1617 67.751 38.3282C67.7859 38.6266 67.8925 38.9122 68.0616 39.1607C67.9035 39.3684 67.7796 39.5999 67.6946 39.8467C67.6671 39.8102 66.5601 38.1247 65.4206 37.5402C65.6911 37.2502 66.524 36.1002 66.7 35.8502Z" fill="#EA3934"/>
<path d="M71.2005 34.5849C70.9942 34.7458 70.8478 34.9711 70.7845 35.2249C70.7673 35.2917 70.7746 35.3624 70.8051 35.4242C70.8356 35.486 70.8872 35.5349 70.9506 35.562C71.014 35.5891 71.085 35.5925 71.1507 35.5718C71.2164 35.5511 71.2726 35.5075 71.309 35.4489C71.4458 35.2475 71.5182 35.0093 71.5165 34.7659C71.5125 34.6269 71.3385 34.4789 71.2005 34.5849Z" fill="#EA3934"/>
<path d="M70.2556 34.1034C70.489 34.09 70.7189 34.0808 70.9496 34.0478C71.0576 34.0479 71.1647 34.0266 71.2644 33.9852C71.3642 33.9437 71.4548 33.8828 71.5308 33.8061C71.5576 33.764 71.5667 33.7131 71.5563 33.6643C71.546 33.6156 71.5169 33.5728 71.4753 33.5453C71.2835 33.4615 71.067 33.4534 70.8695 33.5228C70.649 33.571 70.4313 33.6309 70.2172 33.7021C70.0124 33.766 70.009 34.1172 70.2556 34.1034Z" fill="#EA3934"/>
<path d="M70.3263 38.3017C70.3644 38.3092 70.4037 38.3083 70.4414 38.2988C70.479 38.2894 70.5141 38.2717 70.5441 38.2471C70.5741 38.2225 70.5983 38.1915 70.6149 38.1564C70.6315 38.1213 70.6401 38.0829 70.6401 38.0441C70.4852 37.5858 70.1762 37.1954 69.7659 36.9394C69.7244 36.93 69.6809 36.9374 69.6449 36.9599C69.6088 36.9824 69.5831 37.0182 69.5733 37.0595C69.6647 37.5514 69.9325 37.9931 70.3263 38.3017Z" fill="#EA3934"/>
<path d="M44.6699 43.5288C45.3259 43.0198 45.8404 42.3513 46.5494 41.8818C47.3378 41.3441 48.2312 40.9797 49.1707 40.8126C50.1102 40.6455 51.0745 40.6795 51.9999 40.9123C52.8969 41.1368 53.6284 41.6588 54.4914 41.9623C54.7414 42.0488 54.8554 41.7318 54.7239 41.5688C54.1044 40.8023 52.9124 40.4188 51.9829 40.2138C50.9988 39.9961 49.9808 39.9791 48.9899 40.1638C46.7399 40.5848 44.9364 42.1293 44.4734 43.1638C43.8494 42.7216 43.3983 42.0763 43.1974 41.3383C44.0044 40.4213 44.3854 39.3408 46.4144 38.0758C48.7049 36.6473 52.6939 35.5633 56.4729 35.9408C58.4208 36.1914 60.3211 36.7278 62.1124 37.5328C62.2724 37.5983 62.3589 37.3493 62.2249 37.2638C57.3004 34.1138 49.8749 34.9993 45.9094 37.5733C44.6534 38.3893 43.0594 39.7123 42.6544 41.2203C42.4964 41.7998 44.2814 44.2033 44.6699 43.5288Z" fill="#EA3934"/>
<path d="M40.4778 43.2956C41.4278 43.3736 41.7518 43.7956 42.1973 43.9026C42.2503 43.9153 42.306 43.9124 42.3574 43.8942C42.4088 43.8761 42.4539 43.8434 42.4872 43.8001C42.5205 43.7568 42.5405 43.7049 42.5448 43.6505C42.5492 43.5961 42.5377 43.5416 42.5118 43.4936C42.4443 43.3805 42.3551 43.2819 42.2493 43.2036C42.4745 42.9726 42.667 42.7119 42.8213 42.4286C42.8311 42.3876 42.8289 42.3447 42.8148 42.3049C42.8007 42.2652 42.7755 42.2304 42.742 42.2047C42.7086 42.1791 42.6684 42.1636 42.6264 42.1603C42.5844 42.157 42.5423 42.166 42.5053 42.1861C42.3255 42.3003 42.1721 42.4515 42.0553 42.6296C41.9618 42.7436 41.8703 42.8591 41.7823 42.9771C41.3385 42.8692 40.8762 42.862 40.4293 42.9561C40.2328 42.9966 40.2928 43.2806 40.4778 43.2956Z" fill="#EA3934"/>
<path d="M43.6643 46.6353C43.823 46.229 43.8492 45.7828 43.7389 45.3606C43.6286 44.9385 43.3875 44.5621 43.0503 44.2853C42.9768 44.2303 42.8788 44.3063 42.8773 44.3853C42.8663 44.8943 43.1243 45.3648 43.1273 45.8708C43.1422 46.0333 43.115 46.1968 43.0483 46.3457C42.9817 46.4945 42.8778 46.6237 42.7468 46.7208C42.5475 46.7992 42.3384 46.8497 42.1253 46.8708C42.0806 46.8829 42.0399 46.9065 42.0073 46.9393C41.9746 46.9721 41.9512 47.0129 41.9394 47.0576C41.9276 47.1024 41.9278 47.1494 41.9399 47.194C41.9521 47.2387 41.9759 47.2793 42.0088 47.3118C42.5863 47.8053 43.4173 47.2258 43.6643 46.6353Z" fill="#EA3934"/>
<path d="M41.2611 47.1653C41.3105 46.9278 41.4114 46.704 41.5566 46.5098C41.6906 46.3258 41.9391 46.2043 42.0311 45.9853C42.051 45.9486 42.0612 45.9075 42.0607 45.8658C42.0602 45.8241 42.0491 45.7832 42.0283 45.747C42.0076 45.7109 41.9779 45.6806 41.9422 45.6591C41.9065 45.6376 41.8658 45.6256 41.8241 45.6243C41.4241 45.5843 40.7986 46.2463 40.8641 47.1048C40.8806 47.3253 41.2151 47.4038 41.2611 47.1653Z" fill="#EA3934"/>
<path d="M41.3592 44.8417C40.5592 44.4852 39.7867 45.4537 39.5592 46.1022C39.4677 46.3647 39.8722 46.5327 40.0092 46.2922C40.4627 45.4922 41.0457 45.4967 41.3957 45.1357C41.4156 45.1153 41.4307 45.0908 41.4398 45.0638C41.4489 45.0368 41.4518 45.0081 41.4483 44.9799C41.4447 44.9517 41.4349 44.9246 41.4195 44.9006C41.4041 44.8767 41.3835 44.8566 41.3592 44.8417Z" fill="#EA3934"/>
<path d="M38.767 45.3806C38.7576 45.4246 38.7637 45.4705 38.7844 45.5104C38.805 45.5504 38.8389 45.5819 38.8803 45.5997C38.9216 45.6174 38.9679 45.6202 39.011 45.6076C39.0542 45.595 39.0917 45.5678 39.117 45.5306C39.6255 44.7046 40.2465 44.7176 40.582 44.3871C40.6092 44.359 40.6286 44.3244 40.6384 44.2866C40.6482 44.2487 40.6481 44.209 40.638 44.1713C40.6279 44.1336 40.6083 44.0991 40.581 44.0712C40.5536 44.0433 40.5195 44.0229 40.482 44.0121C39.9815 43.8316 39.0135 44.3806 38.767 45.3806Z" fill="#EA3934"/>
<path d="M37.681 44.2643C37.971 44.1673 38.1335 43.8853 38.4375 43.8143C38.6022 43.7766 38.7731 43.7753 38.9383 43.8104C39.1035 43.8456 39.259 43.9164 39.394 44.0178C39.6095 44.1778 39.794 43.8513 39.656 43.6753C39.5143 43.4721 39.3174 43.3137 39.0886 43.2186C38.8598 43.1236 38.6086 43.0959 38.3645 43.1388C37.9475 43.2103 37.332 43.5323 37.373 44.0308C37.3735 44.0681 37.3825 44.1047 37.3993 44.138C37.4161 44.1713 37.4403 44.2003 37.47 44.2228C37.4997 44.2453 37.5342 44.2608 37.5707 44.268C37.6073 44.2751 37.645 44.2739 37.681 44.2643Z" fill="#EA3934"/>
<path d="M42.8004 49.3409C43.2504 49.6334 43.7379 48.9909 43.8004 48.6069C43.8709 48.1869 43.5959 47.5799 43.0934 47.6244C43.061 47.6254 43.0294 47.6347 43.0016 47.6514C42.9738 47.6681 42.9508 47.6916 42.9346 47.7197C42.9185 47.7478 42.9098 47.7796 42.9094 47.812C42.909 47.8444 42.9169 47.8764 42.9324 47.9049C43.0254 48.0854 43.1824 48.2774 43.1369 48.4979C43.0869 48.7419 42.7999 48.7604 42.7014 48.9739C42.6683 49.0362 42.6602 49.1088 42.6786 49.1769C42.6969 49.245 42.7405 49.3036 42.8004 49.3409Z" fill="#EA3934"/>
<path d="M65.6935 42.9349C66.103 42.9404 66.984 43.2139 67.45 43.1379C67.4509 43.2253 67.4759 43.3106 67.5221 43.3847C67.5683 43.4588 67.634 43.5187 67.712 43.5579C67.8864 43.6383 68.0798 43.6684 68.2704 43.645C68.4609 43.6216 68.6412 43.5456 68.791 43.4254C68.9408 43.3053 69.0541 43.1458 69.1183 42.9648C69.1826 42.7839 69.1951 42.5886 69.1545 42.4009C69.01 41.8919 68.0045 41.8334 67.569 42.6134C66.8975 41.8044 65.126 41.1519 64.229 41.1314C60.2975 41.0414 59.1625 42.6989 56.456 43.8314C53.7495 44.9639 52.653 43.3159 52.3 43.1559C51.513 42.7989 48.391 43.1899 48.186 43.4744C47.9545 43.7959 48.6985 46.6114 49.218 46.9994C49.393 47.1304 52.952 47.9894 54.7105 47.8454C59.908 47.4204 60.539 44.5534 63.8575 43.2544C64.4431 43.0301 65.0666 42.9215 65.6935 42.9349Z" fill="#EA3934"/>
<path d="M79.4705 92.6554C77.4615 94.1444 75.616 91.3189 73.7655 90.9659C71.9455 90.6189 70.722 92.5489 70.8655 94.1724C69.6155 94.3834 56.1395 94.1224 53.038 94.1254C49.9365 94.1284 41.0575 94.2204 39.9235 93.6284C38.8345 93.0599 38.5095 91.7444 37.4465 91.1564C36.4045 90.5799 35.1845 90.8864 34.076 91.0249C32.7486 91.1891 31.4083 90.8433 30.326 90.0574C28.799 88.9529 28.1695 87.1199 26.86 85.8149C26.3723 85.2606 25.6855 84.9212 24.949 84.8704C23.9575 84.8704 23.3395 85.5834 22.739 86.2739C20.856 88.4389 18.209 86.8929 16.856 84.9794C15.7215 83.3744 14.756 81.3294 12.7265 80.7184C12.2227 80.5603 11.6872 80.5321 11.1697 80.6365C10.6521 80.7409 10.1694 80.9745 9.7663 81.3155C9.36323 81.6565 9.05292 82.0939 8.86422 82.587C8.67552 83.0801 8.61456 83.6129 8.687 84.1359C7.78486 83.9367 6.84185 84.0485 6.01138 84.4533C5.1809 84.8581 4.51183 85.532 4.113 86.3654C3.8387 86.9479 3.75204 87.6011 3.86498 88.235C3.97792 88.8688 4.2849 89.452 4.7435 89.9039C4.26413 89.9767 3.81381 90.1792 3.44134 90.4896C3.06886 90.8 2.78843 91.2065 2.63041 91.6649C2.4724 92.1232 2.44282 92.6161 2.5449 93.0901C2.64698 93.5641 2.87681 94.0012 3.2095 94.3539C3.494 94.6844 3.9645 94.2039 3.6855 93.8764C3.39325 93.5373 3.2224 93.1105 3.19998 92.6635C3.17757 92.2164 3.30486 91.7747 3.56173 91.4081C3.8186 91.0415 4.19037 90.7711 4.61822 90.6395C5.04607 90.508 5.50556 90.5229 5.924 90.6819C6.2855 90.8109 6.544 90.2104 6.1865 90.0574C4.77 89.4529 4.0595 88.0074 4.7725 86.5664C5.16212 85.8138 5.81802 85.2334 6.61234 84.9381C7.40665 84.6429 8.28245 84.654 9.069 84.9694C9.12724 84.9846 9.18844 84.9843 9.24654 84.9685C9.30463 84.9528 9.35759 84.9221 9.40015 84.8795C9.44271 84.837 9.4734 84.784 9.48916 84.7259C9.50492 84.6678 9.50521 84.6066 9.49 84.5484C8.612 82.0264 11.5375 79.9754 13.959 82.2164C15.3215 83.4774 15.9825 85.3079 17.3125 86.6004C18.6735 87.9229 21.0515 88.6779 22.6565 87.3389C23.3935 86.7239 23.9455 85.4619 25.0685 85.5634C26.9865 85.7364 27.8685 89.4514 30.504 90.9924C31.4852 91.5736 32.6221 91.8372 33.759 91.7469C34.9635 91.6444 36.509 91.0914 37.5045 92.0469C38.216 92.7299 38.438 93.7314 39.8285 94.3354C40.811 94.7624 48.897 94.8094 51.862 94.8079C55.225 94.8079 69.926 95.1029 71.3355 94.7694C71.4213 94.7432 71.4938 94.6851 71.538 94.607C71.5822 94.529 71.5947 94.4369 71.573 94.3499C71.4387 93.785 71.5143 93.1907 71.7858 92.6774C72.0573 92.1642 72.506 91.7672 73.0485 91.5604C73.9325 91.2814 74.7935 91.9549 75.489 92.4129C76.709 93.2159 78.367 94.0129 79.6855 92.9374C79.846 92.8089 79.637 92.5319 79.4705 92.6554Z" fill="#EA3934"/>
<path d="M60.8555 60.4546C58.757 60.8718 56.6109 60.9972 54.478 60.8271C52.3965 60.6501 49.164 59.9562 48.5305 59.0682C49.0655 57.3637 49.4355 55.5941 50.0125 53.8921C51.1125 50.6461 51.6855 49.8172 52.095 48.4982C52.1063 48.4514 52.1006 48.4022 52.079 48.3593C52.0573 48.3163 52.021 48.2825 51.9767 48.2639C51.9324 48.2452 51.8829 48.243 51.837 48.2575C51.7912 48.272 51.752 48.3024 51.7265 48.3431C49.5 51.8106 48.491 58.5351 47.315 60.6471C46.4509 62.2029 45.4552 63.682 44.339 65.0681C42.7525 66.8372 40.8745 68.1042 38.9625 69.4682C37.0985 69.4967 32.739 70.2222 26.9995 67.8367C26.7095 67.4797 24.5955 66.5251 24.0305 66.7036C23.6235 66.8346 21.5385 69.3261 20.913 70.3321C20.688 70.6926 19.392 72.8781 19.532 73.3181C19.5592 73.384 19.6064 73.4396 19.6668 73.4773C19.7273 73.5149 19.798 73.5327 19.869 73.5281C19.9925 73.5281 22.103 72.5941 23.473 71.9836C23.1692 71.6321 22.9459 71.2185 22.8185 70.7716C22.804 70.6141 22.993 70.5396 23.1135 70.6021C23.4832 70.9212 23.7846 71.3117 23.9995 71.7501C24.0105 71.7451 24.043 71.7297 24.461 71.5502C24.2035 71.1902 23.7545 70.5001 23.831 70.2446C23.8451 70.1959 23.8745 70.153 23.9148 70.1223C23.9552 70.0916 24.0043 70.0747 24.055 70.0741C24.4365 70.1201 24.8085 70.9082 25.005 71.3132C25.105 71.2697 25.2025 71.2251 25.2995 71.1806C25.1727 70.7634 25.0828 70.3357 25.031 69.9026C25.0472 69.8459 25.0849 69.7978 25.1361 69.7686C25.1874 69.7395 25.248 69.7316 25.305 69.7466C25.601 69.8251 25.818 70.4651 25.8865 70.8966C25.9874 70.8474 26.083 70.7881 26.172 70.7196C27.5248 71.8576 29.0527 72.7694 30.6965 73.4197C39.051 76.9752 48.336 74.6556 53.763 69.1036C53.9875 68.8711 53.6515 68.5447 53.413 68.7537C46.73 74.5331 38.8435 75.7992 31.663 73.0942C29.8419 72.3446 28.0961 71.4238 26.449 70.3442C26.75 69.7088 27.0171 69.0579 27.249 68.3941C30.5705 69.8746 35.9275 70.9597 39.377 69.8142C39.4835 69.7777 43.4205 67.1077 44.885 65.4672C45.6869 64.571 46.4076 63.6054 47.0385 62.5817C47.6494 61.6985 48.1372 60.7364 48.4885 59.7217C50.731 61.3267 55.1235 61.6351 57.864 61.4461C58.8345 61.3781 60.0935 61.3291 60.9685 60.8571C61.0083 60.8321 61.039 60.7949 61.0559 60.751C61.0728 60.7071 61.075 60.659 61.0623 60.6137C61.0496 60.5684 61.0226 60.5285 60.9854 60.4998C60.9481 60.4712 60.9025 60.4553 60.8555 60.4546Z" fill="#EA3934"/>
<path d="M87.95 86.3709C87.7895 86.2282 87.5795 86.1542 87.365 86.1649C85.7143 86.173 84.0768 86.4604 82.522 87.0149C71.1065 73.4794 63.2865 62.5849 62.166 61.2319C62.0595 61.1009 61.8495 61.2689 61.9365 61.4079C63.3365 63.6779 68.451 70.4759 69.608 71.9964C73.4955 77.1019 77.758 82.4189 81.908 87.2549C81.7965 87.3049 79.432 88.9754 79.2995 89.1369C78.6515 88.3755 77.9375 87.6728 77.166 87.0369C74.771 84.8279 55.816 67.3159 53.2415 65.2789C53.0915 65.1594 52.8875 65.3469 53.025 65.4954C54.884 67.4809 63.506 75.4149 76.3595 87.2114C77.219 88.0004 78.064 88.9544 79.0765 89.5524C78.8895 90.3294 79.8595 91.9024 81.137 91.8709C81.6995 91.8564 87.9565 87.1499 88.026 86.9519C88.0657 86.857 88.0796 86.7532 88.0662 86.6512C88.0529 86.5491 88.0128 86.4524 87.95 86.3709ZM83.929 88.3889C83.918 88.4247 83.8981 88.4572 83.8711 88.4832C83.8441 88.5092 83.8109 88.5279 83.7747 88.5375C83.7384 88.5471 83.7003 88.5473 83.664 88.5381C83.6277 88.5289 83.5943 88.5106 83.567 88.4849C83.3832 88.0944 83.2641 87.6766 83.2145 87.2479C83.2017 87.1946 83.2102 87.1384 83.2381 87.0912C83.266 87.044 83.3111 87.0095 83.3639 86.9949C83.4168 86.9803 83.4732 86.9868 83.5213 87.013C83.5695 87.0392 83.6056 87.0831 83.622 87.1354C83.7929 87.5335 83.8972 87.957 83.9305 88.3889H83.929ZM84.7695 88.0059C84.7619 88.032 84.7485 88.0561 84.7303 88.0763C84.7121 88.0966 84.6896 88.1125 84.6644 88.1228C84.6393 88.1332 84.6121 88.1378 84.5849 88.1362C84.5578 88.1347 84.5313 88.1271 84.5075 88.1139C84.3567 87.9757 84.2398 87.8045 84.1661 87.6137C84.0924 87.4229 84.0637 87.2176 84.0825 87.0139C84.0705 86.7279 84.4825 86.7004 84.557 86.9494C84.7272 87.2741 84.8015 87.6405 84.771 88.0059H84.7695ZM85.698 87.6759C85.6893 87.7075 85.6736 87.7367 85.652 87.7613C85.6304 87.7859 85.6034 87.8053 85.5732 87.8179C85.543 87.8305 85.5103 87.8361 85.4776 87.8342C85.4449 87.8323 85.413 87.823 85.3845 87.8069C85.1166 87.5744 84.9416 87.2531 84.8915 86.9019C84.8701 86.8391 84.8734 86.7705 84.9006 86.7099C84.9277 86.6494 84.9769 86.6014 85.038 86.5756C85.0992 86.5498 85.1678 86.5481 85.2302 86.5709C85.2925 86.5937 85.3439 86.6392 85.374 86.6984C85.5983 86.9735 85.7142 87.3212 85.7 87.6759H85.698Z" fill="#EA3934"/>
<path d="M46.6376 52.6498C42.6055 49.8407 38.92 46.5643 35.6581 42.8888C34.9786 42.1243 34.1681 41.2743 33.1456 41.3228C32.1566 41.3703 24.3901 50.0123 24.9911 51.1228C25.5921 52.2333 27.4131 53.8833 28.0111 54.3973C29.9571 56.0668 38.1996 63.2008 38.9611 63.5273C39.283 63.7005 39.6577 63.7481 40.0127 63.6609C40.3676 63.5737 40.6776 63.3579 40.8826 63.0553C41.4426 62.3388 48.9391 54.2523 46.6376 52.6498ZM37.0651 48.5083C36.3216 47.9038 33.5456 44.7128 33.1151 44.6488C32.3596 44.5373 31.5651 45.8148 31.1336 46.3393C30.5276 47.0698 29.9191 47.8093 29.3696 48.5843C29.2516 48.7498 28.9801 48.5988 29.0916 48.4218C29.7416 47.3948 30.3951 46.3903 31.1416 45.4278C31.6046 44.8233 32.1451 43.9603 32.9856 43.9053C33.8856 43.8463 34.5111 44.7993 35.0356 45.3803C35.9076 46.2647 36.7124 47.213 37.4431 48.2173C37.6081 48.4623 37.2606 48.6683 37.0651 48.5083Z" fill="#EA3934"/>
<path d="M63.0166 15.6109C63.1999 15.4331 63.3398 15.2154 63.4253 14.9747C63.5109 14.734 63.5398 14.4769 63.5099 14.2232C63.48 13.9695 63.392 13.7262 63.2527 13.512C63.1135 13.2979 62.9268 13.1187 62.7071 12.9884C61.9426 12.5149 61.1336 12.6424 60.2861 12.6789C59.6306 12.7069 55.3321 12.7634 54.0466 13.4789C53.7025 13.7008 53.4596 14.0491 53.3702 14.4486C53.2809 14.8481 53.3523 15.2667 53.5691 15.6139C48.9385 16.0914 44.417 17.3219 40.1831 19.2569C35.2575 21.5913 30.8791 24.9373 27.3331 29.0769C19.4951 37.9854 15.3226 49.3499 18.5591 60.9619C18.982 62.486 19.5576 63.9634 20.2771 65.3719C21.1576 67.0919 24.1231 65.8969 23.4416 64.0384C21.3621 58.3699 20.4631 54.2539 21.5201 48.2814C22.8896 40.5499 27.3191 33.8454 33.0281 28.4539C38.2736 23.4999 44.9391 20.3634 52.7101 19.3724C59.6396 18.4889 66.6471 19.5114 70.9916 21.1534C79.6621 24.4294 86.7531 31.6459 89.7416 37.5909C92.9176 43.9029 93.6296 48.9214 93.7861 51.2819C93.8706 52.5514 93.9171 57.1319 91.6131 66.1819C90.9631 68.7319 89.8726 70.8079 88.6256 73.1734C87.4836 75.323 86.2035 77.3963 84.7936 79.3804C84.1041 80.2564 83.4541 81.1594 82.7241 82.0034C82.0586 82.7724 82.9056 84.0649 83.8611 83.4774C88.3366 80.7274 91.4611 76.0309 93.5146 71.2809C95.8048 66.1344 97.1431 60.6154 97.4646 54.9914C98.2941 36.9669 84.6086 17.9259 63.0166 15.6109Z" fill="#3A307F"/>
<path d="M72.0054 86.5701C69.1504 86.7486 67.3784 88.4121 61.0129 88.9756C49.3274 90.0096 36.6719 85.8846 28.1079 76.4341C27.3952 75.7462 26.7877 74.957 26.3049 74.0921C25.9674 73.3791 24.9779 73.9121 25.1049 74.5971C25.5379 76.9086 26.8484 78.9266 28.3694 80.6796C33.4999 86.5901 39.8554 89.8556 47.4819 91.6156C55.4624 93.4571 63.2584 92.9991 69.7159 90.9021C70.9515 90.5843 72.1036 90.0026 73.0929 89.1971C74.0629 88.3296 73.3224 86.4881 72.0054 86.5701Z" fill="#3A307F"/>
<path d="M36.3711 30.8501C35.5936 30.2611 34.5796 29.4271 33.5656 29.4386C33.3882 29.4426 33.2141 29.4867 33.0561 29.5674C32.8981 29.6481 32.7603 29.7634 32.653 29.9047C32.5458 30.0461 32.4718 30.2098 32.4366 30.3837C32.4013 30.5576 32.4058 30.7372 32.4496 30.9091C32.6011 31.4322 32.8821 31.9085 33.2666 32.2941C34.2626 33.4721 35.3771 34.5444 36.5926 35.4941C36.9139 35.6788 37.2867 35.7532 37.6543 35.7059C38.0218 35.6585 38.3637 35.4921 38.6276 35.2321C38.8938 34.9714 39.0644 34.6286 39.112 34.2591C39.1596 33.8896 39.0815 33.5148 38.8901 33.1951C38.1619 32.3016 37.3143 31.5126 36.3711 30.8501Z" fill="#3A307F"/>
<path d="M57.5844 28.8854C57.6709 29.0948 57.8012 29.2834 57.9667 29.4382C58.1321 29.5931 58.3288 29.7107 58.5435 29.7831C58.7582 29.8556 58.986 29.8812 59.2114 29.8582C59.4369 29.8352 59.6548 29.7642 59.8504 29.6499C61.1304 28.8739 60.6854 26.4279 60.2949 24.9879C59.9949 23.8879 59.0644 20.9879 57.4414 22.3544C56.8384 22.8624 56.8844 23.7384 56.9414 24.4544C57.1344 27.0539 57.2354 28.1084 57.5844 28.8854Z" fill="#3A307F"/>
<path d="M83.3892 57.2358C84.4067 57.1648 89.3272 57.2613 89.6682 57.1938C90.8212 56.9668 91.0727 55.1403 90.0042 54.6248C89.6592 54.4583 84.1957 54.5483 83.0797 54.9448C82.8107 55.0236 82.5787 55.1958 82.4255 55.4305C82.2723 55.6652 82.208 55.9469 82.2442 56.2248C82.2796 56.5037 82.4153 56.7602 82.6261 56.9463C82.8368 57.1323 83.1081 57.2353 83.3892 57.2358Z" fill="#3A307F"/>
<path d="M84.8003 71.6002C85.4823 71.3132 86.0818 70.6432 85.8048 69.8302C85.3983 68.6367 81.1713 67.5542 80.1933 67.5557C78.9433 67.5582 78.8558 69.2057 79.9138 69.6162C80.6238 69.8937 83.8223 72.0112 84.8003 71.6002Z" fill="#3A307F"/>
<path d="M56.2268 82.5428C56.1893 83.6728 56.0503 85.1643 56.6598 86.1543C57.2238 87.0714 58.8398 87.2663 59.3478 86.1543C59.8928 84.9618 59.6018 83.6243 59.4188 82.3668C59.2663 81.3168 59.1253 80.1123 58.5573 79.1933C58.1823 78.5858 57.1073 78.4538 56.7673 79.1933C56.3681 80.2633 56.1844 81.4016 56.2268 82.5428Z" fill="#3A307F"/>
<path d="M40.1421 81.5764C40.7351 81.0174 43.7496 78.7684 43.7141 77.7509C43.7154 77.5543 43.6645 77.3609 43.5667 77.1904C43.4688 77.0199 43.3275 76.8784 43.1571 76.7804C41.1816 75.9209 39.3506 78.3399 38.2666 79.7019C38.0246 79.952 37.8907 80.2871 37.8936 80.635C37.8965 80.983 38.0361 81.3158 38.2822 81.5618C38.5283 81.8078 38.8612 81.9472 39.2091 81.9499C39.5571 81.9526 39.8922 81.8185 40.1421 81.5764Z" fill="#3A307F"/>
<path d="M28.1923 56.9396C29.0923 56.5231 28.6988 55.3046 27.9423 55.0226C26.5378 54.8516 25.1205 54.8121 23.7088 54.9046C23.4031 54.989 23.1389 55.1823 22.9657 55.4479C22.7926 55.7136 22.7226 56.0334 22.7688 56.3471C22.8137 56.6589 22.968 56.9445 23.2041 57.153C23.4403 57.3615 23.7428 57.4792 24.0578 57.4851C25.4487 57.4184 26.8316 57.2359 28.1923 56.9396Z" fill="#3A307F"/>
<path d="M52.4571 11.0002C54.7516 12.4502 59.9696 11.4137 63.1256 11.1132C65.2976 10.9062 65.6171 7.94318 65.3631 7.17868C65.1356 6.37616 64.6113 5.69026 63.8966 5.26018C63.0851 4.83318 58.4356 5.26018 57.7161 5.29818C55.9951 5.39318 54.0046 5.19418 52.4571 6.03668C50.4961 7.10018 50.6941 9.88368 52.4571 11.0002Z" fill="#3A307F"/>
</svg>
