<svg width="100" height="100" viewBox="0 0 100 100" fill="none" xmlns="http://www.w3.org/2000/svg">
<path d="M93.4644 84.5816C93.0769 78.0761 86.7309 64.2226 75.7724 63.7861C75.2139 64.9726 73.3829 67.8586 71.6109 69.3626C70.5529 68.7016 68.4144 67.2126 67.2869 65.0191C67.0159 66.0106 64.7024 67.8361 63.1519 68.5296C61.3174 69.3501 60.8079 69.0156 60.2459 66.8241C55.7139 69.6106 48.2269 76.7211 48.4319 84.6741C48.6104 91.6161 56.9819 88.8396 58.2659 87.8346C57.9354 86.6711 57.4134 81.9206 57.1189 78.5026C55.8627 78.7354 54.6505 79.1625 53.5259 79.7686C53.3084 79.8856 53.1624 79.5896 53.3604 79.4381C54.5789 78.5056 55.7009 78.2116 57.0629 77.8451C56.9539 76.5226 56.8829 75.4716 56.8809 75.0516C56.8749 73.5476 57.5754 72.5131 59.2679 72.2946C60.9604 72.0761 81.0649 71.9181 82.6914 71.9181C84.3179 71.9181 85.0074 72.6386 85.0714 74.3311C85.0919 74.8766 84.9819 76.3146 84.8034 78.0496C85.6699 78.0661 87.9769 78.6811 88.6479 79.1496C89.0379 79.4206 88.7189 79.6161 88.5094 79.5301C87.307 79.0459 86.039 78.7439 84.7474 78.6341C84.3704 82.2106 83.7559 86.7956 83.4419 88.0021C87.4814 89.7121 93.7844 89.9536 93.4644 84.5816Z" fill="#EA3934"/>
<path d="M76.7736 33.6751C76.6186 33.4216 73.6101 33.2686 73.2631 33.1431C72.9161 33.0176 71.6101 29.5396 71.3356 29.5396C71.0611 29.5396 70.3441 32.9546 70.0136 33.1431C69.6831 33.3316 66.4766 33.4736 66.4766 33.6751C66.4766 34.1146 68.8896 35.525 69.0451 36.0585C69.2006 36.5921 68.1361 39.5326 68.4166 39.6946C68.6971 39.8566 71.2996 37.9921 71.6301 38.0001C71.9606 38.0081 74.6481 40.2476 74.8366 40.0001C75.0251 39.7526 73.9306 36.2716 74.1156 36.0336C74.3006 35.7956 76.9331 33.9371 76.7736 33.6751Z" fill="#EA3934"/>
<path d="M63.9318 33.6254C63.8753 33.3099 60.9898 33.6254 60.6758 33.4369C60.3618 33.2484 59.6833 30.0829 59.1088 30.2734C58.7348 30.3974 58.5798 33.2484 58.0478 33.5789C57.5158 33.9094 54.8213 33.7974 54.6628 34.1739C54.5043 34.5504 57.2628 35.8964 57.3273 36.3029C57.3918 36.7094 56.3553 39.4029 56.5733 39.7029C56.7913 40.0029 58.9868 37.8089 59.3933 37.8389C59.7998 37.8689 62.2098 39.8454 62.4608 39.4389C62.7118 39.0324 61.6478 36.7114 61.6148 36.3049C61.5818 35.8984 63.9878 33.9384 63.9318 33.6254Z" fill="#EA3934"/>
<path d="M81.4713 36.1002C81.5028 36.3812 80.4068 39.1082 80.7508 39.1812C81.0948 39.2542 83.3953 37.3532 83.7258 37.3562C84.0563 37.3592 86.6053 39.6407 86.9523 39.4222C87.2993 39.2037 85.7293 36.0722 85.8548 35.7862C85.9803 35.5002 88.3603 34.0277 88.3273 33.7762C88.2943 33.5247 85.1968 33.5582 84.9458 33.4027C84.6948 33.2472 83.5043 30.0972 83.1958 30.0972C82.8873 30.0972 82.3823 33.1912 82.1643 33.3472C81.9463 33.5032 78.7828 33.5722 78.8588 33.9722C78.9348 34.3722 81.4398 35.8172 81.4713 36.1002Z" fill="#EA3934"/>
<path d="M53.8458 26.105C59.239 22.4555 64.4053 18.4815 69.3163 14.205C69.0288 15.5935 68.3243 18.2395 68.6913 18.241C69.4648 18.2445 75.2193 9.08353 74.6843 8.88303C74.3533 8.75853 64.0778 13.0475 64.2453 13.547C64.3748 13.9335 67.2453 13.504 68.6548 13.385C63.8931 17.5358 58.8884 21.3993 53.6673 24.955C50.9425 22.4977 48.3484 19.8991 45.8958 17.17C45.8013 17.0692 45.6715 17.0087 45.5335 17.0014C45.3955 16.994 45.26 17.0403 45.1553 17.1305C38.2053 22.8805 31.3718 28.526 24.7498 34.409C24.2773 34.829 24.9363 35.5445 25.4108 35.1295C31.9358 29.4265 38.8283 23.8375 45.4693 18.2295C47.9223 21.1715 50.6838 23.3465 53.2048 25.991C53.2848 26.077 53.3906 26.1347 53.5062 26.1552C53.6219 26.1758 53.7411 26.1582 53.8458 26.105Z" fill="#EA3934"/>
<path d="M97.166 89.9268C65.9975 90.0848 34.029 90.3083 2.7545 90.3168C2.4005 90.3168 2.424 90.9363 2.774 90.9413C33.928 91.4008 65.968 90.8448 97.09 90.6913C97.5795 90.6878 97.662 89.9243 97.166 89.9268Z" fill="#3A307F"/>
<path d="M72.8136 54.9929C72.6731 55.2504 72.8361 55.4224 73.0881 55.2429C73.1728 55.1822 73.2714 55.1438 73.3748 55.1311C73.4782 55.1185 73.5832 55.132 73.6801 55.1704C74.0106 55.2464 74.0101 55.0089 73.8121 54.8234C73.7406 54.7562 73.6545 54.7064 73.5606 54.678C73.4666 54.6496 73.3674 54.6434 73.2707 54.6598C73.1739 54.6763 73.0823 54.7149 73.003 54.7727C72.9237 54.8305 72.8588 54.9058 72.8136 54.9929Z" fill="#3A307F"/>
<path d="M72.9064 57.5084C71.5869 58.7974 70.1649 58.0514 70.9094 58.9364C71.9699 60.1969 73.3899 59.7864 73.4514 57.6804C73.4679 57.1184 73.2809 57.1424 72.9064 57.5084ZM71.2534 58.7219C71.5832 58.7139 71.9082 58.6406 72.2095 58.5061C72.5107 58.3716 72.7823 58.1786 73.0084 57.9384C72.9584 59.4589 71.8714 59.5149 71.2734 58.7219H71.2534Z" fill="#3A307F"/>
<path d="M69.9115 55.0061C69.8744 54.9182 69.8166 54.8407 69.743 54.78C69.6694 54.7193 69.5822 54.6773 69.4888 54.6577C69.3955 54.638 69.2988 54.6413 69.2069 54.6671C69.1151 54.693 69.0309 54.7407 68.9615 54.8061C68.7615 54.9516 68.747 55.1896 68.998 55.1366C69.1039 55.1083 69.2146 55.1033 69.3226 55.1221C69.4305 55.141 69.533 55.1831 69.623 55.2456C69.862 55.4561 70.0095 55.2501 69.9115 55.0061Z" fill="#3A307F"/>
<path d="M69.4584 53C68.6084 53 67.6994 54.1085 68.1824 54.3455C68.4864 54.4955 68.4239 53.8265 69.5049 53.6215C69.5672 53.5938 69.6195 53.5475 69.6545 53.4889C69.6895 53.4304 69.7055 53.3624 69.7004 53.2944C69.6953 53.2264 69.6693 53.1616 69.626 53.1089C69.5827 53.0562 69.5242 53.0181 69.4584 53Z" fill="#3A307F"/>
<path d="M72.6653 53.671C73.1168 53.5892 73.5828 53.6625 73.9873 53.879C74.2213 54.003 74.4303 53.77 74.1693 53.489C73.9534 53.3053 73.6992 53.172 73.4253 53.0988C73.1514 53.0256 72.8646 53.0144 72.5858 53.066C72.1398 53.178 72.1758 53.7105 72.6653 53.671Z" fill="#3A307F"/>
<path d="M71.1879 57.4196C71.3167 57.3879 71.4395 57.3354 71.5514 57.2642C71.8864 57.0497 71.6229 56.8142 71.4514 56.8937C71.3251 56.9524 71.1899 56.9894 71.0514 57.0031C71.0837 56.4347 71.1476 55.8685 71.2429 55.3072C71.2704 55.1422 71.0929 54.9071 70.9124 55.2741C70.7305 55.7593 70.6192 56.2679 70.5819 56.7847C70.5069 57.3002 70.5424 57.5796 71.1879 57.4196Z" fill="#3A307F"/>
<path d="M31.8435 44.3753C33.022 43.3153 34.8645 40.5253 35.671 38.6003C36.6165 38.6628 36.5075 37.9213 36.1405 38.0118C34.3805 38.4458 34.4345 35.3263 36.0115 35.0568C36.6925 34.9403 36.8185 35.6568 36.8115 36.1443C36.807 36.4748 37.235 36.5508 37.248 36.2068C37.2715 35.5823 37.205 34.7688 36.524 34.5013C38.805 27.1958 49.3995 29.9313 46.0045 38.0998C44.9445 40.6498 42.2625 45.5238 38.8645 44.7673C37.5425 44.4728 36.3885 43.3958 36.3755 42.0103C36.372 41.6498 35.9285 41.6503 35.9355 42.0103C35.956 42.752 36.2145 43.4674 36.6729 44.0507C37.1313 44.6341 37.7653 45.0545 38.481 45.2498C38.2624 45.9083 38.1172 46.5889 38.048 47.2793C38.0538 47.3315 38.0778 47.38 38.116 47.4161C38.1541 47.4522 38.2039 47.4735 38.2563 47.4763C38.3088 47.4792 38.3605 47.4633 38.4023 47.4315C38.4441 47.3997 38.4732 47.3541 38.4845 47.3028C38.5555 46.9723 38.795 45.8413 38.9635 45.3528C42.342 45.8553 44.6295 42.0703 45.9485 39.4788C51.291 28.9788 38.015 26.2893 36.0315 34.4378C34.2765 34.5878 33.5525 37.6838 35.1755 38.4703C34.2399 40.5087 33.0151 42.4015 31.539 44.0903C31.3575 44.3258 31.6135 44.5818 31.8435 44.3753Z" fill="#3A307F"/>
<path d="M41.6911 37.9229C41.3336 37.7614 40.7586 38.7619 41.2216 38.8729C41.7496 38.9964 42.0146 38.0689 41.6911 37.9229Z" fill="#3A307F"/>
<path d="M40.9349 41.0532C41.1237 41.2899 41.3897 41.4528 41.6863 41.5133C41.983 41.5738 42.2915 41.5281 42.5579 41.3842C43.1679 40.9947 43.4504 40.0617 43.3544 39.1757C43.3584 39.1231 43.342 39.071 43.3086 39.0302C43.2752 38.9894 43.2274 38.963 43.1751 38.9566C43.1227 38.9502 43.0699 38.9642 43.0276 38.9956C42.9853 39.0271 42.9568 39.0737 42.9479 39.1257C42.8714 39.7232 42.8639 40.4382 42.3794 40.8702C41.8604 41.3332 41.4109 40.8272 41.1064 40.7082C40.9379 40.6172 40.6544 40.7617 40.9349 41.0532Z" fill="#3A307F"/>
<path d="M38.6504 39.2947C36.8174 41.5622 38.6334 43.3182 40.1349 42.6797C40.1921 42.6568 40.2411 42.6174 40.2756 42.5664C40.3101 42.5154 40.3286 42.4553 40.3286 42.3937C40.3286 42.3321 40.3101 42.272 40.2756 42.221C40.2411 42.17 40.1921 42.1305 40.1349 42.1077C39.7262 41.8401 39.4111 41.4519 39.2333 40.9969C39.0555 40.542 39.0239 40.0429 39.1429 39.5692C39.2459 39.1562 38.9564 38.9162 38.6504 39.2947ZM39.7184 42.3592C38.7894 42.4682 37.8274 41.5262 38.6969 39.9627C38.6278 40.4163 38.6868 40.8802 38.8673 41.3021C39.0478 41.7239 39.3426 42.087 39.7184 42.3502V42.3592Z" fill="#3A307F"/>
<path d="M45.2281 38.4451C45.3471 38.6451 45.5351 38.6006 45.5816 38.3491C45.6063 38.1191 45.5529 37.8875 45.43 37.6915C45.3071 37.4955 45.1219 37.3466 44.9041 37.2686C44.6541 37.2091 44.4806 37.7081 44.7091 37.8186C44.9538 37.9558 45.1388 38.1791 45.2281 38.4451Z" fill="#3A307F"/>
<path d="M42.4004 36.1079C42.1371 36.0089 41.8533 35.977 41.5746 36.0151C41.2959 36.0532 41.0311 36.16 40.8039 36.3259C40.4734 36.6039 40.6684 36.9874 41.1014 36.7924C41.2723 36.7034 41.4605 36.6528 41.6529 36.6442C41.8453 36.6355 42.0373 36.669 42.2154 36.7424C42.5939 36.8614 42.7229 36.2864 42.4004 36.1079Z" fill="#3A307F"/>
<path d="M44.4777 39.2155C44.1057 38.968 43.5417 40.079 44.0642 40.184C44.3652 40.244 44.7332 39.3855 44.4777 39.2155Z" fill="#3A307F"/>
<path d="M36.3133 66.8835C36.1688 67.452 35.4008 67.5705 34.9083 67.743C34.7298 67.8055 34.6143 68.352 35.3913 68.2285C35.7372 68.1962 36.0622 68.0482 36.3136 67.8083C36.565 67.5683 36.728 67.2506 36.7763 66.9065C36.7908 66.65 36.3863 66.596 36.3133 66.8835Z" fill="#3A307F"/>
<path d="M36.6567 68.883C36.7092 68.5095 36.4182 68.328 36.2102 68.665C35.8602 69.2335 35.7802 69.3975 35.0962 69.565C34.5407 69.703 34.7357 70.147 35.1192 70.147C35.4822 70.1469 35.834 70.0208 36.1144 69.7903C36.3948 69.5598 36.5865 69.2391 36.6567 68.883Z" fill="#3A307F"/>
<path d="M36.1001 65.5001C34.7716 65.8601 34.1166 65.7251 32.9136 65.5861C32.7186 65.5636 32.2951 65.9861 32.9436 66.2076C33.8616 66.5196 35.6381 66.4506 36.2656 66.0986C36.6001 65.9126 36.4636 65.4026 36.1001 65.5001Z" fill="#3A307F"/>
<path d="M35.9951 70.75C36.1481 70.5255 35.8451 70.2675 35.6646 70.4425C34.2646 71.7925 32.5881 72.2 29.5591 71.92C29.2616 71.8925 29.2286 72.46 29.5231 72.512C31.8226 72.9195 34.5901 72.8145 35.9951 70.75Z" fill="#3A307F"/>
<path d="M30.0688 65.462C29.8138 65.6075 29.9568 66.035 30.4423 65.9975C31.1325 65.8462 31.7485 65.4594 32.1848 64.9035C33.0348 63.9405 33.3093 62.186 32.9778 60.89C32.8528 60.401 32.4278 60.444 32.4493 60.864C32.6003 63.674 32.1088 64.3 30.0688 65.462Z" fill="#3A307F"/>
<path d="M58.3614 65.5709C57.8259 65.9014 58.1614 66.3319 58.4904 66.2054C58.9334 66.0344 60.1404 65.7839 60.4739 65.9744C61.1694 66.3744 61.2579 67.5219 61.3764 67.8649C61.4539 68.0904 61.8549 68.1724 61.8424 67.7149C61.8179 66.8454 61.3364 65.7314 60.7644 65.4469C60.3757 65.3067 59.963 65.2455 59.5504 65.2668C59.1378 65.2881 58.7336 65.3915 58.3614 65.5709Z" fill="#3A307F"/>
<path d="M61.0819 64.956C61.5319 65.05 62.4854 65.256 62.9729 67.141C63.2049 68.041 63.6409 67.6985 63.4784 66.941C63.0784 65.0795 61.9314 64.433 61.2904 64.441C60.7744 64.442 60.5964 64.855 61.0819 64.956Z" fill="#3A307F"/>
<path d="M63.5581 64.9231C63.9075 65.3268 64.1588 65.806 64.2921 66.3231C64.4351 66.8586 64.8871 66.7596 64.7481 65.9926C64.6036 65.4284 64.3297 64.9055 63.9481 64.4656C63.7391 64.2541 63.4898 64.0867 63.215 63.9731C62.9402 63.8596 62.6454 63.8023 62.3481 63.8046C62.3155 63.7985 62.2821 63.7989 62.2498 63.8057C62.2174 63.8126 62.1867 63.8257 62.1594 63.8444C62.1321 63.8631 62.1087 63.887 62.0906 63.9148C62.0726 63.9425 62.0602 63.9735 62.0541 64.0061C62.048 64.0386 62.0484 64.072 62.0552 64.1044C62.0621 64.1368 62.0752 64.1675 62.0939 64.1948C62.1127 64.2221 62.1366 64.2455 62.1643 64.2635C62.192 64.2816 62.223 64.294 62.2556 64.3001C62.7443 64.3662 63.1999 64.5841 63.5581 64.9231Z" fill="#3A307F"/>
<path d="M54.1702 70.1691C54.125 70.2095 54.0967 70.2655 54.0909 70.3259C54.0852 70.3863 54.1023 70.4466 54.139 70.495C54.1756 70.5433 54.2291 70.576 54.2888 70.5867C54.3486 70.5974 54.4101 70.5852 54.4612 70.5526C55.3732 70.2486 56.8612 68.0296 57.1422 67.2026C57.3682 66.5411 56.8422 66.4816 56.5537 66.9451C55.6622 68.3826 55.2147 69.4356 54.1702 70.1691Z" fill="#3A307F"/>
<path d="M57.2408 64.5631C58.8638 64.0211 61.9088 63.1401 64.2618 63.8026C64.6638 63.8762 65.0415 64.0481 65.361 64.303C65.6806 64.558 65.9321 64.8879 66.0933 65.2636C66.2663 65.6861 66.5433 65.3896 66.5063 65.1136C66.3753 64.1556 65.2858 63.4636 64.4138 63.2296C62.6368 62.7506 59.3883 63.1761 57.0193 64.0656C56.7088 64.1801 56.9633 64.6556 57.2408 64.5631Z" fill="#3A307F"/>
<path d="M68.5891 61.5578C68.5579 62.4332 68.4135 63.3009 68.1596 64.1393C68.0466 64.5183 68.4681 64.5348 68.5496 64.3178C68.8972 63.3622 69.0957 62.3588 69.1381 61.3428C70.5001 62.7643 72.3281 62.8868 73.8021 61.5478C73.8573 62.2898 74.0017 63.0224 74.2321 63.7298C74.4196 64.2993 74.9466 64.1713 74.7871 63.6668C74.5674 62.9795 74.4048 62.2753 74.3011 61.5613C76.0466 61.5873 79.6201 61.2538 81.5011 60.1463C79.9167 57.4439 78.9841 54.4095 78.7771 51.2838C78.5451 47.6748 75.9606 45.3968 74.1491 46.7453C72.1396 43.7453 66.0391 44.6663 64.7546 51.2213C63.8801 55.6838 62.8546 58.4503 61.7266 59.6868C63.8001 60.9259 66.1736 61.573 68.5891 61.5578ZM67.5316 52.7118C67.1632 52.6703 66.7977 52.6063 66.4371 52.5203C66.1626 52.4543 66.2021 52.1273 66.4736 52.1568C69.7003 52.4875 72.9538 52.4563 76.1736 52.0638C76.4236 52.0348 76.5061 52.2938 76.2531 52.3783C75.9096 52.4889 75.5546 52.5599 75.1951 52.5898C75.4447 54.1903 75.4056 55.8226 75.0796 57.4093C74.9057 58.5899 74.4523 59.7119 73.7571 60.6818C71.7256 63.1483 69.0316 61.3488 68.1011 58.2653C67.642 56.4517 67.4502 54.5808 67.5316 52.7118Z" fill="#3A307F"/>
<path d="M38.3694 88.2773C38.6263 88.3441 38.8943 88.3564 39.1562 88.3134C39.418 88.2703 39.668 88.1729 39.8899 88.0273C40.0489 88.8008 40.2214 89.3468 40.3629 89.3988C40.6959 89.5218 44.4229 89.6243 44.7264 89.2868C45.2329 88.7223 45.8534 81.6638 45.6454 81.1613C45.4374 80.6588 39.5889 80.9113 39.2554 81.1613C39.1502 81.5943 39.1322 82.0438 39.2024 82.4838C38.8702 82.3163 38.4979 82.2442 38.1272 82.2758C37.7564 82.3073 37.4016 82.4411 37.1024 82.6623C35.4614 83.8803 36.7199 87.8313 38.3694 88.2773ZM37.7084 83.1468C37.9596 83.0086 38.249 82.9558 38.5328 82.9964C38.8166 83.037 39.0795 83.1688 39.2819 83.3718C39.3819 84.5518 39.5529 85.9993 39.7514 87.1798C39.6156 87.3655 39.4239 87.5029 39.2044 87.5719C38.9849 87.6409 38.7491 87.6379 38.5314 87.5633C37.4109 87.1328 36.3694 83.9203 37.6919 83.1468H37.7084Z" fill="#3A307F"/>
<path d="M37.6321 67.7228C39.3451 65.5698 41.0896 61.9988 41.0371 58.4173C41.0311 58.0373 40.5436 58.0243 40.5441 58.4173C40.5526 61.8353 38.6466 65.1798 37.2686 67.4453C37.1331 67.6678 37.4576 67.9423 37.6321 67.7228Z" fill="#3A307F"/>
<path d="M51.8533 71.7826C48.5813 73.5126 42.0368 75.5736 39.6223 71.6826C39.0029 70.5326 38.5572 69.2972 38.2998 68.0166C38.283 67.955 38.2429 67.9024 38.188 67.87C38.133 67.8375 38.0676 67.8278 38.0056 67.8428C37.9436 67.8579 37.8899 67.8965 37.8559 67.9506C37.822 68.0046 37.8104 68.0697 37.8238 68.1321C38.0883 70.3401 38.9383 72.9146 41.0933 73.9566C43.8803 75.3066 49.3633 74.0736 52.1273 72.3536C52.4938 72.1231 52.2228 71.5866 51.8533 71.7826Z" fill="#3A307F"/>
<path d="M8.69468 68.2091C13.3477 72.0591 21.6947 73.7591 27.5367 73.4551C27.7413 73.4566 27.9406 73.3902 28.1034 73.2664C28.2663 73.1425 28.3835 72.9682 28.4367 72.7706C28.8767 71.4706 29.2232 67.2371 29.0367 65.5611C28.9507 64.7911 28.7592 64.6886 27.9757 64.5431C24.767 64.0326 21.6265 63.1604 18.6142 61.9431C19.9792 58.3801 20.7297 57.2826 22.6072 55.0676C22.7727 54.8726 22.5547 54.5096 22.3072 54.6841C20.6242 55.8841 18.6072 59.5201 18.1072 61.7251C17.6141 61.5171 17.1594 61.2278 16.7622 60.8691C16.5947 60.7156 16.2267 60.8691 16.5207 61.2856C17.7947 63.0926 26.2757 64.9681 28.4207 65.2521C28.6657 67.2951 28.3052 70.4256 27.7367 72.8021C22.0312 73.1331 13.5952 71.4801 9.03018 67.7081C7.08968 66.1051 6.33018 64.7831 6.68318 62.2936C7.65818 55.4311 13.6277 44.9736 21.3172 44.1361C24.2408 43.8126 27.1926 43.8381 30.1102 44.2121C30.3447 47.6831 36.5792 50.5521 39.2502 48.5091C41.0894 49.2215 42.6583 50.4935 43.7357 52.1456C45.8417 55.3516 46.7802 60.7036 47.4152 64.5681C46.9434 64.5291 46.4687 64.5435 46.0002 64.6111C45.8002 64.6611 45.6702 65.0046 45.9372 65.0571C48.5872 65.5776 52.7932 64.5316 55.3487 64.4356C54.4827 65.4486 53.3817 68.6381 54.2892 68.4301C54.3399 68.4187 54.3861 68.3923 54.4217 68.3545C54.4574 68.3166 54.4809 68.2689 54.4892 68.2176C54.5582 67.0144 54.9929 65.861 55.7352 64.9116C56.2237 64.2776 56.1517 63.7146 55.2062 63.7516C52.9652 63.8391 50.6382 64.4951 48.0727 64.5481C47.4282 60.5616 46.6182 55.4311 44.2977 51.8581C42.8832 49.6796 41.9142 49.2731 39.7162 48.0581C39.3032 47.8301 39.0952 47.8241 38.7972 48.0416C36.6472 49.6106 31.0117 47.0661 30.6127 44.0551C30.5732 43.7576 30.5127 43.5581 30.0627 43.4931C27.1491 43.1 24.1967 43.0867 21.2797 43.4536C13.2002 44.4036 7.09318 54.8276 6.07018 62.1201C5.69718 64.7766 6.65768 66.5241 8.69468 68.2091Z" fill="#3A307F"/>
<path d="M34.1047 73.0386C34.2242 72.7081 33.6787 72.5131 33.5327 72.8236C32.5462 74.9186 31.3942 79.5075 31.4932 81.7485C22.7562 81.9935 15.6932 80.1391 7.88419 76.5721C8.10224 74.2384 8.63039 71.9442 9.45469 69.7501C9.48307 69.6819 9.48353 69.6053 9.45596 69.5368C9.4284 69.4683 9.37502 69.4133 9.30733 69.3838C9.23964 69.3543 9.16306 69.3526 9.0941 69.379C9.02514 69.4054 8.96933 69.4579 8.93869 69.5251C8.02482 71.7113 7.47765 74.0333 7.31919 76.3976C7.27369 76.9596 7.46469 77.0421 7.76219 77.2006C14.5727 80.8351 23.5232 82.5611 31.2652 82.3971C32.9947 82.3601 30.9912 81.6206 34.1047 73.0386Z" fill="#3A307F"/>
<path d="M7.55371 77.9175C6.92221 82.2445 7.22321 87.428 7.31921 89.2295H32.1112C31.8202 87.147 31.7807 84.5055 31.6287 82.9485C21.5927 83.127 14.4997 81.3455 7.55371 77.9175Z" fill="#3A307F"/>
<path d="M57.7004 75.3999C57.7004 76.3914 58.6564 88.6209 59.4554 89.0754C60.1174 89.4509 81.8479 89.2439 82.3054 89.0754C82.7629 88.9069 84.2129 76.6524 84.2554 74.7719C84.2978 72.8914 83.2634 72.6429 82.0834 72.6594C80.9034 72.6759 61.2579 72.9899 59.4529 73.1024C57.6479 73.2149 57.7004 74.3999 57.7004 75.3999ZM70.7709 79.5749C72.1424 79.4294 73.6534 80.2359 73.5674 81.8724C73.4814 83.5089 72.5029 84.1694 70.9789 84.3349C69.8254 84.4604 68.2594 83.6739 68.1229 82.4144C67.9489 80.8079 69.1939 79.7434 70.7809 79.5749H70.7709Z" fill="#3A307F"/>
</svg>
