<svg width="64" height="64" viewBox="0 0 64 64" fill="none" xmlns="http://www.w3.org/2000/svg">
<rect width="64" height="64" rx="32" fill="#F8D3D2"/>
<g clip-path="url(#clip0_4061_16683)">
<path d="M32.411 28.901L26.7335 34.493C26.3945 34.832 25.949 35 25.502 35C25.055 35 24.6035 34.8305 24.263 34.4885L21.4295 31.7405L22.4735 30.6635L25.3145 33.419C25.4075 33.5105 25.5935 33.512 25.676 33.4265L31.3565 27.8315L32.4095 28.901H32.411ZM29 42.5H41V41H29V42.5ZM23 42.5H26V41H23V42.5ZM29 23H41V21.5H29V23ZM26 21.5H23V23H26V21.5ZM47 17.75V50H17V17.75C17 15.683 18.683 14 20.75 14H43.25C45.317 14 47 15.683 47 17.75ZM45.5 17.75C45.5 16.5095 44.4905 15.5 43.25 15.5H20.75C19.5095 15.5 18.5 16.5095 18.5 17.75V48.5H45.5V17.75ZM32 32.8265H41V31.3265H33.5315L32 32.8265Z" fill="#EA3934"/>
</g>
<defs>
<clipPath id="clip0_4061_16683">
<rect width="36" height="36" fill="white" transform="translate(14 14)"/>
</clipPath>
</defs>
</svg>
