<svg width="123" height="119" viewBox="0 0 123 119" fill="none" xmlns="http://www.w3.org/2000/svg">
<circle cx="88.0005" cy="84.0005" r="31.25" fill="#D4D2E1"/>
<path fill-rule="evenodd" clip-rule="evenodd" d="M88 119C107.33 119 123 103.33 123 84C123 64.67 107.33 49 88 49C68.67 49 53 64.67 53 84C53 103.33 68.67 119 88 119ZM81.7796 103.824C82.4175 104.052 83.0099 104.166 83.5569 104.166C85.1972 104.166 86.4049 103.642 87.1801 102.593L108.371 73.1304C108.69 72.675 108.93 72.2193 109.089 71.7633C109.248 71.3079 109.328 70.8977 109.328 70.5327C109.328 69.3479 108.895 68.3455 108.03 67.5255C107.163 66.7051 106.161 66.2949 105.022 66.2949C103.518 66.2949 102.31 66.9328 101.398 68.2087L83.4197 93.2281L73.7128 82.7694C73.3483 82.3592 72.8926 82.006 72.3457 81.7096C71.7987 81.4138 71.1608 81.2658 70.4319 81.2658C69.247 81.2658 68.2444 81.6758 67.424 82.4957C66.6036 83.3161 66.1934 84.3416 66.1934 85.5722C66.1934 86.0734 66.2732 86.5861 66.4328 87.1101C66.5924 87.6342 66.786 88.033 67.0138 88.3064L80.1388 102.731C80.5942 103.232 81.1412 103.596 81.7796 103.824Z" fill="#3A307F"/>
<circle cx="30.3305" cy="30.331" r="27.081" fill="#3A307F"/>
<path fill-rule="evenodd" clip-rule="evenodd" d="M30.3307 60.6614C47.0819 60.6614 60.6614 47.0819 60.6614 30.3307C60.6614 13.5795 47.0819 0 30.3307 0C13.5795 0 0 13.5795 0 30.3307C0 47.0819 13.5795 60.6614 30.3307 60.6614ZM24.9401 47.5101C25.493 47.7074 26.0064 47.8061 26.4803 47.8061C27.9018 47.8061 28.9485 47.3519 29.6202 46.4436L47.9842 20.9112C48.2608 20.5165 48.4681 20.1216 48.606 19.7265C48.7443 19.3318 48.8135 18.9763 48.8135 18.6601C48.8135 17.6333 48.4384 16.7646 47.6882 16.0541C46.9376 15.3431 46.0687 14.9876 45.0816 14.9876C43.7781 14.9876 42.7315 15.5405 41.9417 16.6461L26.3614 38.3277L17.9495 29.2643C17.6337 28.9088 17.2388 28.6027 16.7648 28.3459C16.2908 28.0895 15.738 27.9613 15.1063 27.9613C14.0795 27.9613 13.2106 28.3166 12.4997 29.0271C11.7887 29.7381 11.4333 30.6268 11.4333 31.6932C11.4333 32.1275 11.5024 32.5718 11.6407 33.0259C11.779 33.4801 11.9469 33.8256 12.1442 34.0626L23.5182 46.5625C23.9129 46.9969 24.3869 47.3127 24.9401 47.5101Z" fill="#3A307F"/>
<path d="M25.0356 21.1412L24.8917 21.2801C24.67 21.0503 24.5607 20.7639 24.5607 20.4347V17.3932C24.5607 16.6464 24.8258 15.9998 25.3507 15.464L25.0356 21.1412ZM25.0356 21.1412L24.8917 21.2801C25.1145 21.511 25.3959 21.6266 25.722 21.6266C26.0479 21.6266 26.3324 21.5113 26.5646 21.2842C26.7987 21.0552 26.916 20.7675 26.916 20.4347V17.3762C26.916 17.2658 26.9491 17.1895 27.0075 17.1303L26.8651 16.9899L27.0073 17.1305C27.0658 17.0714 27.1399 17.0387 27.2464 17.0387H43.3209C43.4273 17.0387 43.5012 17.0714 43.5594 17.1303C43.6178 17.1895 43.6509 17.2658 43.6509 17.3762V42.0465C43.6509 42.1568 43.6178 42.2331 43.5594 42.2923C43.5012 42.3513 43.4273 42.3839 43.3209 42.3839H35.2108C34.8838 42.3839 34.6 42.4959 34.3733 42.7212C34.3733 42.7211 34.3733 42.7211 34.3734 42.7211L34.5141 42.8631L34.3731 42.7213C34.1448 42.9476 34.0328 43.2347 34.0328 43.567C34.0328 43.8994 34.1448 44.1882 34.3711 44.4195M25.0356 21.1412L46.0066 17.3762M37.1047 38.1309C37.2639 38.2912 37.4591 38.3779 37.6818 38.3779H38.8594C39.0823 38.3779 39.2775 38.2913 39.4363 38.1306C39.5947 37.9704 39.6794 37.7747 39.6794 37.5522V36.3676C39.6794 36.1457 39.595 35.9488 39.4397 35.7839L39.4395 35.7838C39.2818 35.6167 39.0862 35.5245 38.8606 35.5245H37.69C37.4628 35.5245 37.265 35.6157 37.1047 35.7824L37.1045 35.7826C36.9465 35.9472 36.8601 36.1445 36.8601 36.3676V37.5522C36.8601 37.7751 36.9455 37.9708 37.1047 38.1309ZM37.1047 38.1309L37.2466 37.99M37.1047 38.1309C37.1048 38.131 37.1048 38.131 37.1049 38.1311L37.2466 37.99M37.2466 37.99C37.1223 37.865 37.0601 37.7191 37.0601 37.5522V36.3676C37.0601 36.201 37.123 36.0522 37.2488 35.9211L37.69 35.7245H38.8606C39.0258 35.7245 39.1703 35.79 39.2941 35.9211C39.4176 36.0522 39.4794 36.201 39.4794 36.3676V37.5522C39.4794 37.7191 39.4176 37.865 39.2941 37.99C39.1703 38.1152 39.0254 38.1779 38.8594 38.1779H37.6818C37.5161 38.1779 37.371 38.1152 37.2466 37.99ZM46.0066 17.3762V42.0465C46.0066 42.7848 45.7394 43.4261 45.2122 43.9604C44.6853 44.4951 44.0516 44.7672 43.3209 44.7672H35.2108C34.8819 44.7672 34.5974 44.6511 34.3711 44.4195M46.0066 17.3762C46.0066 16.6378 45.7394 15.9966 45.2122 15.4622C44.6853 14.9275 44.0516 14.6555 43.3209 14.6555H27.2464C26.5111 14.6555 25.8758 14.9278 25.3508 15.464L46.0066 17.3762ZM34.3711 44.4195L34.5141 44.2797L34.3712 44.4196C34.3712 44.4195 34.3711 44.4195 34.3711 44.4195ZM39.4365 23.4825L39.4367 23.4824C39.5948 23.3216 39.6794 23.1257 39.6794 22.903V21.7154C39.6794 21.4907 39.5957 21.2924 39.4378 21.1293L39.4376 21.1291C39.2794 20.966 39.0843 20.877 38.8606 20.877H37.69C37.4654 20.877 37.2684 20.9637 37.1074 21.1248L37.1072 21.125C36.9465 21.2861 36.8601 21.4831 36.8601 21.7075V22.9017C36.8601 23.1254 36.9452 23.322 37.1046 23.4829C37.2637 23.6435 37.4589 23.7304 37.6818 23.7304H38.8594C39.0825 23.7304 39.2777 23.6436 39.4365 23.4825ZM39.4362 30.8208L39.4365 30.8205C39.5947 30.66 39.6794 30.4643 39.6794 30.2418V29.0577C39.6794 28.8355 39.5951 28.6385 39.4397 28.4735L39.4395 28.4734C39.2818 28.3064 39.0862 28.2141 38.8606 28.2141H37.69C37.4628 28.2141 37.265 28.3053 37.1047 28.472L37.1045 28.4722C36.9464 28.6369 36.8601 28.8343 36.8601 29.0577V30.2418C36.8601 30.4648 36.9455 30.6606 37.1047 30.8209L37.1049 30.8211C37.2641 30.9811 37.4592 31.0675 37.6818 31.0675H38.8594C39.0822 31.0675 39.2773 30.9812 39.4362 30.8208Z" fill="#D4D2E1" stroke="#D4D2E1" stroke-width="0.4"/>
<path d="M19.4775 22.5462L19.4775 22.5463C19.7275 22.3833 19.9859 22.2643 20.2527 22.1913C20.5149 22.1195 20.783 22.0837 21.0564 22.0837C21.3295 22.0837 21.5999 22.1195 21.8672 22.191L21.8673 22.191C22.1393 22.2637 22.403 22.3825 22.6581 22.5452L22.6637 22.5487L22.6636 22.5488L31.2479 28.4265C31.6188 28.6593 31.9031 28.9744 32.0982 29.3685C32.0983 29.3686 32.0983 29.3686 32.0983 29.3687L31.9191 29.4574C32.0987 29.8195 32.1886 30.1914 32.1886 30.5728V42.1419C32.1886 42.8006 31.9398 43.3695 31.4421 43.8485L19.4775 22.5462ZM19.4775 22.5462L19.4742 22.5485M19.4775 22.5462L19.4742 22.5485M18.8413 36.7529V42.1419C18.8413 42.8578 18.5684 43.4779 18.034 43.9926C17.4986 44.5082 16.8505 44.7675 16.1006 44.7675H12.4454C11.7037 44.7675 11.0584 44.5078 10.5197 43.9931C9.98053 43.4786 9.70479 42.8584 9.70479 42.1419V30.5728C9.70479 30.1587 9.80257 29.7567 9.99506 29.3687L18.8413 36.7529ZM18.8413 36.7529H23.279V42.1419C23.279 42.8584 23.5547 43.4786 24.0939 43.9931L18.8413 36.7529ZM19.4742 22.5485L10.8457 28.4263M19.4742 22.5485L10.8457 28.4263M25.7726 42.3651L25.7728 42.3653C25.8426 42.4284 25.9215 42.4591 26.0196 42.4591H29.648C29.7614 42.4591 29.8395 42.4259 29.8992 42.3689L29.8994 42.3687C29.9585 42.3124 29.9901 42.2424 29.9901 42.1419V30.5909C29.9901 30.551 29.9798 30.5029 29.9511 30.4445L29.951 30.4442C29.9275 30.3963 29.8922 30.3548 29.8401 30.3194L21.2525 24.4705L21.2486 24.4679L21.2486 24.4678C21.1908 24.4264 21.1324 24.4081 21.0687 24.4081C21.0049 24.4081 20.9378 24.4266 20.8648 24.4725L12.2533 30.3194C12.2012 30.3548 12.1658 30.3962 12.1424 30.4442L25.7726 42.3651ZM25.7726 42.3651C25.7092 42.3078 25.6775 42.2388 25.6775 42.1419V36.5853C25.6775 35.9897 25.4576 35.4791 25.0241 35.0653C24.5908 34.6516 24.0604 34.4449 23.4451 34.4449H18.6752C18.0678 34.4449 17.5404 34.6522 17.1039 35.0646C16.6656 35.4782 16.4428 35.9889 16.4428 36.5853V42.1419C16.4428 42.2426 16.4112 42.3127 16.3523 42.3689L16.4904 42.5136M25.7726 42.3651L16.4904 42.5136M16.4904 42.5136L16.3523 42.3689C16.2927 42.4258 16.2145 42.4591 16.1006 42.4591H12.4454C12.3319 42.4591 12.2538 42.4259 12.1942 42.3689M16.4904 42.5136L12.1942 42.3689M10.8457 28.4263C10.4746 28.6592 10.1902 28.9744 9.9951 29.3686L10.8457 28.4263ZM12.1942 42.3689L12.0561 42.5136L12.1942 42.3689Z" fill="#D4D2E1" stroke="#D4D2E1" stroke-width="0.4"/>
</svg>
