<svg width="100" height="100" viewBox="0 0 100 100" fill="none" xmlns="http://www.w3.org/2000/svg">
<path d="M77.8684 61.668H67.7284C67.6429 61.668 45.2569 68.085 44.7784 68.2375C43.8284 68.535 43.9699 68.507 42.9719 71.1875C42.2974 73.1275 42.2404 73.9315 41.7344 74.524C41.4903 74.7384 41.1926 74.8825 40.873 74.9409C40.5535 74.9992 40.224 74.9697 39.9199 74.8555C39.0239 74.4845 37.9579 72.9955 37.5009 72.136C37.3214 71.7945 37.1509 71.443 37.0044 71.089C36.9809 71.0336 36.9375 70.9891 36.8829 70.9639C36.8283 70.9388 36.7663 70.9349 36.7089 70.953L25.3549 74.5C25.7654 74.5315 43.4144 76.2265 44.0549 76.3C45.7654 75.8655 46.7204 78.25 46.0254 79.9055C45.2644 81.583 43.0089 81.399 42.8459 79.615C42.8093 79.2849 42.8559 78.9509 42.9813 78.6434C43.1068 78.3359 43.3073 78.0647 43.5644 77.8545C44.1644 77.3945 44.9764 78.264 44.7144 78.979C44.6049 79.271 44.1914 79.679 44.0279 79.4135C44.0032 79.3719 43.996 79.3222 44.0079 79.2753C44.0198 79.2285 44.0499 79.1882 44.0914 79.1635C44.7474 78.737 44.0844 77.9815 43.8274 78.198C42.9554 78.8955 43.2344 80.66 44.4184 80.542C46.0009 80.3835 46.0299 77.852 45.0734 77.032C44.9804 76.9418 44.8691 76.8729 44.747 76.8297C44.6249 76.7866 44.4949 76.7703 44.3659 76.782C43.9697 76.8695 43.5977 77.0434 43.2763 77.2911C42.955 77.5389 42.6923 77.8545 42.5069 78.2155C41.7469 79.5225 41.7744 80.822 42.9504 81.812C43.9359 82.6485 44.5269 82.445 44.4504 82.789C44.4367 82.8344 44.4059 82.8726 44.3644 82.8957C44.323 82.9187 44.2742 82.9248 44.2284 82.9125C43.6669 82.7614 43.1421 82.4971 42.6864 82.136C41.2864 81.043 41.2044 79.436 42.0634 77.9545C42.362 77.4122 42.7918 76.9534 43.3134 76.62C42.4294 76.5515 24.6504 74.817 24.4479 74.793C24.3649 74.8195 25.3274 74.8385 4.8014 74.2175C1.9109 73.336 -0.257596 76.488 0.766404 78.9075C1.16522 79.7328 1.79189 80.4268 2.5724 80.9075C2.6224 80.945 0.722404 80.833 44.2724 83.1075C44.3929 83.1145 42.8829 84.025 78.0084 62.16C78.0572 62.1293 78.0946 62.0836 78.1153 62.0298C78.1359 61.976 78.1385 61.9169 78.1227 61.8615C78.1069 61.8061 78.0736 61.7573 78.0278 61.7224C77.9819 61.6875 77.926 61.6684 77.8684 61.668ZM58.2539 70.7545C58.0109 70.4705 58.3489 69.844 58.4439 69.5655C58.7747 68.8767 58.8204 68.0852 58.5709 67.363L59.5954 66.35C60.0544 66.5914 60.4162 66.9836 60.6199 67.4605C61.0499 68.716 58.9564 71.5905 58.2539 70.7545Z" fill="#F18481"/>
<path d="M60.8414 67.384C60.6724 66.9662 60.3714 66.6151 59.9844 66.384C60.1939 65.669 59.5009 66.0775 56.7844 59.7045C54.3479 54.028 54.7949 53.3585 54.6084 53.116C54.6234 53.0732 54.622 53.0262 54.6045 52.9843C54.5869 52.9424 54.5545 52.9085 54.5134 52.889C53.5309 52.439 53.0764 52.7935 51.9569 52.615C50.8568 52.4428 49.7426 52.378 48.6299 52.4215C48.0299 52.445 46.6129 51.6625 46.0214 51.8095C45.6945 51.878 45.4068 52.0702 45.2184 52.346C44.1434 54.031 43.7864 56.018 43.1379 57.905C41.7879 61.8225 40.6489 65.879 39.6309 69.926C39.6202 69.9926 39.6313 70.0608 39.6624 70.1205C40.1354 70.9505 41.1284 73.195 41.1729 73.9405C41.1783 74.0017 41.2047 74.059 41.2477 74.1029C41.2906 74.1467 41.3473 74.1743 41.4083 74.181C41.4693 74.1878 41.5307 74.1732 41.5822 74.1397C41.6336 74.1062 41.6719 74.056 41.6904 73.9975C43.2429 68.577 47.2324 60.991 49.6124 56.2595C51.5124 59.6885 56.0699 64.7685 58.2314 67.784C58.2618 67.826 58.3047 67.8572 58.3539 67.8732C58.4032 67.8892 58.4562 67.8891 58.5054 67.873C58.6799 69.1415 57.5019 70.3065 58.0519 70.9295C59.0349 72.0955 61.3934 68.8265 60.8414 67.384ZM60.3134 68.4575C60.0565 69.236 59.5893 69.9282 58.9634 70.4575C58.8179 70.568 58.5839 70.715 58.4564 70.584C58.3289 70.453 58.6564 69.7415 58.6889 69.6495C58.9627 69.0126 59.0207 68.3035 58.8539 67.6305C59.2119 67.3783 59.5327 67.077 59.8069 66.7355C60.0882 66.9102 60.2954 67.1822 60.3888 67.4999C60.4822 67.8175 60.4554 68.1584 60.3134 68.4575Z" fill="#3A307F"/>
<path d="M50.8836 28.089C50.8006 28.351 50.7649 28.6256 50.7781 28.9C50.7734 29.0956 50.8056 29.2904 50.8731 29.474C50.8742 29.4984 50.8803 29.5223 50.891 29.5443C50.9017 29.5662 50.9167 29.5858 50.9351 29.6018C50.9536 29.6178 50.9751 29.6299 50.9983 29.6373C51.0216 29.6448 51.0461 29.6474 51.0704 29.6451C51.0947 29.6428 51.1183 29.6356 51.1397 29.6239C51.1611 29.6123 51.18 29.5964 51.1951 29.5772C51.2102 29.558 51.2213 29.536 51.2276 29.5124C51.234 29.4888 51.2355 29.4642 51.2321 29.44C51.2803 29.2762 51.3052 29.1063 51.3061 28.9355C51.3537 28.647 51.3282 28.3512 51.2321 28.075C51.2319 28.0516 51.2271 28.0284 51.2179 28.0069C51.2086 27.9854 51.1951 27.9659 51.1782 27.9497C51.1612 27.9335 51.1412 27.9209 51.1193 27.9126C51.0973 27.9044 51.074 27.9006 51.0506 27.9015C51.0271 27.9024 51.0042 27.9081 50.983 27.9181C50.9618 27.9281 50.9428 27.9423 50.9272 27.9598C50.9117 27.9773 50.8998 27.9978 50.8923 28.02C50.8847 28.0422 50.8818 28.0657 50.8836 28.089Z" fill="#3A307F"/>
<path d="M50.1 30.4585C50.2225 30.6644 50.4124 30.8217 50.6376 30.9037C50.8627 30.9857 51.1093 30.9874 51.3355 30.9085C51.5298 30.8471 51.71 30.7479 51.8659 30.6167C52.0218 30.4855 52.1503 30.3249 52.244 30.144C52.2729 30.1073 52.2865 30.0609 52.2819 30.0145C52.2774 29.968 52.2551 29.9251 52.2196 29.8947C52.1842 29.8643 52.1384 29.8488 52.0918 29.8514C52.0452 29.8539 52.0014 29.8744 51.9695 29.9085C51.7336 30.1123 51.4659 30.2762 51.177 30.3935C51.0442 30.429 50.9051 30.4344 50.77 30.4094C50.6348 30.3844 50.5069 30.3296 50.3955 30.249C50.3677 30.2098 50.3255 30.1833 50.2782 30.1752C50.2308 30.1672 50.1822 30.1782 50.143 30.206C50.1038 30.2338 50.0773 30.276 50.0692 30.3234C50.0612 30.3707 50.0722 30.4193 50.1 30.4585Z" fill="#3A307F"/>
<path d="M52.1035 27.819C52.5225 27.819 52.5225 28.769 52.1035 28.769C51.6845 28.769 51.684 27.819 52.1035 27.819Z" fill="#3A307F"/>
<path d="M50.195 27.9246C50.614 27.9246 50.6145 28.8746 50.195 28.8746C49.7755 28.8746 49.7755 27.9246 50.195 27.9246Z" fill="#3A307F"/>
<path d="M55.645 17.7065C55.367 17.5355 55.2715 17.834 53.4585 19.6485C52.6275 17.615 52.6695 16.9135 52.3285 16.8845C52.275 16.881 52.2217 16.8931 52.1748 16.9192C52.128 16.9452 52.0897 16.9842 52.0645 17.0315C51.526 18.112 50.797 19.523 50.7545 19.6055C50.2604 19.0563 49.8051 18.4734 49.392 17.861C49.359 17.8146 49.3118 17.7803 49.2576 17.7631C49.2034 17.7459 49.145 17.7469 49.0914 17.7658C49.0377 17.7847 48.9917 17.8206 48.9602 17.868C48.9288 17.9154 48.9136 17.9717 48.917 18.0285C48.967 18.8285 49.196 20.134 49.371 21.4785C49.3743 21.5119 49.3845 21.5443 49.401 21.5736C49.4174 21.6029 49.4398 21.6285 49.4666 21.6487C49.4934 21.6689 49.5241 21.6834 49.5568 21.6912C49.5895 21.699 49.6234 21.6999 49.6565 21.694C50.7905 21.48 53 21.7195 54.1345 21.9015C54.1757 21.9079 54.2179 21.9002 54.2542 21.8796C54.2906 21.859 54.3188 21.8267 54.3345 21.788C54.8845 20.435 55.4925 18.738 55.739 17.9825C55.757 17.9326 55.7576 17.8781 55.7405 17.828C55.7234 17.7778 55.6897 17.7349 55.645 17.7065Z" fill="#EA3934"/>
<path d="M54.177 25.45C54.1862 25.2953 54.1791 25.1401 54.156 24.987C53.8405 23.1485 51.318 23.16 49.952 24.4695C49.3175 25.1035 48.5155 26.6925 47.66 26.5315C47.6135 26.5216 47.5651 26.5307 47.5254 26.5565C47.4856 26.5824 47.4578 26.623 47.448 26.6695C47.4381 26.7159 47.4472 26.7643 47.4731 26.804C47.4989 26.8438 47.5395 26.8716 47.586 26.8815C48.162 27.025 48.6965 26.6445 49.1175 26.224C49.8385 25.5415 50.0755 24.7205 51.283 24.257C52.238 23.8915 53.465 24.051 53.6275 25.075C53.6697 25.2406 53.6697 25.4143 53.6275 25.58C53.6127 25.619 53.6077 25.661 53.6129 25.7024C53.6181 25.7438 53.6334 25.7833 53.6573 25.8175C53.6813 25.8516 53.7132 25.8794 53.7504 25.8984C53.7875 25.9174 53.8287 25.927 53.8705 25.9265C54.602 25.8965 54.7855 27.346 54.2705 28.251C54.2232 28.2345 54.1717 28.2345 54.1245 28.251L53.577 28.2064C53.347 27.4775 52.8065 27.4735 52.848 26.4175C52.876 25.6605 53.111 25.4899 52.8905 25.3174C52.8536 25.2848 52.808 25.2636 52.7592 25.2564C52.7105 25.2492 52.6607 25.2564 52.616 25.277C51.4815 25.7745 50.8365 26.877 49.859 27.356C49.6236 27.4945 49.3492 27.5518 49.0781 27.5189C48.807 27.486 48.5543 27.3648 48.359 27.174C48.3314 27.1348 48.2895 27.1081 48.2423 27.0999C48.1952 27.0916 48.1466 27.1024 48.1075 27.1299C48.0683 27.1575 48.0416 27.1994 48.0334 27.2466C48.0251 27.2938 48.0359 27.3423 48.0635 27.3815C48.2063 27.5785 48.397 27.7358 48.6176 27.8387C48.8381 27.9416 49.0812 27.9866 49.324 27.9695C49.2284 28.2503 49.1703 28.5424 49.151 28.8384C48.998 30.2824 49.138 31.9105 50.535 32.3305L50.5875 33.1305C50.5867 33.1548 50.591 33.1791 50.5999 33.2018C50.6089 33.2244 50.6223 33.2451 50.6395 33.2624C50.6566 33.2797 50.6771 33.2934 50.6997 33.3026C50.7223 33.3117 50.7465 33.3162 50.7709 33.3157C50.7953 33.3153 50.8193 33.3098 50.8415 33.2998C50.8637 33.2898 50.8837 33.2753 50.9001 33.2573C50.9166 33.2393 50.9292 33.2182 50.9373 33.1952C50.9453 33.1722 50.9486 33.1478 50.947 33.1235L50.9825 32.4585C51.2182 32.4866 51.4573 32.4522 51.6755 32.3585C51.7922 32.3062 51.8967 32.2298 51.982 32.1344C52.0035 32.1226 52.0225 32.1065 52.0377 32.0871C52.0528 32.0677 52.0639 32.0454 52.0702 32.0216C52.0765 31.9978 52.0779 31.973 52.0744 31.9486C52.0708 31.9242 52.0623 31.9008 52.0495 31.8798C52.0366 31.8589 52.0196 31.8407 51.9995 31.8265C51.9794 31.8122 51.9566 31.8022 51.9326 31.797C51.9085 31.7918 51.8836 31.7916 51.8595 31.7963C51.8353 31.801 51.8123 31.8106 51.792 31.8244C51.7615 31.8349 51.2735 31.9194 51.242 31.9244C51.1223 31.9359 51.0021 31.9404 50.882 31.938C50.655 31.8807 50.4445 31.7715 50.2669 31.6191C50.0893 31.4667 49.9495 31.2751 49.8585 31.0595C49.53 30.2695 49.605 28.557 49.7545 27.9095C50.768 27.6595 51.571 26.5545 52.351 26.034C52.3171 26.2817 52.3114 26.5324 52.334 26.7815C52.1942 26.7665 52.0529 26.7813 51.9194 26.8249C51.7858 26.8685 51.6629 26.9399 51.559 27.0345C51.355 27.165 51.567 27.4669 51.749 27.3345C51.9883 27.3484 52.2285 27.3355 52.465 27.296C52.6895 27.846 53.1025 28.019 53.1855 28.4405C53.1952 28.4882 53.2197 28.5317 53.2557 28.5647C53.2916 28.5976 53.337 28.6184 53.3855 28.624H54.2265C54.2772 28.666 54.3189 28.7178 54.3493 28.7762C54.3796 28.8347 54.398 28.8986 54.4033 28.9643C54.4085 29.0299 54.4006 29.096 54.3799 29.1585C54.3593 29.2211 54.3263 29.2789 54.283 29.3285C54.152 29.485 53.8535 29.4955 53.6495 29.5035C53.247 29.5205 53.49 30.024 53.1845 30.7625C53.0591 31.0664 52.8549 31.3313 52.593 31.53C52.4565 31.6235 52.4965 31.698 52.551 32.5685C52.551 32.6161 52.5699 32.6617 52.6035 32.6954C52.6372 32.729 52.6829 32.748 52.7305 32.748C52.7781 32.748 52.8237 32.729 52.8574 32.6954C52.891 32.6617 52.91 32.6161 52.91 32.5685L52.952 31.8535C53.2398 31.6406 53.4751 31.3646 53.6398 31.0467C53.8044 30.7288 53.8941 30.3774 53.902 30.0195C54.0897 30.0251 54.2748 29.9744 54.4334 29.8738C54.592 29.7732 54.7168 29.6274 54.7918 29.4551C54.8667 29.2829 54.8883 29.0922 54.8537 28.9076C54.8192 28.723 54.7301 28.5529 54.598 28.4195C55.2265 27.436 55.187 25.779 54.177 25.45Z" fill="#3A307F"/>
<path d="M54.5359 33.613C54.3959 33.3425 54.1519 33.145 53.9759 32.863C53.9459 32.8206 53.9025 32.7895 53.8528 32.7745C53.8031 32.7596 53.7498 32.7617 53.7014 32.7805C52.8066 33.1079 51.9349 33.4955 51.0924 33.9405C50.9789 33.8175 50.2989 33.436 50.2054 33.3075C49.9779 32.9955 49.7054 33.4525 49.0434 33.8575C49.0044 33.8823 48.9765 33.9213 48.9656 33.9662C48.9546 34.0111 48.9614 34.0586 48.9846 34.0986C49.0077 34.1386 49.0454 34.1682 49.0898 34.1811C49.1342 34.194 49.1819 34.1893 49.2229 34.168C49.4774 34.0447 49.7244 33.9063 49.9624 33.7535C50.1279 33.8977 50.3045 34.0287 50.4904 34.1455C50.5554 34.1915 50.6204 34.236 50.6779 34.279C50.1575 34.7227 49.6679 35.2013 49.2124 35.7115C49.177 35.7437 49.1558 35.7887 49.1536 35.8365C49.1513 35.8843 49.1682 35.9311 49.2004 35.9665C49.2326 36.0019 49.2776 36.023 49.3254 36.0253C49.3732 36.0275 49.42 36.0107 49.4554 35.9785C49.6554 35.825 49.8584 35.6745 50.0529 35.517L50.1529 35.8615C49.5803 36.5568 49.058 37.292 48.5899 38.0615C48.5274 38.1615 48.5399 38.2275 48.5684 38.406C48.7434 39.4903 49.0121 40.5575 49.3714 41.5955C49.3928 41.6447 49.4283 41.6865 49.4734 41.7156C49.5185 41.7447 49.5712 41.7598 49.6249 41.759C49.9704 41.7465 49.7484 41.474 50.5969 40.0215C51.3274 38.7675 51.6544 38.6175 51.6214 38.403C51.5129 37.586 51.4924 37.403 51.3994 36.048C51.4529 35.984 51.6074 35.8155 51.7094 35.708C51.8274 35.861 51.9409 36.0135 52.0544 36.1725C52.0788 36.2144 52.1189 36.245 52.1658 36.2574C52.2127 36.2698 52.2627 36.2631 52.3046 36.2387C52.3466 36.2143 52.3772 36.1742 52.3896 36.1273C52.402 36.0804 52.3953 36.0304 52.3709 35.9885C52.0877 35.4309 51.7705 34.8914 51.4209 34.373C51.9359 34.123 53.5859 33.3395 53.7234 33.276C53.9094 33.4416 54.0823 33.6215 54.2404 33.814C54.3674 34.0145 54.6874 33.812 54.5359 33.613Z" fill="#3A307F"/>
<path d="M63.5139 52.7785C63.2744 49.5285 62.4974 41.6385 61.3274 38.5785C60.4274 36.171 58.1544 33.9055 55.5499 33.5285C55.5141 33.5246 55.478 33.5281 55.4436 33.5387C55.4092 33.5493 55.3773 33.5667 55.3499 33.59C52.7064 36.019 50.4219 39.3075 49.6144 41.101C49.0829 38.7795 48.7479 35.6215 48.5144 33.9175C48.5095 33.8795 48.4964 33.843 48.4759 33.8106C48.4555 33.7782 48.4283 33.7506 48.3961 33.7297C48.364 33.7089 48.3276 33.6953 48.2897 33.6899C48.2518 33.6845 48.2131 33.6875 48.1764 33.6985C45.0659 34.609 43.2044 37.77 42.2719 40.887C42.0529 41.5975 40.2694 48.294 39.5364 52.15C39.5283 52.1838 39.5271 52.2188 39.5329 52.253C39.5386 52.2872 39.5512 52.3199 39.5699 52.3492C39.5885 52.3785 39.6129 52.4037 39.6415 52.4233C39.6701 52.4429 39.7024 52.4566 39.7364 52.4635C40.8319 52.7135 41.9364 52.9325 43.0424 53.0765C43.1035 53.0844 43.1654 53.0707 43.2175 53.0378C43.2696 53.005 43.3086 52.955 43.3279 52.8965C43.6779 51.851 44.6959 49.0105 44.8379 48.6345C44.8839 47.866 44.7379 45.5875 44.7854 44.1795C44.8641 42.2226 45.087 40.2741 45.4524 38.35C45.4587 38.3032 45.4833 38.2609 45.5208 38.2322C45.5583 38.2036 45.6056 38.1909 45.6524 38.197C45.9599 38.2405 45.7524 38.3515 45.4309 42.46C45.2169 44.8005 45.3929 46.59 45.1984 48.6495C45.1948 48.6882 45.1792 48.7248 45.1539 48.7543C45.1285 48.7838 45.0946 48.8046 45.0569 48.814C44.9309 52.9475 44.6034 53.1185 44.9764 53.2475C45.0315 53.2659 45.091 53.2662 45.1462 53.2482C45.2014 53.2302 45.2493 53.1949 45.2829 53.1475C45.3885 52.9823 45.5276 52.8411 45.6913 52.7331C45.855 52.6251 46.0395 52.5527 46.2329 52.5205C47.6524 52.2915 48.6589 54.0705 49.6659 54.9295C51.7014 56.7135 53.9744 55.403 56.0659 54.299C56.102 54.2818 56.1334 54.2561 56.1574 54.224C56.1813 54.1919 56.1971 54.1545 56.2034 54.115C56.5504 51.6355 56.8329 48.865 57.3759 46.222C57.0039 44.3375 56.5759 42.189 55.7174 40.4685C55.7052 40.4484 55.6972 40.426 55.6938 40.4027C55.6904 40.3794 55.6917 40.3557 55.6976 40.3329C55.7034 40.3102 55.7138 40.2888 55.728 40.27C55.7423 40.2513 55.7601 40.2356 55.7805 40.2238C55.8008 40.2121 55.8233 40.2045 55.8467 40.2015C55.87 40.1986 55.8937 40.2003 55.9164 40.2066C55.939 40.2129 55.9602 40.2236 55.9787 40.2382C55.9972 40.2528 56.0125 40.2709 56.0239 40.2915C56.8961 41.7403 57.4505 43.3578 57.6504 45.037C57.7334 45.632 58.0459 46.1755 58.8004 48.999C59.9459 53.5045 59.6799 53.8255 60.0154 53.807C61.1174 53.6868 62.1918 53.384 63.1944 52.911C63.2189 52.9411 63.2525 52.9625 63.2902 52.972C63.3279 52.9815 63.3676 52.9786 63.4035 52.9637C63.4394 52.9489 63.4695 52.9228 63.4894 52.8894C63.5093 52.8561 63.5179 52.8172 63.5139 52.7785ZM48.1139 44.4375C47.6384 43.3548 47.0696 42.3156 46.4139 41.3315C46.378 41.2882 46.3584 41.2337 46.3584 41.1775C46.3584 41.1213 46.378 41.0668 46.4139 41.0235C46.7204 40.5825 47.0054 40.1235 47.3139 39.6815C47.3639 39.6675 47.2699 39.689 47.2189 39.702C46.7024 39.824 46.6189 39.907 46.4584 39.778C46.4268 39.7473 46.4027 39.7097 46.388 39.6682C46.3734 39.6266 46.3685 39.5822 46.3739 39.5385C46.6053 38.1971 46.9057 36.8685 47.2739 35.558C47.3264 35.322 47.6839 35.434 47.6119 35.6505C47.3219 36.957 47.2044 37.775 46.9574 39.223C47.2894 39.1425 47.3844 39.1185 47.9074 39.016C47.9608 39.0062 48.016 39.0131 48.0654 39.0356C48.1148 39.0582 48.1561 39.0953 48.1838 39.1421C48.2114 39.1889 48.224 39.243 48.2199 39.2972C48.2158 39.3513 48.1952 39.4029 48.1609 39.445C47.7659 39.93 47.3354 40.637 46.9569 41.181C48.1719 42.986 48.7734 44.7615 49.5024 46.681C49.5203 46.725 49.5204 46.7742 49.5026 46.8182C49.4847 46.8622 49.4504 46.8975 49.4069 46.9165C49.1149 47.0325 49.1799 46.722 48.1139 44.4375ZM50.3004 46.343C50.1779 48.507 49.5969 50.074 49.4554 51.768C49.455 51.7923 49.4497 51.8163 49.4398 51.8385C49.4299 51.8607 49.4157 51.8807 49.3978 51.8972C49.38 51.9138 49.359 51.9265 49.3361 51.9347C49.3132 51.9429 49.2889 51.9464 49.2647 51.9449C49.2404 51.9435 49.2167 51.9371 49.1949 51.9263C49.1732 51.9154 49.1539 51.9002 49.1381 51.8817C49.1224 51.8631 49.1106 51.8416 49.1034 51.8184C49.0963 51.7951 49.0939 51.7707 49.0964 51.7465C49.0964 50.127 49.7039 47.8925 49.7619 46.3185C49.7443 44.7677 49.6207 43.2199 49.3919 41.686C49.3839 41.6384 49.3951 41.5896 49.4231 41.5502C49.4511 41.5109 49.4935 41.4843 49.5411 41.4763C49.5888 41.4682 49.6376 41.4795 49.6769 41.5074C49.7163 41.5354 49.7429 41.5779 49.7509 41.6255C50.115 43.1716 50.2992 44.7546 50.2999 46.343H50.3004ZM56.4689 35.021C56.1774 36.2555 55.7309 37.621 55.4444 38.9435C55.4372 38.9766 55.4236 39.0079 55.4043 39.0357C55.385 39.0634 55.3604 39.0871 55.3319 39.1054C55.3035 39.1236 55.2717 39.1361 55.2384 39.142C55.2051 39.148 55.1709 39.1473 55.1379 39.14C54.5914 39.0367 54.0354 38.9918 53.4794 39.006C53.7044 39.275 53.9443 39.5312 54.1979 39.7735C54.2476 39.8215 54.2764 39.8871 54.2784 39.9561C54.2804 40.0252 54.2552 40.0922 54.2084 40.143C52.9553 41.5946 51.7914 43.1207 50.7229 44.713C50.7104 44.7331 50.694 44.7506 50.6747 44.7644C50.6554 44.7782 50.6336 44.788 50.6105 44.7934C50.5874 44.7988 50.5635 44.7995 50.5401 44.7956C50.5167 44.7918 50.4943 44.7833 50.4741 44.7708C50.454 44.7582 50.4366 44.7418 50.4228 44.7225C50.409 44.7033 50.3991 44.6814 50.3938 44.6583C50.3884 44.6352 50.3876 44.6113 50.3915 44.5879C50.3954 44.5645 50.4039 44.5421 50.4164 44.522C51.3543 42.9131 52.4366 41.3929 53.6499 39.98C53.3082 39.6478 52.9971 39.2855 52.7204 38.8975C52.6922 38.858 52.6753 38.8116 52.6716 38.7632C52.6678 38.7149 52.6772 38.6664 52.6989 38.623C52.7206 38.5796 52.7537 38.543 52.7947 38.517C52.8356 38.491 52.8829 38.4767 52.9314 38.4755C53.6234 38.4471 54.3165 38.4826 55.0019 38.5815C55.2644 37.4645 55.7484 36.161 56.1109 34.925C56.1268 34.8812 56.1585 34.8449 56.1998 34.8234C56.2411 34.8019 56.289 34.7966 56.334 34.8087C56.379 34.8207 56.4178 34.8492 56.4428 34.8886C56.4678 34.9279 56.4771 34.9751 56.4689 35.021Z" fill="#EA3934"/>
<path d="M39.5689 69.3425C39.0413 68.4599 38.3577 67.6806 37.5514 67.0425C36.7439 66.507 36.2014 66.9785 36.2014 67.913C36.2014 69.3315 37.6704 71.9425 38.5564 73.173C39.0064 73.7995 39.4479 74.4775 40.1834 74.718C40.7094 74.89 41.1674 74.788 41.2709 74.251C41.2807 74.2034 41.2711 74.1538 41.2443 74.1133C41.2176 74.0727 41.1758 74.0445 41.1282 74.0347C41.0806 74.025 41.031 74.0345 40.9905 74.0613C40.9499 74.0881 40.9217 74.1299 40.9119 74.1775C40.8469 74.4615 40.5929 74.4275 40.3204 74.323C39.7074 74.083 39.3204 73.396 38.9789 72.8845C38.2354 71.7725 36.4724 68.816 36.7609 67.602C36.8304 67.311 36.9109 67.2975 37.0884 67.37C37.6884 67.6115 38.7924 68.8235 39.2749 69.5435C39.4259 69.7395 39.7119 69.526 39.5689 69.3425Z" fill="#3A307F"/>
<path d="M41.8931 54L42.1041 53.2975C42.1131 53.2511 42.1401 53.2102 42.1792 53.1837C42.1986 53.1706 42.2204 53.1614 42.2433 53.1567C42.2662 53.152 42.2899 53.1519 42.3129 53.1563C42.3358 53.1607 42.3577 53.1696 42.3773 53.1825C42.3968 53.1954 42.4136 53.212 42.4267 53.2314C42.4398 53.2508 42.449 53.2726 42.4537 53.2955C42.4584 53.3184 42.4585 53.3421 42.4541 53.365L42.3276 54.3C42.3138 54.355 42.2827 54.404 42.239 54.44C42.1953 54.476 42.1412 54.4971 42.0846 54.5C41.2403 54.5133 40.4013 54.3645 39.6131 54.0615C39.5525 54.0436 39.5011 54.003 39.4696 53.9481C39.4382 53.8933 39.429 53.8284 39.4441 53.767C39.5221 53.453 39.6166 53.11 39.7291 52.7465C39.7395 52.7001 39.7679 52.6598 39.8081 52.6343C39.8483 52.6088 39.8969 52.6004 39.9434 52.6108C39.9898 52.6212 40.0301 52.6496 40.0556 52.6898C40.0811 52.73 40.0895 52.7786 40.0791 52.825L39.9736 53.636C40.5983 53.8268 41.2419 53.9489 41.8931 54Z" fill="#3A307F"/>
<path d="M39.3476 54.192C38.7476 54.98 38.3511 55.485 38.3756 56.712C38.3841 57.1395 38.4496 57.315 38.4496 57.7915C38.4241 58.036 38.8086 58.055 38.8086 57.823C38.8631 57.5024 38.8914 57.1778 38.8931 56.8525C38.9086 56.042 38.8876 55.8555 39.6536 54.384C39.6662 54.364 39.6747 54.3416 39.6787 54.3182C39.6826 54.2948 39.682 54.2709 39.6767 54.2477C39.6714 54.2246 39.6616 54.2028 39.6478 54.1834C39.6341 54.1641 39.6167 54.1477 39.5966 54.135C39.5765 54.1224 39.5541 54.1139 39.5307 54.11C39.5073 54.106 39.4834 54.1067 39.4603 54.112C39.4372 54.1173 39.4153 54.1271 39.396 54.1408C39.3766 54.1545 39.3602 54.172 39.3476 54.192Z" fill="#3A307F"/>
<path d="M39.379 56.5116C39.5748 56.4941 39.7651 56.4381 39.939 56.3466C40.2667 56.1506 40.5421 55.8782 40.7415 55.5526C40.8316 55.3931 40.9026 55.2236 40.953 55.0476C40.964 55.0267 40.9707 55.004 40.9729 54.9805C40.9751 54.9571 40.9726 54.9335 40.9656 54.911C40.9587 54.8886 40.9474 54.8677 40.9323 54.8496C40.9173 54.8315 40.8988 54.8165 40.878 54.8056C40.8572 54.7946 40.8344 54.7878 40.811 54.7857C40.7876 54.7835 40.764 54.786 40.7415 54.7929C40.719 54.7999 40.6981 54.8112 40.68 54.8263C40.6619 54.8413 40.647 54.8597 40.636 54.8806C40.541 55.0136 40.4235 55.1306 40.319 55.2611C40.0333 55.625 39.6823 55.9326 39.284 56.1681C39.2615 56.1743 39.2404 56.1849 39.2219 56.1993C39.2035 56.2137 39.188 56.2316 39.1765 56.252C39.1649 56.2723 39.1575 56.2947 39.1547 56.318C39.1518 56.3412 39.1535 56.3648 39.1598 56.3873C39.166 56.4099 39.1766 56.431 39.191 56.4494C39.2054 56.4679 39.2233 56.4833 39.2437 56.4948C39.264 56.5064 39.2864 56.5138 39.3097 56.5167C39.3329 56.5195 39.3565 56.5178 39.379 56.5116Z" fill="#3A307F"/>
<path d="M39.4111 56.9675C39.3981 57.0506 39.3804 57.133 39.3581 57.214C39.2651 57.792 39.283 58.3823 39.4111 58.9535C39.4145 59.0017 39.4366 59.0466 39.4727 59.0787C39.5087 59.1109 39.5559 59.1276 39.6042 59.1254C39.6524 59.1231 39.6979 59.1021 39.7308 59.0669C39.7638 59.0316 39.7817 58.9848 39.7806 58.9365C39.8387 58.5482 39.8599 58.1553 39.8441 57.763C39.8543 57.4976 39.8294 57.232 39.7701 56.973C39.7708 56.9254 39.7526 56.8795 39.7195 56.8453C39.6863 56.8111 39.641 56.7915 39.5934 56.7908C39.5458 56.7901 39.4998 56.8083 39.4656 56.8414C39.4315 56.8746 39.4118 56.9199 39.4111 56.9675Z" fill="#3A307F"/>
<path d="M40.256 56.8335C40.219 57.0027 40.2012 57.1757 40.203 57.349C40.2044 57.6897 40.2327 58.0297 40.2875 58.366C40.3231 58.5337 40.3688 58.6992 40.4245 58.8615C40.4303 58.9091 40.4547 58.9526 40.4925 58.9822C40.5303 59.0118 40.5783 59.0252 40.626 59.0195C40.6737 59.0137 40.7171 58.9892 40.7467 58.9514C40.7764 58.9136 40.7898 58.8656 40.784 58.818C40.8241 58.149 40.7671 57.4777 40.615 56.825C40.6139 56.7774 40.5939 56.7321 40.5594 56.6993C40.525 56.6664 40.4789 56.6486 40.4313 56.6497C40.3837 56.6508 40.3384 56.6708 40.3056 56.7053C40.2727 56.7397 40.2549 56.7859 40.256 56.8335Z" fill="#3A307F"/>
<path d="M41.5864 54.9345C41.3209 55.4595 40.8819 56.015 40.9424 56.714C41.0096 57.3665 41.1368 58.0114 41.3224 58.6405C41.3316 58.6869 41.3584 58.7279 41.3972 58.7548C41.4361 58.7818 41.4839 58.7926 41.5305 58.7849C41.5771 58.7772 41.619 58.7517 41.6471 58.7138C41.6753 58.6758 41.6876 58.6284 41.6814 58.5815C41.6604 58.322 41.6394 58.064 41.6184 57.803C41.5969 57.689 41.5864 57.575 41.5759 57.461C41.3384 55.978 41.6019 56.293 41.9259 55.057C41.9422 55.012 41.9399 54.9624 41.9195 54.919C41.8992 54.8757 41.8624 54.8423 41.8174 54.826C41.7724 54.8098 41.7228 54.8121 41.6794 54.8324C41.6361 54.8528 41.6027 54.8895 41.5864 54.9345Z" fill="#3A307F"/>
<path d="M24.7786 55.3779C24.2861 54.8854 24.7201 54.1329 25.4121 54.0004C26.5821 53.7764 29.7536 53.8689 30.9361 53.9234C30.9634 53.9245 30.9902 53.9318 31.0144 53.9446C31.0385 53.9574 31.0595 53.9755 31.0757 53.9976C31.092 54.0196 31.103 54.045 31.1081 54.0719C31.1132 54.0988 31.1122 54.1265 31.1051 54.1529C30.845 55.2078 30.7806 56.3014 30.9151 57.3794C30.9189 57.4114 30.9161 57.4438 30.9068 57.4746C30.8975 57.5054 30.882 57.5339 30.8611 57.5584C30.8403 57.5829 30.8146 57.6029 30.7857 57.617C30.7568 57.6311 30.7252 57.6391 30.6931 57.6404C29.1099 57.7898 27.5186 57.8332 25.9296 57.7704C24.9131 57.7204 24.0476 57.1259 24.6621 56.3644C24.5863 56.2058 24.557 56.0289 24.5776 55.8543C24.5982 55.6797 24.6679 55.5145 24.7786 55.3779ZM30.6931 54.2814C28.965 54.2649 27.2373 54.3425 25.5176 54.5139C25.1726 54.5854 24.9206 54.8914 25.2851 55.1074C25.3222 55.1266 25.3541 55.1544 25.378 55.1886C25.4019 55.2228 25.4171 55.2623 25.4223 55.3037C25.4275 55.3451 25.4226 55.3872 25.4079 55.4262C25.3932 55.4653 25.3693 55.5002 25.3381 55.5279C25.1306 55.7399 25.0171 55.9909 25.2006 56.2249C25.2454 56.2758 25.2683 56.3423 25.2644 56.41C25.2604 56.4777 25.23 56.5411 25.1796 56.5864C25.0606 56.7014 24.9896 56.7899 25.0001 56.8744C25.0361 57.0709 25.6446 57.2214 25.9501 57.2369C27.4395 57.2963 28.931 57.2755 30.4181 57.1744C30.3551 56.2016 30.4479 55.225 30.6931 54.2814Z" fill="#3A307F"/>
<path d="M37.1045 55.0105C36.959 51.9485 34.4315 50.986 32.7315 52.2305C31.135 53.39 30.215 57.664 33.619 58.701C35.219 59.1915 37.228 57.6835 37.1045 55.0105ZM35.2985 54.516C35.63 55.7105 34.976 56.7715 34.1785 56.726C34.0218 56.7077 33.8707 56.6566 33.735 56.576C32.9555 56.18 32.9155 55.3335 33.1965 54.5015C33.558 53.346 34.9285 53.258 35.3 54.516H35.2985Z" fill="#3A307F"/>
<path d="M40.7171 43.0625C40.4521 42.926 40.5011 43.2125 38.8301 45.8655C38.3044 46.4719 37.6305 46.9317 36.8741 47.2C37.2711 46.557 39.9881 42.119 40.2311 41.7335C40.3756 41.5465 40.0811 41.3335 39.9351 41.5335C38.8851 42.959 37.0406 45.9725 36.1751 47.3125C35.5751 47.584 32.0016 48.0125 30.1966 48.3835C29.0766 48.6185 27.9196 48.727 27.1441 49.6445C26.3146 50.604 26.1636 52.1055 25.7396 53.241C25.7224 53.2858 25.7236 53.3357 25.7431 53.3796C25.7626 53.4234 25.7988 53.4578 25.8436 53.475C25.8884 53.4923 25.9383 53.491 25.9821 53.4715C26.026 53.452 26.0604 53.4158 26.0776 53.371C26.1466 53.202 26.2091 53.026 26.2696 52.845C26.8091 52.9371 27.3607 52.9312 27.8981 52.8275C27.8876 53.042 27.8836 53.2555 27.8836 53.468C27.8818 53.5142 27.8977 53.5594 27.9282 53.5942C27.9587 53.629 28.0014 53.6507 28.0474 53.6549C28.0935 53.6592 28.1394 53.6456 28.1757 53.6169C28.2121 53.5883 28.236 53.5468 28.2426 53.501C28.4591 52.251 28.9656 50.2235 27.8331 49.6675C29.2536 48.631 36.0616 48.3085 36.5921 47.653C36.8141 47.6439 37.035 47.6167 37.2526 47.5715C38.1793 47.2162 38.9711 46.5792 39.5166 45.75C39.7386 45.35 40.6221 43.6835 40.8016 43.3095C40.8124 43.2878 40.8187 43.2641 40.8203 43.2399C40.8218 43.2157 40.8186 43.1914 40.8107 43.1684C40.8029 43.1455 40.7906 43.1243 40.7745 43.1061C40.7584 43.088 40.7389 43.0731 40.7171 43.0625ZM27.5561 52.373C27.1721 52.3553 26.7874 52.371 26.4061 52.42C26.4971 52.1255 26.5871 51.8255 26.6871 51.5315C27.0927 51.6143 27.5041 51.6655 27.9176 51.6845C28.0106 51.6845 28.0001 51.558 27.9271 52.4345C27.8047 52.407 27.6808 52.3865 27.5561 52.373ZM28.0001 50.908C28.0061 51.008 28.0046 51.1125 28.0026 51.2155C27.6284 51.1124 27.2406 51.0668 26.8526 51.0805C27.0045 50.6694 27.2275 50.2883 27.5116 49.9545C27.6697 50.0565 27.798 50.1983 27.8838 50.3657C27.9696 50.5331 28.0097 50.7202 28.0001 50.908Z" fill="#3A307F"/>
<path d="M85.2166 54.7446C85.0452 54.4072 84.8017 54.1118 84.5034 53.879C84.2051 53.6463 83.8592 53.4819 83.4904 53.3977C83.1215 53.3134 82.7386 53.3113 82.3689 53.3915C81.9991 53.4716 81.6515 53.6321 81.3506 53.8616C80.8669 54.2269 80.5029 54.728 80.3051 55.3011C79.5976 57.1911 79.7951 59.1251 81.5936 60.0586C81.9431 60.2606 82.3325 60.3841 82.7346 60.4206C83.3104 60.4171 83.8717 60.2395 84.3446 59.9111C84.8176 59.5827 85.1801 59.1188 85.3846 58.5806C85.6366 57.9673 85.7522 57.3065 85.7232 56.644C85.6941 55.9816 85.5213 55.3335 85.2166 54.7446ZM83.9166 56.1446C84.2486 57.3386 83.5946 58.4001 82.7971 58.3546C82.6404 58.3362 82.4893 58.2851 82.3536 58.2046C81.5741 57.8081 81.5341 56.9616 81.8151 56.1301C82.1771 54.9771 83.5471 54.8891 83.9171 56.1471L83.9166 56.1446Z" fill="#3A307F"/>
<path d="M99.3 55.2555C98.986 54.4515 98.394 54.2385 97.5255 54.1895C97.191 54.1705 97.259 54.206 97.261 54.1265C97.299 52.621 97.4955 50.7265 96.861 49.2765C96.8575 49.239 96.8415 49.2037 96.8155 49.1765C95.937 47.3175 94.2915 47.3525 92.8685 47.2465C91.9495 47.1835 91.123 47.2065 90.2595 47.217C88.515 45.362 86.67 43.067 84.313 41.99C82.251 41.057 79.902 41.064 77.6585 40.925C72.8415 40.6335 68.0375 40.912 63.885 40.8395C63.8616 40.8388 63.8382 40.8427 63.8163 40.8511C63.7944 40.8594 63.7743 40.872 63.7572 40.8881C63.7228 40.9206 63.7026 40.9654 63.7012 41.0127C63.7006 41.0362 63.7045 41.0595 63.7128 41.0815C63.7212 41.1034 63.7337 41.1234 63.7498 41.1405C63.7823 41.175 63.8272 41.1951 63.8745 41.1965C68.1745 41.352 77.5295 41.134 81.5985 41.772C85.4985 42.3935 86.9755 44.527 89.9635 47.6585C89.9879 47.6845 90.0174 47.7052 90.0502 47.7192C90.083 47.7332 90.1183 47.7403 90.154 47.74C91.1865 47.722 93.843 47.66 94.833 47.987C95.4288 48.1705 95.9361 48.5671 96.258 49.101C96.002 49.108 95.743 49.1355 95.508 49.1565C95.4693 49.1602 95.4319 49.1728 95.3989 49.1935C95.3659 49.2142 95.3382 49.2422 95.318 49.2755C95.1515 49.6255 95.76 49.812 95.825 52.702C95.825 53.184 95.825 53.661 95.7825 54.124C95.7781 54.1632 95.7859 54.2029 95.805 54.2375C95.555 54.2515 95.598 54.265 95.582 54.2145C95.542 53.9724 95.4209 53.7512 95.2385 53.5871C95.0562 53.423 94.8234 53.3258 94.5785 53.3115C94.4565 53.296 93.499 53.2475 93.29 53.2705C92.6605 53.3445 92.5045 53.7705 92.3475 54.293L91.7535 54.311C91.8805 52.921 92.143 50.902 91.156 49.911C90.6345 49.402 88.95 49.5825 88.1145 49.6505C88.0694 49.6557 88.0263 49.6722 87.9893 49.6984C87.9522 49.7246 87.9223 49.7597 87.9024 49.8005C87.8825 49.8413 87.8732 49.8864 87.8753 49.9318C87.8774 49.9771 87.8909 50.0212 87.9145 50.06C88.6945 51.2685 88.254 54.107 88.2855 54.3015C87.8285 54.276 87.3765 54.236 86.9275 54.1765C85.9585 51.4875 81.1805 50.4235 79.338 54.4395C78.9363 55.4097 78.6767 56.4327 78.567 57.477C75.8395 57.3705 67.7855 57.3685 64.7305 57.5385C64.6816 57.5402 64.6354 57.5611 64.6018 57.5967C64.5682 57.6322 64.5499 57.6796 64.551 57.7285C64.5552 57.7758 64.577 57.8199 64.6123 57.8518C64.6475 57.8836 64.6935 57.9011 64.741 57.9005C66.4855 57.837 77.951 57.9765 78.791 58.023C78.8579 58.0275 78.9239 58.0059 78.9752 57.9627C79.0265 57.9195 79.059 57.8582 79.066 57.7915C79.316 55.988 79.636 54.1625 81.0725 53.0135C82.5615 51.787 85.443 52.2135 86.3725 54.061C86.993 55.292 86.8045 57.1405 86.5225 58.4855C86.5175 58.5095 86.5175 58.5343 86.5225 58.5583C86.5274 58.5823 86.5372 58.605 86.5513 58.6251C86.5653 58.6452 86.5833 58.6622 86.6041 58.675C86.625 58.6879 86.6483 58.6964 86.6725 58.7C86.757 58.8565 86.2755 58.742 94.277 59.0835C95.577 59.1305 96.9635 59.372 98.2485 58.8925C99.3955 58.465 99.7635 56.4245 99.3 55.2555ZM96.2695 51.186C96.4707 51.2254 96.6782 51.2189 96.8765 51.167C96.9211 51.5887 96.9436 52.0124 96.944 52.4365C96.7423 52.3926 96.5328 52.3987 96.334 52.4545C96.3445 52.0306 96.3228 51.6066 96.269 51.186H96.2695ZM96.4615 49.491C96.6278 49.8792 96.7454 50.2864 96.8115 50.7035C96.6075 50.6613 96.397 50.6613 96.193 50.7035C96.1193 50.3233 96.0137 49.95 95.8775 49.5875C96.078 49.5465 96.254 49.513 96.461 49.491H96.4615ZM96.1415 54.174C96.2219 53.7658 96.2788 53.3532 96.312 52.9385C96.5222 52.965 96.7355 52.9523 96.941 52.901C96.931 53.4785 96.8865 54.1085 96.9155 54.1825C96.0115 54.205 96.1315 54.262 96.141 54.174H96.1415ZM93.3415 53.799C93.422 53.7925 94.4765 53.832 94.5245 53.836C94.6646 53.8337 94.8023 53.8723 94.9208 53.947C95.0393 54.0218 95.1333 54.1295 95.1915 54.257C94.3415 54.2435 93.5795 54.2605 92.7615 54.2835C92.9295 53.9815 93.05 53.8245 93.342 53.8L93.3415 53.799ZM88.8555 51.6775C89.6653 51.9171 90.5216 51.9538 91.349 51.7845C91.3905 52.1622 91.4103 52.542 91.4085 52.922C90.639 52.904 89.0795 53.004 88.7925 53.003C88.8433 52.5631 88.8645 52.1203 88.856 51.6775H88.8555ZM90.775 50.2965C91.0627 50.6088 91.2451 51.0035 91.2965 51.425C90.4775 51.3355 89.6543 51.2904 88.8305 51.29C88.7956 50.9003 88.7034 50.5178 88.557 50.155C88.934 50.128 90.524 50.01 90.7755 50.2965H90.775ZM88.751 53.369C89.6278 53.5619 90.5382 53.5405 91.405 53.3065C91.3985 53.672 91.3835 54.0205 91.374 54.324C90.454 54.3485 89.5625 54.361 88.6345 54.324C88.65 54.2715 88.65 54.2165 88.75 53.369H88.751ZM86.896 58.4385C87.2355 57.1739 87.2856 55.8491 87.0425 54.5625C87.619 54.6495 88.205 54.706 88.797 54.742C89.2042 55.3333 89.3852 56.0513 89.307 56.765C89.2609 57.2543 89.1832 57.7402 89.0745 58.2195C89.033 58.3125 88.988 58.4475 88.988 58.4475C88.988 58.4475 87.656 58.434 86.8965 58.4385H86.896ZM92.9165 58.5345C92.9275 58.291 92.9195 57.3805 92.938 57.123C94.0709 57.2516 95.2099 57.3184 96.35 57.323C96.334 57.4895 96.3325 58.267 96.326 58.661C95.5855 58.6645 95.6965 58.6115 92.917 58.5345H92.9165ZM98.0525 58.398C97.6214 58.5526 97.1688 58.6387 96.711 58.653C96.7215 58.57 96.731 58.493 96.7405 58.42C96.884 56.955 96.917 57.0235 96.825 56.9085C96.6805 56.761 96.7425 56.8465 94.29 56.7175C92.636 56.626 92.69 56.521 92.5475 56.6415C92.357 56.805 92.4855 57.4295 92.5575 58.5245C91.4655 58.4945 89.5795 58.4505 89.512 58.4495C89.61 58.1068 89.6861 57.7583 89.74 57.406C89.8737 56.9645 89.9072 56.4986 89.838 56.0425C89.7688 55.5864 89.5986 55.1515 89.34 54.7695C91.326 54.8525 93.4255 54.7375 95.2025 54.781C96.0345 54.799 97.626 54.548 98.361 54.9015C99.3095 55.3865 99.0835 58.01 98.053 58.4L98.0525 58.398Z" fill="#3A307F"/>
<path d="M88.8 47.6285C87.6853 46.1872 86.4134 44.8746 85.008 43.715C84.5383 43.3385 84.0003 43.0563 83.4235 42.884C82.7145 42.7185 78.068 42.961 77.213 43.021C77.1546 43.0257 77.0993 43.0493 77.0555 43.0881C77.0116 43.127 76.9816 43.1791 76.97 43.2365C76.8965 43.6505 77.443 43.4075 78.1635 44.523C78.892 45.617 79.1945 47.1035 80.202 47.75C80.9805 48.269 87.7175 47.9565 88.6625 47.9095C88.6944 47.908 88.7254 47.8979 88.7521 47.8804C88.7788 47.8628 88.8003 47.8384 88.8143 47.8097C88.8284 47.781 88.8345 47.749 88.832 47.7171C88.8294 47.6853 88.8184 47.6547 88.8 47.6285ZM80.487 47.3105C79.4445 46.6295 79.2215 44.6045 78.0155 43.5105C78.5615 43.479 82.773 43.2605 83.297 43.388C83.8123 43.5328 84.2934 43.7791 84.712 44.1125C86.0088 45.1532 87.2107 46.3068 88.3035 47.56C87.6555 47.568 81.0305 47.654 80.4875 47.3105H80.487Z" fill="#3A307F"/>
<path d="M67.3434 43.4335C67.0779 48.8155 67.2649 47.428 66.7434 55.2515C66.7224 55.734 66.7014 56.2165 66.7014 56.6985C66.6993 56.7632 66.7223 56.8261 66.7657 56.8742C66.8091 56.9222 66.8693 56.9515 66.9339 56.956C68.3339 57.053 69.6724 56.956 71.0634 56.9625C71.7019 56.9625 77.9709 57.1735 78.0289 57.079C78.3139 56.8985 78.7289 54.1105 78.7319 54.0575C78.7524 53.071 78.9429 51.594 78.9429 50.2575C79.0279 45.7395 76.4169 43.2455 73.5454 43.17C73.5058 43.1679 73.4666 43.179 73.4339 43.2015C73.3744 43.194 66.4629 42.934 66.4054 42.9325C65.3311 42.9678 64.2557 42.9451 63.1839 42.8645C63.1382 42.8586 63.0919 42.8705 63.0548 42.8978C63.0176 42.9251 62.9923 42.9656 62.9842 43.011C62.9761 43.0564 62.9858 43.1031 63.0112 43.1416C63.0367 43.18 63.0759 43.2072 63.1209 43.2175C64.2089 43.4 64.8089 43.2925 67.3434 43.4335ZM78.2499 54.05C78.2499 55 77.7499 55.836 77.6974 56.7195C76.3424 56.6061 74.982 56.5692 73.6229 56.609C73.6564 55.8995 73.7189 53.6365 73.7189 52.0635C73.7424 48.5995 73.6144 49.067 73.7819 49.0635C74.4689 49.092 77.6914 49.1805 78.3719 49.132C78.5229 50.7025 78.2499 52.5945 78.2499 54.05ZM78.3249 48.7465C76.8162 48.5237 75.2839 48.5095 73.7714 48.7045C73.7433 48.7055 73.716 48.7136 73.6919 48.728C73.6839 48.286 73.6752 47.8442 73.6659 47.4025C73.6244 46.2135 73.7554 44.7 73.6724 43.5395C75.7944 43.738 77.8354 45.4525 78.3234 48.7445L78.3249 48.7465Z" fill="#3A307F"/>
<path d="M76.2101 49.9565C75.9996 49.8965 75.7837 49.8575 75.5656 49.84C75.2501 49.8165 74.3196 49.757 74.3196 50.0735C74.3201 50.1206 74.3393 50.1657 74.3729 50.1987C74.4066 50.2318 74.4519 50.2502 74.4991 50.25C74.5991 50.269 74.7326 50.308 74.8991 50.33C75.3302 50.396 75.7692 50.3921 76.1991 50.3185C76.2228 50.3192 76.2465 50.3152 76.2688 50.3068C76.291 50.2984 76.3114 50.2856 76.3287 50.2693C76.346 50.253 76.3599 50.2335 76.3697 50.2118C76.3795 50.1901 76.3849 50.1667 76.3856 50.143C76.3863 50.1192 76.3823 50.0955 76.3739 50.0733C76.3655 50.051 76.3527 50.0307 76.3364 50.0134C76.3202 49.996 76.3006 49.9821 76.2789 49.9723C76.2572 49.9626 76.2338 49.9572 76.2101 49.9565Z" fill="#3A307F"/>
<path d="M62.8379 53.9205L62.7959 53.595C62.789 53.5483 62.8003 53.5007 62.8275 53.4622C62.8548 53.4237 62.8958 53.3972 62.9421 53.3882C62.9885 53.3793 63.0365 53.3885 63.0761 53.4141C63.1158 53.4397 63.144 53.4796 63.1549 53.5255L63.2919 53.9985C63.2987 54.0422 63.2934 54.0869 63.2766 54.1279C63.2599 54.1688 63.2324 54.2045 63.1969 54.231C62.484 54.7672 61.662 55.1404 60.7889 55.324C60.3919 55.421 60.4519 54.832 60.3134 54.1475C60.3014 54.101 60.3082 54.0517 60.3325 54.0104C60.3568 53.969 60.3965 53.939 60.4429 53.927C60.4893 53.9149 60.5387 53.9218 60.58 53.946C60.6214 53.9703 60.6514 54.01 60.6634 54.0565C60.7533 54.2874 60.8309 54.5229 60.8959 54.762C61.5693 54.5458 62.2197 54.2639 62.8379 53.9205Z" fill="#3A307F"/>
<path d="M60.9051 55.474C60.5301 55.9765 60.3533 56.5995 60.4086 57.224C60.4391 57.3985 60.5036 57.563 60.5356 57.734C60.5385 57.783 60.5608 57.8289 60.5975 57.8615C60.6342 57.894 60.6824 57.9107 60.7314 57.9078C60.7804 57.9049 60.8262 57.8826 60.8588 57.8459C60.8914 57.8092 60.908 57.761 60.9051 57.712C60.9051 56.568 60.8826 56.9525 61.2431 55.6065C61.2607 55.5617 61.2597 55.5117 61.2405 55.4676C61.2212 55.4235 61.1852 55.3889 61.1404 55.3713C61.0955 55.3537 61.0456 55.3547 61.0015 55.3739C60.9573 55.3932 60.9227 55.4292 60.9051 55.474Z" fill="#3A307F"/>
<path d="M61.4544 56.935C61.3951 57.1157 61.3561 57.3023 61.3379 57.4915C61.2903 57.9152 61.2656 58.3412 61.2639 58.7675C61.255 58.8147 61.2649 58.8634 61.2914 58.9033C61.3179 58.9433 61.3589 58.9713 61.4057 58.9815C61.4526 58.9916 61.5015 58.9831 61.5422 58.9577C61.5829 58.9324 61.612 58.8921 61.6234 58.8455C61.8602 58.2449 61.9225 57.5895 61.8029 56.955C61.8042 56.9322 61.801 56.9092 61.7935 56.8876C61.786 56.866 61.7742 56.846 61.759 56.8289C61.7437 56.8118 61.7252 56.7979 61.7046 56.7879C61.684 56.7779 61.6616 56.7721 61.6387 56.7708C61.6158 56.7695 61.5929 56.7727 61.5712 56.7802C61.5496 56.7878 61.5297 56.7995 61.5125 56.8148C61.4954 56.83 61.4815 56.8485 61.4715 56.8691C61.4616 56.8898 61.4557 56.9122 61.4544 56.935Z" fill="#3A307F"/>
<path d="M62.4365 58.9025C62.5499 58.666 62.6178 58.4102 62.6365 58.1485C62.6983 57.7727 62.7054 57.3899 62.6575 57.012C62.6594 56.9646 62.6432 56.9183 62.6121 56.8825C62.581 56.8467 62.5374 56.8241 62.4902 56.8194C62.443 56.8147 62.3958 56.8282 62.3582 56.8571C62.3206 56.886 62.2955 56.9282 62.288 56.975C62.1213 57.5795 62.0538 58.207 62.088 58.833C62.0834 58.8559 62.0834 58.8795 62.0879 58.9024C62.0925 58.9252 62.1015 58.947 62.1144 58.9664C62.1274 58.9858 62.144 59.0025 62.1634 59.0155C62.1828 59.0284 62.2046 59.0375 62.2275 59.042C62.2504 59.0466 62.2739 59.0466 62.2968 59.0421C62.3197 59.0375 62.3415 59.0285 62.3609 59.0156C62.3803 59.0026 62.3969 58.986 62.4099 58.9666C62.4229 58.9472 62.4319 58.9254 62.4365 58.9025Z" fill="#3A307F"/>
<path d="M63.2604 58.55C63.3907 58.0008 63.4441 57.4363 63.4189 56.8725C63.4823 56.1737 63.3996 55.4695 63.1759 54.8045C63.1619 54.7581 63.13 54.7191 63.0873 54.6962C63.0446 54.6732 62.9946 54.6682 62.9481 54.6822C62.9017 54.6962 62.8628 54.7281 62.8399 54.7708C62.8169 54.8135 62.8119 54.8636 62.8259 54.91C62.9139 56.1078 62.9368 57.3096 62.8944 58.51C62.8891 58.5585 62.9033 58.6072 62.9338 58.6452C62.9644 58.6833 63.0089 58.7077 63.0574 58.713C63.1059 58.7183 63.1546 58.7041 63.1926 58.6735C63.2307 58.6429 63.2551 58.5985 63.2604 58.55Z" fill="#3A307F"/>
</svg>
